# Exported from USD: /NEX35_C00/link_6_t/collisions/nex35_link_6_t/mesh
mtllib mesh_14.mtl

g mesh
v -0.00000004 -0.03645002 -0.00000000
v -0.01074404 -0.03483104 -0.00000000
v -0.02479205 -0.02672004 0.00000000
v -0.03393005 -0.01331698 0.00000000
v -0.03634805 -0.00272405 0.00000000
v -0.03553605 0.00811101 0.00000000
v -0.03393005 0.01331699 0.00000000
v -0.03156705 0.01822496 0.00000000
v -0.02849805 0.02272595 0.00000000
v -0.02479205 0.02671993 0.00000000
v -0.02053305 0.03011597 0.00000000
v -0.01581505 0.03284002 0.00000000
v -0.01074405 0.03482998 0.00000000
v -0.00543305 0.03604294 0.00000000
v 0.01074395 0.03482998 0.00000000
v 0.02849795 0.02272595 -0.00000000
v 0.03156695 0.01822496 -0.00000000
v 0.03553595 0.00811101 -0.00000000
v 0.03392996 -0.01331698 -0.00000000
v 0.03156696 -0.01822506 -0.00000000
v 0.02479196 -0.02672004 -0.00000000
v 0.02053296 -0.03011703 -0.00000000
v 0.01074396 -0.03483104 -0.00000000
v 0.00543296 -0.03604304 -0.00000000
v -0.00000004 -0.03675007 0.00030005
v -0.01083204 -0.03511702 0.00030005
v -0.01594505 -0.03311109 0.00030005
v -0.02499605 -0.02693998 0.00030005
v -0.02873205 -0.02291309 0.00030005
v -0.03182605 -0.01837503 0.00030005
v -0.03664705 -0.00274598 0.00030005
v -0.03664705 0.00274599 0.00030005
v -0.03182605 0.01837493 0.00030005
v -0.02499605 0.02693999 0.00030005
v -0.02070205 0.03036392 0.00030005
v -0.00547705 0.03633893 0.00030005
v -0.00000005 0.03644992 0.00000000
v -0.03634805 0.00272394 0.00000000
v -0.03553605 -0.00811099 0.00000000
v -0.03156705 -0.01822507 0.00000000
v -0.02849805 -0.02272605 0.00000000
v -0.02053305 -0.03011703 0.00000000
v -0.01581504 -0.03284001 -0.00000000
v -0.00543304 -0.03604304 -0.00000000
v 0.01581496 -0.03284000 -0.00000000
v 0.02849796 -0.02272605 -0.00000000
v 0.03553595 -0.00811099 -0.00000000
v 0.03634796 -0.00272404 -0.00000000
v 0.03634796 0.00272394 -0.00000000
v 0.03392995 0.01331700 -0.00000000
v 0.02479195 0.02671994 -0.00000000
v 0.02053295 0.03011597 -0.00000000
v 0.01581495 0.03284002 0.00000000
v 0.00543295 0.03604294 0.00000000
v -0.00000005 0.03674997 0.00030005
v 0.02070195 0.03036393 0.00030005
v 0.02873195 0.02291299 0.00030005
v 0.03182595 0.01837493 0.00030005
v 0.03420995 0.01342596 0.00030005
v 0.03420996 -0.01342606 0.00030004
v 0.03182596 -0.01837503 0.00030004
v 0.02873196 -0.02291309 0.00030005
v 0.01594496 -0.03311109 0.00030005
v 0.01083196 -0.03511702 0.00030005
v 0.00547696 -0.03633904 0.00030005
v -0.01083205 0.03511692 0.00030005
v -0.01594505 0.03311098 0.00030005
v -0.02873205 0.02291298 0.00030005
v -0.03421005 0.01342595 0.00030005
v -0.03582905 0.00817800 0.00030005
v -0.03582905 -0.00817799 0.00030005
v -0.03421005 -0.01342606 0.00030005
v -0.02070205 -0.03036403 0.00030005
v -0.00547704 -0.03633904 0.00030005
v -0.00000004 -0.03675007 0.01999998
v -0.01083204 -0.03511702 0.01999998
v -0.02873204 -0.02291309 0.01999998
v -0.03582905 -0.00817799 0.01999999
v -0.03664705 0.00274599 0.01999999
v -0.03582905 0.00817800 0.01999999
v -0.02499605 0.02693999 0.01999999
v -0.02070205 0.03036392 0.01999999
v -0.01594505 0.03311098 0.01999999
v -0.00547705 0.03633893 0.01999998
v 0.02070196 -0.03036403 0.00030005
v 0.02499596 -0.02693998 0.00030005
v 0.03582896 -0.00817799 0.00030005
v 0.03664695 -0.00274598 0.00030005
v 0.03664695 0.00274600 0.00030005
v 0.03582895 0.00817801 0.00030005
v 0.02499595 0.02694000 0.00030005
v 0.01594495 0.03311099 0.00030005
v 0.01083195 0.03511692 0.00030005
v 0.00547695 0.03633893 0.00030005
v -0.00000005 0.03674997 0.01999998
v 0.01594495 0.03311098 0.01999998
v 0.03182596 0.01837493 0.01999998
v 0.03420996 0.01342596 0.01999998
v 0.03664696 0.00274600 0.01999998
v 0.03664696 -0.00274598 0.01999998
v 0.03582896 -0.00817799 0.01999998
v 0.02499596 -0.02693998 0.01999998
v 0.02070196 -0.03036403 0.01999998
v 0.01594496 -0.03311109 0.01999998
v -0.01083205 0.03511692 0.01999999
v -0.02873205 0.02291298 0.01999999
v -0.03182605 0.01837492 0.01999999
v -0.03421005 0.01342595 0.01999999
v -0.03664705 -0.00274598 0.01999999
v -0.03421005 -0.01342606 0.01999999
v -0.03182605 -0.01837503 0.01999998
v -0.02499604 -0.02693998 0.01999998
v -0.02070204 -0.03036403 0.01999998
v -0.01594504 -0.03311109 0.01999998
v -0.00547704 -0.03633904 0.01999998
v 0.00547696 -0.03633904 0.01999998
v 0.01083196 -0.03511702 0.01999998
v 0.02873196 -0.02291309 0.01999998
v 0.03182596 -0.01837503 0.01999998
v 0.03420996 -0.01342606 0.01999998
v 0.03582896 0.00817800 0.01999998
v 0.02873196 0.02291299 0.01999998
v 0.02499595 0.02694000 0.01999998
v 0.02070196 0.03036393 0.01999998
v 0.01083195 0.03511692 0.01999998
v 0.00547695 0.03633893 0.01999998
vt 0.00000000 0.00000000
vt 0.00000000 0.00000000
vt 0.00000000 0.00000000
vt 0.00000000 0.00000000
vt 0.00000000 0.66666698
vt 0.00000000 0.00000000
vt 0.00000000 0.00000000
vt 0.08627500 0.78431398
vt 0.00000000 0.00000000
vt 0.00000000 0.00000000
vt 0.00000000 0.00000000
vt 0.00000000 0.00000000
vt 0.00000000 0.00000000
vt 0.00392200 0.57647097
vt 0.00000000 0.00000000
vt 0.00000000 0.00000000
vt 0.00000000 0.00000000
vt 0.00000000 0.00000000
vt 0.00000000 0.00000000
vt 0.00000000 0.00000000
vt 0.00000000 0.00000000
vt 0.00000000 0.00000000
vt 0.00000000 0.00000000
vt 0.00000000 0.00000000
vt 0.00000000 0.00000000
vt 0.00000000 0.23921600
vt 0.00000000 0.00000000
vt 0.00000000 0.00000000
vt 0.31764701 0.03137300
vt 0.00000000 0.00000000
vt 0.00000000 0.00000000
vt 0.00000000 0.47451001
vt 0.00000000 0.00000000
vt 0.00000000 0.00000000
vt 0.00000000 0.00000000
vt 0.00000000 0.00000000
vt 0.00000000 0.00000000
vt 0.00000000 0.00000000
vt 0.00000000 0.00000000
vt 0.00000000 0.00000000
vt 0.74901998 0.06666700
vt 0.00000000 0.00000000
vt 0.00000000 0.00000000
vt 0.00000000 0.00000000
vt 0.00000000 0.00000000
vt 0.00000000 0.00000000
vt 0.94902003 0.28235301
vt 0.00000000 0.00000000
vt 0.00000000 0.00000000
vt 0.00000000 0.00000000
vt 0.00000000 0.00000000
vt 0.00000000 0.00000000
vt 0.00000000 0.00000000
vt 0.00000000 0.00000000
vt 0.00000000 0.00000000
vt 0.00000000 0.00000000
vt 0.00000000 0.00000000
vt 0.00000000 0.00000000
vt 0.97647101 0.64705902
vt 0.00000000 0.00000000
vt 0.00000000 0.00000000
vt 0.00000000 0.23921600
vt 0.00000000 0.00000000
vt 0.00000000 0.00000000
vt 0.68235302 0.96862799
vt 0.00000000 0.00000000
vt 0.00000000 0.00000000
vt 0.00000000 0.00000000
vt 1.00000000 0.61960799
vt 1.00000000 0.57254899
vt 0.31764701 0.03137300
vt 0.00000000 0.00000000
vt 0.00000000 0.00000000
vt 0.31764701 0.03137300
vt 0.08627500 0.21568599
vt 0.00000000 0.00000000
vt 0.31764701 0.03137300
vt 0.00000000 0.00000000
vt 0.00000000 0.00000000
vt 0.31764701 0.03137300
vt 0.00000000 0.50196099
vt 0.00000000 0.00000000
vt 0.31764701 0.03137300
vt 0.00000000 0.00000000
vt 0.00000000 0.00000000
vt 0.31764701 0.03137300
vt 0.00000000 0.00000000
vt 0.00000000 0.00000000
vt 0.31764701 0.03137300
vt 0.00000000 0.19215700
vt 0.00000000 0.00000000
vt 0.31764701 0.03137300
vt 0.00000000 0.00000000
vt 0.00000000 0.00000000
vt 0.31764701 0.03137300
vt 0.00000000 0.33333299
vt 0.00000000 0.00000000
vt 0.31764701 0.03137300
vt 0.00000000 0.00000000
vt 0.00000000 0.00000000
vt 0.31764701 0.03137300
vt 0.00000000 0.00000000
vt 0.00000000 0.00000000
vt 0.31764701 0.03137300
vt 0.00000000 0.00000000
vt 0.00000000 0.00000000
vt 0.31764701 0.03137300
vt 0.00000000 0.00000000
vt 0.00000000 0.00000000
vt 0.31764701 0.03137300
vt 0.99607801 0.57647097
vt 0.00000000 0.00000000
vt 0.31764701 0.03137300
vt 0.00000000 0.00000000
vt 0.00000000 0.00000000
vt 0.31764701 0.03137300
vt 0.00000000 0.00000000
vt 0.00000000 0.00000000
vt 0.31764701 0.03137300
vt 0.00000000 0.00000000
vt 0.00000000 0.00000000
vt 0.31764701 0.03137300
vt 0.00000000 0.23921600
vt 0.00000000 0.00000000
vt 0.31764701 0.03137300
vt 0.74901998 0.06666700
vt 0.00000000 0.00000000
vt 0.31764701 0.03137300
vt 0.00000000 0.00000000
vt 0.00000000 0.00000000
vt 0.31764701 0.03137300
vt 0.00000000 0.00000000
vt 0.00000000 0.00000000
vt 0.00000000 0.00000000
vt 0.00000000 0.00000000
vt 0.00000000 0.33333299
vt 1.00000000 0.33333299
vt 0.00000000 0.00000000
vt 0.00000000 0.00000000
vt 0.00000000 0.23921600
vt 1.00000000 0.23921600
vt 0.00000000 0.00000000
vt 0.00000000 0.00000000
vt 0.00000000 0.00000000
vt 0.00000000 0.23921600
vt 0.00000000 0.00000000
vt 0.00000000 0.66666698
vt 1.00000000 0.33333299
vt 1.00000000 0.28627500
vt 0.00000000 0.00000000
vt 0.00000000 0.00000000
vt 0.81176502 0.89019603
vt 0.74901998 0.93333298
vt 0.00000000 0.00000000
vt 0.25097999 0.06666700
vt 1.00000000 0.66666698
vt 1.00000000 0.71372598
vt 0.00000000 0.00000000
vt 0.00000000 0.23921600
vt 0.00000000 0.00000000
vt 0.00000000 0.00000000
vt 0.00000000 0.00000000
vt 0.00000000 0.50196099
vt 0.00000000 0.00000000
vt 0.00000000 0.00000000
vt 0.81176502 0.89019603
vt 0.00000000 0.00000000
vt 1.00000000 0.76078397
vt 0.86666697 0.83921599
vt 1.00000000 0.85882401
vt 0.00000000 0.00000000
vt 0.00000000 0.00000000
vt 1.00000000 0.90588200
vt 0.00000000 0.85882401
vt 0.08627500 0.78431398
vt 0.00000000 0.00000000
vt 1.00000000 0.85882401
vt 0.00000000 0.00000000
vt 0.00000000 0.00000000
vt 0.00000000 0.00000000
vt 0.00000000 0.00000000
vt 0.00000000 0.00000000
vt 0.00000000 0.00000000
vt 0.00000000 0.00000000
vt 0.00000000 0.00000000
vt 0.00000000 0.00000000
vt 0.00000000 0.00000000
vt 0.00000000 0.23921600
vt 0.00000000 0.19215700
vt 0.00000000 0.00000000
vt 0.00000000 0.00000000
vt 0.00000000 0.00000000
vt 0.00000000 0.00000000
vt 0.00000000 0.00000000
vt 1.00000000 0.95294100
vt 0.00000000 0.00000000
vt 0.00000000 0.00000000
vt 0.99607801 0.57647097
vt 0.00000000 0.00000000
vt 0.00000000 0.00000000
vt 0.00000000 0.00000000
vt 1.00000000 0.09411800
vt 0.00000000 0.90588200
vt 0.00000000 0.00000000
vt 1.00000000 0.14117600
vt 0.00000000 0.00000000
vt 0.00000000 0.00000000
vt 0.00000000 0.00000000
vt 0.00000000 0.00000000
vt 1.00000000 0.52548999
vt 1.00000000 0.42745101
vt 0.00000000 0.00000000
vt 0.00000000 0.52548999
vt 1.00000000 0.23921600
vt 0.00000000 0.00000000
vt 0.00000000 0.00000000
vt 1.00000000 0.28627500
vt 1.00000000 0.28627500
vt 0.00000000 0.00000000
vt 0.00000000 0.00000000
vt 1.00000000 0.33333299
vt 1.00000000 0.23921600
vt 0.00000000 0.00000000
vt 0.00000000 0.71372598
vt 1.00000000 0.71372598
vt 0.00000000 0.00000000
vt 0.00000000 0.00000000
vt 1.00000000 0.23921600
vt 1.00000000 0.28627500
vt 0.00000000 0.00000000
vt 0.00000000 0.00000000
vt 0.00000000 0.00000000
vt 0.00000000 0.38039199
vt 0.00000000 0.00000000
vt 0.00000000 0.00000000
vt 0.74901998 0.93333298
vt 0.68235302 0.96862799
vt 1.00000000 0.47451001
vt 0.00000000 0.00000000
vt 0.00000000 0.00000000
vt 1.00000000 0.52548999
vt 0.00000000 0.00000000
vt 0.00000000 0.00000000
vt 0.00000000 0.00000000
vt 0.00000000 0.00000000
vt 0.00000000 0.57254899
vt 1.00000000 0.57254899
vt 1.00000000 0.61960799
vt 0.00000000 0.14117600
vt 1.00000000 0.09411800
vt 1.00000000 0.14117600
vt 0.00000000 0.14117600
vt 1.00000000 0.14117600
vt 0.00000000 0.19215700
vt 0.00000000 0.42745101
vt 1.00000000 0.38039199
vt 1.00000000 0.42745101
vt 0.00000000 0.42745101
vt 1.00000000 0.42745101
vt 0.00000000 0.47451001
vt 0.00000000 0.14117600
vt 1.00000000 0.19215700
vt 0.00000000 0.19215700
vt 1.00000000 0.33333299
vt 0.00000000 0.33333299
vt 0.00000000 0.28627500
vt 1.00000000 0.33333299
vt 0.00000000 0.28627500
vt 1.00000000 0.28627500
vt 1.00000000 0.95294100
vt 0.00000000 0.00000000
vt 0.00000000 0.90588200
vt 0.00000000 0.00000000
vt 0.00000000 0.52548999
vt 0.00000000 0.47451001
vt 1.00000000 0.47451001
vt 1.00000000 0.52548999
vt 0.00000000 0.00000000
vt 0.00000000 0.42745101
vt 0.00000000 0.00000000
vt 0.00000000 0.00000000
vt 0.00000000 0.00000000
vt 0.00000000 0.00000000
vt 0.00000000 0.66666698
vt 0.00000000 0.00000000
vt 0.00000000 0.00000000
vt 0.13333300 0.83921599
vt 0.00000000 0.00000000
vt 0.13333300 0.83921599
vt 0.08627500 0.78431398
vt 0.00000000 0.00000000
vt 0.00000000 0.00000000
vt 0.00392200 0.57647097
vt 0.00000000 0.00000000
vt 0.00000000 0.00000000
vt 0.00000000 0.19215700
vt 0.00000000 0.00000000
vt 0.00000000 0.19215700
vt 0.00000000 0.23921600
vt 0.00000000 0.00000000
vt 0.00000000 0.00000000
vt 0.25097999 0.06666700
vt 0.00000000 0.00000000
vt 0.25097999 0.06666700
vt 0.31764701 0.03137300
vt 0.00000000 0.00000000
vt 0.00000000 0.00000000
vt 0.00000000 0.47451001
vt 0.00000000 0.00000000
vt 0.00000000 0.00000000
vt 0.74901998 0.06666700
vt 0.00000000 0.00000000
vt 0.00000000 0.00000000
vt 0.91372597 0.21568599
vt 0.00000000 0.00000000
vt 0.91372597 0.21568599
vt 0.94902003 0.28235301
vt 0.00000000 0.00000000
vt 0.00000000 0.00000000
vt 0.97647101 0.64705902
vt 0.00000000 0.00000000
vt 0.00000000 0.00000000
vt 0.00000000 0.19215700
vt 0.00000000 0.00000000
vt 0.00000000 0.19215700
vt 0.00000000 0.23921600
vt 0.00000000 0.00000000
vt 0.00000000 0.00000000
vt 0.74901998 0.93333298
vt 0.00000000 0.00000000
vt 0.74901998 0.93333298
vt 0.68235302 0.96862799
vt 0.00000000 0.00000000
vt 0.00000000 0.00000000
vt 0.00000000 0.47451001
vt 0.00000000 0.00000000
vt 0.00000000 0.00000000
vt 1.00000000 0.52548999
vt 1.00000000 0.57254899
vt 1.00000000 0.47451001
vt 0.00000000 0.00000000
vt 0.00000000 0.42745101
vt 1.00000000 0.57254899
vt 1.00000000 0.61960799
vt 0.00000000 0.00000000
vt 0.00000000 0.00000000
vt 1.00000000 0.66666698
vt 1.00000000 0.66666698
vt 0.00000000 0.00000000
vt 0.00000000 0.00000000
vt 1.00000000 0.71372598
vt 1.00000000 0.23921600
vt 0.00000000 0.00000000
vt 0.00000000 0.19215700
vt 0.00000000 0.00000000
vt 0.31764701 0.03137300
vt 0.25097999 0.06666700
vt 0.00000000 0.00000000
vt 0.31764701 0.03137300
vt 0.00000000 0.00000000
vt 0.08627500 0.21568599
vt 0.31764701 0.03137300
vt 0.00000000 0.00000000
vt 0.00392200 0.42352900
vt 0.31764701 0.03137300
vt 0.00392200 0.42352900
vt 0.00000000 0.50196099
vt 0.31764701 0.03137300
vt 0.00000000 0.00000000
vt 0.00000000 0.19215700
vt 0.31764701 0.03137300
vt 0.00000000 0.00000000
vt 0.00000000 0.33333299
vt 0.31764701 0.03137300
vt 0.00000000 0.00000000
vt 0.68235302 0.96862799
vt 0.31764701 0.03137300
vt 0.68235302 0.96862799
vt 0.74901998 0.93333298
vt 0.31764701 0.03137300
vt 0.74901998 0.93333298
vt 0.81176502 0.89019603
vt 0.31764701 0.03137300
vt 0.81176502 0.89019603
vt 0.86666697 0.83921599
vt 0.31764701 0.03137300
vt 0.86666697 0.83921599
vt 0.91372597 0.78431398
vt 0.31764701 0.03137300
vt 0.91372597 0.78431398
vt 0.94902003 0.71764702
vt 0.31764701 0.03137300
vt 0.94902003 0.71764702
vt 0.97647101 0.64705902
vt 0.31764701 0.03137300
vt 0.97647101 0.64705902
vt 0.99607801 0.57647097
vt 0.31764701 0.03137300
vt 0.00000000 0.00000000
vt 0.00000000 0.19215700
vt 0.31764701 0.03137300
vt 0.00000000 0.19215700
vt 0.00000000 0.23921600
vt 0.31764701 0.03137300
vt 0.00000000 0.00000000
vt 0.74901998 0.06666700
vt 0.31764701 0.03137300
vt 0.00000000 0.00000000
vt 0.00000000 0.52548999
vt 0.31764701 0.03137300
vt 0.00000000 0.52548999
vt 0.00000000 0.57254899
vt 0.00000000 0.57254899
vt 0.00000000 0.52548999
vt 1.00000000 0.47451001
vt 1.00000000 0.42745101
vt 0.00000000 0.00000000
vt 0.18823500 0.89019603
vt 0.00000000 0.00000000
vt 0.00000000 0.00000000
vt 0.00000000 0.00000000
vt 0.00000000 0.61960799
vt 1.00000000 0.38039199
vt 1.00000000 0.33333299
vt 0.61176503 0.98823500
vt 1.00000000 0.42745101
vt 0.00000000 0.00000000
vt 0.68235302 0.96862799
vt 1.00000000 0.23921600
vt 0.00000000 0.23921600
vt 0.00000000 0.19215700
vt 1.00000000 0.19215700
vt 0.00000000 0.00000000
vt 0.00000000 0.19215700
vt 0.00000000 0.00000000
vt 0.00000000 0.00000000
vt 0.00000000 0.00000000
vt 0.13333300 0.83921599
vt 0.00000000 0.00000000
vt 0.00000000 0.00000000
vt 0.00000000 0.19215700
vt 0.00000000 0.14117600
vt 0.00000000 0.00000000
vt 0.00000000 0.00000000
vt 0.86666697 0.83921599
vt 1.00000000 0.76078397
vt 0.00000000 0.00000000
vt 0.91372597 0.78431398
vt 1.00000000 0.90588200
vt 0.00000000 0.00000000
vt 0.00000000 0.00000000
vt 1.00000000 0.95294100
vt 0.00000000 0.00000000
vt 1.00000000 0.95294100
vt 1.00000000 0.90588200
vt 0.00000000 0.00000000
vt 0.00000000 0.00000000
vt 0.00000000 0.00000000
vt 1.00000000 0.85882401
vt 1.00000000 0.90588200
vt 0.00000000 0.14117600
vt 1.00000000 0.85882401
vt 0.00000000 0.00000000
vt 0.00000000 0.00000000
vt 1.00000000 0.90588200
vt 1.00000000 0.85882401
vt 0.00000000 0.14117600
vt 0.00000000 0.00000000
vt 0.02352900 0.64705902
vt 1.00000000 0.90588200
vt 1.00000000 0.95294100
vt 0.94902003 0.71764702
vt 1.00000000 0.14117600
vt 1.00000000 0.09411800
vt 0.97647101 0.64705902
vt 0.97647101 0.64705902
vt 0.00000000 0.00000000
vt 0.00000000 0.00000000
vt 0.99607801 0.57647097
vt 1.00000000 0.47451001
vt 0.00000000 0.47451001
vt 0.00000000 0.42745101
vt 1.00000000 0.42745101
vt 0.00000000 1.00000000
vt 0.00392200 0.57647097
vt 1.00000000 0.95294100
vt 0.00000000 0.00000000
vt 0.00392200 0.42352900
vt 0.02352900 0.35294101
vt 1.00000000 0.90588200
vt 1.00000000 0.95294100
vt 0.00000000 0.00000000
vt 0.00000000 0.50196099
vt 0.00000000 0.00000000
vt 1.00000000 0.95294100
vt 0.00000000 0.00000000
vt 0.00000000 0.00000000
vt 0.00000000 0.00000000
vt 0.00000000 0.00000000
vt 0.00000000 0.00000000
vt 0.00000000 0.00000000
vt 1.00000000 0.85882401
vt 1.00000000 0.90588200
vt 0.00000000 0.00000000
vt 0.00000000 0.00000000
vt 0.00000000 0.00000000
vt 0.00000000 0.00000000
vt 1.00000000 0.09411800
vt 0.00000000 0.14117600
vt 0.00000000 0.00000000
vt 0.25097999 0.06666700
vt 0.31764701 0.03137300
vt 1.00000000 0.61960799
vt 1.00000000 0.66666698
vt 0.91372597 0.78431398
vt 0.00000000 0.00000000
vt 1.00000000 0.14117600
vt 0.94902003 0.71764702
vt 1.00000000 0.14117600
vt 0.00000000 0.00000000
vt 0.00000000 0.19215700
vt 0.08627500 0.21568599
vt 0.13333300 0.16078401
vt 1.00000000 0.23921600
vt 1.00000000 0.19215700
vt 0.00000000 0.00000000
vt 0.00000000 0.19215700
vt 1.00000000 0.80784303
vt 1.00000000 0.76078397
vt 1.00000000 0.14117600
vt 0.00000000 0.14117600
vt 0.00000000 0.00000000
vt 1.00000000 0.09411800
vt 0.00000000 0.00000000
vt 0.00000000 0.00000000
vt 0.00000000 0.00000000
vt 0.00000000 0.00000000
vt 0.00000000 0.00000000
vt 0.18823500 0.10980400
vt 0.00000000 0.00000000
vt 0.00000000 0.00000000
vt 1.00000000 0.09411800
vt 0.00000000 0.00000000
vt 0.00000000 0.04705900
vt 0.00000000 0.00000000
vt 0.00000000 0.00000000
vt 0.25097999 0.06666700
vt 0.00000000 0.00000000
vt 0.00000000 0.00000000
vt 0.00000000 0.57254899
vt 1.00000000 0.61960799
vt 0.00000000 0.00000000
vt 0.81176502 0.10980400
vt 1.00000000 0.28627500
vt 1.00000000 0.33333299
vt 0.74901998 0.06666700
vt 0.00000000 0.00000000
vt 0.00000000 0.57254899
vt 0.00000000 0.00000000
vt 0.00000000 0.00000000
vt 1.00000000 0.61960799
vt 0.00000000 0.00000000
vt 0.00000000 0.57254899
vt 1.00000000 0.42745101
vt 0.74901998 0.06666700
vt 1.00000000 0.33333299
vt 1.00000000 0.38039199
vt 0.00000000 0.38039199
vt 1.00000000 0.38039199
vt 0.00000000 0.42745101
vt 0.31764701 0.03137300
vt 1.00000000 0.85882401
vt 0.00000000 0.85882401
vt 0.00000000 0.00000000
vt 1.00000000 0.19215700
vt 0.00000000 0.00000000
vt 1.00000000 0.47451001
vt 1.00000000 0.52548999
vt 0.00000000 0.52548999
vt 1.00000000 0.42745101
vt 1.00000000 0.52548999
vt 0.00000000 0.00000000
vt 0.00000000 0.00000000
vt 1.00000000 0.47451001
vt 0.00000000 0.52548999
vt 0.00000000 0.47451001
vt 0.00000000 0.00000000
vt 1.00000000 0.57254899
vt 0.00000000 0.00000000
vt 0.00000000 0.00000000
f 99/1 121/2 98/3
f 99/4 97/5 122/6
f 99/7 124/8 96/9
f 99/10 96/11 125/12
f 99/13 126/14 95/15
f 99/16 95/17 84/18
f 99/19 84/20 105/21
f 99/22 105/23 83/24
f 99/25 81/26 106/27
f 99/28 108/29 80/30
f 99/31 79/32 109/33
f 99/34 109/35 78/36
f 99/37 78/38 110/39
f 99/40 111/41 77/42
f 99/43 77/44 112/45
f 99/46 114/47 76/48
f 99/49 76/50 115/51
f 99/52 115/53 75/54
f 99/55 75/56 116/57
f 99/58 117/59 104/60
f 99/61 102/62 118/63
f 99/64 120/65 101/66
f 39/67 4/68 72/69 71/70
f 19/71 46/72 21/73
f 19/74 22/75 45/76
f 19/77 45/78 23/79
f 19/80 1/81 44/82
f 19/83 44/84 2/85
f 19/86 2/87 43/88
f 19/89 42/90 3/91
f 19/92 3/93 41/94
f 19/95 40/96 4/97
f 19/98 4/99 39/100
f 19/101 39/102 5/103
f 19/104 5/105 38/106
f 19/107 38/108 6/109
f 19/110 14/111 37/112
f 19/113 37/114 54/115
f 19/116 54/117 15/118
f 19/119 15/120 53/121
f 19/122 51/123 16/124
f 19/125 17/126 50/127
f 19/128 50/129 18/130
f 19/131 18/132 49/133
f 72/134 4/135 40/136 30/137
f 62/138 118/139 102/140 86/141
f 91/142 57/143 16/144 51/145
f 122/146 97/147 58/148 57/149
f 33/150 68/151 9/152 8/153
f 46/154 20/155 61/156 62/157
f 106/158 81/159 34/160 68/161
f 44/162 1/163 25/164 74/165
f 9/166 68/167 34/168 10/169
f 63/170 104/171 117/172 64/173
f 96/174 124/175 56/176 92/177
f 65/178 116/179 75/180 25/181
f 25/182 75/183 115/184 74/185
f 56/186 91/187 51/188 52/189
f 84/190 95/191 55/192 36/193
f 55/194 94/195 54/196 37/197
f 14/198 36/199 55/200 37/201
f 26/202 76/203 114/204 27/205
f 105/206 84/207 36/208 66/209
f 32/210 70/211 6/212 38/213
f 28/214 112/215 77/216 29/217
f 29/218 77/219 111/220 30/221
f 86/222 21/223 46/224 62/225
f 41/226 3/227 28/228 29/229
f 59/230 90/231 18/232 50/233
f 69/234 33/235 8/236 7/237
f 31/238 109/239 79/240 32/241
f 98/242 121/243 90/244 59/245
f 78/246 71/247 72/248
f 83/249 66/250 67/251
f 83/252 67/253 82/254
f 80/255 69/256 70/257
f 80/258 70/259 79/260
f 53/261 56/262 52/263
f 30/264 40/265 41/266
f 30/267 41/268 29/269
f 74/270 115/271 76/272 26/273
f 99/274 100/275 88/276 89/277
f 87/278 101/279 120/280 60/281
f 99/282 98/283 97/284
f 99/285 122/286 123/287
f 99/288 123/289 124/290
f 99/291 125/292 126/293
f 99/294 83/295 82/296
f 99/297 82/298 81/299
f 99/300 106/301 107/302
f 99/303 107/304 108/305
f 99/306 80/307 79/308
f 99/309 110/310 111/311
f 99/312 112/313 113/314
f 99/315 113/316 114/317
f 99/318 116/319 117/320
f 99/321 104/322 103/323
f 99/324 103/325 102/326
f 99/327 118/328 119/329
f 99/330 119/331 120/332
f 99/333 101/334 100/335
f 121/336 99/337 89/338 90/339
f 31/340 5/341 39/342 71/343
f 60/344 120/345 119/346 61/347
f 61/348 119/349 118/350 62/351
f 28/352 3/353 42/354 73/355
f 19/356 20/357 46/358
f 19/359 21/360 22/361
f 19/362 23/363 24/364
f 19/365 24/366 1/367
f 19/368 43/369 42/370
f 19/371 41/372 40/373
f 19/374 6/375 7/376
f 19/377 7/378 8/379
f 19/380 8/381 9/382
f 19/383 9/384 10/385
f 19/386 10/387 11/388
f 19/389 11/390 12/391
f 19/392 12/393 13/394
f 19/395 13/396 14/397
f 19/398 53/399 52/400
f 19/401 52/402 51/403
f 19/404 16/405 17/406
f 19/407 49/408 48/409
f 19/410 48/411 47/412
f 47/413 48/414 88/415 87/416
f 123/417 122/418 57/419 91/420
f 97/421 98/422 59/423 58/424
f 6/425 70/426 69/427 7/428
f 86/429 102/430 103/431 85/432
f 85/433 103/434 104/435 63/436
f 124/437 123/438 91/439 56/440
f 42/441 43/442 27/443 73/444
f 10/445 34/446 35/447 11/448
f 64/449 117/450 116/451 65/452
f 54/453 94/454 93/455 15/456
f 125/457 96/458 92/459 93/460
f 53/461 92/462 56/463
f 15/464 93/465 92/466 53/467
f 126/468 125/469 93/470 94/471
f 12/472 67/473 66/474 13/475
f 13/476 66/477 36/478 14/479
f 88/480 100/481 101/482 87/483
f 95/484 126/485 94/486 55/487
f 24/488 23/489 64/490 65/491
f 25/492 1/493 24/494 65/495
f 27/496 114/497 113/498 73/499
f 23/500 45/501 63/502 64/503
f 73/504 113/505 112/506 28/507
f 66/508 83/509 105/510
f 20/511 19/512 60/513 61/514
f 11/515 35/516 67/517 12/518
f 67/519 35/520 82/521
f 22/522 21/523 86/524 85/525
f 81/526 82/527 35/528 34/529
f 27/530 43/531 2/532 26/533
f 30/534 111/535 110/536 72/537
f 107/538 106/539 68/540 33/541
f 26/542 2/543 44/544 74/545
f 108/546 107/547 33/548 69/549
f 78/550 72/551 110/552
f 16/553 57/554 58/555 17/556
f 71/557 78/558 109/559 31/560
f 60/561 19/562 47/563 87/564
f 17/565 58/566 59/567 50/568
f 69/569 80/570 108/571
f 63/572 45/573 22/574 85/575
f 5/576 31/577 32/578 38/579
f 70/580 32/581 79/582
f 89/583 88/584 48/585 49/586
f 18/587 90/588 89/589 49/590
