# Exported from USD: /NEX35_C00/base_link/collisions/nex35_base_link/mesh
mtllib mesh_1.mtl

g mesh
v -0.27204999 -0.12170000 0.07448100
v -0.27015001 -0.11857500 0.14310101
v -0.27015001 -0.12227600 0.13703801
v -0.27015001 -0.12096900 0.14028899
v -0.27015001 -0.12181900 0.13874300
v -0.27241001 -0.12157100 0.10600000
v -0.27241001 -0.12144400 0.10728200
v -0.27244800 -0.12147800 0.10600000
v -0.27303001 -0.11890500 0.07498400
v -0.27303001 -0.11873700 0.07447600
v -0.27303001 -0.11843500 0.07388300
v -0.27364200 -0.11854900 0.10774400
v -0.27364200 -0.11882800 0.10699100
v -0.27364200 -0.11894000 0.10634400
v -0.27364200 -0.11893000 0.10555600
v -0.17837501 -0.18633600 0.00000000
v -0.18287900 -0.18287900 0.00000000
v -0.18633600 -0.17837501 0.00000000
v -0.18925101 0.13933900 -0.00000100
v -0.18850900 0.17312901 0.00000000
v -0.18633600 0.17837501 0.00000000
v -0.17837501 0.18633600 0.00000000
v -0.17312901 0.18850900 0.00000000
v 0.00000000 0.20667700 0.01000000
v 0.18287900 -0.18287900 0.00000000
v 0.17312901 -0.18850900 0.00000000
v 0.18850900 0.17312901 0.00000000
v 0.00000000 -0.20667700 0.01000000
v -0.16750000 -0.18925001 0.00000000
v -0.18850900 -0.17312901 0.00000000
v -0.17312901 -0.18850900 0.00000000
v -0.17663001 -0.18536399 0.01928800
v -0.18925001 -0.16750000 0.00000000
v -0.18925001 0.16750000 0.00000000
v -0.18287900 0.18287900 0.00000000
v -0.17455100 0.18628199 0.01928800
v -0.14747500 0.19499999 0.00000000
v -0.14533900 0.19499999 0.01726100
v -0.09752500 0.19499999 0.00000000
v -0.05285500 0.19288900 0.26499999
v -0.02666600 0.19821399 0.26499999
v 0.00000000 0.20000000 0.26499999
v 0.05285500 0.19288900 0.26499999
v 0.02422400 0.20525301 0.01000000
v -0.02422400 0.20525301 0.01000000
v 0.16750000 0.18925001 0.00000000
v 0.19499999 -0.15247500 0.00000000
v 0.17837501 -0.18633600 0.00000000
v 0.18633600 -0.17837501 0.00000000
v 0.18850900 -0.17312901 0.00000000
v 0.18338200 -0.17975700 0.01928800
v 0.18086000 -0.18246700 0.01928800
v 0.17098001 -0.18725801 0.01928800
v 0.16750000 -0.18925001 0.00000000
v 0.18925001 0.16750000 0.00000000
v 0.18633600 0.17837501 0.00000000
v 0.18287900 0.18287900 0.00000000
v 0.17837501 0.18633600 0.00000000
v 0.17312901 0.18850900 0.00000000
v 0.17663001 0.18536399 0.01928800
v 0.18246700 0.18086000 0.01928800
v 0.18466701 0.17788200 0.01928800
v 0.18628199 0.17455100 0.01928800
v 0.19499999 -0.09752500 0.00000000
v 0.19499999 -0.15033901 0.01726100
v -0.02422400 -0.20525301 0.01000000
v 0.02422400 -0.20525301 0.01000000
v 0.00000000 -0.20000000 0.26499999
v -0.17319199 -0.18673800 0.01928800
v -0.25500000 0.13908200 0.01013100
v -0.14519800 0.19499999 0.01781000
v 0.19935399 -0.01605500 0.26499999
v 0.19421600 0.04775100 0.26499999
v 0.18407100 0.07821600 0.26499999
v 0.16918200 0.10666500 0.26499999
v 0.14993200 0.13236500 0.26499999
v 0.12023500 0.17029400 0.26499999
v 0.11669900 0.17209600 0.26499999
v 0.02666600 0.19821399 0.26499999
v -0.12159100 0.16882800 0.26499999
v -0.12159100 -0.16882700 0.26499999
v -0.12023500 -0.17029400 0.26499999
v -0.11669900 -0.17209600 0.26499999
v -0.05285500 -0.19288900 0.26499999
v -0.02666600 -0.19821399 0.26499999
v 0.02666600 -0.19821399 0.26499999
v 0.05285500 -0.19288900 0.26499999
v 0.19499999 -0.15019800 0.01781000
v 0.17455100 -0.18628199 0.01928800
v 0.17788200 -0.18466701 0.01928800
v 0.18536399 -0.17663001 0.01928800
v 0.18673800 -0.17319199 0.01928800
v 0.17786200 -0.18463300 0.01957800
v 0.18335100 -0.17973299 0.01957800
v 0.17975700 0.18338200 0.01928800
v 0.17319199 0.18673800 0.01928800
v 0.18721899 0.17097300 0.01957800
v 0.18463300 0.17786200 0.01957800
v 0.17318100 0.18670000 0.01957800
v 0.19935399 0.01605500 0.26499999
v 0.19421600 -0.04775100 0.26499999
v 0.18407100 -0.07821600 0.26499999
v 0.16918200 -0.10666500 0.26499999
v 0.14993200 -0.13236500 0.26499999
v 0.20623600 -0.01350400 0.01000000
v 0.20611300 0.01525700 0.01000000
v -0.25500000 -0.13908200 0.01013100
v -0.25500000 -0.13898200 0.00899700
v -0.25500000 -0.13862801 0.00791500
v -0.25500000 -0.13803899 0.00694100
v -0.25500000 -0.13628601 0.00551200
v -0.25500000 -0.13521400 0.00513000
v -0.25500000 -0.13724400 0.00612600
v -0.25500000 0.13803899 0.00694100
v -0.25500000 0.13724400 0.00612600
v -0.25500000 0.13521400 0.00513000
v -0.25500000 0.13628601 0.00551200
v -0.25500000 0.13862801 0.00791500
v -0.25500000 0.13898200 0.00899700
v 0.12159100 -0.16882800 0.26499999
v 0.12023500 -0.17029500 0.26499999
v 0.11857300 -0.17140400 0.26499999
v 0.11669900 -0.17209600 0.26499999
v 0.11857400 0.17140400 0.26499999
v 0.12159100 0.16882800 0.26499999
v -0.12023500 0.17029500 0.26499999
v -0.11857300 0.17140400 0.26499999
v -0.11669900 0.17209600 0.26499999
v -0.11857400 -0.17140400 0.26499999
v -0.22700000 0.01084300 0.28500000
v -0.20400000 0.00963700 0.28500000
v -0.22700000 -0.01084300 0.28500000
v -0.20400000 -0.00963700 0.28500000
v -0.22136401 -0.04636400 0.26400000
v -0.22136401 0.04636400 0.26400000
v -0.29210001 0.04419800 0.04523300
v -0.29210001 0.04620000 0.04606200
v -0.29210001 0.04791900 0.04738100
v -0.29210001 0.04923800 0.04910000
v -0.29210001 0.05035000 0.05325000
v -0.29210001 -0.00045000 0.13075000
v -0.29210001 -0.00045000 0.05325000
v -0.29210001 -0.00037900 0.05216700
v -0.29210001 0.00066200 0.04910000
v -0.29210001 0.00370000 0.04606200
v -0.29210001 0.00570200 0.04523300
v -0.29210001 0.00676700 0.04502100
v -0.29210001 0.00785000 0.04495000
v -0.29210001 0.04205000 0.04495000
v -0.29210001 0.00676700 0.13897900
v -0.29210001 0.00570200 0.13876700
v -0.29210001 0.00370000 0.13793799
v -0.29210001 0.00198100 0.13661900
v -0.29210001 -0.00016700 0.13289800
v -0.29210001 0.05027900 0.13183300
v -0.29210001 0.04923800 0.13490000
v -0.29210001 0.04620000 0.13793799
v -0.29210001 0.04419800 0.13876700
v -0.29210001 0.00785000 0.13905001
v -0.29210201 0.01355400 0.05019600
v -0.29210001 -0.00037900 0.13183300
v -0.29210001 0.00066200 0.13490000
v -0.29210001 0.04205000 0.13905001
v -0.29210001 0.04313300 0.13897900
v -0.29210001 0.04791900 0.13661900
v -0.29210001 0.05006700 0.13289800
v -0.29210001 0.05035000 0.13075000
v -0.29210001 0.05027900 0.05216700
v -0.29210001 0.05006700 0.05110200
v -0.29210001 0.04313300 0.04502100
v -0.29210001 0.00198100 0.04738100
v -0.29210001 -0.00016700 0.05110200
v -0.29210201 0.03534600 0.05019500
v -0.29210201 0.03534600 0.13380501
v -0.29210201 0.01355400 0.13380399
v -0.25845000 -0.13472700 0.16007100
v -0.25845000 -0.13500001 0.15800001
v -0.25845000 -0.12804399 0.00406800
v -0.25845000 -0.12700000 0.00400000
v -0.25845000 0.12700000 0.00400000
v -0.25845000 0.12907100 0.00427300
v -0.25845000 0.13100000 0.00507200
v -0.25845000 0.13500001 0.15800001
v -0.25845000 0.12804399 0.00406800
v -0.25845000 -0.12907100 0.00427300
v -0.25845000 -0.13100000 0.00507200
v -0.25845000 -0.13493200 0.15904400
v -0.25845000 0.13472700 0.16007100
v -0.25845000 0.13493200 0.15904400
v -0.26445001 -0.12829401 0.16283000
v -0.26445001 -0.12891300 0.16261899
v -0.26445001 -0.12950000 0.16233000
v -0.26445001 -0.13133000 0.16050000
v -0.26445001 -0.13200000 0.15800001
v -0.26445001 0.12700000 0.00800000
v -0.26445001 0.12891300 0.00838100
v -0.26445001 0.12950000 0.00867000
v -0.26445001 0.13133000 0.01050000
v -0.26445001 0.13183001 0.01170600
v -0.26445001 -0.13183001 0.01170600
v -0.26445001 -0.13053501 0.00946400
v -0.26445001 -0.12829401 0.00817000
v -0.26445001 -0.12765300 0.00804300
v -0.26445001 -0.12700000 0.00800000
v -0.26445001 0.13133000 0.16050000
v -0.26445001 0.12950000 0.16233000
v -0.26445001 -0.13183001 0.15929399
v -0.26445001 -0.13053501 0.16153599
v -0.26445001 0.13200000 0.01300000
v -0.26445001 0.13053501 0.00946400
v -0.26445001 0.12829401 0.00817000
v -0.26445001 0.12765300 0.00804300
v -0.26445001 -0.12950000 0.00867000
v -0.26445001 -0.13133000 0.01050000
v -0.26445001 -0.13200000 0.01300000
v -0.26445001 0.12829401 0.16283000
v -0.26445001 0.13053501 0.16153599
v -0.26445001 0.13183001 0.15929399
v -0.26445001 0.13200000 0.15800001
vt 0.00000000 0.00000000
vt 0.00000000 0.00000000
vt 0.00000000 0.00000000
vt 0.00000000 0.00000000
vt 0.00000000 0.00000000
vt 0.00000000 0.00000000
vt 0.98039198 0.38823500
vt 0.00000000 0.00000000
vt 0.00000000 0.00000000
vt 0.00000000 0.00000000
vt 0.00000000 0.00000000
vt 0.00000000 0.00000000
vt 0.00000000 0.00000000
vt 0.00000000 0.00000000
vt 0.00000000 0.00000000
vt 0.00000000 0.00000000
vt 0.00000000 0.00000000
vt 0.00000000 0.00000000
vt 0.00000000 0.00000000
vt 0.00000000 0.00000000
vt 0.00000000 0.00000000
vt 0.00000000 1.00000000
vt 0.00000000 0.00000000
vt 0.00000000 0.00000000
vt 0.00000000 0.00000000
vt 0.00000000 0.00000000
vt 0.00000000 0.50196099
vt 0.00000000 0.00000000
vt 0.00000000 0.00000000
vt 0.00000000 0.50196099
vt 0.00000000 0.00000000
vt 0.00000000 0.00000000
vt 0.98039198 0.38823500
vt 0.00000000 0.00000000
vt 0.00000000 0.00000000
vt 0.00000000 0.00000000
vt 0.00000000 0.00000000
vt 0.00000000 0.00000000
vt 0.00000000 0.00000000
vt 0.00000000 0.00000000
vt 0.00000000 0.00000000
vt 0.00000000 0.00000000
vt 0.97254902 0.02352900
vt 0.00000000 0.00000000
vt 0.00000000 0.00000000
vt 0.00000000 0.00000000
vt 0.00000000 0.00000000
vt 0.00000000 0.00000000
vt 0.00000000 0.00000000
vt 0.00000000 0.00000000
vt 0.00000000 0.00000000
vt 0.00000000 0.00000000
vt 0.00000000 1.00000000
vt 0.00000000 0.00000000
vt 0.00000000 0.00000000
vt 0.00000000 0.00000000
vt 0.00000000 0.00000000
vt 0.00000000 0.00000000
vt 0.04313700 0.02352900
vt 0.00000000 0.00000000
vt 0.00000000 0.00000000
vt 0.00000000 0.00000000
vt 0.00000000 0.00000000
vt 0.00000000 0.00000000
vt 1.00000000 0.33333299
vt 0.00000000 0.00000000
vt 0.00000000 0.00000000
vt 0.00000000 0.00000000
vt 0.00000000 0.00000000
vt 0.00000000 0.00000000
vt 0.00000000 0.00000000
vt 0.00000000 0.00000000
vt 0.00000000 0.00000000
vt 0.00000000 0.00000000
vt 0.00000000 0.00000000
vt 0.00000000 0.00000000
vt 0.00000000 0.00000000
vt 0.00000000 0.00000000
vt 0.00000000 0.00000000
vt 1.00000000 0.66666698
vt 0.00000000 0.00000000
vt 0.00000000 0.00000000
vt 0.00000000 0.00000000
vt 0.00000000 0.00000000
vt 0.00000000 0.00000000
vt 0.00000000 0.00000000
vt 0.00000000 0.00000000
vt 0.00000000 0.00000000
vt 0.00000000 0.00000000
vt 0.00000000 0.00000000
vt 0.00000000 0.00000000
vt 0.00000000 0.00000000
vt 0.00000000 0.00000000
vt 0.00000000 0.00000000
vt 0.00000000 0.00000000
vt 0.00000000 0.00000000
vt 0.00000000 1.00000000
vt 0.00000000 0.00000000
vt 0.00000000 0.00000000
vt 0.00000000 0.00000000
vt 0.17647099 0.21568599
vt 0.17647099 0.25097999
vt 0.00000000 0.00000000
vt 0.00000000 0.00000000
vt 0.00000000 0.00000000
vt 0.00000000 0.00000000
vt 0.00000000 0.00000000
vt 0.00000000 0.00000000
vt 0.00000000 0.00000000
vt 1.00000000 0.28627500
vt 1.00000000 0.14117600
vt 0.00000000 0.74901998
vt 0.00000000 0.00000000
vt 0.00000000 0.00000000
vt 0.00000000 0.54509801
vt 0.00000000 0.00000000
vt 0.00000000 0.00000000
vt 0.00000000 0.00000000
vt 0.00000000 0.00000000
vt 0.00000000 0.00000000
vt 0.00000000 0.00000000
vt 0.00000000 0.00000000
vt 0.00000000 0.00000000
vt 0.00000000 0.00000000
vt 0.00000000 0.00000000
vt 0.00000000 0.00000000
vt 0.00000000 0.00000000
vt 0.00000000 0.00000000
vt 0.00000000 0.00000000
vt 0.00000000 0.00000000
vt 0.00000000 0.00000000
vt 0.00000000 0.00000000
vt 0.00000000 0.46274501
vt 0.00000000 0.00000000
vt 0.00000000 0.00000000
vt 0.00000000 0.00000000
vt 0.00000000 0.00000000
vt 0.00000000 0.00000000
vt 0.00000000 0.00000000
vt 0.00000000 0.00000000
vt 0.00000000 0.00000000
vt 0.00000000 0.00000000
vt 0.00000000 0.00000000
vt 0.16862699 0.87450999
vt 0.00000000 0.00000000
vt 0.00000000 0.00000000
vt 0.00000000 0.00000000
vt 0.00000000 0.00000000
vt 0.00000000 0.00000000
vt 0.00000000 0.00000000
vt 0.00000000 0.00000000
vt 0.00000000 0.00000000
vt 0.00000000 0.00000000
vt 0.00000000 0.00000000
vt 0.00000000 0.00000000
vt 0.00000000 0.00000000
vt 0.00000000 0.00000000
vt 0.00000000 0.00000000
vt 0.00000000 0.00000000
vt 0.00000000 0.00000000
vt 0.00000000 0.00000000
vt 0.00000000 0.00000000
vt 0.00000000 0.00000000
vt 0.00000000 0.00000000
vt 0.00000000 0.00000000
vt 0.00000000 0.00000000
vt 0.00000000 0.00000000
vt 0.00000000 0.00000000
vt 0.99607801 0.56862700
vt 0.00000000 0.00000000
vt 0.00000000 0.00000000
vt 0.98039198 0.63137299
vt 0.00000000 0.00000000
vt 0.00000000 0.00000000
vt 0.00000000 0.00000000
vt 0.00000000 0.00000000
vt 0.00000000 0.00000000
vt 0.00000000 0.00000000
vt 0.98039198 0.36862701
vt 0.00000000 0.00000000
vt 0.00000000 0.00000000
vt 0.00000000 0.00000000
vt 0.00000000 0.00000000
vt 0.00000000 0.00000000
vt 1.00000000 0.42745101
vt 0.00000000 0.00000000
vt 0.00000000 0.00000000
vt 0.00000000 0.00000000
vt 0.00000000 0.00000000
vt 0.00000000 0.00000000
vt 0.00000000 0.00000000
vt 0.00000000 0.00000000
vt 0.00000000 0.00000000
vt 0.00000000 0.00000000
vt 0.00000000 0.00000000
vt 0.00000000 0.00000000
vt 0.00000000 0.00000000
vt 0.00000000 0.00000000
vt 0.00000000 0.00000000
vt 0.00000000 0.00000000
vt 1.00000000 0.85882401
vt 0.00000000 0.00000000
vt 0.98431402 0.04705900
vt 0.00000000 0.00000000
vt 0.00000000 0.00000000
vt 0.98431402 0.04705900
vt 0.00000000 0.00000000
vt 0.00000000 0.00000000
vt 0.97254902 0.02352900
vt 0.00000000 0.00000000
vt 0.00000000 0.00000000
vt 0.97254902 0.02352900
vt 0.00000000 0.00000000
vt 0.00000000 0.00000000
vt 0.00000000 0.00000000
vt 0.00000000 0.00000000
vt 0.00000000 0.00000000
vt 0.00000000 0.00000000
vt 0.00000000 0.00000000
vt 0.00000000 0.00000000
vt 0.00000000 0.00000000
vt 0.00000000 0.00000000
vt 0.00000000 0.00000000
vt 0.00000000 0.00000000
vt 0.00000000 1.00000000
vt 1.00000000 0.95686299
vt 0.00000000 0.00000000
vt 0.00000000 0.00000000
vt 0.00000000 0.00000000
vt 0.00000000 0.00000000
vt 0.00000000 0.00000000
vt 0.04313700 0.02352900
vt 0.00000000 0.00000000
vt 0.00000000 0.00000000
vt 0.00000000 0.00000000
vt 0.00000000 0.00000000
vt 0.00000000 0.00000000
vt 0.00000000 0.00000000
vt 0.00000000 0.00000000
vt 0.00000000 0.00000000
vt 0.00000000 0.00000000
vt 0.00000000 0.00000000
vt 0.00000000 0.00000000
vt 0.00000000 0.00000000
vt 0.00000000 0.00000000
vt 0.00000000 0.00000000
vt 0.00000000 0.00000000
vt 0.00392200 0.01176500
vt 0.00000000 0.00000000
vt 0.00000000 0.00000000
vt 1.00000000 0.85882401
vt 0.00000000 0.00000000
vt 0.00000000 0.00000000
vt 0.00000000 0.00000000
vt 0.58823502 0.87450999
vt 0.00000000 0.00000000
vt 0.00000000 0.00000000
vt 0.00000000 0.95686299
vt 0.00000000 0.00000000
vt 0.02352900 0.08235300
vt 0.00000000 0.00000000
vt 0.00000000 0.00000000
vt 0.98431402 0.62745100
vt 1.00000000 0.49803901
vt 0.00000000 0.00000000
vt 0.00000000 0.00000000
vt 0.00000000 0.00000000
vt 0.00000000 0.66666698
vt 0.00000000 0.00000000
vt 0.00000000 0.00000000
vt 0.00000000 0.50196099
vt 0.00000000 0.22745100
vt 0.00000000 0.00000000
vt 0.00000000 0.00000000
vt 0.00000000 0.00000000
vt 0.00000000 0.00000000
vt 0.00000000 0.00000000
vt 0.00000000 0.00000000
vt 0.00000000 0.00000000
vt 0.00000000 0.00000000
vt 0.00000000 0.00000000
vt 0.00000000 0.00000000
vt 0.00000000 0.00000000
vt 0.00000000 0.00000000
vt 0.00000000 0.00000000
vt 0.00000000 0.00000000
vt 0.00000000 0.00000000
vt 0.00000000 0.00000000
vt 0.00000000 0.00000000
vt 0.00000000 0.00000000
vt 0.00000000 0.00000000
vt 0.00000000 0.00000000
vt 0.00000000 0.00000000
vt 0.00000000 0.00000000
vt 0.00000000 0.00000000
vt 0.00000000 0.00000000
vt 0.00000000 0.00000000
vt 0.00000000 0.00000000
vt 0.00000000 0.00000000
vt 0.00000000 0.00000000
vt 0.98431402 0.62745100
vt 0.00000000 0.00000000
vt 0.00000000 0.22745100
vt 0.00000000 0.00000000
vt 0.00000000 0.00000000
vt 0.00000000 0.00000000
vt 0.00000000 0.00000000
vt 0.00000000 0.00000000
vt 0.00000000 0.00000000
vt 0.00000000 0.00000000
vt 0.00000000 0.00000000
vt 0.00000000 0.00000000
vt 0.99607801 0.56862700
vt 0.00000000 0.00000000
vt 0.00000000 0.00000000
vt 0.00000000 0.00000000
vt 0.00000000 0.00000000
vt 0.00000000 0.00000000
vt 0.00000000 0.95686299
vt 0.00000000 0.00000000
vt 0.00000000 0.00000000
vt 0.00000000 0.00000000
vt 0.00000000 0.00000000
vt 0.00000000 0.00000000
vt 0.00000000 0.00000000
vt 0.00000000 0.00000000
vt 0.00000000 0.00000000
vt 0.92549002 0.20000000
vt 0.00000000 0.00000000
vt 0.00000000 0.00000000
vt 0.00000000 0.00000000
vt 0.00000000 0.00000000
vt 0.00000000 0.00000000
vt 0.00000000 0.00000000
vt 0.00000000 0.00000000
vt 0.00000000 0.00000000
vt 0.99607801 0.43137300
vt 0.00000000 0.00000000
vt 0.00000000 0.00000000
vt 0.00000000 0.00000000
vt 0.00000000 0.00000000
vt 0.00000000 0.00000000
vt 0.00000000 0.83529401
vt 0.00000000 0.00000000
vt 0.00000000 0.00000000
vt 1.00000000 0.16470601
vt 0.00000000 0.00000000
vt 0.00000000 0.00000000
vt 0.00000000 0.96470600
vt 0.00000000 0.00000000
vt 0.00000000 0.43137300
vt 0.00000000 0.00000000
vt 0.00000000 0.00000000
vt 0.00000000 0.43137300
vt 0.00000000 0.00000000
vt 0.00000000 0.00000000
vt 0.00000000 0.54509801
vt 0.00000000 0.00000000
vt 0.00000000 0.00000000
vt 0.00000000 0.54509801
vt 0.00000000 0.00000000
vt 0.00000000 0.00000000
vt 0.00000000 0.00000000
vt 0.00000000 0.00000000
vt 0.00000000 0.00000000
vt 0.00000000 0.00000000
vt 0.00000000 0.00000000
vt 0.00000000 0.00000000
vt 0.00000000 0.00000000
vt 0.00000000 0.00000000
vt 0.00000000 0.00000000
vt 0.00000000 0.00000000
vt 0.00000000 0.00000000
vt 0.00000000 0.00000000
vt 0.00000000 0.00000000
vt 0.00000000 0.00000000
vt 0.00000000 0.00000000
vt 0.00000000 0.00000000
vt 0.00000000 0.00000000
vt 0.00000000 0.00000000
vt 0.00000000 0.00000000
vt 0.00000000 0.00000000
vt 0.00000000 0.00000000
vt 0.00000000 0.00000000
vt 0.85490203 1.00000000
vt 0.98039198 0.63137299
vt 0.00000000 0.00000000
vt 0.85490203 1.00000000
vt 0.00000000 0.15294100
vt 0.00000000 0.00000000
vt 0.85490203 1.00000000
vt 0.00000000 0.36470601
vt 0.00000000 0.00000000
vt 0.00000000 0.00000000
vt 0.00000000 0.00000000
vt 0.00000000 0.00000000
vt 0.00000000 0.00000000
vt 0.00000000 0.00000000
vt 0.00000000 0.00000000
vt 0.00000000 0.74901998
vt 0.00000000 0.00000000
vt 0.00000000 0.00000000
vt 0.00000000 0.22745100
vt 0.00000000 0.00000000
vt 1.00000000 0.33333299
vt 0.00000000 0.34509799
vt 0.00000000 0.00000000
vt 0.00000000 0.69803900
vt 0.00000000 0.00000000
vt 0.00000000 0.00000000
vt 0.00000000 0.00000000
vt 0.00000000 0.00000000
vt 1.00000000 0.85882401
vt 1.00000000 0.41568601
vt 0.00000000 0.69803900
vt 0.00000000 0.00000000
vt 0.00000000 0.00000000
vt 0.00000000 0.00000000
vt 0.00000000 0.00000000
vt 0.00000000 0.00000000
vt 0.00000000 0.00000000
vt 0.00000000 0.00000000
vt 0.00000000 0.00000000
vt 0.00000000 0.00000000
vt 0.00000000 0.00000000
vt 0.00000000 0.00000000
vt 0.00000000 0.00000000
vt 0.00000000 0.00000000
vt 0.00000000 0.00000000
vt 0.00000000 0.00000000
vt 0.00000000 0.00000000
vt 0.00000000 0.00000000
vt 0.00000000 0.00000000
vt 0.00000000 0.00000000
vt 0.00000000 0.00000000
vt 0.00000000 0.00000000
vt 0.00000000 0.00000000
vt 0.00000000 0.00000000
vt 0.00392200 0.01176500
vt 0.00784300 0.00784300
vt 0.00000000 0.00000000
vt 0.00000000 0.00000000
vt 0.00000000 0.22745100
vt 0.00000000 0.00000000
vt 0.00000000 0.00000000
vt 0.00000000 0.00000000
vt 0.00000000 0.00000000
vt 0.00000000 0.00000000
vt 0.00000000 0.00000000
vt 0.00000000 0.00000000
vt 0.00000000 0.00000000
vt 0.00000000 0.00000000
vt 0.00000000 0.00000000
vt 0.00000000 0.00000000
vt 0.00000000 0.00000000
vt 0.00000000 0.00000000
vt 0.00000000 0.00000000
vt 0.00000000 0.00000000
vt 0.00000000 0.00000000
vt 0.00000000 0.00000000
vt 0.00000000 0.00000000
vt 0.00000000 0.00000000
vt 0.00000000 0.00000000
vt 0.00000000 0.00000000
vt 0.00000000 0.00000000
vt 0.00000000 0.00000000
vt 0.00000000 0.00000000
vt 0.00000000 0.00000000
vt 0.62745100 0.01568600
vt 0.00000000 0.00000000
vt 0.00000000 0.00000000
vt 0.56470603 0.00392200
vt 1.00000000 0.95686299
vt 0.00000000 0.00000000
vt 0.00000000 0.00000000
vt 0.00000000 0.00000000
vt 0.00000000 0.00000000
vt 0.00000000 0.00000000
vt 1.00000000 0.00000000
vt 0.00000000 0.00000000
vt 0.00000000 0.00000000
vt 0.00000000 0.33333299
vt 0.00000000 0.00000000
vt 1.00000000 0.41568601
vt 1.00000000 0.33333299
vt 0.00000000 0.00000000
vt 0.00000000 0.00000000
vt 0.00000000 0.00000000
vt 0.00000000 0.00000000
vt 0.00000000 0.00000000
vt 0.00000000 0.00000000
vt 0.00000000 0.00000000
vt 0.00000000 0.00000000
vt 0.00000000 0.00000000
vt 1.00000000 0.33333299
vt 0.00000000 0.00000000
vt 0.00000000 0.00000000
vt 0.00000000 0.00000000
vt 0.00000000 0.00000000
vt 0.00000000 0.00000000
vt 0.00000000 0.00000000
vt 0.00000000 0.00000000
vt 0.00000000 0.00000000
vt 1.00000000 0.42745101
vt 0.00000000 0.00000000
vt 0.00000000 0.00000000
vt 0.00000000 0.00000000
vt 0.00392200 0.01176500
vt 0.98431402 0.00784300
vt 0.00000000 0.00000000
vt 0.00000000 0.00000000
vt 0.97647101 0.00000000
vt 0.00000000 0.00000000
vt 0.00000000 0.00000000
vt 0.00000000 0.00000000
vt 0.00000000 0.00000000
vt 0.00000000 0.00000000
vt 0.00000000 0.00000000
vt 0.00000000 0.00000000
vt 0.17647099 0.18823500
vt 0.00000000 0.00000000
vt 0.00000000 0.00000000
vt 0.17647099 0.21568599
vt 0.00000000 0.00000000
vt 0.00000000 0.00000000
vt 0.00000000 0.00000000
vt 0.00000000 0.00000000
vt 0.00000000 0.00000000
vt 0.00000000 0.00000000
vt 0.00000000 0.00000000
vt 0.00000000 0.00000000
vt 0.00000000 0.00000000
vt 0.16862699 0.87450999
vt 0.00000000 0.00000000
vt 0.00000000 0.00000000
vt 0.00000000 0.00000000
vt 0.00000000 0.00000000
vt 0.00000000 0.27451000
vt 0.00000000 0.00000000
vt 0.00000000 0.00000000
vt 0.00000000 0.36470601
vt 0.00000000 0.00000000
vt 0.13725500 0.34509799
vt 0.00000000 0.46274501
vt 0.00000000 0.00000000
vt 0.00000000 0.00000000
vt 0.00000000 0.00000000
vt 0.00000000 0.00000000
vt 1.00000000 0.16470601
vt 0.00000000 0.00000000
vt 0.00000000 0.00000000
vt 0.00000000 0.00000000
vt 0.00000000 0.00000000
vt 0.00000000 0.00000000
vt 0.00000000 0.00000000
vt 0.00000000 0.00000000
vt 0.92549002 0.20000000
vt 0.00000000 0.00000000
vt 0.00000000 0.00000000
vt 0.92549002 0.20000000
vt 0.00000000 0.00000000
vt 0.00000000 0.00000000
vt 0.00000000 0.00000000
vt 0.00000000 0.00000000
vt 0.00000000 0.00000000
vt 0.00000000 0.00000000
vt 0.00000000 0.00000000
vt 0.00000000 0.00000000
vt 0.00000000 0.00000000
vt 0.00000000 0.66666698
vt 0.00000000 0.00000000
vt 1.00000000 0.16470601
vt 0.00000000 0.00000000
vt 0.00000000 0.00000000
vt 0.00000000 0.00000000
vt 0.00000000 0.00000000
vt 0.00000000 0.00000000
vt 0.00000000 0.00000000
vt 0.00000000 0.00000000
vt 0.00000000 0.00000000
vt 0.00000000 0.00000000
vt 0.00000000 0.00000000
vt 0.00000000 0.33333299
vt 0.00000000 0.00000000
vt 0.00000000 0.00000000
vt 0.00000000 0.00000000
vt 0.00000000 0.00000000
vt 0.00000000 0.00000000
vt 0.00000000 0.00000000
vt 0.00000000 0.00000000
vt 0.00000000 0.00000000
vt 0.00000000 0.00000000
vt 0.00000000 0.00000000
vt 0.00000000 0.00000000
vt 0.00000000 0.00000000
vt 0.00000000 0.00000000
vt 0.00000000 0.00000000
vt 0.00000000 0.00000000
vt 0.00000000 0.00000000
vt 0.00000000 0.33333299
vt 0.00000000 0.00000000
vt 0.00000000 0.00000000
vt 0.00000000 0.50196099
vt 0.13725500 0.58039200
vt 0.00000000 0.00000000
vt 0.00000000 0.15294100
vt 0.00000000 0.00000000
vt 0.00000000 0.00000000
vt 0.00000000 0.00000000
vt 0.00000000 0.00000000
vt 0.00000000 0.00000000
vt 0.00000000 0.00000000
vt 0.00000000 0.00000000
vt 0.00000000 0.00000000
vt 0.00000000 0.00000000
vt 0.58823502 1.00000000
vt 0.58823502 0.87450999
vt 0.00000000 0.00000000
vt 0.58823502 0.87450999
vt 0.00000000 0.00000000
vt 0.00000000 0.00000000
vt 0.58823502 0.87450999
vt 0.58823502 0.71764702
vt 0.00000000 0.00000000
vt 0.58823502 0.71764702
vt 0.00000000 0.00000000
vt 0.00000000 0.00000000
vt 0.00000000 0.00000000
vt 0.00000000 0.00000000
vt 0.00000000 0.00000000
vt 0.00000000 0.00000000
vt 0.00000000 0.00000000
vt 0.58823502 0.71764702
vt 0.58823502 0.87450999
vt 0.00000000 0.00000000
vt 0.00000000 0.16470601
vt 0.00000000 0.00000000
vt 0.00000000 0.00000000
vt 0.00000000 0.00000000
vt 0.00000000 0.00000000
vt 0.00000000 0.00000000
vt 0.00000000 0.00000000
vt 0.00000000 0.00000000
vt 0.00000000 0.00000000
vt 0.00000000 0.00000000
vt 0.00000000 0.00000000
vt 0.00000000 0.00000000
vt 0.00000000 0.00000000
vt 0.00000000 0.00000000
vt 0.00000000 0.00000000
vt 0.00000000 0.92156899
vt 0.00000000 0.00000000
vt 1.00000000 0.41568601
vt 0.00392200 0.93333298
vt 0.00000000 0.00000000
vt 0.00000000 0.00000000
vt 0.00000000 0.00000000
vt 0.00000000 0.00000000
vt 0.00000000 0.00000000
vt 0.00000000 0.00000000
vt 0.00000000 0.00000000
vt 0.00000000 0.00000000
vt 0.00000000 0.00000000
vt 0.00000000 0.00000000
vt 0.00000000 0.00000000
vt 0.00000000 0.00000000
vt 0.00000000 0.00000000
vt 0.00000000 0.00000000
vt 0.00000000 0.00000000
vt 0.62745100 0.01568600
vt 0.00000000 0.00000000
vt 0.00000000 0.00000000
vt 0.62745100 0.01568600
vt 0.00000000 0.00000000
vt 0.00000000 0.00000000
vt 0.00000000 0.00000000
vt 0.00000000 0.00000000
vt 0.00000000 0.00000000
vt 0.00000000 0.00000000
vt 0.17647099 0.25097999
vt 0.00000000 0.00000000
vt 0.00000000 0.00000000
vt 0.00000000 0.00000000
vt 0.00000000 0.00000000
vt 0.00000000 0.00000000
vt 1.00000000 0.00000000
vt 0.85490203 1.00000000
vt 0.00000000 0.00000000
vt 0.00000000 0.00000000
vt 0.00000000 0.00000000
vt 0.00000000 0.50196099
vt 0.00000000 0.92156899
vt 0.00000000 0.00000000
vt 0.00000000 0.00000000
vt 0.00000000 0.50196099
vt 0.00000000 0.00000000
vt 0.00000000 0.00000000
vt 0.00000000 0.00000000
vt 0.00000000 0.00000000
vt 0.00000000 0.00000000
vt 0.00000000 0.00000000
vt 0.00000000 0.66666698
vt 0.00000000 0.50196099
vt 0.00000000 0.00000000
vt 0.00000000 0.00000000
vt 0.00000000 0.00000000
vt 0.00000000 0.00000000
vt 0.00000000 0.00000000
vt 0.00000000 0.00000000
vt 0.00000000 0.00000000
vt 0.00000000 0.00000000
vt 0.00000000 0.00000000
vt 0.00000000 0.00000000
vt 0.00000000 0.00000000
vt 0.00000000 0.00000000
vt 0.00000000 0.00000000
vt 0.00000000 0.00000000
vt 0.00000000 0.00000000
vt 0.17647099 0.21568599
vt 0.00000000 0.00000000
vt 0.00000000 0.00000000
vt 0.00000000 0.92156899
vt 0.00000000 0.00000000
vt 0.00000000 0.00000000
vt 0.00000000 0.33333299
vt 0.00000000 0.00000000
vt 0.00000000 0.00000000
vt 0.00000000 0.00000000
vt 0.00000000 0.00000000
vt 0.00000000 0.00000000
vt 0.00000000 0.50196099
vt 0.00000000 0.00000000
vt 1.00000000 0.16470601
vt 0.00000000 0.66666698
vt 0.00000000 0.00000000
vt 0.00000000 0.00000000
vt 0.00000000 0.00000000
vt 0.00000000 0.00000000
vt 0.00000000 0.00000000
vt 0.00000000 0.00000000
vt 0.00000000 0.00000000
vt 0.00000000 0.00000000
vt 0.00000000 0.00000000
vt 0.00000000 0.00000000
vt 0.00000000 0.00000000
vt 0.00000000 0.00000000
vt 0.00000000 0.00000000
vt 0.17647099 0.15294100
vt 0.17647099 0.18823500
vt 0.00000000 0.50196099
vt 0.17647099 0.18823500
vt 0.00000000 0.00000000
vt 0.00000000 0.00000000
vt 0.17647099 0.18823500
vt 0.17647099 0.21568599
vt 0.00000000 0.00000000
vt 0.00000000 0.00000000
vt 0.00000000 0.00000000
vt 0.00000000 0.00000000
vt 0.00000000 0.00000000
vt 0.00000000 0.00000000
vt 0.00000000 0.36470601
vt 0.00000000 0.00000000
vt 0.00000000 0.00000000
vt 0.00000000 0.00000000
vt 0.00000000 0.00000000
vt 0.00000000 0.00000000
vt 0.00000000 0.00000000
vt 0.00000000 0.00000000
vt 0.00000000 0.00000000
vt 0.00000000 0.00000000
vt 0.00000000 0.00000000
vt 0.00000000 0.50196099
vt 0.17647099 0.18823500
vt 0.17647099 0.15294100
vt 0.00000000 0.00000000
vt 0.00000000 0.34509799
vt 1.00000000 0.33333299
vt 0.00000000 0.46274501
vt 1.00000000 0.50196099
vt 0.00000000 0.46274501
vt 1.00000000 0.33333299
vt 0.13725500 0.34509799
vt 0.00000000 0.22745100
vt 0.00000000 0.34509799
vt 0.00000000 0.50196099
vt 0.98039198 0.61176503
vt 0.00000000 0.62352902
vt 0.98039198 0.61176503
vt 0.00000000 0.50196099
vt 0.00000000 0.00000000
vt 0.00000000 0.00000000
vt 0.99607801 0.43137300
vt 0.98039198 0.98039198
vt 0.00000000 0.00000000
vt 0.00000000 1.00000000
vt 0.00000000 0.00000000
vt 0.00000000 0.00000000
vt 0.00000000 0.00000000
vt 0.00000000 1.00000000
vt 0.14902000 0.00000000
vt 0.00000000 0.00000000
vt 0.23529400 0.92549002
vt 0.30588201 0.96078402
vt 0.00000000 0.22745100
vt 0.00000000 0.62352902
vt 0.00000000 0.00000000
vt 0.00000000 0.50196099
vt 0.99607801 0.43137300
vt 0.98039198 0.36862701
vt 0.00000000 0.00000000
vt 0.00000000 0.00000000
vt 0.99215698 0.08235300
vt 0.98431402 0.04705900
vt 0.00000000 0.00000000
vt 0.98431402 0.04705900
vt 0.97254902 0.02352900
vt 0.00000000 0.00000000
vt 0.05882400 0.00392200
vt 0.04313700 0.02352900
vt 0.00000000 0.00000000
vt 0.02352900 0.08235300
vt 0.01568600 0.12156900
vt 0.00000000 0.00000000
vt 1.00000000 0.83529401
vt 1.00000000 0.66666698
vt 0.00000000 0.00000000
vt 1.00000000 0.66666698
vt 1.00000000 0.50196099
vt 0.00000000 0.00000000
vt 1.00000000 0.50196099
vt 1.00000000 0.33333299
vt 0.00000000 0.00000000
vt 1.00000000 0.83529401
vt 1.00000000 0.66666698
vt 0.00000000 0.00000000
vt 0.02352900 0.08235300
vt 0.00000000 0.00000000
vt 0.01568600 0.12156900
vt 0.00000000 0.74901998
vt 0.00000000 0.00000000
vt 0.00000000 0.62352902
vt 0.00000000 0.31764701
vt 0.00000000 0.43137300
vt 0.00000000 0.00000000
vt 0.00000000 0.43137300
vt 0.00000000 0.54509801
vt 0.00000000 0.00000000
vt 0.38039199 0.98823500
vt 0.30588201 0.96078402
vt 0.00000000 0.00000000
vt 0.30588201 0.96078402
vt 0.23529400 0.92549002
vt 0.00000000 0.00000000
vt 0.23529400 0.92549002
vt 0.16862699 0.87450999
vt 0.00000000 0.00000000
vt 0.00000000 0.69803900
vt 1.00000000 0.66666698
vt 0.00000000 0.00000000
vt 0.00000000 0.81568599
vt 1.00000000 0.14117600
vt 1.00000000 0.28627500
vt 0.00000000 0.00000000
vt 1.00000000 0.28627500
vt 1.00000000 0.42745101
vt 0.00000000 0.00000000
vt 0.00000000 0.00000000
vt 0.98431402 0.04705900
vt 0.99215698 0.08235300
vt 1.00000000 0.71372598
vt 1.00000000 0.85882401
vt 0.98431402 0.04705900
vt 0.00000000 0.00000000
vt 0.97254902 0.02352900
vt 0.98431402 0.04705900
vt 0.04313700 0.02352900
vt 0.05882400 0.00392200
vt 0.00000000 0.00000000
vt 0.00784300 0.00784300
vt 0.00392200 0.01176500
vt 0.00000000 0.00000000
vt 1.00000000 0.71372598
vt 1.00000000 0.85882401
vt 0.00000000 0.00000000
vt 0.00000000 0.00000000
vt 0.00000000 0.46274501
vt 1.00000000 0.50196099
vt 0.00000000 0.34509799
vt 0.00000000 0.00000000
vt 1.00000000 0.33333299
vt 0.00000000 0.18039200
vt 0.00000000 0.09019600
vt 0.13725500 0.58039200
vt 0.00000000 0.69803900
vt 0.00000000 0.46274501
vt 0.00000000 0.00000000
vt 1.00000000 0.33333299
vt 0.00000000 0.00000000
vt 0.00000000 0.00000000
vt 1.00000000 0.50196099
vt 1.00000000 0.66666698
vt 0.00000000 0.69803900
vt 0.00000000 0.58039200
vt 0.00000000 0.46274501
vt 0.00000000 0.00000000
vt 0.13725500 0.58039200
vt 0.00000000 0.15294100
vt 0.00000000 0.00000000
vt 0.00000000 0.46274501
vt 0.92156899 0.19607800
vt 0.92549002 0.20000000
vt 0.00000000 0.00000000
vt 0.98039198 0.36862701
vt 0.99607801 0.43137300
vt 0.00000000 0.00000000
vt 0.00000000 0.00000000
vt 0.85490203 1.00000000
vt 1.00000000 0.00000000
vt 0.00000000 0.95686299
vt 0.00000000 0.43137300
vt 0.00000000 0.31764701
vt 0.00000000 0.00000000
vt 0.00000000 0.54509801
vt 0.00000000 0.43137300
vt 0.99607801 0.56862700
vt 0.98039198 0.63137299
vt 0.85490203 1.00000000
vt 0.00000000 0.03921600
vt 0.00000000 0.07451000
vt 0.85490203 1.00000000
vt 0.00000000 0.07451000
vt 0.00000000 0.11372500
vt 0.85490203 1.00000000
vt 0.00000000 0.11372500
vt 0.00000000 0.15294100
vt 0.85490203 1.00000000
vt 0.00000000 0.09019600
vt 0.00000000 0.18039200
vt 0.85490203 1.00000000
vt 0.00000000 0.18039200
vt 0.00000000 0.27451000
vt 0.85490203 1.00000000
vt 0.00000000 0.27451000
vt 0.00000000 0.36470601
vt 0.85490203 1.00000000
vt 0.98039198 0.01960800
vt 0.99607801 0.56862700
vt 0.00000000 1.00000000
vt 0.00000000 0.00000000
vt 0.00000000 0.00000000
vt 0.16862699 0.87450999
vt 0.23529400 0.92549002
vt 0.13725500 0.81568599
vt 0.00000000 0.81568599
vt 0.00000000 0.00000000
vt 0.00000000 0.00000000
vt 0.00000000 0.69803900
vt 0.00000000 0.00000000
vt 0.00000000 0.00000000
vt 0.98039198 0.38823500
vt 0.00000000 0.00000000
vt 0.00000000 0.50196099
vt 1.00000000 0.41568601
vt 1.00000000 0.85882401
vt 0.00000000 0.00000000
vt 1.00000000 0.33333299
vt 0.00000000 0.00000000
vt 1.00000000 0.42745101
vt 1.00000000 0.28627500
vt 0.13725500 0.34509799
vt 0.00000000 0.00000000
vt 0.00000000 0.00000000
vt 0.00000000 0.22745100
vt 0.00000000 0.00000000
vt 1.00000000 0.85882401
vt 1.00000000 0.71372598
vt 0.00000000 0.69803900
vt 1.00000000 0.66666698
vt 0.00000000 0.00000000
vt 0.00000000 0.00000000
vt 0.00000000 0.22745100
vt 0.00000000 0.00000000
vt 1.00000000 0.33333299
vt 0.00000000 0.00000000
vt 0.00000000 0.00000000
vt 0.00000000 0.34509799
vt 0.00000000 0.46274501
vt 0.00000000 0.00000000
vt 0.00000000 0.74901998
vt 0.00000000 0.62352902
vt 0.98039198 0.61176503
vt 0.00000000 0.58039200
vt 0.00000000 0.00000000
vt 1.00000000 0.66666698
vt 0.00000000 0.69803900
vt 0.13725500 0.58039200
vt 0.00000000 0.58039200
vt 0.00000000 0.69803900
vt 0.13725500 0.58039200
vt 0.00000000 0.46274501
vt 0.00000000 0.58039200
vt 0.13725500 0.34509799
vt 0.00000000 0.34509799
vt 0.00000000 0.46274501
vt 0.00000000 0.07451000
vt 0.00000000 0.03921600
vt 0.00000000 0.22745100
vt 0.00000000 0.00000000
vt 0.92549002 0.20000000
vt 0.92156899 0.19607800
vt 0.00000000 0.22745100
vt 0.30588201 0.96078402
vt 0.00000000 0.00000000
vt 0.00000000 0.00000000
vt 0.00000000 0.27451000
vt 0.00000000 0.18039200
vt 0.00000000 0.69803900
vt 0.00000000 0.81568599
vt 0.14117600 0.00000000
vt 0.16470601 0.00000000
vt 0.00000000 0.00000000
vt 0.00000000 0.91764700
vt 0.00000000 0.83529401
vt 0.00000000 0.00000000
vt 0.00000000 0.33333299
vt 0.00000000 0.16470601
vt 0.00000000 0.00000000
vt 0.00000000 0.33333299
vt 0.00000000 0.00000000
vt 0.00000000 0.16470601
vt 0.00000000 0.00000000
vt 0.16470601 0.00000000
vt 0.14117600 0.00000000
vt 1.00000000 0.00000000
vt 0.00000000 0.00000000
vt 0.00000000 0.00000000
vt 0.00000000 1.00000000
vt 0.00000000 0.00000000
vt 0.00000000 0.00000000
vt 0.17647099 0.25097999
vt 0.00000000 0.00000000
vt 0.00000000 0.83529401
vt 0.00000000 0.91764700
vt 0.00000000 0.00000000
vt 0.00000000 0.66666698
vt 0.00000000 0.83529401
vt 0.00000000 0.66666698
vt 0.00000000 0.00000000
vt 0.00000000 0.83529401
vt 0.00000000 0.33333299
vt 0.00000000 0.16470601
vt 0.00000000 0.00000000
vt 0.00000000 0.16470601
vt 0.00000000 0.08235300
vt 0.00000000 0.00000000
vt 0.00000000 0.16470601
vt 0.00000000 0.00000000
vt 0.00000000 0.08235300
vt 0.00000000 0.00000000
vt 0.00000000 0.00000000
vt 1.00000000 0.00000000
vt 0.00000000 0.83529401
vt 0.00000000 0.66666698
vt 0.00000000 0.00000000
vt 0.00000000 0.66666698
vt 0.00000000 0.50196099
vt 0.00000000 0.00000000
vt 0.00000000 0.50196099
vt 0.00000000 0.66666698
vt 0.00000000 0.00000000
vt 0.00000000 0.92156899
vt 0.00392200 0.93333298
vt 0.00000000 0.00000000
vt 0.00000000 0.33333299
vt 0.00000000 0.50196099
vt 0.00000000 0.00000000
vt 0.00000000 0.50196099
vt 0.00000000 0.66666698
vt 0.00000000 0.00000000
vt 0.00000000 0.66666698
vt 0.00000000 0.83529401
vt 0.00000000 0.00000000
vt 0.00000000 0.00000000
vt 0.00000000 0.16470601
vt 0.00000000 0.33333299
vt 0.00000000 0.91764700
vt 0.00000000 1.00000000
vt 0.00000000 0.00000000
vt 0.00000000 0.00000000
vt 1.00000000 1.00000000
vt 0.00000000 0.00000000
vt 0.00000000 0.00000000
vt 1.00000000 0.91764700
vt 1.00000000 0.95686299
vt 0.00000000 0.00000000
vt 0.00000000 0.00000000
vt 0.00000000 0.94902003
vt 0.00000000 0.95686299
vt 0.00000000 0.00000000
vt 1.00000000 0.08235300
vt 1.00000000 0.12548999
vt 0.00000000 0.00000000
vt 1.00000000 0.12548999
vt 1.00000000 0.16470601
vt 0.00000000 0.00000000
vt 0.00000000 0.95686299
vt 0.00000000 0.96470600
vt 0.00000000 0.43137300
vt 0.98431402 0.00784300
vt 0.97647101 0.00000000
vt 0.00000000 0.00000000
vt 0.00000000 0.95686299
vt 0.00000000 0.94902003
vt 1.00000000 0.49803901
vt 0.98431402 0.62745100
vt 1.00000000 0.33333299
vt 0.00000000 0.00000000
vt 1.00000000 0.16470601
vt 0.00000000 0.00000000
vt 0.00000000 0.96470600
vt 0.00000000 0.95686299
vt 0.00000000 0.00000000
vt 1.00000000 0.33333299
vt 0.00000000 0.00000000
vt 0.62745100 0.01568600
vt 1.00000000 1.00000000
vt 0.00000000 1.00000000
vt 0.00000000 0.00000000
vt 0.00000000 0.00000000
vt 1.00000000 0.12548999
vt 1.00000000 0.08235300
vt 0.00000000 0.83529401
vt 0.00000000 0.66666698
vt 1.00000000 0.16470601
vt 1.00000000 0.12548999
vt 0.00000000 0.00000000
vt 1.00000000 0.95686299
vt 1.00000000 0.91764700
vt 0.00000000 0.00000000
vt 0.62745100 0.01568600
vt 0.56470603 0.00392200
vt 0.00000000 0.66666698
vt 1.00000000 0.16470601
vt 1.00000000 0.12548999
vt 0.00000000 0.00000000
vt 1.00000000 0.33333299
vt 0.00000000 0.00000000
f 39/1 37/2 24/3
f 37/4 45/5 24/6
f 44/7 46/8 24/9
f 46/10 39/11 24/12
f 46/13 19/14 39/15
f 19/16 37/17 39/18
f 19/19 23/20 37/21
f 38/22 71/23 45/24
f 130/25 131/26 42/27
f 131/28 79/29 42/30
f 79/31 46/32 44/33
f 59/34 19/35 46/36
f 29/37 31/38 19/39
f 31/40 16/41 19/42
f 18/43 30/44 19/45
f 30/46 33/47 19/48
f 4/49 193/50 208/51 2/52
f 180/53 34/54 19/55
f 34/56 20/57 19/58
f 21/59 35/60 19/61
f 35/62 22/63 19/64
f 56/65 27/66 19/67
f 27/68 55/69 19/70
f 55/71 64/72 19/73
f 64/74 47/75 19/76
f 47/77 50/78 19/79
f 49/80 25/81 19/82
f 25/83 48/84 19/85
f 48/86 26/87 19/88
f 26/89 54/90 19/91
f 54/92 29/93 19/94
f 23/95 71/96 38/97
f 36/98 71/99 23/100
f 14/101 15/102 8/103 7/104
f 131/105 43/106 79/107
f 200/108 214/109 109/110 108/111
f 40/112 128/113 130/114
f 126/115 80/116 130/117
f 80/118 135/119 130/120
f 135/121 206/122 130/123
f 206/124 216/125 130/126
f 216/127 158/128 130/129
f 158/130 164/131 130/132
f 61/133 95/134 77/135 125/136
f 195/137 212/138 184/139 180/140
f 100/141 73/142 131/143
f 76/144 125/145 131/146
f 125/147 77/148 131/149
f 77/150 124/151 131/152
f 124/153 78/154 131/155
f 78/156 43/157 131/158
f 32/159 16/160 31/161 69/162
f 43/163 96/164 59/165
f 66/166 85/167 29/168
f 86/169 54/170 26/171 87/172
f 54/173 28/174 29/175
f 28/176 66/177 29/178
f 84/179 69/180 31/181
f 107/182 108/183 16/184
f 110/185 113/186 16/187
f 113/188 111/189 16/190
f 32/191 187/192 16/193
f 187/194 177/195 16/196
f 219/197 183/198 22/199 70/200
f 112/201 185/202 17/203
f 185/204 178/205 17/206
f 178/207 179/208 18/209
f 179/210 30/211 18/212
f 179/213 33/214 30/215
f 175/216 174/217 173/218 160/219
f 184/220 21/221 180/222
f 20/223 34/224 180/225
f 203/226 204/227 179/228 178/229
f 184/230 35/231 21/232
f 184/233 181/234 35/235
f 181/236 116/237 35/238
f 116/239 117/240 35/241
f 117/242 22/243 35/244
f 117/245 115/246 22/247
f 114/248 118/249 22/250
f 119/251 70/252 22/253
f 172/254 10/255 9/256 143/257
f 189/258 36/259 22/260
f 155/261 166/262 218/263 219/264
f 97/265 73/266 27/267
f 4/268 153/269 162/270 5/271
f 63/272 97/273 27/274
f 100/275 106/276 55/277
f 106/278 64/279 55/280
f 106/281 105/282 64/283
f 105/284 47/285 64/286
f 105/287 65/288 47/289
f 65/290 50/291 47/292
f 65/293 88/294 50/295
f 88/296 92/297 50/298
f 156/299 205/300 218/301 166/302
f 89/303 53/304 26/305
f 53/306 87/307 26/308
f 100/309 55/310 27/311 73/312
f 86/313 67/314 54/315
f 67/316 28/317 54/318
f 189/319 128/320 36/321
f 78/322 96/323 43/324
f 134/325 81/326 132/327
f 82/328 129/329 132/330
f 129/331 83/332 132/333
f 83/334 84/335 132/336
f 85/337 68/338 132/339
f 159/340 150/341 132/342
f 151/343 190/344 132/345
f 192/346 134/347 132/348
f 188/349 218/350 127/351
f 218/352 205/353 127/354
f 205/355 217/356 126/357
f 217/358 80/359 126/360
f 217/361 135/362 80/363
f 217/364 206/365 135/366
f 171/367 145/368 213/369 201/370
f 158/371 216/372 206/373
f 174/374 164/375 158/376
f 174/377 175/378 159/379
f 174/380 159/381 163/382
f 68/383 86/384 133/385
f 87/386 123/387 133/388
f 120/389 104/390 133/391
f 101/392 72/393 133/394
f 43/395 59/396 46/397 79/398
f 128/399 40/400 71/401 36/402
f 89/403 26/404 48/405 90/406
f 95/407 60/408 124/409 77/410
f 209/411 70/412 119/413 199/414
f 60/415 99/416 124/417
f 96/418 78/419 124/420
f 100/421 131/422 133/423 72/424
f 84/425 83/426 69/427
f 83/428 187/429 69/430
f 187/431 32/432 69/433
f 194/434 215/435 107/436
f 210/437 198/438 114/439 115/440
f 87/441 53/442 89/443 123/444
f 213/445 186/446 111/447
f 83/448 129/449 187/450
f 129/451 176/452 187/453
f 176/454 207/455 187/456
f 207/457 7/458 194/459
f 7/460 8/461 194/462
f 8/463 6/464 194/465
f 6/466 215/467 194/468
f 211/469 181/470 184/471 212/472
f 203/473 147/474 204/475
f 147/476 148/477 204/478
f 148/479 195/480 204/481
f 139/482 169/483 199/484 198/485
f 149/486 170/487 195/488
f 170/489 212/490 195/491
f 117/492 116/493 181/494
f 182/495 197/496 117/497
f 213/498 111/499 113/500 201/501
f 201/502 113/503 110/504 214/505
f 198/506 118/507 114/508
f 186/509 213/510 202/511 185/512
f 215/513 200/514 108/515 107/516
f 209/517 219/518 70/519
f 13/520 154/521 161/522 14/523
f 167/524 155/525 219/526
f 132/527 130/528 163/529 159/530
f 61/531 125/532 76/533 98/534
f 88/535 65/536 105/537
f 102/538 92/539 88/540 101/541
f 121/542 93/543 52/544
f 173/545 174/546 167/547 140/548
f 192/549 208/550 134/551
f 208/552 81/553 134/554
f 208/555 193/556 82/557
f 193/558 129/559 82/560
f 193/561 207/562 129/563
f 207/564 176/565 129/566
f 175/567 150/568 159/569
f 152/570 208/571 192/572
f 194/573 177/574 187/575 207/576
f 197/577 210/578 115/579 117/580
f 165/581 174/582 157/583
f 105/584 106/585 100/586 72/587
f 165/588 156/589 174/590
f 156/591 166/592 174/593
f 166/594 155/595 174/596
f 155/597 167/598 174/599
f 139/600 198/601 210/602 138/603
f 94/604 104/605 120/606
f 6/607 1/608 215/609
f 1/610 200/611 215/612
f 1/613 9/614 200/615
f 9/616 10/617 200/618
f 10/619 214/620 200/621
f 10/622 11/623 214/624
f 11/625 144/626 214/627
f 167/628 219/629 209/630 140/631
f 144/632 11/633 10/634 172/635
f 146/636 202/637 213/638
f 193/639 5/640 207/641
f 5/642 3/643 207/644
f 3/645 14/646 207/647
f 14/648 7/649 207/650
f 168/651 209/652 199/653 169/654
f 1/655 6/656 8/657
f 141/658 175/659 160/660 142/661
f 160/662 148/663 147/664
f 160/665 173/666 149/667
f 170/668 136/669 211/670
f 136/671 196/672 211/673
f 173/674 170/675 149/676
f 173/677 136/678 170/679
f 15/680 9/681 1/682 8/683
f 131/684 130/685 132/686 133/687
f 162/688 154/689 12/690 5/691
f 168/692 140/693 209/694
f 153/695 2/696 208/697
f 144/698 171/699 201/700 214/701
f 4/702 5/703 193/704
f 141/705 161/706 175/707
f 161/708 154/709 175/710
f 154/711 162/712 175/713
f 162/714 153/715 175/716
f 141/717 15/718 14/719 161/720
f 140/721 168/722 173/723
f 169/724 139/725 173/726
f 156/727 165/728 217/729 205/730
f 138/731 210/732 197/733 137/734
f 172/735 160/736 144/737
f 160/738 171/739 144/740
f 160/741 145/742 171/743
f 165/744 157/745 206/746 217/747
f 12/748 13/749 5/750
f 13/751 3/752 5/753
f 13/754 14/755 3/756
f 194/757 107/758 16/759 177/760
f 72/761 101/762 88/763 105/764
f 141/765 142/766 15/767
f 172/768 143/769 160/770
f 4/771 2/772 153/773
f 13/774 12/775 154/776
f 62/777 56/778 61/779
f 57/780 61/781 56/782
f 93/783 89/784 90/785
f 42/786 45/787 41/788
f 45/789 42/790 24/791
f 68/792 85/793 66/794 28/795
f 38/796 45/797 37/798
f 23/799 38/800 37/801
f 98/802 75/803 74/804 63/805
f 41/806 130/807 42/808
f 85/809 84/810 31/811 29/812
f 16/813 17/814 19/815
f 17/816 18/817 19/818
f 20/819 21/820 19/821
f 22/822 23/823 19/824
f 59/825 58/826 19/827
f 58/828 57/829 19/830
f 57/831 56/832 19/833
f 50/834 49/835 19/836
f 22/837 36/838 23/839
f 40/840 130/841 41/842
f 128/843 127/844 130/845
f 127/846 126/847 130/848
f 73/849 74/850 131/851
f 74/852 75/853 131/854
f 75/855 76/856 131/857
f 91/858 49/859 50/860 92/861
f 108/862 109/863 16/864
f 109/865 110/866 16/867
f 111/868 17/869 16/870
f 111/871 112/872 17/873
f 178/874 18/875 17/876
f 21/877 20/878 180/879
f 115/880 114/881 22/882
f 118/883 119/884 22/885
f 95/886 61/887 57/888
f 62/889 98/890 56/891
f 103/892 104/893 94/894 91/895
f 52/896 90/897 48/898 25/899
f 95/900 57/901 58/902 60/903
f 51/904 52/905 25/906
f 94/907 120/908 121/909 52/910
f 81/911 82/912 132/913
f 84/914 85/915 132/916
f 68/917 133/918 132/919
f 189/920 127/921 128/922
f 205/923 126/924 127/925
f 86/926 87/927 133/928
f 123/929 122/930 133/931
f 122/932 121/933 133/934
f 121/935 120/936 133/937
f 104/938 103/939 133/940
f 103/941 102/942 133/943
f 102/944 101/945 133/946
f 67/947 86/948 68/949 28/950
f 98/951 76/952 75/953
f 99/954 96/955 124/956
f 99/957 60/958 96/959
f 79/960 44/961 24/962 42/963
f 199/964 119/965 118/966 198/967
f 214/968 110/969 109/970
f 93/971 121/972 122/973 89/974
f 185/975 112/976 111/977
f 60/978 58/979 59/980 96/981
f 63/982 27/983 56/984 98/985
f 98/986 62/987 61/988
f 71/989 40/990 41/991 45/992
f 51/993 25/994 49/995 91/996
f 94/997 51/998 91/999
f 94/1000 52/1001 51/1002
f 93/1003 90/1004 52/1005
f 122/1006 123/1007 89/1008
f 208/1009 82/1010 81/1011
f 63/1012 74/1013 73/1014 97/1015
f 102/1016 103/1017 91/1018 92/1019
f 164/1020 163/1021 130/1022
f 150/1023 151/1024 132/1025
f 157/1026 158/1027 206/1028
f 157/1029 174/1030 158/1031
f 174/1032 163/1033 164/1034
f 148/1035 149/1036 195/1037
f 142/1038 143/1039 9/1040 15/1041
f 175/1042 151/1043 150/1044
f 175/1045 152/1046 151/1047
f 152/1048 191/1049 151/1050
f 145/1051 146/1052 213/1053
f 146/1054 147/1055 202/1056
f 146/1057 160/1058 147/1059
f 160/1060 149/1061 148/1062
f 136/1063 137/1064 196/1065
f 152/1066 153/1067 208/1068
f 153/1069 152/1070 175/1071
f 168/1072 169/1073 173/1074
f 139/1075 138/1076 173/1077
f 138/1078 137/1079 173/1080
f 137/1081 136/1082 173/1083
f 160/1084 146/1085 145/1086
f 143/1087 142/1088 160/1089
f 180/1090 179/1091 204/1092 195/1093
f 202/1094 203/1095 178/1096 185/1097
f 183/1098 189/1099 22/1100
f 190/1101 191/1102 132/1103
f 191/1104 192/1105 132/1106
f 189/1107 188/1108 127/1109
f 186/1110 185/1111 111/1112
f 189/1113 183/1114 219/1115 218/1116
f 182/1117 117/1118 181/1119
f 218/1120 188/1121 189/1122
f 196/1123 182/1124 181/1125 211/1126
f 179/1127 180/1128 19/1129 33/1130
f 191/1131 190/1132 151/1133
f 152/1134 192/1135 191/1136
f 147/1137 203/1138 202/1139
f 170/1140 211/1141 212/1142
f 137/1143 197/1144 196/1145
f 197/1146 182/1147 196/1148
