# Exported from USD: /m20_12_23d/robot_base/collisions/base/mesh
mtllib mesh_1.mtl

g mesh
v -0.16500001 -0.16500001 0.00000000
v -0.23878440 -0.12470000 0.00900000
v -0.16900000 -0.12295000 0.00000000
v 0.17299999 -0.15700001 0.01699995
v 0.16851830 -0.04399996 0.15200000
v 0.17000000 -0.16000000 0.01999998
v -0.23878440 0.11850000 0.00899994
v -0.16900000 -0.12295000 0.00000000
v -0.23878440 -0.12470000 0.00900000
v -0.23878440 0.11850000 0.00899994
v -0.16900000 0.12365000 0.00000000
v -0.16900000 -0.12295000 0.00000000
v -0.23878440 0.11850000 0.00899994
v -0.23878440 0.12470000 0.00899994
v -0.16900000 0.12365000 0.00000000
v 0.16000000 -0.17000000 0.01999998
v 0.17000000 -0.16000000 0.01999998
v 0.16851830 -0.04399996 0.15200000
v 0.16000000 -0.17000000 0.01999998
v 0.17299999 -0.15700001 0.01699995
v 0.17000000 -0.16000000 0.01999998
v 0.16000000 -0.17000000 0.01999998
v 0.03830152 -0.04153603 0.29609999
v 0.03314596 -0.04575574 0.29609999
v 0.16000000 -0.17000000 0.01999998
v 0.16000000 -0.17000000 0.00000000
v 0.17299999 -0.15700001 0.00000000
v 0.16000000 -0.17000000 0.01999998
v 0.17299999 -0.15700001 0.00000000
v 0.17299999 -0.15700001 0.01699995
v 0.16000000 -0.17000000 0.01999998
v 0.16851830 -0.04399996 0.15200000
v 0.03830152 -0.04153603 0.29609999
v 0.17299999 -0.00749999 0.15200000
v 0.16851830 -0.04399996 0.15200000
v 0.17299999 -0.15700001 0.01699995
v 0.17299999 -0.00749999 0.15200000
v 0.05610716 -0.00665063 0.29609999
v 0.16851830 -0.04399996 0.15200000
v 0.04009073 0.03981184 0.29609999
v 0.16851810 0.04399985 0.15200029
v 0.16000000 0.17000000 0.01999998
v 0.17299999 0.15700001 0.01699995
v 0.16851810 0.04399985 0.15200029
v 0.17299999 0.00749999 0.15200000
v 0.17299999 0.15700001 0.01699995
v 0.17299999 0.00749999 0.15200000
v 0.17299999 -0.00749999 0.15200000
v 0.17299999 0.15700001 0.01699995
v 0.17299999 -0.15700001 0.00000000
v 0.17299999 0.15700001 0.00000000
v 0.17299999 0.15700001 0.01699995
v 0.17299999 -0.00749999 0.15200000
v 0.17299999 -0.15700001 0.01699995
v 0.17299999 0.15700001 0.01699995
v 0.17299999 -0.15700001 0.01699995
v 0.17299999 -0.15700001 0.00000000
v -0.15750000 0.17299999 0.01699995
v -0.46028441 0.07199996 0.11400000
v -0.23657639 0.13209610 0.15690000
v -0.15750000 0.17299999 0.01699995
v -0.15750000 0.17299999 0.00000000
v -0.46028441 0.07199996 0.11400000
v -0.23655060 0.13199949 0.15700001
v -0.46028441 0.06699997 0.12266020
v -0.02752959 0.04933929 0.29609999
v 0.05623984 0.00541526 0.29609999
v 0.17299999 0.00749999 0.15200000
v 0.16851810 0.04399985 0.15200029
v -0.16500001 0.16550000 0.00000000
v -0.16900000 0.12365000 0.00000000
v -0.23878440 0.12470000 0.00899994
v -0.01116758 -0.05538529 0.29609999
v -0.23657639 -0.13209610 0.15690000
v -0.00457054 -0.05631482 0.29609999
v -0.23766410 -0.13141979 0.15700001
v -0.04009073 -0.03981178 0.29609999
v -0.46028441 0.02499997 0.12266020
v -0.23766410 -0.13141979 0.15700001
v -0.03512573 -0.04425412 0.29609999
v -0.04009073 -0.03981178 0.29609999
v -0.23527899 -0.13215271 0.15690000
v 0.00209004 -0.05646127 0.29609999
v -0.00457054 -0.05631482 0.29609999
v -0.23527899 -0.13215271 0.15690000
v -0.00457054 -0.05631482 0.29609999
v -0.23657639 -0.13209610 0.15690000
v -0.23527899 -0.13215271 0.15690000
v 0.05199998 -0.12400000 0.15200000
v 0.00209004 -0.05646127 0.29609999
v -0.23527899 -0.13215271 0.15690000
v -0.23657639 -0.13209610 0.15690000
v -0.11300000 -0.17000000 0.03149998
v 0.03512573 0.04425418 0.29609999
v 0.04009073 0.03981184 0.29609999
v 0.16000000 0.17000000 0.01999998
v 0.17000000 0.16000000 0.01999998
v 0.16000000 0.17000000 0.01999998
v 0.16851810 0.04399985 0.15200029
v 0.17000000 0.16000000 0.01999998
v 0.16851810 0.04399985 0.15200029
v 0.17299999 0.15700001 0.01699995
v 0.15700001 0.17299999 0.01699995
v 0.10500000 0.17000000 0.03149998
v 0.05199998 0.12400000 0.15200000
v 0.15700001 0.17299999 0.01699995
v 0.16000000 0.17000000 0.01999998
v 0.17000000 0.16000000 0.01999998
v 0.15700001 0.17299999 0.01699995
v 0.17299999 0.15700001 0.00000000
v 0.15700001 0.17299999 0.00000000
v 0.15700001 0.17299999 0.01699995
v -0.15750000 0.17299999 0.01699995
v -0.11300000 0.17000000 0.03149998
v 0.15700001 0.17299999 0.01699995
v -0.11300000 0.17000000 0.03149998
v 0.10500000 0.17000000 0.03149998
v 0.15700001 0.17299999 0.01699995
v 0.15700001 0.17299999 0.00000000
v -0.15750000 0.17299999 0.00000000
v 0.15700001 0.17299999 0.01699995
v -0.15750000 0.17299999 0.00000000
v -0.15750000 0.17299999 0.01699995
v 0.15700001 0.17299999 0.01699995
v 0.17000000 0.16000000 0.01999998
v 0.17299999 0.15700001 0.01699995
v 0.15700001 0.17299999 0.01699995
v 0.17299999 0.15700001 0.01699995
v 0.17299999 0.15700001 0.00000000
v 0.02699995 0.13974971 0.11494500
v 0.05199998 0.12400000 0.15200000
v 0.10500000 0.17000000 0.03149998
v -0.23527899 0.13215271 0.15690000
v 0.10500000 0.17000000 0.03149998
v -0.11300000 0.17000000 0.03149998
v -0.23527899 0.13215271 0.15690000
v -0.15750000 0.17299999 0.01699995
v -0.23657639 0.13209610 0.15690000
v -0.23527899 0.13215271 0.15690000
v -0.11300000 0.17000000 0.03149998
v -0.15750000 0.17299999 0.01699995
v -0.23527899 0.13215271 0.15690000
v 0.05199998 0.12400000 0.15200000
v 0.02699995 0.13974971 0.11494500
v -0.23527899 0.13215271 0.15690000
v 0.02699995 0.13974971 0.11494500
v 0.10500000 0.17000000 0.03149998
v -0.23527899 0.13215271 0.15690000
v 0.00457054 0.05631482 0.29609999
v 0.05199998 0.12400000 0.15200000
v -0.01523190 0.05440807 0.29609999
v -0.23657639 0.13209610 0.15690000
v -0.23655060 0.13199949 0.15700001
v -0.46028441 0.06907105 0.12107110
v -0.23655060 0.13199949 0.15700001
v -0.23657639 0.13209610 0.15690000
v -0.46028441 0.06907105 0.12107110
v -0.46028441 0.06699997 0.12266020
v -0.23655060 0.13199949 0.15700001
v -0.46028441 0.06907105 0.12107110
v -0.23657639 0.13209610 0.15690000
v -0.46028441 0.07066023 0.11900000
v -0.46028441 0.07165926 0.11658820
v -0.46028441 0.07066023 0.11900000
v -0.23657639 0.13209610 0.15690000
v -0.46028441 0.07165926 0.11658820
v -0.23657639 0.13209610 0.15690000
v -0.46028441 0.07199996 0.11400000
v -0.46028441 0.07165926 0.11141180
v -0.46028441 0.07199996 0.11400000
v -0.15750000 0.17299999 0.00000000
v -0.46028441 0.02999997 0.10400000
v -0.23878440 0.11850000 0.00899994
v -0.23878440 -0.12470000 0.00900000
v 0.05649995 0.00000000 0.29609999
v 0.17299999 -0.00749999 0.15200000
v 0.17299999 0.00749999 0.15200000
v 0.05649995 0.00000000 0.29609999
v 0.17299999 0.00749999 0.15200000
v 0.05623984 0.00541526 0.29609999
v 0.05649995 0.00000000 0.29609999
v 0.05610716 -0.00665063 0.29609999
v 0.17299999 -0.00749999 0.15200000
v 0.10850000 -0.17000000 0.00000000
v -0.17000000 -0.17000000 0.00500000
v -0.16500001 -0.16500001 0.00000000
v 0.10850000 -0.17000000 0.00000000
v 0.17299999 -0.15700001 0.00000000
v 0.16000000 -0.17000000 0.00000000
v 0.10850000 -0.17000000 0.00000000
v -0.16500001 -0.16500001 0.00000000
v -0.16900000 -0.12295000 0.00000000
v 0.10850000 -0.17000000 0.00000000
v 0.17299999 0.15700001 0.00000000
v 0.17299999 -0.15700001 0.00000000
v 0.10850000 -0.17000000 0.00000000
v -0.16900000 -0.12295000 0.00000000
v -0.16900000 0.12365000 0.00000000
v 0.10850000 -0.17000000 0.00000000
v -0.16900000 0.12365000 0.00000000
v -0.16500001 0.16550000 0.00000000
v 0.10850000 -0.17000000 0.00000000
v 0.15700001 0.17299999 0.00000000
v 0.17299999 0.15700001 0.00000000
v 0.10850000 -0.17000000 0.00000000
v -0.16500001 0.16550000 0.00000000
v -0.15750000 0.17299999 0.00000000
v 0.10850000 -0.17000000 0.00000000
v -0.15750000 0.17299999 0.00000000
v 0.15700001 0.17299999 0.00000000
v -0.17000000 -0.17000000 0.01999998
v -0.11300000 -0.17000000 0.03149998
v -0.23657639 -0.13209610 0.15690000
v -0.23618200 -0.13223130 0.01399999
v -0.17000000 -0.17000000 0.00500000
v -0.23746270 -0.13189450 0.02649998
v -0.23618200 -0.13223130 0.01399999
v -0.23596850 -0.13222250 0.01255422
v -0.17000000 -0.17000000 0.00500000
v -0.23618200 -0.13223130 0.01399999
v -0.46028441 0.01999998 0.11400000
v -0.23596850 -0.13222250 0.01255422
v -0.23618200 -0.13223130 0.01399999
v -0.23746270 -0.13189450 0.02649998
v -0.46028441 0.01999998 0.11400000
v -0.23384890 -0.13186000 0.00977057
v -0.16500001 -0.16500001 0.00000000
v -0.17000000 -0.17000000 0.00500000
v -0.23878440 0.12641729 0.00930416
v -0.16500001 0.16550000 0.00000000
v -0.23878440 0.12470000 0.00899994
v -0.23878440 0.12641729 0.00930416
v -0.15750000 0.17299999 0.00000000
v -0.16500001 0.16550000 0.00000000
v -0.01760941 -0.05368566 0.29609999
v -0.23657639 -0.13209610 0.15690000
v -0.01116758 -0.05538529 0.29609999
v -0.23772840 -0.13149640 0.15690000
v -0.23766410 -0.13141979 0.15700001
v -0.46028441 0.02499997 0.12266020
v -0.23772840 -0.13149640 0.15690000
v -0.46028441 0.02499997 0.12266020
v -0.46028441 0.02292889 0.12107110
v -0.23772840 -0.13149640 0.15690000
v -0.46028441 0.02034074 0.11658820
v -0.46028441 0.01999998 0.11400000
v -0.23772840 -0.13149640 0.15690000
v -0.46028441 0.01999998 0.11400000
v -0.23785490 -0.13162260 0.15340000
v -0.23772840 -0.13149640 0.15690000
v -0.23785490 -0.13162260 0.15340000
v -0.23657639 -0.13209610 0.15690000
v -0.23655060 -0.13199949 0.15700001
v -0.02380639 -0.05123966 0.29609999
v -0.23766410 -0.13141979 0.15700001
v -0.23655060 -0.13199949 0.15700001
v -0.23772840 -0.13149640 0.15690000
v -0.23657639 -0.13209610 0.15690000
v -0.23655060 -0.13199949 0.15700001
v -0.23766410 -0.13141979 0.15700001
v -0.23772840 -0.13149640 0.15690000
v -0.23655060 -0.13199949 0.15700001
v -0.01760941 -0.05368566 0.29609999
v -0.02380639 -0.05123966 0.29609999
v -0.23655060 -0.13199949 0.15700001
v -0.23657639 -0.13209610 0.15690000
v -0.01760941 -0.05368566 0.29609999
v -0.02967232 -0.04808115 0.29609999
v -0.23766410 -0.13141979 0.15700001
v -0.02380639 -0.05123966 0.29609999
v -0.02967232 -0.04808115 0.29609999
v -0.03512573 -0.04425412 0.29609999
v -0.23766410 -0.13141979 0.15700001
v -0.23746270 -0.13189450 0.07649999
v -0.46028441 0.01999998 0.11400000
v -0.23746270 -0.13189450 0.02649998
v -0.23746270 -0.13189450 0.07649999
v -0.23785490 -0.13162260 0.15340000
v -0.46028441 0.01999998 0.11400000
v -0.23746270 -0.13189450 0.07649999
v -0.17000000 -0.17000000 0.01999998
v -0.23785490 -0.13162260 0.15340000
v -0.23746270 -0.13189450 0.07649999
v -0.23746270 -0.13189450 0.02649998
v -0.17000000 -0.17000000 0.00500000
v -0.23746270 -0.13189450 0.07649999
v -0.17000000 -0.17000000 0.00500000
v -0.17000000 -0.17000000 0.01999998
v 0.10500000 -0.17000000 0.03149998
v 0.16000000 -0.17000000 0.01999998
v 0.05199998 -0.12400000 0.15200000
v 0.10500000 -0.17000000 0.03149998
v 0.05199998 -0.12400000 0.15200000
v -0.23527899 -0.13215271 0.15690000
v 0.10500000 -0.17000000 0.03149998
v -0.23527899 -0.13215271 0.15690000
v -0.11300000 -0.17000000 0.03149998
v 0.10500000 -0.17000000 0.03149998
v -0.11300000 -0.17000000 0.03149998
v -0.17000000 -0.17000000 0.01999998
v 0.10500000 -0.17000000 0.03149998
v 0.16000000 -0.17000000 0.00000000
v 0.16000000 -0.17000000 0.01999998
v 0.10500000 -0.17000000 0.03149998
v 0.10850000 -0.17000000 0.00000000
v 0.16000000 -0.17000000 0.00000000
v 0.10500000 -0.17000000 0.03149998
v -0.17000000 -0.17000000 0.01999998
v -0.17000000 -0.17000000 0.00500000
v 0.10500000 -0.17000000 0.03149998
v -0.17000000 -0.17000000 0.00500000
v 0.10850000 -0.17000000 0.00000000
v 0.04292446 -0.03673875 0.29609999
v 0.03830152 -0.04153603 0.29609999
v 0.16851830 -0.04399996 0.15200000
v 0.05493426 -0.01320880 0.29609999
v 0.16851830 -0.04399996 0.15200000
v 0.05610716 -0.00665063 0.29609999
v 0.02752959 -0.04933929 0.29609999
v 0.02153044 -0.05223679 0.29609999
v 0.16000000 -0.17000000 0.01999998
v 0.02752959 -0.04933929 0.29609999
v 0.16000000 -0.17000000 0.01999998
v 0.03314596 -0.04575574 0.29609999
v 0.00872165 -0.05582273 0.29609999
v 0.00209004 -0.05646127 0.29609999
v 0.05199998 -0.12400000 0.15200000
v 0.02967232 0.04808115 0.29609999
v 0.03512573 0.04425418 0.29609999
v 0.16000000 0.17000000 0.01999998
v 0.02967232 0.04808115 0.29609999
v 0.16000000 0.17000000 0.01999998
v 0.02380639 0.05123966 0.29609999
v 0.01116758 0.05538529 0.29609999
v 0.15700001 0.17299999 0.01699995
v 0.05199998 0.12400000 0.15200000
v 0.01116758 0.05538529 0.29609999
v 0.05199998 0.12400000 0.15200000
v 0.00457054 0.05631482 0.29609999
v 0.01760941 0.05368572 0.29609999
v 0.02380639 0.05123966 0.29609999
v 0.16000000 0.17000000 0.01999998
v 0.01760941 0.05368572 0.29609999
v 0.16000000 0.17000000 0.01999998
v 0.15700001 0.17299999 0.01699995
v 0.01760941 0.05368572 0.29609999
v 0.15700001 0.17299999 0.01699995
v 0.01116758 0.05538529 0.29609999
v -0.00209004 0.05646133 0.29609999
v -0.23527899 0.13215271 0.15690000
v -0.23657639 0.13209610 0.15690000
v -0.00209004 0.05646133 0.29609999
v 0.00457054 0.05631482 0.29609999
v -0.23527899 0.13215271 0.15690000
v -0.02153044 0.05223685 0.29609999
v -0.01523190 0.05440807 0.29609999
v -0.23655060 0.13199949 0.15700001
v -0.02153044 0.05223685 0.29609999
v -0.23655060 0.13199949 0.15700001
v -0.02752959 0.04933929 0.29609999
v -0.46028441 0.07066023 0.10900000
v -0.46028441 0.07165926 0.11141180
v -0.15750000 0.17299999 0.00000000
v -0.46028441 0.07066023 0.10900000
v -0.15750000 0.17299999 0.00000000
v -0.46028441 0.06907105 0.10692890
v -0.23498510 0.13206030 0.01075398
v -0.23395181 0.13187809 0.00983727
v -0.46028441 0.06907105 0.10692890
v -0.23498510 0.13206030 0.01075398
v -0.46028441 0.06907105 0.10692890
v -0.15750000 0.17299999 0.00000000
v -0.23498510 0.13206030 0.01075398
v -0.15750000 0.17299999 0.00000000
v -0.23395181 0.13187809 0.00983727
v -0.46028441 0.06199997 0.10400000
v -0.23878440 0.12470000 0.00899994
v -0.23878440 0.11850000 0.00899994
v -0.46028441 0.06199997 0.10400000
v -0.23878440 0.11850000 0.00899994
v -0.46028441 0.02999997 0.10400000
v 0.05380731 0.01723420 0.29609999
v 0.16851810 0.04399985 0.15200029
v 0.05140459 0.02344810 0.29609999
v 0.04828715 0.02933597 0.29609999
v 0.05140459 0.02344810 0.29609999
v 0.16851810 0.04399985 0.15200029
v -0.23685580 -0.13214260 0.15340000
v -0.17000000 -0.17000000 0.01999998
v -0.23657639 -0.13209610 0.15690000
v -0.23685580 -0.13214260 0.15340000
v -0.23657639 -0.13209610 0.15690000
v -0.23785490 -0.13162260 0.15340000
v -0.23685580 -0.13214260 0.15340000
v -0.23785490 -0.13162260 0.15340000
v -0.17000000 -0.17000000 0.01999998
v -0.23494489 -0.13205320 0.01070743
v -0.23384890 -0.13186000 0.00977057
v -0.17000000 -0.17000000 0.00500000
v -0.23878440 -0.12641729 0.00930416
v -0.23878440 -0.12470000 0.00900000
v -0.16500001 -0.16500001 0.00000000
v -0.46028441 0.06699997 0.10533970
v -0.46028441 0.06907105 0.10692890
v -0.23395181 0.13187809 0.00983727
v -0.23262720 0.13164461 0.00921339
v -0.23878440 0.12641729 0.00930416
v -0.23395181 0.13187809 0.00983727
v -0.23262720 0.13164461 0.00921339
v -0.23395181 0.13187809 0.00983727
v -0.15750000 0.17299999 0.00000000
v -0.23262720 0.13164461 0.00921339
v -0.15750000 0.17299999 0.00000000
v -0.23878440 0.12641729 0.00930416
v -0.46028441 0.02133971 0.11900000
v -0.23772840 -0.13149640 0.15690000
v -0.46028441 0.02292889 0.12107110
v -0.46028441 0.02133971 0.11900000
v -0.46028441 0.02034074 0.11658820
v -0.23772840 -0.13149640 0.15690000
v 0.04695057 -0.03143066 0.29609999
v 0.04292446 -0.03673875 0.29609999
v 0.16851830 -0.04399996 0.15200000
v 0.04695057 -0.03143066 0.29609999
v 0.16851830 -0.04399996 0.15200000
v 0.05032390 -0.02568554 0.29609999
v 0.05299752 -0.01958334 0.29609999
v 0.05032390 -0.02568554 0.29609999
v 0.16851830 -0.04399996 0.15200000
v 0.05299752 -0.01958334 0.29609999
v 0.16851830 -0.04399996 0.15200000
v 0.05493426 -0.01320880 0.29609999
v 0.01523190 -0.05440801 0.29609999
v 0.16000000 -0.17000000 0.01999998
v 0.02153044 -0.05223679 0.29609999
v 0.01523190 -0.05440801 0.29609999
v 0.00872165 -0.05582273 0.29609999
v 0.05199998 -0.12400000 0.15200000
v 0.01523190 -0.05440801 0.29609999
v 0.05199998 -0.12400000 0.15200000
v 0.16000000 -0.17000000 0.01999998
v -0.00872165 0.05582278 0.29609999
v -0.00209004 0.05646133 0.29609999
v -0.23657639 0.13209610 0.15690000
v -0.00872165 0.05582278 0.29609999
v -0.23657639 0.13209610 0.15690000
v -0.01523190 0.05440807 0.29609999
v -0.03314596 0.04575580 0.29609999
v -0.02752959 0.04933929 0.29609999
v -0.46028441 0.06699997 0.12266020
v -0.03314596 0.04575580 0.29609999
v -0.46028441 0.06699997 0.12266020
v -0.03830152 0.04153603 0.29609999
v -0.04449826 -0.03481590 0.29609999
v -0.46028441 0.02499997 0.12266020
v -0.04009073 -0.03981178 0.29609999
v -0.46028441 0.02741181 0.12365930
v -0.04449826 -0.03481590 0.29609999
v -0.04828715 -0.02933591 0.29609999
v -0.46028441 0.02741181 0.12365930
v -0.05380731 -0.01723420 0.29609999
v -0.46028441 0.02999997 0.12400000
v -0.46028441 0.02741181 0.12365930
v -0.46028441 0.02499997 0.12266020
v -0.04449826 -0.03481590 0.29609999
v -0.05493426 0.01320880 0.29609999
v -0.46028441 0.06199997 0.12400000
v -0.05610716 0.00665063 0.29609999
v -0.05493426 0.01320880 0.29609999
v -0.05299752 0.01958334 0.29609999
v -0.46028441 0.06199997 0.12400000
v -0.46028441 0.06458818 0.12365930
v -0.46028441 0.06199997 0.12400000
v -0.05299752 0.01958334 0.29609999
v -0.46028441 0.06458818 0.12365930
v -0.04695057 0.03143066 0.29609999
v -0.04292446 0.03673875 0.29609999
v -0.46028441 0.06458818 0.12365930
v -0.04292446 0.03673875 0.29609999
v -0.03830152 0.04153603 0.29609999
v -0.46028441 0.06458818 0.12365930
v -0.03830152 0.04153603 0.29609999
v -0.46028441 0.06699997 0.12266020
v -0.05546194 -0.01078069 0.29609999
v -0.05623984 -0.00541526 0.29609999
v -0.46028441 0.02999997 0.12400000
v -0.05546194 -0.01078069 0.29609999
v -0.46028441 0.02999997 0.12400000
v -0.05380731 -0.01723420 0.29609999
v -0.05649995 0.00000000 0.29609999
v -0.46028441 0.06199997 0.12400000
v -0.46028441 0.02999997 0.12400000
v -0.05649995 0.00000000 0.29609999
v -0.46028441 0.02999997 0.12400000
v -0.05623984 -0.00541526 0.29609999
v -0.05649995 0.00000000 0.29609999
v -0.05610716 0.00665063 0.29609999
v -0.46028441 0.06199997 0.12400000
v -0.46028441 0.06458818 0.10434070
v -0.23878440 0.12641729 0.00930416
v -0.23878440 0.12470000 0.00899994
v -0.46028441 0.06458818 0.10434070
v -0.23878440 0.12470000 0.00899994
v -0.46028441 0.06199997 0.10400000
v -0.46028441 0.06458818 0.10434070
v -0.46028441 0.06699997 0.10533970
v -0.23878440 0.12641729 0.00930416
v 0.05546194 0.01078069 0.29609999
v 0.05623984 0.00541526 0.29609999
v 0.16851810 0.04399985 0.15200029
v 0.05546194 0.01078069 0.29609999
v 0.16851810 0.04399985 0.15200029
v 0.05380731 0.01723420 0.29609999
v 0.04449826 0.03481590 0.29609999
v 0.04828715 0.02933597 0.29609999
v 0.16851810 0.04399985 0.15200029
v 0.04449826 0.03481590 0.29609999
v 0.16851810 0.04399985 0.15200029
v 0.04009073 0.03981184 0.29609999
v -0.23573050 -0.13219170 0.01192367
v -0.23494489 -0.13205320 0.01070743
v -0.17000000 -0.17000000 0.00500000
v -0.23573050 -0.13219170 0.01192367
v -0.17000000 -0.17000000 0.00500000
v -0.23596850 -0.13222250 0.01255422
v -0.23256850 -0.13163421 0.00919604
v -0.23878440 -0.12641729 0.00930416
v -0.16500001 -0.16500001 0.00000000
v -0.23256850 -0.13163421 0.00919604
v -0.16500001 -0.16500001 0.00000000
v -0.23384890 -0.13186000 0.00977057
v -0.23256850 -0.13163421 0.00919604
v -0.23384890 -0.13186000 0.00977057
v -0.23878440 -0.12641729 0.00930416
v -0.23878440 -0.12792569 0.01017969
v -0.23878440 -0.12641729 0.00930416
v -0.23384890 -0.13186000 0.00977057
v -0.23878440 -0.12792569 0.01017969
v -0.23384890 -0.13186000 0.00977057
v -0.23494489 -0.13205320 0.01070743
v -0.46028441 0.02741181 0.10434070
v -0.46028441 0.02999997 0.10400000
v -0.23878440 -0.12470000 0.00900000
v -0.46028441 0.02741181 0.10434070
v -0.23878440 -0.12470000 0.00900000
v -0.23878440 -0.12641729 0.00930416
v -0.23878440 0.12792569 0.01017969
v -0.46028441 0.06699997 0.10533970
v -0.23395181 0.13187809 0.00983727
v -0.23878440 0.12792569 0.01017969
v -0.23395181 0.13187809 0.00983727
v -0.23878440 0.12641729 0.00930416
v -0.23878440 0.12792569 0.01017969
v -0.23878440 0.12641729 0.00930416
v -0.46028441 0.06699997 0.10533970
v -0.05140459 -0.02344805 0.29609999
v -0.46028441 0.02741181 0.12365930
v -0.04828715 -0.02933591 0.29609999
v -0.05140459 -0.02344805 0.29609999
v -0.05380731 -0.01723420 0.29609999
v -0.46028441 0.02741181 0.12365930
v -0.05032390 0.02568560 0.29609999
v -0.46028441 0.06458818 0.12365930
v -0.05299752 0.01958334 0.29609999
v -0.05032390 0.02568560 0.29609999
v -0.04695057 0.03143066 0.29609999
v -0.46028441 0.06458818 0.12365930
v -0.05032390 0.02568560 0.29609999
v -0.04292446 0.03673875 0.29609999
v -0.04695057 0.03143066 0.29609999
v -0.05032390 0.02568560 0.29609999
v -0.05299752 0.01958334 0.29609999
v -0.05493426 0.01320880 0.29609999
v -0.05032390 0.02568560 0.29609999
v -0.03830152 0.04153603 0.29609999
v -0.04292446 0.03673875 0.29609999
v -0.05032390 0.02568560 0.29609999
v -0.05493426 0.01320880 0.29609999
v -0.05610716 0.00665063 0.29609999
v -0.05032390 0.02568560 0.29609999
v -0.03314596 0.04575580 0.29609999
v -0.03830152 0.04153603 0.29609999
v -0.05032390 0.02568560 0.29609999
v -0.05610716 0.00665063 0.29609999
v -0.05649995 0.00000000 0.29609999
v -0.05032390 0.02568560 0.29609999
v -0.02752959 0.04933929 0.29609999
v -0.03314596 0.04575580 0.29609999
v -0.05032390 0.02568560 0.29609999
v -0.05649995 0.00000000 0.29609999
v -0.05623984 -0.00541526 0.29609999
v -0.05032390 0.02568560 0.29609999
v -0.02153044 0.05223685 0.29609999
v -0.02752959 0.04933929 0.29609999
v -0.05032390 0.02568560 0.29609999
v -0.05623984 -0.00541526 0.29609999
v -0.05546194 -0.01078069 0.29609999
v -0.05032390 0.02568560 0.29609999
v -0.01523190 0.05440807 0.29609999
v -0.02153044 0.05223685 0.29609999
v -0.05032390 0.02568560 0.29609999
v -0.05546194 -0.01078069 0.29609999
v -0.05380731 -0.01723420 0.29609999
v -0.05032390 0.02568560 0.29609999
v -0.05380731 -0.01723420 0.29609999
v -0.05140459 -0.02344805 0.29609999
v -0.05032390 0.02568560 0.29609999
v -0.00872165 0.05582278 0.29609999
v -0.01523190 0.05440807 0.29609999
v -0.05032390 0.02568560 0.29609999
v -0.00209004 0.05646133 0.29609999
v -0.00872165 0.05582278 0.29609999
v -0.05032390 0.02568560 0.29609999
v 0.00457054 0.05631482 0.29609999
v -0.00209004 0.05646133 0.29609999
v -0.05032390 0.02568560 0.29609999
v 0.01116758 0.05538529 0.29609999
v 0.00457054 0.05631482 0.29609999
v -0.05032390 0.02568560 0.29609999
v 0.01760941 0.05368572 0.29609999
v 0.01116758 0.05538529 0.29609999
v -0.05032390 0.02568560 0.29609999
v 0.02380639 0.05123966 0.29609999
v 0.01760941 0.05368572 0.29609999
v -0.05032390 0.02568560 0.29609999
v 0.02967232 0.04808115 0.29609999
v 0.02380639 0.05123966 0.29609999
v -0.05032390 0.02568560 0.29609999
v 0.03512573 0.04425418 0.29609999
v 0.02967232 0.04808115 0.29609999
v -0.05032390 0.02568560 0.29609999
v 0.04009073 0.03981184 0.29609999
v 0.03512573 0.04425418 0.29609999
v -0.05032390 0.02568560 0.29609999
v 0.04449826 0.03481590 0.29609999
v 0.04009073 0.03981184 0.29609999
v -0.05032390 0.02568560 0.29609999
v 0.04828715 0.02933597 0.29609999
v 0.04449826 0.03481590 0.29609999
v -0.05032390 0.02568560 0.29609999
v 0.05140459 0.02344810 0.29609999
v 0.04828715 0.02933597 0.29609999
v -0.05032390 0.02568560 0.29609999
v 0.05380731 0.01723420 0.29609999
v 0.05140459 0.02344810 0.29609999
v -0.05032390 0.02568560 0.29609999
v 0.05546194 0.01078069 0.29609999
v 0.05380731 0.01723420 0.29609999
v -0.05032390 0.02568560 0.29609999
v 0.05623984 0.00541526 0.29609999
v 0.05546194 0.01078069 0.29609999
v -0.05032390 0.02568560 0.29609999
v 0.05649995 0.00000000 0.29609999
v 0.05623984 0.00541526 0.29609999
v -0.05032390 0.02568560 0.29609999
v 0.05610716 -0.00665063 0.29609999
v 0.05649995 0.00000000 0.29609999
v -0.05032390 0.02568560 0.29609999
v 0.05493426 -0.01320880 0.29609999
v 0.05610716 -0.00665063 0.29609999
v -0.05032390 0.02568560 0.29609999
v 0.05299752 -0.01958334 0.29609999
v 0.05493426 -0.01320880 0.29609999
v -0.05032390 0.02568560 0.29609999
v 0.05032390 -0.02568554 0.29609999
v 0.05299752 -0.01958334 0.29609999
v -0.05032390 0.02568560 0.29609999
v 0.04695057 -0.03143066 0.29609999
v 0.05032390 -0.02568554 0.29609999
v -0.05032390 0.02568560 0.29609999
v 0.04292446 -0.03673875 0.29609999
v 0.04695057 -0.03143066 0.29609999
v -0.05032390 0.02568560 0.29609999
v 0.03830152 -0.04153603 0.29609999
v 0.04292446 -0.03673875 0.29609999
v -0.05032390 0.02568560 0.29609999
v 0.03314596 -0.04575574 0.29609999
v 0.03830152 -0.04153603 0.29609999
v -0.05032390 0.02568560 0.29609999
v 0.02752959 -0.04933929 0.29609999
v 0.03314596 -0.04575574 0.29609999
v -0.05032390 0.02568560 0.29609999
v 0.02153044 -0.05223679 0.29609999
v 0.02752959 -0.04933929 0.29609999
v -0.05032390 0.02568560 0.29609999
v 0.01523190 -0.05440801 0.29609999
v 0.02153044 -0.05223679 0.29609999
v -0.05032390 0.02568560 0.29609999
v 0.00872165 -0.05582273 0.29609999
v 0.01523190 -0.05440801 0.29609999
v -0.05032390 0.02568560 0.29609999
v 0.00209004 -0.05646127 0.29609999
v 0.00872165 -0.05582273 0.29609999
v -0.05032390 0.02568560 0.29609999
v -0.00457054 -0.05631482 0.29609999
v 0.00209004 -0.05646127 0.29609999
v -0.05032390 0.02568560 0.29609999
v -0.01116758 -0.05538529 0.29609999
v -0.00457054 -0.05631482 0.29609999
v -0.05032390 0.02568560 0.29609999
v -0.01760941 -0.05368566 0.29609999
v -0.01116758 -0.05538529 0.29609999
v -0.05032390 0.02568560 0.29609999
v -0.02380639 -0.05123966 0.29609999
v -0.01760941 -0.05368566 0.29609999
v -0.05032390 0.02568560 0.29609999
v -0.02967232 -0.04808115 0.29609999
v -0.02380639 -0.05123966 0.29609999
v -0.05032390 0.02568560 0.29609999
v -0.03512573 -0.04425412 0.29609999
v -0.02967232 -0.04808115 0.29609999
v -0.05032390 0.02568560 0.29609999
v -0.04009073 -0.03981178 0.29609999
v -0.03512573 -0.04425412 0.29609999
v -0.05032390 0.02568560 0.29609999
v -0.04449826 -0.03481590 0.29609999
v -0.04009073 -0.03981178 0.29609999
v -0.05032390 0.02568560 0.29609999
v -0.05140459 -0.02344805 0.29609999
v -0.04828715 -0.02933591 0.29609999
v -0.05032390 0.02568560 0.29609999
v -0.04828715 -0.02933591 0.29609999
v -0.04449826 -0.03481590 0.29609999
v -0.46028441 0.02034074 0.11141180
v -0.23573050 -0.13219170 0.01192367
v -0.23596850 -0.13222250 0.01255422
v -0.46028441 0.02034074 0.11141180
v -0.23596850 -0.13222250 0.01255422
v -0.46028441 0.01999998 0.11400000
v -0.23878440 -0.12904160 0.01152008
v -0.23878440 -0.12792569 0.01017969
v -0.23494489 -0.13205320 0.01070743
v -0.23878440 -0.12904160 0.01152008
v -0.23494489 -0.13205320 0.01070743
v -0.23573050 -0.13219170 0.01192367
v -0.46028441 0.02499997 0.10533970
v -0.46028441 0.02741181 0.10434070
v -0.23878440 -0.12641729 0.00930416
v -0.46028441 0.02499997 0.10533970
v -0.23878440 -0.12641729 0.00930416
v -0.23878440 -0.12792569 0.01017969
v -0.46028441 0.02133971 0.10900000
v -0.23878440 -0.12904160 0.01152008
v -0.23573050 -0.13219170 0.01192367
v -0.46028441 0.02133971 0.10900000
v -0.23573050 -0.13219170 0.01192367
v -0.46028441 0.02034074 0.11141180
v -0.46028441 0.02292889 0.10692890
v -0.46028441 0.02499997 0.10533970
v -0.23878440 -0.12792569 0.01017969
v -0.46028441 0.02292889 0.10692890
v -0.46028441 0.02741181 0.10434070
v -0.46028441 0.02499997 0.10533970
v -0.46028441 0.02292889 0.10692890
v -0.23878440 -0.12792569 0.01017969
v -0.23878440 -0.12904160 0.01152008
v -0.46028441 0.02292889 0.10692890
v -0.23878440 -0.12904160 0.01152008
v -0.46028441 0.02133971 0.10900000
v -0.46028441 0.02292889 0.10692890
v -0.46028441 0.02999997 0.10400000
v -0.46028441 0.02741181 0.10434070
v -0.46028441 0.02292889 0.10692890
v -0.46028441 0.06199997 0.10400000
v -0.46028441 0.02999997 0.10400000
v -0.46028441 0.02292889 0.10692890
v -0.46028441 0.06458818 0.10434070
v -0.46028441 0.06199997 0.10400000
v -0.46028441 0.02292889 0.10692890
v -0.46028441 0.06699997 0.10533970
v -0.46028441 0.06458818 0.10434070
v -0.46028441 0.02292889 0.10692890
v -0.46028441 0.06907105 0.10692890
v -0.46028441 0.06699997 0.10533970
v -0.46028441 0.02292889 0.10692890
v -0.46028441 0.07066023 0.10900000
v -0.46028441 0.06907105 0.10692890
v -0.46028441 0.02292889 0.10692890
v -0.46028441 0.07165926 0.11141180
v -0.46028441 0.07066023 0.10900000
v -0.46028441 0.02292889 0.10692890
v -0.46028441 0.07199996 0.11400000
v -0.46028441 0.07165926 0.11141180
v -0.46028441 0.02292889 0.10692890
v -0.46028441 0.07165926 0.11658820
v -0.46028441 0.07199996 0.11400000
v -0.46028441 0.02292889 0.10692890
v -0.46028441 0.07066023 0.11900000
v -0.46028441 0.07165926 0.11658820
v -0.46028441 0.02292889 0.10692890
v -0.46028441 0.06907105 0.12107110
v -0.46028441 0.07066023 0.11900000
v -0.46028441 0.02292889 0.10692890
v -0.46028441 0.06699997 0.12266020
v -0.46028441 0.06907105 0.12107110
v -0.46028441 0.02292889 0.10692890
v -0.46028441 0.06458818 0.12365930
v -0.46028441 0.06699997 0.12266020
v -0.46028441 0.02292889 0.10692890
v -0.46028441 0.06199997 0.12400000
v -0.46028441 0.06458818 0.12365930
v -0.46028441 0.02292889 0.10692890
v -0.46028441 0.02999997 0.12400000
v -0.46028441 0.06199997 0.12400000
v -0.46028441 0.02292889 0.10692890
v -0.46028441 0.02741181 0.12365930
v -0.46028441 0.02999997 0.12400000
v -0.46028441 0.02292889 0.10692890
v -0.46028441 0.02499997 0.12266020
v -0.46028441 0.02741181 0.12365930
v -0.46028441 0.02292889 0.10692890
v -0.46028441 0.02292889 0.12107110
v -0.46028441 0.02499997 0.12266020
v -0.46028441 0.02292889 0.10692890
v -0.46028441 0.02133971 0.11900000
v -0.46028441 0.02292889 0.12107110
v -0.46028441 0.02292889 0.10692890
v -0.46028441 0.02034074 0.11658820
v -0.46028441 0.02133971 0.11900000
v -0.46028441 0.02292889 0.10692890
v -0.46028441 0.01999998 0.11400000
v -0.46028441 0.02034074 0.11658820
v -0.46028441 0.02292889 0.10692890
v -0.46028441 0.02133971 0.10900000
v -0.46028441 0.02034074 0.11141180
v -0.46028441 0.02292889 0.10692890
v -0.46028441 0.02034074 0.11141180
v -0.46028441 0.01999998 0.11400000
usemtl DefaultMaterial
f 1 2 3
f 4 5 6
f 7 8 9
f 10 11 12
f 13 14 15
f 16 17 18
f 19 20 21
f 22 23 24
f 25 26 27
f 28 29 30
f 31 32 33
f 34 35 36
f 37 38 39
f 40 41 42
f 43 44 45
f 46 47 48
f 49 50 51
f 52 53 54
f 55 56 57
f 58 59 60
f 61 62 63
f 64 65 66
f 67 68 69
f 70 71 72
f 73 74 75
f 76 77 78
f 79 80 81
f 82 83 84
f 85 86 87
f 88 89 90
f 91 92 93
f 94 95 96
f 97 98 99
f 100 101 102
f 103 104 105
f 106 107 108
f 109 110 111
f 112 113 114
f 115 116 117
f 118 119 120
f 121 122 123
f 124 125 126
f 127 128 129
f 130 131 132
f 133 134 135
f 136 137 138
f 139 140 141
f 142 143 144
f 145 146 147
f 148 149 150
f 151 152 153
f 154 155 156
f 157 158 159
f 160 161 162
f 163 164 165
f 166 167 168
f 169 170 171
f 172 173 174
f 175 176 177
f 178 179 180
f 181 182 183
f 184 185 186
f 187 188 189
f 190 191 192
f 193 194 195
f 196 197 198
f 199 200 201
f 202 203 204
f 205 206 207
f 208 209 210
f 211 212 213
f 214 215 216
f 217 218 219
f 220 221 222
f 223 224 225
f 226 227 228
f 229 230 231
f 232 233 234
f 235 236 237
f 238 239 240
f 241 242 243
f 244 245 246
f 247 248 249
f 250 251 252
f 253 254 255
f 256 257 258
f 259 260 261
f 262 263 264
f 265 266 267
f 268 269 270
f 271 272 273
f 274 275 276
f 277 278 279
f 280 281 282
f 283 284 285
f 286 287 288
f 289 290 291
f 292 293 294
f 295 296 297
f 298 299 300
f 301 302 303
f 304 305 306
f 307 308 309
f 310 311 312
f 313 314 315
f 316 317 318
f 319 320 321
f 322 323 324
f 325 326 327
f 328 329 330
f 331 332 333
f 334 335 336
f 337 338 339
f 340 341 342
f 343 344 345
f 346 347 348
f 349 350 351
f 352 353 354
f 355 356 357
f 358 359 360
f 361 362 363
f 364 365 366
f 367 368 369
f 370 371 372
f 373 374 375
f 376 377 378
f 379 380 381
f 382 383 384
f 385 386 387
f 388 389 390
f 391 392 393
f 394 395 396
f 397 398 399
f 400 401 402
f 403 404 405
f 406 407 408
f 409 410 411
f 412 413 414
f 415 416 417
f 418 419 420
f 421 422 423
f 424 425 426
f 427 428 429
f 430 431 432
f 433 434 435
f 436 437 438
f 439 440 441
f 442 443 444
f 445 446 447
f 448 449 450
f 451 452 453
f 454 455 456
f 457 458 459
f 460 461 462
f 463 464 465
f 466 467 468
f 469 470 471
f 472 473 474
f 475 476 477
f 478 479 480
f 481 482 483
f 484 485 486
f 487 488 489
f 490 491 492
f 493 494 495
f 496 497 498
f 499 500 501
f 502 503 504
f 505 506 507
f 508 509 510
f 511 512 513
f 514 515 516
f 517 518 519
f 520 521 522
f 523 524 525
f 526 527 528
f 529 530 531
f 532 533 534
f 535 536 537
f 538 539 540
f 541 542 543
f 544 545 546
f 547 548 549
f 550 551 552
f 553 554 555
f 556 557 558
f 559 560 561
f 562 563 564
f 565 566 567
f 568 569 570
f 571 572 573
f 574 575 576
f 577 578 579
f 580 581 582
f 583 584 585
f 586 587 588
f 589 590 591
f 592 593 594
f 595 596 597
f 598 599 600
f 601 602 603
f 604 605 606
f 607 608 609
f 610 611 612
f 613 614 615
f 616 617 618
f 619 620 621
f 622 623 624
f 625 626 627
f 628 629 630
f 631 632 633
f 634 635 636
f 637 638 639
f 640 641 642
f 643 644 645
f 646 647 648
f 649 650 651
f 652 653 654
f 655 656 657
f 658 659 660
f 661 662 663
f 664 665 666
f 667 668 669
f 670 671 672
f 673 674 675
f 676 677 678
f 679 680 681
f 682 683 684
f 685 686 687
f 688 689 690
f 691 692 693
f 694 695 696
f 697 698 699
f 700 701 702
f 703 704 705
f 706 707 708
f 709 710 711
f 712 713 714
f 715 716 717
f 718 719 720
f 721 722 723
f 724 725 726
f 727 728 729
f 730 731 732
f 733 734 735
f 736 737 738
f 739 740 741
f 742 743 744
f 745 746 747
f 748 749 750
f 751 752 753
f 754 755 756
f 757 758 759
f 760 761 762
f 763 764 765
f 766 767 768
f 769 770 771
f 772 773 774
f 775 776 777
f 778 779 780
f 781 782 783
f 784 785 786
f 787 788 789
f 790 791 792
f 793 794 795
f 796 797 798
f 799 800 801
f 802 803 804
f 805 806 807
f 808 809 810
f 811 812 813
f 814 815 816
f 817 818 819
f 820 821 822
f 823 824 825
f 826 827 828
