# Exported from USD: /m20_12_23d/J6_link/flange/ee_link/Screw_Driver_Tool__Assembly_/tn__Screw_Driver_ToolAssembly_hQm6t0/tn__Screw_Driver_Toolv31_cLYI/Body1/Mesh
mtllib Mesh_12.mtl

g Mesh
v 0.15926989 0.00111330 0.00278580
v 0.15890457 0.00056686 0.00294598
v 0.15890457 -0.00056686 0.00294598
v 0.15926989 -0.00111330 0.00278580
v 0.15986412 -0.00161963 0.00252525
v 0.15878131 0.00000000 0.00300002
v 0.15986412 0.00161963 0.00252525
v 0.16276981 0.00272663 0.00125122
v 0.16066584 0.00206761 0.00217373
v 0.16276981 -0.00272663 0.00125122
v 0.16528131 0.00299625 0.00015002
v 0.16528131 -0.00299625 0.00015002
v 0.16066584 -0.00206761 0.00217373
v 0.16276981 0.00272663 -0.00125118
v 0.16528131 0.00299625 -0.00014998
v 0.16276981 -0.00272663 -0.00125118
v 0.16066584 0.00206761 -0.00217369
v 0.16066584 -0.00206761 -0.00217369
v 0.16528131 -0.00299625 -0.00014998
v 0.15986412 0.00161963 -0.00252521
v 0.15926989 0.00111330 -0.00278576
v 0.15926989 -0.00111330 -0.00278576
v 0.15890457 0.00056686 -0.00294594
v 0.15986412 -0.00161963 -0.00252521
v 0.15890457 -0.00056686 -0.00294594
v 0.15878131 0.00000000 -0.00299998
v 0.16528131 0.00299625 -0.00014998
v 0.16528131 0.00299625 0.00015002
v 0.16528131 -0.00299625 0.00015002
v 0.16528131 -0.00299625 -0.00014998
v 0.16276981 -0.00272663 -0.00125118
v 0.16528131 -0.00299625 -0.00014998
v 0.16528131 -0.00299625 0.00015002
v 0.14978176 -0.00212132 -0.00212130
v 0.15986412 -0.00161963 -0.00252521
v 0.16066584 -0.00206761 -0.00217369
v 0.15926989 -0.00111330 -0.00278576
v 0.14978176 -0.00277164 -0.00114803
v 0.16276981 -0.00272663 0.00125122
v 0.14978176 -0.00212132 0.00212134
v 0.16066584 -0.00206761 0.00217373
v 0.15986412 -0.00161963 0.00252525
v 0.14978176 -0.00277164 0.00114807
v 0.14978176 -0.00300000 0.00000002
v 0.15926989 -0.00111330 0.00278580
v 0.15878131 0.00000000 -0.00299998
v 0.15890457 -0.00056686 -0.00294594
v 0.14978176 0.00000000 -0.00299998
v 0.14978176 -0.00114805 -0.00277162
v 0.15890457 0.00056686 -0.00294594
v 0.14978176 -0.00114805 0.00277166
v 0.15890457 -0.00056686 0.00294598
v 0.14978176 0.00000000 0.00300002
v 0.16276981 0.00272663 0.00125122
v 0.16528131 0.00299625 0.00015002
v 0.16276981 0.00272663 -0.00125118
v 0.14978176 0.00212132 0.00212134
v 0.15986412 0.00161963 0.00252525
v 0.16066584 0.00206761 0.00217373
v 0.15926989 0.00111330 0.00278580
v 0.14978176 0.00277164 0.00114807
v 0.16528131 0.00299625 -0.00014998
v 0.15986412 0.00161963 -0.00252521
v 0.14978176 0.00212132 -0.00212130
v 0.16066584 0.00206761 -0.00217369
v 0.14978176 0.00277164 -0.00114803
v 0.14978176 0.00300000 0.00000002
v 0.15926989 0.00111330 -0.00278576
v 0.15878131 0.00000000 0.00300002
v 0.15890457 0.00056686 0.00294598
v 0.14978176 0.00114805 0.00277166
v 0.14978176 0.00114805 -0.00277162
v 0.14326300 -0.00045463 -0.00461591
v 0.14121466 -0.00114941 -0.00577846
v 0.14121466 0.00000000 -0.00589167
v 0.14326300 -0.00134642 -0.00443852
v 0.14121466 -0.00225465 -0.00544319
v 0.14539110 -0.00072805 -0.00366012
v 0.14326300 -0.00090488 -0.00454912
v 0.14539110 -0.00142812 -0.00344776
v 0.14326300 -0.00177499 -0.00428518
v 0.14539110 -0.00108330 -0.00357114
v 0.14326300 -0.00218646 -0.00409057
v 0.14326300 0.00045463 -0.00461591
v 0.14539110 -0.00036579 -0.00371386
v 0.14326300 -0.00294248 -0.00358541
v 0.14121466 -0.00416605 -0.00416603
v 0.14121466 -0.00327324 -0.00489874
v 0.14326300 -0.00358543 -0.00294246
v 0.14326300 -0.00327975 -0.00327973
v 0.14539110 -0.00207330 -0.00310290
v 0.14326300 -0.00257688 -0.00385656
v 0.14539110 -0.00263881 -0.00263880
v 0.14539110 -0.00236746 -0.00288474
v 0.14121466 -0.00489876 -0.00327323
v 0.14539110 -0.00175918 -0.00329118
v 0.14757292 -0.00062107 -0.00312233
v 0.14757292 -0.00092413 -0.00304642
v 0.14757292 -0.00150070 -0.00280760
v 0.14757292 -0.00201961 -0.00246088
v 0.14757292 -0.00176867 -0.00264698
v 0.14757292 -0.00121828 -0.00294117
v 0.14539110 -0.00310292 -0.00207328
v 0.14326300 -0.00385658 -0.00257686
v 0.14326300 -0.00409058 -0.00218644
v 0.14539110 -0.00344778 -0.00142810
v 0.14326300 -0.00428520 -0.00177497
v 0.14121466 -0.00544321 -0.00225463
v 0.14539110 -0.00329120 -0.00175916
v 0.14757292 -0.00246090 -0.00201959
v 0.14539110 -0.00288476 -0.00236744
v 0.14757292 -0.00280762 -0.00150068
v 0.14757292 -0.00264700 -0.00176865
v 0.14757292 -0.00225109 -0.00225107
v 0.14757292 0.00031204 -0.00316817
v 0.14757292 -0.00031204 -0.00316817
v 0.14326300 -0.00443854 -0.00134640
v 0.14121466 -0.00577848 -0.00114939
v 0.14326300 -0.00461593 -0.00045461
v 0.14121466 -0.00589168 0.00000002
v 0.14539110 -0.00357116 -0.00108328
v 0.14326300 -0.00454914 -0.00090486
v 0.14539110 -0.00371388 -0.00036577
v 0.14326300 -0.00463826 0.00000002
v 0.14539110 -0.00366014 -0.00072803
v 0.14326300 -0.00461593 0.00045465
v 0.14121466 -0.00577848 0.00114943
v 0.14121466 -0.00489876 0.00327326
v 0.14121466 -0.00544321 0.00225467
v 0.14326300 -0.00409058 0.00218648
v 0.14326300 -0.00443854 0.00134644
v 0.14121466 -0.00327324 0.00489878
v 0.14121466 -0.00416605 0.00416607
v 0.14326300 -0.00294248 0.00358545
v 0.14121466 -0.00114941 0.00577850
v 0.14121466 -0.00225465 0.00544323
v 0.14326300 -0.00134642 0.00443856
v 0.14326300 -0.00218646 0.00409060
v 0.14326300 -0.00358543 0.00294250
v 0.14121466 0.00000000 0.00589170
v 0.14326300 -0.00045463 0.00461595
v 0.14539110 -0.00371388 0.00036580
v 0.14326300 -0.00454914 0.00090490
v 0.14539110 -0.00366014 0.00072807
v 0.14326300 -0.00428520 0.00177501
v 0.14539110 -0.00344778 0.00142814
v 0.14326300 -0.00385658 0.00257690
v 0.14539110 -0.00310292 0.00207332
v 0.14539110 -0.00329120 0.00175920
v 0.14539110 -0.00357116 0.00108332
v 0.14326300 -0.00327975 0.00327977
v 0.14539110 -0.00263881 0.00263883
v 0.14326300 -0.00257688 0.00385660
v 0.14539110 -0.00207330 0.00310294
v 0.14539110 -0.00236746 0.00288478
v 0.14326300 -0.00177499 0.00428522
v 0.14539110 -0.00142812 0.00344780
v 0.14326300 -0.00090488 0.00454916
v 0.14539110 -0.00072805 0.00366016
v 0.14539110 -0.00108330 0.00357117
v 0.14539110 -0.00175918 0.00329122
v 0.14539110 -0.00288476 0.00236748
v 0.14539110 -0.00036579 0.00371390
v 0.14326300 0.00000000 0.00463828
v 0.14539110 -0.00373185 0.00000002
v 0.14978176 0.00000000 -0.00299998
v 0.14978176 -0.00114805 -0.00277162
v 0.14978176 -0.00212132 -0.00212130
v 0.14757292 -0.00304644 -0.00092411
v 0.14757292 -0.00316819 -0.00031202
v 0.14757292 -0.00316819 0.00031206
v 0.14757292 -0.00318352 0.00000002
v 0.14757292 -0.00312235 -0.00062106
v 0.14757292 -0.00294119 -0.00121826
v 0.14757292 -0.00312235 0.00062109
v 0.14978176 -0.00277164 -0.00114803
v 0.14978176 -0.00300000 0.00000002
v 0.14757292 -0.00294119 0.00121830
v 0.14757292 -0.00304644 0.00092415
v 0.14978176 -0.00277164 0.00114807
v 0.14757292 -0.00264700 0.00176869
v 0.14757292 -0.00280762 0.00150072
v 0.14757292 -0.00246090 0.00201962
v 0.14757292 -0.00225109 0.00225111
v 0.14757292 -0.00176867 0.00264702
v 0.14757292 -0.00201961 0.00246092
v 0.14757292 -0.00121828 0.00294121
v 0.14757292 -0.00062107 0.00312237
v 0.14757292 -0.00092413 0.00304646
v 0.14757292 -0.00150070 0.00280764
v 0.14757292 -0.00031204 0.00316821
v 0.14978176 -0.00212132 0.00212134
v 0.14978176 -0.00114805 0.00277166
v 0.14978176 0.00000000 0.00300002
v 0.14539110 0.00000000 0.00373187
v 0.14121466 0.00114941 0.00577850
v 0.14326300 0.00045463 0.00461595
v 0.14326300 0.00090488 0.00454916
v 0.14121466 0.00225465 0.00544323
v 0.14326300 0.00134642 0.00443856
v 0.14539110 0.00108330 0.00357117
v 0.14539110 0.00175918 0.00329122
v 0.14326300 0.00218646 0.00409060
v 0.14326300 0.00177499 0.00428522
v 0.14539110 0.00142812 0.00344780
v 0.14121466 0.00327324 0.00489878
v 0.14539110 0.00072805 0.00366016
v 0.14326300 0.00294248 0.00358545
v 0.14121466 0.00416605 0.00416607
v 0.14326300 0.00358543 0.00294250
v 0.14326300 0.00327975 0.00327977
v 0.14539110 0.00236746 0.00288478
v 0.14326300 0.00257688 0.00385660
v 0.14121466 0.00544321 0.00225467
v 0.14121466 0.00489876 0.00327326
v 0.14326300 0.00409058 0.00218648
v 0.14539110 0.00263881 0.00263883
v 0.14539110 0.00207330 0.00310294
v 0.14539110 0.00036579 0.00371390
v 0.14757292 0.00062107 0.00312237
v 0.14757292 0.00121828 0.00294121
v 0.14757292 0.00176867 0.00264702
v 0.14757292 0.00150070 0.00280764
v 0.14757292 0.00092413 0.00304646
v 0.14326300 0.00385658 0.00257690
v 0.14539110 0.00310292 0.00207332
v 0.14539110 0.00329120 0.00175920
v 0.14757292 0.00246090 0.00201962
v 0.14539110 0.00288476 0.00236748
v 0.14757292 0.00280762 0.00150072
v 0.14757292 0.00264700 0.00176869
v 0.14539110 0.00344778 0.00142814
v 0.14326300 0.00428520 0.00177501
v 0.14757292 0.00225109 0.00225111
v 0.14757292 0.00201961 0.00246092
v 0.14326300 0.00443854 0.00134644
v 0.14121466 0.00577848 0.00114943
v 0.14121466 0.00589168 0.00000002
v 0.14326300 0.00461593 0.00045465
v 0.14539110 0.00357116 0.00108332
v 0.14326300 0.00454914 0.00090490
v 0.14539110 0.00371388 0.00036580
v 0.14326300 0.00463826 0.00000002
v 0.14539110 0.00366014 0.00072807
v 0.14326300 0.00461593 -0.00045461
v 0.14326300 0.00454914 -0.00090486
v 0.14121466 0.00577848 -0.00114939
v 0.14121466 0.00489876 -0.00327323
v 0.14121466 0.00544321 -0.00225463
v 0.14326300 0.00409058 -0.00218644
v 0.14326300 0.00443854 -0.00134640
v 0.14121466 0.00416605 -0.00416603
v 0.14326300 0.00294248 -0.00358541
v 0.14121466 0.00327324 -0.00489874
v 0.14326300 0.00358543 -0.00294246
v 0.14121466 0.00225465 -0.00544319
v 0.14326300 0.00218646 -0.00409057
v 0.14121466 0.00114941 -0.00577846
v 0.14326300 0.00134642 -0.00443852
v 0.14539110 0.00373185 0.00000002
v 0.14539110 0.00366014 -0.00072803
v 0.14326300 0.00428520 -0.00177497
v 0.14539110 0.00357116 -0.00108328
v 0.14539110 0.00329120 -0.00175916
v 0.14539110 0.00344778 -0.00142810
v 0.14326300 0.00385658 -0.00257686
v 0.14539110 0.00310292 -0.00207328
v 0.14539110 0.00288476 -0.00236744
v 0.14539110 0.00371388 -0.00036577
v 0.14326300 0.00327975 -0.00327973
v 0.14539110 0.00263881 -0.00263880
v 0.14326300 0.00257688 -0.00385656
v 0.14539110 0.00207330 -0.00310290
v 0.14539110 0.00236746 -0.00288474
v 0.14326300 0.00177499 -0.00428518
v 0.14539110 0.00142812 -0.00344776
v 0.14326300 0.00090488 -0.00454912
v 0.14539110 0.00072805 -0.00366012
v 0.14539110 0.00108330 -0.00357114
v 0.14539110 0.00175918 -0.00329118
v 0.14539110 0.00036579 -0.00371386
v 0.14757292 0.00294119 0.00121830
v 0.14757292 0.00031204 0.00316821
v 0.14757292 0.00000000 0.00318354
v 0.14978176 0.00114805 0.00277166
v 0.14757292 0.00316819 0.00031206
v 0.14757292 0.00312235 0.00062109
v 0.14978176 0.00212132 0.00212134
v 0.14757292 0.00316819 -0.00031202
v 0.14757292 0.00318352 0.00000002
v 0.14757292 0.00312235 -0.00062106
v 0.14757292 0.00304644 0.00092415
v 0.14978176 0.00277164 0.00114807
v 0.14978176 0.00300000 0.00000002
v 0.14757292 0.00294119 -0.00121826
v 0.14757292 0.00304644 -0.00092411
v 0.14978176 0.00277164 -0.00114803
v 0.14757292 0.00264700 -0.00176865
v 0.14757292 0.00280762 -0.00150068
v 0.14757292 0.00246090 -0.00201959
v 0.14757292 0.00225109 -0.00225107
v 0.14757292 0.00176867 -0.00264698
v 0.14757292 0.00201961 -0.00246088
v 0.14757292 0.00121828 -0.00294117
v 0.14757292 0.00062107 -0.00312233
v 0.14757292 0.00092413 -0.00304642
v 0.14757292 0.00150070 -0.00280760
v 0.14978176 0.00212132 -0.00212130
v 0.14978176 0.00114805 -0.00277162
v 0.11137715 -0.00265708 -0.02697776
v 0.11137715 -0.00786913 -0.02594102
v 0.11137715 -0.01277877 -0.02390738
v 0.11137715 -0.01719733 -0.02095499
v 0.11137715 -0.01037390 -0.02504480
v 0.11137715 -0.00528857 -0.02658742
v 0.11137715 -0.02390740 -0.01277875
v 0.11137715 -0.02594104 -0.00786911
v 0.11137715 -0.02095501 -0.01719731
v 0.11137715 0.00000000 -0.02710830
v 0.11137715 -0.02697778 0.00265710
v 0.14121466 -0.00589168 0.00000002
v 0.11137715 -0.02594104 0.00786915
v 0.11137715 -0.02253974 0.01506059
v 0.11137715 -0.02095501 0.01719735
v 0.11137715 -0.02390740 0.01277879
v 0.11137715 -0.02504482 0.01037392
v 0.11137715 -0.01277877 0.02390742
v 0.11137715 -0.00786913 0.02594106
v 0.11137715 -0.01719733 0.02095503
v 0.11137715 -0.02697778 -0.00265706
v 0.11137715 -0.02658744 0.00528859
v 0.11137715 -0.01506057 -0.02253972
v 0.11137715 -0.01916847 -0.01916845
v 0.11137715 -0.02253974 -0.01506055
v 0.11137715 -0.02504482 -0.01037388
v 0.11137715 -0.02658744 -0.00528855
v 0.11137715 -0.02710832 0.00000002
v 0.11137715 -0.01916847 0.01916849
v 0.11137715 -0.01506057 0.02253976
v 0.11137715 -0.01037390 0.02504484
v 0.11137715 -0.00528857 0.02658746
v 0.11137715 -0.00265708 0.02697780
v 0.11137715 0.00265708 -0.02697776
v 0.11137715 0.00265708 0.02697780
v 0.11137715 0.00000000 0.02710833
v 0.11137715 0.00786913 0.02594106
v 0.11137715 0.01277877 0.02390742
v 0.11137715 0.01719733 0.02095503
v 0.11137715 0.02095501 0.01719735
v 0.11137715 0.01037390 0.02504484
v 0.11137715 0.01506057 0.02253976
v 0.11137715 0.01916847 0.01916849
v 0.11137715 0.02253974 0.01506059
v 0.11137715 0.02390740 0.01277879
v 0.11137715 0.02504482 0.01037392
v 0.11137715 0.02594104 0.00786915
v 0.11137715 0.02697778 -0.00265706
v 0.11137715 0.02594104 -0.00786911
v 0.11137715 0.02697778 0.00265710
v 0.11137715 0.02390740 -0.01277875
v 0.11137715 0.02095501 -0.01719731
v 0.11137715 0.01719733 -0.02095499
v 0.11137715 0.01277877 -0.02390738
v 0.11137715 0.00786913 -0.02594102
v 0.11137715 0.00528857 0.02658746
v 0.11137715 0.02658744 0.00528859
v 0.11137715 0.02710832 0.00000002
v 0.11137715 0.02658744 -0.00528855
v 0.11137715 0.02504482 -0.01037388
v 0.11137715 0.02253974 -0.01506055
v 0.11137715 0.00528857 -0.02658742
v 0.11137715 0.01037390 -0.02504480
v 0.11137715 0.01916847 -0.01916845
v 0.11137715 0.01506057 -0.02253972
v 0.10281005 -0.00294051 0.02985556
v 0.10281005 -0.00585271 0.02942358
v 0.10501889 -0.00292253 0.02967292
v 0.10281005 -0.00870854 0.02870823
v 0.10281005 -0.01148050 0.02771640
v 0.10501889 -0.00865527 0.02853261
v 0.10501889 -0.00581691 0.02924358
v 0.10720071 -0.00286878 0.02912724
v 0.10501889 0.00292253 0.02967292
v 0.10281005 0.00000000 0.03000002
v 0.10720071 -0.00849610 0.02800789
v 0.10501889 -0.01141027 0.02754685
v 0.10720071 -0.01120044 0.02704027
v 0.10720071 -0.00570993 0.02870579
v 0.10281005 -0.01414190 0.02645766
v 0.10501889 -0.01405539 0.02629580
v 0.10281005 -0.01666711 0.02494411
v 0.10501889 -0.02629578 0.01405541
v 0.10281005 -0.02645764 0.01414192
v 0.10281005 -0.02771639 0.01148052
v 0.10501889 -0.02479149 0.01656517
v 0.10281005 -0.02494409 0.01666713
v 0.10281005 -0.01903180 0.02319033
v 0.10501889 -0.01656515 0.02479151
v 0.10501889 -0.02108343 0.02108345
v 0.10281005 -0.02121320 0.02121322
v 0.10281005 -0.02319031 0.01903182
v 0.10501889 -0.01891537 0.02304847
v 0.10501889 -0.02304845 0.01891539
v 0.10281005 -0.02870821 0.00870856
v 0.10501889 -0.02754683 0.01141029
v 0.10720071 -0.01379691 0.02581223
v 0.10932881 -0.00553310 0.02781679
v 0.10720071 -0.01856752 0.02262461
v 0.10720071 -0.01626051 0.02433560
v 0.10720071 -0.02069571 0.02069573
v 0.10932881 -0.01085357 0.02620285
v 0.10932881 -0.01575694 0.02358194
v 0.10932881 -0.01799249 0.02192394
v 0.10932881 -0.01336963 0.02501284
v 0.10932881 -0.00823298 0.02714051
v 0.10720071 -0.02433558 0.01626053
v 0.10720071 -0.02704025 0.01120046
v 0.10501889 -0.02853259 0.00865529
v 0.10720071 -0.02800788 0.00849611
v 0.10720071 -0.02581221 0.01379693
v 0.10720071 -0.02262459 0.01856754
v 0.10932881 -0.02192392 0.01799251
v 0.10932881 -0.02501282 0.01336965
v 0.10932881 -0.02620283 0.01085359
v 0.10932881 -0.02358192 0.01575695
v 0.10932881 -0.02005478 0.02005479
v 0.10281005 -0.02942356 0.00585273
v 0.10932881 -0.00277994 0.02822518
v 0.10720071 0.00286878 0.02912724
v 0.10281005 -0.02942356 -0.00585269
v 0.10501889 -0.02967290 -0.00292251
v 0.10281005 -0.02985554 -0.00294050
v 0.10281005 -0.02771639 -0.01148048
v 0.10501889 -0.02853259 -0.00865525
v 0.10281005 -0.02870821 -0.00870852
v 0.10501889 -0.02924356 -0.00581689
v 0.10501889 -0.02754683 -0.01141025
v 0.10281005 -0.02645764 -0.01414188
v 0.10720071 -0.02870577 0.00570995
v 0.10501889 -0.02924356 0.00581693
v 0.10281005 -0.02985554 0.00294053
v 0.10501889 -0.02967290 0.00292254
v 0.10281005 -0.03000000 0.00000002
v 0.10501889 -0.02981648 0.00000002
v 0.10501889 -0.02629578 -0.01405537
v 0.10281005 -0.02494409 -0.01666709
v 0.10281005 -0.02319031 -0.01903178
v 0.10281005 -0.02121320 -0.02121318
v 0.10501889 -0.02304845 -0.01891535
v 0.10501889 -0.00581691 -0.02924354
v 0.10281005 -0.00585271 -0.02942354
v 0.10281005 -0.00294051 -0.02985552
v 0.10501889 -0.02108343 -0.02108341
v 0.10281005 -0.01903180 -0.02319029
v 0.10281005 -0.01666711 -0.02494407
v 0.10281005 -0.01414190 -0.02645762
v 0.10501889 -0.01656515 -0.02479147
v 0.10281005 -0.01148050 -0.02771637
v 0.10281005 -0.00870854 -0.02870819
v 0.10501889 -0.01141027 -0.02754681
v 0.10501889 -0.00865527 -0.02853257
v 0.10501889 -0.01405539 -0.02629577
v 0.10501889 -0.01891537 -0.02304843
v 0.10501889 -0.02479149 -0.01656513
v 0.10501889 -0.00292253 -0.02967288
v 0.10281005 0.00000000 -0.02999998
v 0.10720071 -0.02926815 0.00000002
v 0.10720071 -0.02912722 -0.00286876
v 0.10720071 -0.02870577 -0.00570991
v 0.10720071 -0.02912722 0.00286880
v 0.10932881 -0.02781677 0.00553312
v 0.10720071 -0.02704025 -0.01120042
v 0.10720071 -0.02581221 -0.01379689
v 0.10720071 -0.02800788 -0.00849608
v 0.10932881 -0.02822516 0.00277996
v 0.10720071 -0.02433558 -0.01626049
v 0.10720071 -0.02069571 -0.02069569
v 0.10720071 -0.01856752 -0.02262457
v 0.10720071 -0.02262459 -0.01856750
v 0.10720071 -0.01379691 -0.02581219
v 0.10720071 -0.00849610 -0.02800786
v 0.10720071 -0.00570993 -0.02870575
v 0.10720071 -0.01120044 -0.02704023
v 0.10720071 -0.01626051 -0.02433556
v 0.10720071 -0.00286878 -0.02912720
v 0.10501889 0.00000000 -0.02981646
v 0.10932881 -0.02714049 0.00823300
v 0.10932881 -0.02822516 -0.00277992
v 0.10932881 -0.02836174 0.00000002
v 0.11137715 -0.02710832 0.00000002
v 0.10932881 -0.02781677 -0.00553308
v 0.11137715 0.00000000 0.02710833
v 0.10932881 0.00277994 0.02822518
v 0.10932881 -0.02620283 -0.01085355
v 0.10932881 -0.02358192 -0.01575692
v 0.10932881 -0.02192392 -0.01799248
v 0.10932881 -0.02501282 -0.01336961
v 0.10932881 -0.02714049 -0.00823296
v 0.10932881 -0.01799249 -0.02192390
v 0.10932881 -0.01575694 -0.02358190
v 0.10932881 -0.01336963 -0.02501280
v 0.10932881 -0.02005478 -0.02005476
v 0.10932881 -0.00823298 -0.02714047
v 0.10932881 -0.00553310 -0.02781675
v 0.10932881 -0.01085357 -0.02620281
v 0.10932881 -0.00277994 -0.02822515
v 0.11137715 0.00000000 -0.02710830
v 0.10720071 0.00000000 -0.02926813
v 0.10932881 0.00000000 -0.02836172
v 0.10501889 0.00581691 -0.02924354
v 0.10281005 0.00294051 -0.02985552
v 0.10281005 0.00585271 -0.02942354
v 0.10501889 0.00865527 -0.02853257
v 0.10281005 0.00870854 -0.02870819
v 0.10501889 0.01141027 -0.02754681
v 0.10281005 0.01148050 -0.02771637
v 0.10501889 0.00292253 -0.02967288
v 0.10720071 0.00570993 -0.02870575
v 0.10720071 0.01120044 -0.02704023
v 0.10501889 0.01405539 -0.02629577
v 0.10720071 0.01379691 -0.02581219
v 0.10720071 0.00849610 -0.02800786
v 0.10281005 0.01414190 -0.02645762
v 0.10501889 0.02108343 -0.02108341
v 0.10501889 0.01891537 -0.02304843
v 0.10281005 0.01903180 -0.02319029
v 0.10281005 0.02319031 -0.01903178
v 0.10501889 0.02304845 -0.01891535
v 0.10281005 0.02121320 -0.02121318
v 0.10281005 0.02494409 -0.01666709
v 0.10501889 0.02479149 -0.01656513
v 0.10501889 0.01656515 -0.02479147
v 0.10281005 0.01666711 -0.02494407
v 0.10501889 0.02754683 -0.01141025
v 0.10281005 0.02645764 -0.01414188
v 0.10281005 0.02771639 -0.01148048
v 0.10501889 0.02629578 -0.01405537
v 0.10720071 0.01856752 -0.02262457
v 0.10720071 0.01626051 -0.02433556
v 0.10720071 0.00286878 -0.02912720
v 0.10932881 0.00553310 -0.02781675
v 0.10720071 0.02069571 -0.02069569
v 0.10932881 0.01085357 -0.02620281
v 0.10932881 0.01575694 -0.02358190
v 0.10932881 0.01799249 -0.02192390
v 0.10932881 0.01336963 -0.02501280
v 0.10932881 0.00823298 -0.02714047
v 0.10720071 0.02433558 -0.01626049
v 0.10720071 0.02704025 -0.01120042
v 0.10501889 0.02853259 -0.00865525
v 0.10720071 0.02800788 -0.00849608
v 0.10720071 0.02581221 -0.01379689
v 0.10720071 0.02262459 -0.01856750
v 0.10932881 0.02192392 -0.01799248
v 0.10932881 0.02501282 -0.01336961
v 0.10932881 0.02620283 -0.01085355
v 0.10932881 0.02358192 -0.01575692
v 0.10932881 0.02005478 -0.02005476
v 0.10281005 0.02870821 -0.00870852
v 0.10501889 0.02924356 -0.00581689
v 0.10281005 0.02942356 -0.00585269
v 0.10281005 0.02985554 -0.00294050
v 0.10501889 0.02967290 -0.00292251
v 0.10281005 0.03000000 0.00000002
v 0.10501889 0.02981648 0.00000002
v 0.10281005 0.02942356 0.00585273
v 0.10501889 0.02924356 0.00581693
v 0.10281005 0.02985554 0.00294053
v 0.10501889 0.02967290 0.00292254
v 0.10501889 0.02754683 0.01141029
v 0.10281005 0.02870821 0.00870856
v 0.10281005 0.02771639 0.01148052
v 0.10501889 0.02853259 0.00865529
v 0.10281005 0.02645764 0.01414192
v 0.10501889 0.02629578 0.01405541
v 0.10720071 0.02870577 -0.00570991
v 0.10281005 0.01903180 0.02319033
v 0.10281005 0.01666711 0.02494411
v 0.10501889 0.01656515 0.02479151
v 0.10281005 0.01148050 0.02771640
v 0.10281005 0.00870854 0.02870823
v 0.10501889 0.00865527 0.02853261
v 0.10281005 0.01414190 0.02645766
v 0.10501889 0.01141027 0.02754685
v 0.10501889 0.01405539 0.02629580
v 0.10501889 0.02479149 0.01656517
v 0.10281005 0.02494409 0.01666713
v 0.10501889 0.01891537 0.02304847
v 0.10281005 0.02121320 0.02121322
v 0.10501889 0.02108343 0.02108345
v 0.10281005 0.02319031 0.01903182
v 0.10501889 0.00581691 0.02924358
v 0.10281005 0.00585271 0.02942358
v 0.10501889 0.02304845 0.01891539
v 0.10281005 0.00294051 0.02985556
v 0.10720071 0.02926815 0.00000002
v 0.10720071 0.02912722 0.00286880
v 0.10720071 0.02870577 0.00570995
v 0.10720071 0.02912722 -0.00286876
v 0.10932881 0.02781677 -0.00553308
v 0.10720071 0.02704025 0.01120046
v 0.10720071 0.02581221 0.01379693
v 0.10720071 0.02800788 0.00849611
v 0.10932881 0.02822516 -0.00277992
v 0.10720071 0.02433558 0.01626053
v 0.10720071 0.02069571 0.02069573
v 0.10720071 0.01856752 0.02262461
v 0.10720071 0.02262459 0.01856754
v 0.10720071 0.01379691 0.02581223
v 0.10720071 0.00849610 0.02800789
v 0.10720071 0.00570993 0.02870579
v 0.10720071 0.01120044 0.02704027
v 0.10720071 0.01626051 0.02433560
v 0.10932881 0.02714049 -0.00823296
v 0.10932881 0.00277994 -0.02822515
v 0.10932881 0.02822516 0.00277996
v 0.10932881 0.02836174 0.00000002
v 0.10932881 0.02781677 0.00553312
v 0.11137715 0.02710832 0.00000002
v 0.10932881 0.02714049 0.00823300
v 0.10932881 0.02620283 0.01085359
v 0.10932881 0.02358192 0.01575695
v 0.10932881 0.02192392 0.01799251
v 0.10932881 0.02501282 0.01336965
v 0.10932881 0.02005478 0.02005479
v 0.10932881 0.01799249 0.02192394
v 0.10932881 0.01575694 0.02358194
v 0.10932881 0.01336963 0.02501284
v 0.10932881 0.00823298 0.02714051
v 0.10932881 0.00553310 0.02781679
v 0.10932881 0.01085357 0.02620285
v 0.10281005 -0.00294051 -0.02985552
v 0.06528131 -0.00294051 -0.02985552
v 0.10281005 0.00000000 -0.02999998
v 0.10281005 -0.00870854 -0.02870819
v 0.06528131 -0.00870854 -0.02870819
v 0.10281005 -0.00585271 -0.02942354
v 0.06528131 -0.00585271 -0.02942354
v 0.10281005 -0.01414190 -0.02645762
v 0.06528131 -0.01414190 -0.02645762
v 0.10281005 -0.01148050 -0.02771637
v 0.06528131 -0.01666711 -0.02494407
v 0.10281005 -0.01666711 -0.02494407
v 0.06528131 -0.01148050 -0.02771637
v 0.10281005 -0.01903180 -0.02319029
v 0.10281005 -0.02121320 -0.02121318
v 0.06528131 -0.02121320 -0.02121318
v 0.10281005 -0.02319031 -0.01903178
v 0.10281005 -0.02494409 -0.01666709
v 0.06528131 -0.02494409 -0.01666709
v 0.06528131 -0.02319031 -0.01903178
v 0.06528131 -0.02870821 -0.00870852
v 0.10281005 -0.02771639 -0.01148048
v 0.10281005 -0.02870821 -0.00870852
v 0.10281005 -0.02985554 -0.00294050
v 0.06528131 -0.02985554 -0.00294050
v 0.10281005 -0.02942356 -0.00585269
v 0.06528131 -0.02942356 -0.00585269
v 0.10281005 -0.02645764 -0.01414188
v 0.06528131 -0.02771639 -0.01148048
v 0.06528131 -0.02645764 -0.01414188
v 0.10281005 -0.02985554 0.00294053
v 0.10281005 -0.02942356 0.00585273
v 0.06528131 -0.02942356 0.00585273
v 0.10281005 -0.03000000 0.00000002
v 0.06528131 -0.02985554 0.00294053
v 0.06528131 -0.02645764 0.01414192
v 0.10281005 -0.02771639 0.01148052
v 0.10281005 -0.02645764 0.01414192
v 0.10281005 -0.02121320 0.02121322
v 0.06528131 -0.02121320 0.02121322
v 0.10281005 -0.02319031 0.01903182
v 0.06528131 -0.02319031 0.01903182
v 0.10281005 -0.02494409 0.01666713
v 0.10281005 -0.01903180 0.02319033
v 0.06528131 -0.01903180 0.02319033
v 0.06528131 -0.02771639 0.01148052
v 0.10281005 -0.02870821 0.00870856
v 0.10281005 -0.01666711 0.02494411
v 0.10281005 -0.01414190 0.02645766
v 0.06528131 -0.01414190 0.02645766
v 0.06528131 -0.02494409 0.01666713
v 0.06528131 -0.02870821 0.00870856
v 0.10281005 -0.01148050 0.02771640
v 0.10281005 -0.00870854 0.02870823
v 0.06528131 -0.00870854 0.02870823
v 0.10281005 -0.00585271 0.02942358
v 0.10281005 -0.00294051 0.02985556
v 0.06528131 -0.00294051 0.02985556
v 0.06528131 -0.00585271 0.02942358
v 0.06528131 -0.01148050 0.02771640
v 0.06528131 -0.03000000 0.00000002
v 0.06528131 0.00000000 -0.02999998
v 0.06528131 -0.01903180 -0.02319029
v 0.06528131 -0.01666711 0.02494411
v 0.06528131 0.00000000 0.03000002
v 0.06528131 0.00294051 -0.02985552
v 0.10281005 0.02121320 0.02121322
v 0.06528131 0.02121320 0.02121322
v 0.10281005 0.01903180 0.02319033
v 0.06528131 0.01903180 0.02319033
v 0.10281005 0.01666711 0.02494411
v 0.06528131 0.02645764 0.01414192
v 0.10281005 0.02494409 0.01666713
v 0.10281005 0.02645764 0.01414192
v 0.10281005 0.02771639 0.01148052
v 0.06528131 0.02319031 0.01903182
v 0.10281005 0.02319031 0.01903182
v 0.06528131 0.02494409 0.01666713
v 0.10281005 0.00294051 0.02985556
v 0.10281005 0.00585271 0.02942358
v 0.06528131 0.00585271 0.02942358
v 0.10281005 0.00870854 0.02870823
v 0.10281005 0.01148050 0.02771640
v 0.06528131 0.01148050 0.02771640
v 0.06528131 0.00870854 0.02870823
v 0.10281005 0.02942356 0.00585273
v 0.06528131 0.02942356 0.00585273
v 0.10281005 0.02870821 0.00870856
v 0.10281005 0.01414190 0.02645766
v 0.06528131 0.01666711 0.02494411
v 0.06528131 0.02985554 0.00294053
v 0.10281005 0.02985554 0.00294053
v 0.06528131 0.02870821 0.00870856
v 0.06528131 0.01414190 0.02645766
v 0.10281005 0.00000000 0.03000002
v 0.06528131 0.02985554 -0.00294050
v 0.10281005 0.03000000 0.00000002
v 0.10281005 0.02985554 -0.00294050
v 0.06528131 0.01666711 -0.02494407
v 0.10281005 0.01903180 -0.02319029
v 0.10281005 0.01666711 -0.02494407
v 0.10281005 0.01414190 -0.02645762
v 0.06528131 0.01414190 -0.02645762
v 0.10281005 0.00870854 -0.02870819
v 0.06528131 0.00870854 -0.02870819
v 0.10281005 0.01148050 -0.02771637
v 0.06528131 0.01148050 -0.02771637
v 0.10281005 0.00585271 -0.02942354
v 0.06528131 0.00585271 -0.02942354
v 0.06528131 0.02870821 -0.00870852
v 0.10281005 0.02942356 -0.00585269
v 0.10281005 0.02870821 -0.00870852
v 0.10281005 0.02771639 -0.01148048
v 0.06528131 0.02771639 -0.01148048
v 0.06528131 0.02942356 -0.00585269
v 0.10281005 0.02494409 -0.01666709
v 0.10281005 0.02319031 -0.01903178
v 0.06528131 0.02319031 -0.01903178
v 0.10281005 0.02121320 -0.02121318
v 0.06528131 0.01903180 -0.02319029
v 0.06528131 0.02121320 -0.02121318
v 0.10281005 0.02645764 -0.01414188
v 0.06528131 0.02494409 -0.01666709
v 0.10281005 0.00294051 -0.02985552
v 0.06528131 0.03000000 0.00000002
v 0.06528131 0.00294051 0.02985556
v 0.06528131 0.02771639 0.01148052
v 0.06528131 0.02645764 -0.01414188
v 0.06528131 0.01148050 0.02771640
v 0.06528131 0.01414190 0.02645766
v 0.06528131 0.01666711 0.02494411
v 0.06528131 0.01903180 0.02319033
v 0.06528131 0.02319031 0.01903182
v 0.06528131 0.00870854 0.02870823
v 0.06528131 0.00000000 0.03000002
v 0.06528131 0.00585271 0.02942358
v 0.06528131 0.00294051 0.02985556
v 0.06528131 0.02121320 0.02121322
v 0.06528131 0.02771639 0.01148052
v 0.06528131 0.02870821 0.00870856
v 0.06528131 0.02942356 0.00585273
v 0.06528131 0.02985554 0.00294053
v 0.06528131 0.03000000 0.00000002
v 0.06528131 0.02870821 -0.00870852
v 0.06528131 0.02494409 0.01666713
v 0.06528131 0.02645764 0.01414192
v 0.06528131 0.02494409 -0.01666709
v 0.06528131 -0.01414190 0.02645766
v 0.06528131 -0.00294051 0.02985556
v 0.06528131 -0.00585271 0.02942358
v 0.06528131 -0.01148050 0.02771640
v 0.06528131 -0.00870854 0.02870823
v 0.06528131 -0.02121320 0.02121322
v 0.06528131 -0.01903180 0.02319033
v 0.06528131 -0.01666711 0.02494411
v 0.06528131 -0.02319031 0.01903182
v 0.06528131 -0.02494409 0.01666713
v 0.06528131 -0.02771639 0.01148052
v 0.06528131 -0.02645764 0.01414192
v 0.06528131 -0.02870821 0.00870856
v 0.06528131 -0.02942356 0.00585273
v 0.06528131 -0.02942356 -0.00585269
v 0.06528131 -0.03000000 0.00000002
v 0.06528131 -0.02985554 0.00294053
v 0.06528131 0.02942356 -0.00585269
v 0.06528131 0.02771639 -0.01148048
v 0.06528131 0.02319031 -0.01903178
v 0.06528131 0.02121320 -0.02121318
v 0.06528131 0.02645764 -0.01414188
v 0.06528131 0.01666711 -0.02494407
v 0.06528131 0.00870854 -0.02870819
v 0.06528131 0.01414190 -0.02645762
v 0.06528131 0.01148050 -0.02771637
v 0.06528131 0.00585271 -0.02942354
v 0.06528131 0.00294051 -0.02985552
v 0.06528131 0.01903180 -0.02319029
v 0.06528131 0.00000000 -0.02999998
v 0.06528131 -0.00585271 -0.02942354
v 0.06528131 -0.02645764 -0.01414188
v 0.06528131 -0.02771639 -0.01148048
v 0.06528131 -0.02494409 -0.01666709
v 0.06528131 -0.01903180 -0.02319029
v 0.06528131 -0.02319031 -0.01903178
v 0.06528131 -0.02985554 -0.00294050
v 0.06528131 -0.02870821 -0.00870852
v 0.06528131 -0.00870854 -0.02870819
v 0.06528131 -0.01148050 -0.02771637
v 0.06528131 -0.02121320 -0.02121318
v 0.06528131 -0.01666711 -0.02494407
v 0.06528131 -0.01414190 -0.02645762
v 0.06528131 -0.00294051 -0.02985552
v 0.06528131 0.02985554 -0.00294050
vt -0.04398858 -0.00074220
vt -0.04362325 -0.00037791
vt -0.04362325 0.00037791
vt -0.04398858 0.00074220
vt -0.04458280 0.00107975
vt -0.04350000 -0.00000000
vt -0.04458280 -0.00107975
vt -0.04748850 -0.00181775
vt -0.04538453 -0.00137840
vt -0.04748850 0.00181775
vt -0.05000000 -0.00199750
vt -0.05000000 0.00199750
vt -0.04538453 0.00137840
vt 0.04748850 -0.00181775
vt 0.05000000 -0.00199750
vt 0.04748850 0.00181775
vt 0.04538453 -0.00137840
vt 0.04538453 0.00137840
vt 0.05000000 0.00199750
vt 0.04458280 -0.00107975
vt 0.04398858 -0.00074220
vt 0.04398858 0.00074220
vt 0.04362325 -0.00037791
vt 0.04458280 0.00107975
vt 0.04362325 0.00037791
vt 0.04350000 -0.00000000
vt -0.00010000 -0.00199750
vt 0.00010000 -0.00199750
vt 0.00010000 0.00199750
vt -0.00010000 0.00199750
vt -0.04748850 0.00083413
vt -0.05000000 0.00010000
vt -0.05000000 -0.00010000
vt -0.03450045 0.00141421
vt 0.03450045 0.00141421
vt 0.04458280 0.00107975
vt -0.04538453 0.00144914
vt 0.04538453 0.00137840
vt 0.04398858 0.00074220
vt -0.03450045 0.00076537
vt -0.04748850 -0.00083413
vt -0.03450045 -0.00141421
vt -0.03450045 0.00141421
vt -0.04538453 -0.00144914
vt -0.04538453 0.00137840
vt -0.04458280 0.00107975
vt -0.03450045 -0.00076537
vt -0.03450045 -0.00000000
vt -0.04398858 0.00074220
vt 0.04350000 -0.00000000
vt 0.04362325 0.00037791
vt 0.03450045 -0.00000000
vt 0.03450045 0.00076537
vt 0.04362325 -0.00037791
vt -0.03450045 0.00076537
vt -0.04362325 0.00037791
vt -0.03450045 -0.00000000
vt 0.04748850 -0.00083413
vt 0.05000000 -0.00010000
vt 0.04748850 0.00083413
vt -0.03450045 -0.00141421
vt 0.03450045 -0.00141421
vt -0.04458280 -0.00107975
vt -0.04538453 -0.00137840
vt 0.04538453 -0.00144914
vt -0.04398858 -0.00074220
vt 0.03450045 -0.00076537
vt 0.05000000 0.00010000
vt 0.04458280 -0.00107975
vt 0.03450045 -0.00141421
vt 0.03450045 0.00141421
vt 0.04538453 -0.00137840
vt 0.04538453 0.00144914
vt 0.03450045 0.00076537
vt 0.03450045 -0.00000000
vt 0.04398858 -0.00074220
vt -0.04350000 -0.00000000
vt -0.04362325 -0.00037791
vt -0.03450045 -0.00076537
vt 0.03450045 -0.00076537
vt 0.02798169 0.00030309
vt 0.02593335 0.00076627
vt 0.02593335 -0.00000000
vt 0.02798169 0.00089761
vt 0.02593335 0.00150310
vt 0.03010979 0.00048536
vt 0.02798169 0.00060325
vt 0.03010979 0.00095208
vt 0.02798169 0.00118332
vt 0.03010979 0.00072220
vt 0.02798169 0.00145764
vt 0.02798169 -0.00030309
vt 0.03010979 0.00024386
vt 0.02798169 0.00196166
vt -0.02593335 0.00277737
vt 0.02593335 0.00277737
vt 0.02593335 0.00218216
vt -0.02798169 0.00196166
vt -0.02798169 0.00218650
vt 0.02798169 0.00218650
vt 0.03010979 0.00138220
vt 0.02798169 0.00171792
vt -0.03010979 0.00175921
vt 0.03010979 0.00175921
vt 0.03010979 0.00157831
vt -0.02593335 0.00218216
vt 0.03010979 0.00117279
vt 0.03229161 0.00041405
vt 0.03229161 0.00061609
vt 0.03229161 0.00100047
vt 0.03229161 0.00134640
vt 0.03229161 0.00117911
vt 0.03229161 0.00081219
vt -0.03010979 0.00138220
vt -0.02798169 0.00171792
vt -0.02798169 0.00145764
vt -0.03010979 0.00095208
vt -0.02798169 0.00118332
vt -0.02593335 0.00150310
vt -0.03010979 0.00117279
vt -0.03229161 0.00134640
vt -0.03010979 0.00157831
vt -0.03229161 0.00100047
vt -0.03229161 0.00117911
vt -0.03229161 0.00150073
vt 0.03229161 0.00150073
vt 0.03229161 -0.00020803
vt 0.03229161 0.00020803
vt -0.02798169 0.00089761
vt -0.02593335 0.00076627
vt -0.02798169 0.00030309
vt -0.02593335 -0.00000000
vt -0.03010979 0.00072220
vt -0.02798169 0.00060325
vt -0.03010979 0.00024386
vt -0.02798169 -0.00000000
vt -0.03010979 0.00048536
vt -0.02798169 -0.00030309
vt -0.02593335 -0.00076627
vt -0.02593335 -0.00218216
vt -0.02593335 -0.00150310
vt -0.02798169 -0.00145764
vt -0.02798169 -0.00089761
vt -0.02593335 0.00218216
vt -0.02593335 -0.00277737
vt -0.02593335 0.00277737
vt -0.02798169 0.00196166
vt -0.02593335 0.00076627
vt -0.02593335 0.00150310
vt -0.02798169 0.00089761
vt -0.02798169 0.00145764
vt -0.02798169 -0.00196166
vt -0.02593335 -0.00000000
vt -0.02798169 0.00030309
vt -0.03010979 -0.00024386
vt -0.02798169 -0.00060325
vt -0.03010979 -0.00048536
vt -0.02798169 -0.00118332
vt -0.03010979 -0.00095208
vt -0.02798169 -0.00171792
vt -0.03010979 -0.00138220
vt -0.03010979 -0.00117279
vt -0.03010979 -0.00072220
vt -0.02798169 -0.00218650
vt -0.02798169 0.00218650
vt -0.03010979 -0.00175921
vt -0.03010979 0.00175921
vt -0.02798169 0.00171792
vt -0.03010979 0.00138220
vt -0.03010979 0.00157831
vt -0.02798169 0.00118332
vt -0.03010979 0.00095208
vt -0.02798169 0.00060325
vt -0.03010979 0.00048536
vt -0.03010979 0.00072220
vt -0.03010979 0.00117279
vt -0.03010979 -0.00157831
vt -0.03010979 0.00024386
vt -0.02798169 -0.00000000
vt -0.03010979 -0.00000000
vt 0.03450045 -0.00000000
vt 0.03450045 0.00076537
vt -0.03450045 0.00141421
vt 0.03450045 0.00141421
vt -0.03229161 0.00061609
vt -0.03229161 0.00020803
vt -0.03229161 -0.00020803
vt -0.03229161 -0.00000000
vt -0.03229161 0.00041405
vt -0.03229161 0.00081219
vt -0.03229161 -0.00041405
vt -0.03450045 0.00076537
vt -0.03450045 -0.00000000
vt -0.03229161 -0.00081219
vt -0.03229161 -0.00061609
vt -0.03450045 -0.00076537
vt -0.03229161 -0.00117911
vt -0.03229161 -0.00100047
vt -0.03229161 -0.00134640
vt -0.03229161 -0.00150073
vt -0.03229161 0.00150073
vt -0.03229161 0.00117911
vt -0.03229161 0.00134640
vt -0.03229161 0.00081219
vt -0.03229161 0.00041405
vt -0.03229161 0.00061609
vt -0.03229161 0.00100047
vt -0.03229161 0.00020803
vt -0.03450045 -0.00141421
vt -0.03450045 0.00141421
vt -0.03450045 0.00076537
vt -0.03450045 -0.00000000
vt -0.03010979 -0.00000000
vt -0.02593335 -0.00076627
vt -0.02798169 -0.00030309
vt -0.02798169 -0.00060325
vt -0.02593335 -0.00150310
vt -0.02798169 -0.00089761
vt -0.03010979 -0.00072220
vt -0.03010979 -0.00117279
vt -0.02798169 -0.00145764
vt -0.02798169 -0.00118332
vt -0.03010979 -0.00095208
vt -0.02593335 -0.00218216
vt -0.03010979 -0.00048536
vt -0.02798169 -0.00196166
vt -0.02593335 -0.00277737
vt 0.02593335 -0.00277737
vt 0.02798169 -0.00196166
vt -0.02798169 -0.00218650
vt 0.02798169 -0.00218650
vt -0.03010979 -0.00157831
vt -0.02798169 -0.00171792
vt 0.02593335 -0.00150310
vt 0.02593335 -0.00218216
vt 0.02798169 -0.00145764
vt -0.03010979 -0.00175921
vt 0.03010979 -0.00175921
vt -0.03010979 -0.00138220
vt -0.03010979 -0.00024386
vt -0.03229161 -0.00041405
vt -0.03229161 -0.00081219
vt -0.03229161 -0.00117911
vt -0.03229161 -0.00100047
vt -0.03229161 -0.00061609
vt 0.02798169 -0.00171792
vt 0.03010979 -0.00138220
vt 0.03010979 -0.00117279
vt 0.03229161 -0.00134640
vt 0.03010979 -0.00157831
vt 0.03229161 -0.00100047
vt 0.03229161 -0.00117911
vt 0.03010979 -0.00095208
vt 0.02798169 -0.00118332
vt -0.03229161 -0.00150073
vt 0.03229161 -0.00150073
vt -0.03229161 -0.00134640
vt 0.02798169 -0.00089761
vt 0.02593335 -0.00076627
vt 0.02593335 -0.00000000
vt 0.02798169 -0.00030309
vt 0.03010979 -0.00072220
vt 0.02798169 -0.00060325
vt 0.03010979 -0.00024386
vt 0.02798169 -0.00000000
vt 0.03010979 -0.00048536
vt 0.02798169 0.00030309
vt 0.02798169 0.00060325
vt 0.02593335 0.00076627
vt 0.02593335 0.00218216
vt 0.02593335 0.00150310
vt 0.02798169 0.00145764
vt 0.02798169 0.00089761
vt 0.02593335 -0.00277737
vt 0.02593335 0.00277737
vt 0.02798169 -0.00196166
vt 0.02593335 -0.00218216
vt 0.02798169 0.00196166
vt 0.02593335 -0.00150310
vt 0.02798169 -0.00145764
vt 0.02593335 -0.00076627
vt 0.02798169 -0.00089761
vt 0.03010979 -0.00000000
vt 0.03010979 0.00048536
vt 0.02798169 0.00118332
vt 0.03010979 0.00072220
vt 0.03010979 0.00117279
vt 0.03010979 0.00095208
vt 0.02798169 0.00171792
vt 0.03010979 0.00138220
vt 0.03010979 0.00157831
vt 0.03010979 0.00024386
vt 0.02798169 -0.00218650
vt 0.02798169 0.00218650
vt 0.03010979 -0.00175921
vt 0.03010979 0.00175921
vt 0.02798169 -0.00171792
vt 0.03010979 -0.00138220
vt 0.03010979 -0.00157831
vt 0.02798169 -0.00118332
vt 0.03010979 -0.00095208
vt 0.02798169 -0.00060325
vt 0.03010979 -0.00048536
vt 0.03010979 -0.00072220
vt 0.03010979 -0.00117279
vt 0.03010979 -0.00024386
vt 0.03229161 -0.00081219
vt -0.03229161 -0.00020803
vt -0.03229161 -0.00000000
vt -0.03450045 -0.00076537
vt 0.03229161 -0.00020803
vt 0.03229161 -0.00041405
vt -0.03450045 -0.00141421
vt 0.03450045 -0.00141421
vt 0.03229161 0.00020803
vt 0.03229161 -0.00000000
vt 0.03229161 0.00041405
vt 0.03229161 -0.00061609
vt 0.03450045 -0.00076537
vt 0.03450045 -0.00000000
vt 0.03229161 0.00081219
vt 0.03229161 0.00061609
vt 0.03450045 0.00076537
vt 0.03229161 0.00117911
vt 0.03229161 0.00100047
vt 0.03229161 0.00134640
vt 0.03229161 -0.00150073
vt 0.03229161 0.00150073
vt 0.03229161 -0.00117911
vt 0.03229161 -0.00134640
vt 0.03229161 -0.00081219
vt 0.03229161 -0.00041405
vt 0.03229161 -0.00061609
vt 0.03229161 -0.00100047
vt 0.03450045 -0.00141421
vt 0.03450045 0.00141421
vt 0.03450045 -0.00076537
vt -0.00390416 0.00177139
vt -0.00390416 0.00524609
vt -0.00390416 0.00851918
vt -0.00390416 0.01146489
vt -0.00390416 0.00691594
vt -0.00390416 0.00352571
vt 0.00390416 0.00851918
vt 0.00390416 0.00524609
vt 0.00390416 0.01146489
vt -0.00390416 0.00000000
vt 0.00390416 -0.00177139
vt -0.02593335 -0.00000000
vt 0.00390416 -0.00524609
vt 0.00390416 -0.01004038
vt 0.00390416 -0.01146489
vt 0.00390416 -0.00851918
vt 0.00390416 -0.00691594
vt 0.00390416 0.00851918
vt 0.00390416 0.00524609
vt 0.00390416 0.01146489
vt 0.00390416 0.00177139
vt 0.00390416 -0.00352571
vt -0.00390416 0.01004038
vt -0.00390416 0.01277898
vt 0.00390416 0.01277898
vt 0.00390416 0.01004038
vt 0.00390416 0.00691594
vt 0.00390416 0.00352571
vt 0.00390416 -0.00000000
vt 0.00390416 -0.01277898
vt 0.00390416 0.01277898
vt 0.00390416 0.01004038
vt 0.00390416 0.00691594
vt 0.00390416 0.00352571
vt 0.00390416 0.00177139
vt -0.00390416 -0.00177139
vt 0.00390416 -0.00177139
vt 0.00390416 -0.00000000
vt 0.00390416 -0.00524609
vt 0.00390416 -0.00851918
vt 0.00390416 -0.01146489
vt -0.00390416 -0.01146489
vt 0.00390416 -0.00691594
vt 0.00390416 -0.01004038
vt -0.00390416 -0.01277898
vt 0.00390416 -0.01277898
vt -0.00390416 -0.01004038
vt -0.00390416 -0.00851918
vt -0.00390416 -0.00691594
vt -0.00390416 -0.00524609
vt -0.00390416 0.00177139
vt -0.00390416 0.00524609
vt -0.00390416 -0.00177139
vt -0.00390416 0.00851918
vt -0.00390416 0.01146489
vt -0.00390416 -0.01146489
vt -0.00390416 -0.00851918
vt -0.00390416 -0.00524609
vt 0.00390416 -0.00352571
vt -0.00390416 -0.00352571
vt -0.00390416 -0.00000000
vt -0.00390416 0.00352571
vt -0.00390416 0.00691594
vt -0.00390416 0.01004038
vt -0.00390416 -0.00352571
vt -0.00390416 -0.00691594
vt -0.00390416 -0.01277898
vt -0.00390416 0.01277898
vt -0.00390416 -0.01004038
vt 0.01247126 0.00196034
vt 0.01247126 0.00390181
vt 0.01026242 0.00194835
vt 0.01247126 0.00580569
vt 0.01247126 0.00765367
vt 0.01026242 0.00577018
vt 0.01026242 0.00387794
vt 0.00808060 0.00191252
vt 0.01026242 -0.00194835
vt 0.01247126 -0.00000000
vt 0.00808060 0.00566406
vt 0.01026242 0.00760685
vt 0.00808060 0.00746696
vt 0.00808060 0.00380662
vt 0.01247126 0.00942793
vt 0.01026242 0.00937026
vt 0.01247126 0.01111140
vt 0.01026242 -0.00937026
vt 0.01247126 -0.00942793
vt 0.01247126 -0.00765367
vt 0.01026242 -0.01104343
vt 0.01247126 -0.01111140
vt 0.01247126 0.01268787
vt 0.01026242 0.01104343
vt 0.01026242 -0.01405562
vt 0.01026242 0.01405562
vt 0.01247126 -0.01414214
vt 0.01247126 0.01414214
vt 0.01247126 -0.01268787
vt 0.01026242 0.01261025
vt 0.01026242 -0.01261025
vt 0.01247126 -0.00580569
vt 0.01026242 -0.00760685
vt 0.00808060 0.00919794
vt 0.00595250 0.00368873
vt 0.00808060 0.01237835
vt 0.00808060 0.01084034
vt 0.00808060 -0.01379714
vt 0.00808060 0.01379714
vt 0.00595250 0.00723571
vt 0.00595250 0.01050462
vt 0.00595250 0.01199500
vt 0.00595250 0.00891309
vt 0.00595250 0.00548865
vt 0.00808060 -0.01084034
vt 0.00808060 -0.00746696
vt 0.01026242 -0.00577018
vt 0.00808060 -0.00566406
vt 0.00808060 -0.00919794
vt 0.00808060 -0.01237835
vt 0.00595250 -0.01199500
vt 0.00595250 -0.00891309
vt 0.00595250 -0.00723571
vt 0.00595250 -0.01050462
vt 0.00595250 -0.01336985
vt 0.00595250 0.01336985
vt 0.01247126 -0.00390181
vt 0.00595250 0.00185329
vt 0.00808060 -0.00191252
vt 0.01247126 0.00390181
vt 0.01026242 0.00194835
vt 0.01247126 0.00196034
vt 0.01247126 0.00765367
vt 0.01026242 0.00577018
vt 0.01247126 0.00580569
vt 0.01026242 0.00387794
vt 0.01026242 0.00760685
vt 0.01247126 0.00942793
vt 0.00808060 -0.00380662
vt 0.01026242 -0.00387794
vt 0.01247126 -0.00196034
vt 0.01026242 -0.00194835
vt 0.01247126 -0.00000000
vt 0.01026242 0.00000000
vt 0.01026242 0.00937026
vt 0.01247126 0.01111140
vt 0.01247126 0.01268787
vt -0.01247126 0.01414214
vt 0.01247126 0.01414214
vt 0.01026242 0.01261025
vt -0.01026242 0.00387794
vt -0.01247126 0.00390181
vt -0.01247126 0.00196034
vt -0.01026242 0.01405562
vt 0.01026242 0.01405562
vt -0.01247126 0.01268787
vt -0.01247126 0.01111140
vt -0.01247126 0.00942793
vt -0.01026242 0.01104343
vt -0.01247126 0.00765367
vt -0.01247126 0.00580569
vt -0.01026242 0.00760685
vt -0.01026242 0.00577018
vt -0.01026242 0.00937026
vt -0.01026242 0.01261025
vt 0.01026242 0.01104343
vt -0.01026242 0.00194835
vt -0.01247126 0.00000000
vt 0.00808060 0.00000000
vt 0.00808060 0.00191252
vt 0.00808060 0.00380662
vt 0.00808060 -0.00191252
vt 0.00595250 -0.00368873
vt 0.00808060 0.00746696
vt 0.00808060 0.00919794
vt 0.00808060 0.00566406
vt 0.00595250 -0.00185329
vt 0.00808060 0.01084034
vt -0.00808060 0.01379714
vt 0.00808060 0.01379714
vt -0.00808060 0.01237835
vt 0.00808060 0.01237835
vt -0.00808060 0.00919794
vt -0.00808060 0.00566406
vt -0.00808060 0.00380662
vt -0.00808060 0.00746696
vt -0.00808060 0.01084034
vt -0.00808060 0.00191252
vt -0.01026242 -0.00000000
vt 0.00595250 -0.00548865
vt 0.00595250 0.00185329
vt 0.00595250 0.00000000
vt 0.00390416 -0.00000000
vt 0.00595250 0.00368873
vt 0.00390416 -0.00000000
vt 0.00595250 -0.00185329
vt 0.00595250 0.00723571
vt 0.00595250 0.01050462
vt 0.00595250 0.01199500
vt 0.00595250 0.00891309
vt 0.00595250 0.00548865
vt -0.00595250 0.01199500
vt -0.00595250 0.01050462
vt -0.00595250 0.00891309
vt -0.00595250 0.01336985
vt 0.00595250 0.01336985
vt -0.00595250 0.00548865
vt -0.00595250 0.00368873
vt -0.00595250 0.00723571
vt -0.00595250 0.00185329
vt -0.00390416 0.00000000
vt -0.00808060 -0.00000000
vt -0.00595250 -0.00000000
vt -0.01026242 -0.00387794
vt -0.01247126 -0.00196034
vt -0.01247126 -0.00390181
vt -0.01026242 -0.00577018
vt -0.01247126 -0.00580569
vt -0.01026242 -0.00760685
vt -0.01247126 -0.00765367
vt -0.01026242 -0.00194835
vt -0.00808060 -0.00380662
vt -0.00808060 -0.00746696
vt -0.01026242 -0.00937026
vt -0.00808060 -0.00919794
vt -0.00808060 -0.00566406
vt -0.01247126 -0.00942793
vt -0.01026242 -0.01405562
vt -0.01026242 0.01405562
vt -0.01026242 -0.01261025
vt -0.01247126 -0.01268787
vt -0.01247126 0.01268787
vt -0.01026242 0.01261025
vt -0.01247126 -0.01414214
vt -0.01247126 0.01414214
vt -0.01247126 0.01111140
vt -0.01026242 0.01104343
vt -0.01026242 -0.01104343
vt -0.01247126 -0.01111140
vt -0.01026242 0.00760685
vt -0.01247126 0.00942793
vt -0.01247126 0.00765367
vt -0.01026242 0.00937026
vt -0.00808060 -0.01237835
vt -0.00808060 -0.01084034
vt -0.00808060 -0.00191252
vt -0.00595250 -0.00368873
vt -0.00808060 -0.01379714
vt -0.00808060 0.01379714
vt -0.00595250 -0.00723571
vt -0.00595250 -0.01050462
vt -0.00595250 -0.01199500
vt -0.00595250 -0.00891309
vt -0.00595250 -0.00548865
vt -0.00808060 0.01084034
vt -0.00808060 0.00746696
vt -0.01026242 0.00577018
vt -0.00808060 0.00566406
vt -0.00808060 0.00919794
vt -0.00808060 0.01237835
vt -0.00595250 0.01199500
vt -0.00595250 0.00891309
vt -0.00595250 0.00723571
vt -0.00595250 0.01050462
vt -0.00595250 -0.01336985
vt -0.00595250 0.01336985
vt -0.01247126 0.00580569
vt -0.01026242 0.00387794
vt -0.01247126 0.00390181
vt -0.01247126 0.00196034
vt -0.01026242 0.00194835
vt -0.01247126 -0.00000000
vt -0.01026242 0.00000000
vt -0.01247126 -0.00390181
vt -0.01026242 -0.00387794
vt -0.01247126 -0.00196034
vt -0.01026242 -0.00194835
vt -0.01026242 -0.00760685
vt -0.01247126 -0.00580569
vt -0.01247126 -0.00765367
vt -0.01026242 -0.00577018
vt -0.01247126 -0.00942793
vt -0.01026242 -0.00937026
vt -0.00808060 0.00380662
vt 0.01247126 -0.01268787
vt 0.01247126 -0.01111140
vt 0.01026242 -0.01104343
vt 0.01247126 -0.00765367
vt 0.01247126 -0.00580569
vt 0.01026242 -0.00577018
vt 0.01247126 -0.00942793
vt 0.01026242 -0.00760685
vt 0.01026242 -0.00937026
vt -0.01026242 -0.01104343
vt -0.01247126 -0.01111140
vt 0.01026242 -0.01261025
vt -0.01247126 -0.01414214
vt 0.01247126 -0.01414214
vt -0.01026242 -0.01405562
vt 0.01026242 -0.01405562
vt -0.01247126 -0.01268787
vt 0.01026242 -0.00387794
vt 0.01247126 -0.00390181
vt -0.01026242 -0.01261025
vt 0.01247126 -0.00196034
vt -0.00808060 0.00000000
vt -0.00808060 -0.00191252
vt -0.00808060 -0.00380662
vt -0.00808060 0.00191252
vt -0.00595250 0.00368873
vt -0.00808060 -0.00746696
vt -0.00808060 -0.00919794
vt -0.00808060 -0.00566406
vt -0.00595250 0.00185329
vt -0.00808060 -0.01084034
vt -0.00808060 -0.01379714
vt 0.00808060 -0.01379714
vt 0.00808060 -0.01237835
vt -0.00808060 -0.01237835
vt 0.00808060 -0.00919794
vt 0.00808060 -0.00566406
vt 0.00808060 -0.00380662
vt 0.00808060 -0.00746696
vt 0.00808060 -0.01084034
vt -0.00595250 0.00548865
vt -0.00595250 -0.00185329
vt -0.00595250 -0.00185329
vt -0.00595250 0.00000000
vt -0.00595250 -0.00368873
vt -0.00390416 -0.00000000
vt -0.00595250 -0.00548865
vt -0.00595250 -0.00723571
vt -0.00595250 -0.01050462
vt -0.00595250 -0.01199500
vt -0.00595250 -0.00891309
vt -0.00595250 -0.01336985
vt 0.00595250 -0.01336985
vt 0.00595250 -0.01199500
vt 0.00595250 -0.01050462
vt 0.00595250 -0.00891309
vt 0.00595250 -0.00548865
vt 0.00595250 -0.00368873
vt 0.00595250 -0.00723571
vt -0.01247126 0.00196034
vt -0.05000000 0.00196034
vt -0.01247126 0.00000000
vt -0.01247126 0.00580569
vt -0.05000000 0.00580569
vt -0.01247126 0.00390181
vt -0.05000000 0.00390181
vt -0.01247126 0.00942793
vt -0.05000000 0.00942793
vt -0.01247126 0.00765367
vt -0.05000000 0.01111140
vt -0.01247126 0.01111140
vt -0.05000000 0.00765367
vt -0.01247126 0.01268787
vt -0.01247126 0.01414214
vt 0.01247126 0.01414214
vt -0.05000000 0.01414214
vt 0.05000000 0.01414214
vt 0.01247126 0.01268787
vt 0.01247126 0.01111140
vt 0.05000000 0.01111140
vt 0.05000000 0.01268787
vt 0.05000000 0.00580569
vt 0.01247126 0.00765367
vt 0.01247126 0.00580569
vt 0.01247126 0.00196034
vt 0.05000000 0.00196034
vt 0.01247126 0.00390181
vt 0.05000000 0.00390181
vt 0.01247126 0.00942793
vt 0.05000000 0.00765367
vt 0.05000000 0.00942793
vt 0.01247126 -0.00196034
vt 0.01247126 -0.00390181
vt 0.05000000 -0.00390181
vt 0.01247126 -0.00000000
vt 0.05000000 -0.00196034
vt 0.05000000 -0.00942793
vt 0.01247126 -0.00765367
vt 0.01247126 -0.00942793
vt 0.01247126 -0.01414214
vt 0.01247126 0.01414214
vt 0.05000000 -0.01414214
vt 0.05000000 0.01414214
vt 0.01247126 -0.01268787
vt 0.05000000 -0.01268787
vt 0.01247126 -0.01111140
vt 0.01247126 0.01268787
vt 0.05000000 0.01268787
vt 0.05000000 -0.00765367
vt 0.01247126 -0.00580569
vt 0.01247126 0.01111140
vt 0.01247126 0.00942793
vt 0.05000000 0.00942793
vt 0.05000000 -0.01111140
vt 0.05000000 -0.00580569
vt 0.01247126 0.00765367
vt 0.01247126 0.00580569
vt 0.05000000 0.00580569
vt 0.01247126 0.00390181
vt 0.01247126 0.00196034
vt 0.05000000 0.00196034
vt 0.05000000 0.00390181
vt 0.05000000 0.00765367
vt 0.05000000 0.00000000
vt -0.05000000 -0.00000000
vt -0.05000000 0.01268787
vt 0.05000000 0.01111140
vt 0.05000000 -0.00000000
vt -0.05000000 -0.00196034
vt -0.01247126 -0.01414214
vt 0.01247126 -0.01414214
vt -0.05000000 -0.01414214
vt 0.05000000 -0.01414214
vt 0.01247126 -0.01268787
vt 0.05000000 -0.01268787
vt 0.01247126 -0.01111140
vt -0.05000000 -0.00942793
vt -0.01247126 -0.01111140
vt -0.01247126 -0.00942793
vt -0.01247126 -0.00765367
vt -0.05000000 -0.01268787
vt -0.01247126 -0.01268787
vt -0.05000000 -0.01111140
vt 0.01247126 -0.00196034
vt 0.01247126 -0.00390181
vt 0.05000000 -0.00390181
vt 0.01247126 -0.00580569
vt 0.01247126 -0.00765367
vt 0.05000000 -0.00765367
vt 0.05000000 -0.00580569
vt -0.01247126 -0.00390181
vt -0.05000000 -0.00390181
vt -0.01247126 -0.00580569
vt 0.01247126 -0.00942793
vt 0.05000000 -0.01111140
vt -0.05000000 -0.00196034
vt -0.01247126 -0.00196034
vt -0.05000000 -0.00580569
vt 0.05000000 -0.00942793
vt 0.01247126 -0.00000000
vt -0.05000000 0.00196034
vt -0.01247126 -0.00000000
vt -0.01247126 0.00196034
vt -0.05000000 -0.01111140
vt -0.01247126 -0.01268787
vt -0.01247126 -0.01111140
vt -0.01247126 -0.00942793
vt -0.05000000 -0.00942793
vt -0.01247126 -0.00580569
vt -0.05000000 -0.00580569
vt -0.01247126 -0.00765367
vt -0.05000000 -0.00765367
vt -0.01247126 -0.00390181
vt -0.05000000 -0.00390181
vt -0.05000000 0.00580569
vt -0.01247126 0.00390181
vt -0.01247126 0.00580569
vt -0.01247126 0.00765367
vt -0.05000000 0.00765367
vt -0.05000000 0.00390181
vt -0.01247126 0.01111140
vt -0.01247126 0.01268787
vt -0.05000000 0.01268787
vt -0.01247126 -0.01414214
vt -0.01247126 0.01414214
vt -0.05000000 -0.01268787
vt -0.05000000 -0.01414214
vt -0.05000000 0.01414214
vt -0.01247126 0.00942793
vt -0.05000000 0.01111140
vt -0.01247126 -0.00196034
vt -0.05000000 -0.00000000
vt 0.05000000 -0.00196034
vt -0.05000000 -0.00765367
vt -0.05000000 0.00942793
vt -0.01847759 -0.00765367
vt -0.01763843 -0.00942793
vt -0.01662939 -0.01111140
vt -0.01546021 -0.01268787
vt -0.01268787 -0.01546021
vt -0.01913881 -0.00580569
vt -0.02000000 -0.00000000
vt -0.01961571 -0.00390181
vt -0.01990370 -0.00196034
vt -0.01414214 -0.01414214
vt -0.00765367 -0.01847759
vt -0.00580569 -0.01913881
vt -0.00390181 -0.01961571
vt -0.00196034 -0.01990370
vt -0.00000000 -0.02000000
vt 0.00580569 -0.01913881
vt -0.01111140 -0.01662939
vt -0.00942793 -0.01763843
vt 0.01111140 -0.01662939
vt -0.01763843 0.00942793
vt -0.01990370 0.00196034
vt -0.01961571 0.00390181
vt -0.01847759 0.00765367
vt -0.01913881 0.00580569
vt -0.01414214 0.01414214
vt -0.01546021 0.01268787
vt -0.01662939 0.01111140
vt -0.01268787 0.01546021
vt -0.01111140 0.01662939
vt -0.00765367 0.01847759
vt -0.00942793 0.01763843
vt -0.00580569 0.01913881
vt -0.00390181 0.01961571
vt 0.00390181 0.01961571
vt 0.00000000 0.02000000
vt -0.00196034 0.01990370
vt 0.00390181 -0.01961571
vt 0.00765367 -0.01847759
vt 0.01268787 -0.01546021
vt 0.01414214 -0.01414214
vt 0.00942793 -0.01763843
vt 0.01662939 -0.01111140
vt 0.01913881 -0.00580569
vt 0.01763843 -0.00942793
vt 0.01847759 -0.00765367
vt 0.01961571 -0.00390181
vt 0.01990370 -0.00196034
vt 0.01546021 -0.01268787
vt 0.02000000 -0.00000000
vt 0.01961571 0.00390181
vt 0.00942793 0.01763843
vt 0.00765367 0.01847759
vt 0.01111140 0.01662939
vt 0.01546021 0.01268787
vt 0.01268787 0.01546021
vt 0.00196034 0.01990370
vt 0.00580569 0.01913881
vt 0.01913881 0.00580569
vt 0.01847759 0.00765367
vt 0.01414214 0.01414214
vt 0.01662939 0.01111140
vt 0.01763843 0.00942793
vt 0.01990370 0.00196034
vt 0.00196034 -0.01990370
usemtl Aluminum_Anodized_Charcoal
f 1/1 2/2 3/3
f 1/1 4/4 5/5
f 6/6 3/3 2/2
f 4/4 1/1 3/3
f 5/5 7/7 1/1
f 8/8 9/9 10/10
f 11/11 8/8 12/12
f 13/13 9/9 5/5
f 10/10 9/9 13/13
f 10/10 12/12 8/8
f 7/7 5/5 9/9
f 14/14 15/15 16/16
f 17/17 14/14 18/18
f 19/19 16/16 15/15
f 18/18 14/14 16/16
f 18/18 20/20 17/17
f 21/21 20/20 22/22
f 23/23 21/21 22/22
f 22/22 20/20 24/24
f 23/23 22/22 25/25
f 23/23 25/25 26/26
f 18/18 24/24 20/20
f 27/27 28/28 29/29
f 29/29 30/30 27/27
f 31/31 32/32 33/33
f 34/35 35/36 36/38
f 34/35 37/39 35/36
f 36/37 31/31 38/40
f 33/33 39/41 31/31
f 40/43 41/45 42/46
f 41/44 43/47 39/41
f 44/48 31/31 39/41
f 45/49 40/43 42/46
f 46/50 47/51 48/52
f 49/53 48/52 47/51
f 49/53 47/51 37/39
f 34/35 49/53 37/39
f 46/50 48/52 50/54
f 38/40 34/34 36/37
f 31/31 44/48 38/40
f 39/41 43/47 44/48
f 43/47 41/44 40/42
f 40/43 45/49 51/55
f 52/56 53/57 51/55
f 45/49 52/56 51/55
f 54/58 55/59 56/60
f 57/61 58/63 59/64
f 57/61 60/66 58/63
f 59/65 54/58 61/67
f 62/68 56/60 55/59
f 63/69 64/70 65/72
f 56/60 65/73 66/74
f 54/58 56/60 67/75
f 64/70 63/69 68/76
f 69/77 70/78 53/57
f 71/79 53/57 70/78
f 71/79 70/78 60/66
f 57/61 71/79 60/66
f 69/77 53/57 52/56
f 61/67 57/62 59/65
f 54/58 67/75 61/67
f 56/60 66/74 67/75
f 66/74 65/73 64/71
f 64/70 68/76 72/80
f 50/54 48/52 72/80
f 68/76 50/54 72/80
f 73/81 74/82 75/83
f 76/84 77/85 74/82
f 78/86 79/87 73/81
f 74/82 73/81 79/87
f 80/88 81/89 76/84
f 77/85 76/84 81/89
f 76/84 74/82 79/87
f 82/90 76/84 79/87
f 81/89 83/91 77/85
f 84/92 85/93 73/81
f 86/94 87/96 88/97
f 89/98 87/95 90/99
f 91/101 92/102 83/91
f 88/97 83/91 92/102
f 93/104 90/100 86/94
f 87/96 86/94 90/100
f 86/94 88/97 92/102
f 94/105 86/94 92/102
f 89/98 95/106 87/95
f 77/85 83/91 88/97
f 96/107 83/91 81/89
f 97/108 78/86 85/93
f 78/86 73/81 85/93
f 82/90 79/87 78/86
f 98/109 82/90 78/86
f 99/110 96/107 80/88
f 96/107 81/89 80/88
f 100/111 94/105 91/101
f 94/105 92/102 91/101
f 96/107 91/101 83/91
f 101/112 91/101 96/107
f 82/90 80/88 76/84
f 102/113 80/88 82/90
f 103/114 104/115 89/98
f 95/106 89/98 104/115
f 105/116 106/117 107/118
f 105/116 107/118 108/119
f 105/116 95/106 104/115
f 109/120 105/116 104/115
f 110/121 111/122 93/103
f 111/122 90/99 93/103
f 112/123 109/120 103/114
f 104/115 103/114 109/120
f 103/114 89/98 111/122
f 113/124 103/114 111/122
f 109/120 106/117 105/116
f 86/94 94/105 93/104
f 90/99 111/122 89/98
f 114/126 93/104 94/105
f 108/119 95/106 105/116
f 115/127 116/128 85/93
f 117/129 118/130 108/119
f 119/131 120/132 118/130
f 117/129 107/118 121/133
f 118/130 117/129 122/134
f 119/131 122/134 123/135
f 120/132 119/131 124/136
f 119/131 118/130 122/134
f 122/134 117/129 125/137
f 126/138 120/132 124/136
f 107/118 117/129 108/119
f 127/139 120/132 126/138
f 128/140 129/141 130/142
f 129/141 127/139 131/143
f 132/144 133/146 134/147
f 135/148 136/149 137/150
f 136/149 132/144 138/151
f 133/145 128/140 139/152
f 140/153 135/148 141/154
f 126/138 124/136 142/155
f 127/139 126/138 143/156
f 127/139 143/156 131/143
f 143/156 126/138 144/157
f 145/158 131/143 146/159
f 129/141 145/158 130/142
f 147/160 130/142 148/161
f 128/140 147/160 139/152
f 147/160 128/140 130/142
f 130/142 145/158 149/162
f 145/158 129/141 131/143
f 131/143 143/156 150/163
f 151/164 139/152 152/166
f 133/146 151/165 134/147
f 153/168 134/147 154/169
f 132/144 153/168 138/151
f 153/168 132/144 134/147
f 134/147 151/165 155/170
f 156/171 138/151 157/172
f 136/149 156/171 137/150
f 158/173 137/150 159/174
f 135/148 158/173 141/154
f 158/173 135/148 137/150
f 137/150 156/171 160/175
f 156/171 136/149 138/151
f 138/151 153/168 161/176
f 151/164 133/145 139/152
f 139/152 147/160 162/177
f 163/178 164/179 141/154
f 124/136 119/131 165/180
f 141/154 158/173 163/178
f 166/181 97/108 116/128
f 97/108 85/93 116/128
f 98/109 78/86 97/108
f 167/182 98/109 97/108
f 167/182 99/110 102/113
f 99/110 80/88 102/113
f 168/184 100/111 101/112
f 100/111 91/101 101/112
f 99/110 101/112 96/107
f 167/182 101/112 99/110
f 98/109 102/113 82/90
f 167/182 102/113 98/109
f 100/111 114/126 94/105
f 107/118 106/117 121/133
f 117/129 121/133 125/137
f 121/133 106/117 169/185
f 123/135 125/137 170/186
f 119/131 123/135 165/180
f 142/155 165/180 171/187
f 126/138 142/155 144/157
f 142/155 124/136 165/180
f 165/180 123/135 172/188
f 123/135 122/134 125/137
f 125/137 121/133 173/189
f 109/120 174/190 106/117
f 175/191 144/157 142/155
f 168/183 110/121 114/125
f 110/121 93/103 114/125
f 113/124 111/122 110/121
f 168/183 113/124 110/121
f 166/181 167/182 97/108
f 112/123 113/124 176/192
f 168/184 101/112 167/182
f 168/183 176/192 113/124
f 113/124 112/123 103/114
f 168/184 114/126 100/111
f 176/192 169/185 174/190
f 106/117 174/190 169/185
f 177/193 170/186 173/189
f 125/137 173/189 170/186
f 173/189 121/133 169/185
f 176/192 173/189 169/185
f 177/193 173/189 176/192
f 177/193 171/187 172/188
f 165/180 172/188 171/187
f 177/193 172/188 170/186
f 175/191 171/187 177/193
f 172/188 123/135 170/186
f 112/123 176/192 174/190
f 112/123 174/190 109/120
f 142/155 171/187 175/191
f 116/128 115/127 166/181
f 150/163 178/194 146/159
f 131/143 150/163 146/159
f 145/158 146/159 149/162
f 179/195 178/194 150/163
f 180/196 179/195 175/191
f 175/191 179/195 144/157
f 148/161 149/162 181/197
f 147/160 148/161 162/177
f 149/162 146/159 182/198
f 148/161 183/199 162/177
f 148/161 130/142 149/162
f 150/163 144/157 179/195
f 152/166 162/177 184/200
f 151/165 152/167 155/170
f 154/169 155/170 185/202
f 153/168 154/169 161/176
f 154/169 134/147 155/170
f 155/170 152/167 186/203
f 157/172 161/176 187/204
f 156/171 157/172 160/175
f 159/174 160/175 188/205
f 158/173 159/174 163/178
f 159/174 137/150 160/175
f 160/175 157/172 189/206
f 157/172 138/151 161/176
f 161/176 154/169 190/207
f 152/166 139/152 162/177
f 163/178 159/174 191/208
f 180/196 182/198 178/194
f 146/159 178/194 182/198
f 149/162 182/198 181/197
f 180/196 181/197 182/198
f 180/196 192/209 181/197
f 183/199 181/197 192/209
f 183/199 192/209 184/200
f 186/203 184/201 192/210
f 184/200 162/177 183/199
f 183/199 148/161 181/197
f 179/195 180/196 178/194
f 192/210 193/211 185/202
f 155/170 186/203 185/202
f 193/211 187/204 190/207
f 161/176 190/207 187/204
f 190/207 154/169 185/202
f 193/211 190/207 185/202
f 188/205 189/206 193/211
f 187/204 193/211 189/206
f 194/212 188/205 193/211
f 159/174 188/205 191/208
f 188/205 160/175 189/206
f 191/208 188/205 194/212
f 189/206 157/172 187/204
f 186/203 192/210 185/202
f 186/203 152/167 184/201
f 195/213 163/178 191/208
f 177/193 180/196 175/191
f 150/163 143/156 144/157
f 140/153 141/154 164/179
f 73/81 75/83 84/92
f 196/214 197/215 198/216
f 140/153 164/179 197/215
f 199/217 196/214 200/218
f 201/219 200/218 198/216
f 196/214 198/216 200/218
f 202/220 203/221 204/222
f 199/217 204/222 203/221
f 204/222 199/217 200/218
f 205/223 204/222 200/218
f 203/221 206/224 199/217
f 207/225 198/216 197/215
f 208/226 209/227 206/224
f 210/229 209/228 211/231
f 212/232 208/226 213/233
f 208/226 206/224 213/233
f 214/234 215/235 216/236
f 209/227 208/226 211/230
f 210/229 215/235 209/228
f 217/237 211/230 208/226
f 203/221 213/233 206/224
f 218/239 213/233 203/221
f 164/179 219/240 197/215
f 219/240 207/225 197/215
f 220/241 207/225 219/240
f 195/213 219/240 164/179
f 221/242 205/223 201/219
f 201/219 198/216 207/225
f 222/243 218/239 202/220
f 203/221 202/220 218/239
f 202/220 204/222 205/223
f 223/244 202/220 205/223
f 205/223 200/218 201/219
f 224/245 201/219 207/225
f 217/237 208/226 212/232
f 213/233 218/239 212/232
f 225/246 210/229 226/247
f 215/235 225/246 216/236
f 225/246 215/235 210/229
f 216/236 225/246 227/248
f 228/249 229/250 217/238
f 229/250 211/231 217/238
f 230/251 227/248 226/247
f 225/246 226/247 227/248
f 226/247 210/229 229/250
f 231/252 226/247 229/250
f 232/253 233/254 216/236
f 234/255 217/237 212/232
f 210/229 211/231 229/250
f 235/257 212/232 218/239
f 233/254 214/234 216/236
f 196/214 140/153 197/215
f 236/258 214/234 233/254
f 237/259 214/234 236/258
f 238/260 237/259 239/261
f 232/253 240/262 233/254
f 237/259 236/258 241/263
f 239/261 241/263 242/264
f 238/260 239/261 243/265
f 239/261 237/259 241/263
f 241/263 236/258 244/266
f 243/265 245/267 238/260
f 233/254 240/262 236/258
f 246/268 247/269 245/267
f 248/270 249/271 250/272
f 249/271 247/269 251/273
f 252/274 253/276 254/277
f 255/278 252/275 248/270
f 256/279 254/277 257/280
f 258/281 256/279 259/282
f 238/260 245/267 247/269
f 243/265 239/261 260/283
f 246/268 245/267 261/284
f 247/269 246/268 251/273
f 249/271 251/273 262/285
f 251/273 246/268 263/286
f 262/285 264/287 250/272
f 265/288 262/285 251/273
f 266/289 250/272 267/290
f 248/270 266/289 255/278
f 266/289 248/270 250/272
f 266/289 268/291 255/278
f 250/272 249/271 262/285
f 269/292 245/267 243/265
f 270/294 255/278 271/296
f 252/274 270/293 253/276
f 272/297 253/276 273/298
f 254/277 272/297 257/280
f 272/297 254/277 253/276
f 253/276 270/293 274/299
f 275/300 257/280 276/301
f 256/279 275/300 259/282
f 277/302 259/282 278/303
f 258/281 277/302 84/92
f 277/302 258/281 259/282
f 259/282 275/300 279/304
f 275/300 256/279 257/280
f 257/280 272/297 280/305
f 270/294 252/275 255/278
f 84/92 277/302 281/306
f 216/236 227/248 232/253
f 282/307 232/253 227/248
f 195/213 283/308 219/240
f 283/308 220/241 219/240
f 194/212 220/241 283/308
f 284/309 283/308 195/213
f 285/310 221/242 224/245
f 224/245 207/225 220/241
f 285/310 222/243 223/244
f 223/244 205/223 221/242
f 224/245 221/242 201/219
f 285/310 223/244 221/242
f 202/220 223/244 222/243
f 285/310 224/245 220/241
f 234/256 228/249 217/238
f 236/258 240/262 244/266
f 242/264 244/266 286/311
f 239/261 242/264 260/283
f 242/264 241/263 244/266
f 244/266 240/262 287/312
f 288/313 234/255 235/257
f 235/257 234/255 212/232
f 269/292 260/283 289/315
f 245/267 269/292 261/284
f 260/283 242/264 290/316
f 291/317 261/284 269/292
f 269/292 243/265 260/283
f 218/239 222/243 235/257
f 232/253 292/318 240/262
f 288/313 235/257 222/243
f 288/314 231/252 228/249
f 231/252 229/250 228/249
f 230/251 226/247 231/252
f 293/319 231/252 288/314
f 191/208 194/212 284/309
f 194/212 283/308 284/309
f 194/212 285/310 220/241
f 222/243 285/310 288/313
f 293/319 230/251 231/252
f 288/314 228/249 234/256
f 293/319 292/318 282/307
f 292/318 232/253 282/307
f 294/320 286/311 287/312
f 244/266 287/312 286/311
f 287/312 240/262 292/318
f 293/319 287/312 292/318
f 293/319 294/320 287/312
f 290/316 286/311 294/320
f 291/317 289/315 294/320
f 290/316 294/320 289/315
f 289/315 260/283 290/316
f 290/316 242/264 286/311
f 230/251 293/319 282/307
f 230/251 282/307 227/248
f 269/292 289/315 291/317
f 191/208 284/309 195/213
f 263/286 295/321 265/288
f 251/273 263/286 265/288
f 262/285 265/288 264/287
f 296/322 295/321 263/286
f 297/323 296/322 291/317
f 291/317 296/322 261/284
f 267/290 264/287 298/324
f 266/289 267/290 268/291
f 264/287 265/288 299/325
f 267/290 300/326 268/291
f 267/290 250/272 264/287
f 263/286 261/284 296/322
f 271/296 268/291 301/328
f 270/293 271/295 274/299
f 273/298 274/299 302/329
f 272/297 273/298 280/305
f 273/298 253/276 274/299
f 274/299 271/295 303/330
f 276/301 280/305 304/331
f 275/300 276/301 279/304
f 278/303 279/304 305/332
f 277/302 278/303 281/306
f 278/303 259/282 279/304
f 279/304 276/301 306/333
f 276/301 257/280 280/305
f 280/305 273/298 307/334
f 271/296 255/278 268/291
f 281/306 278/303 115/127
f 297/323 299/325 295/321
f 265/288 295/321 299/325
f 264/287 299/325 298/324
f 297/323 298/324 299/325
f 297/323 308/336 298/324
f 300/326 298/324 308/336
f 300/326 308/336 301/328
f 303/330 301/327 308/335
f 301/328 268/291 300/326
f 300/326 267/290 298/324
f 296/322 297/323 295/321
f 308/335 309/337 302/329
f 274/299 303/330 302/329
f 309/337 304/331 307/334
f 280/305 307/334 304/331
f 307/334 273/298 302/329
f 309/337 307/334 302/329
f 305/332 306/333 309/337
f 304/331 309/337 306/333
f 305/332 166/181 115/127
f 278/303 305/332 115/127
f 305/332 279/304 306/333
f 305/332 309/337 166/181
f 306/333 276/301 304/331
f 303/330 308/335 302/329
f 303/330 271/295 301/327
f 281/306 115/127 85/93
f 294/320 297/323 291/317
f 263/286 246/268 261/284
f 84/92 281/306 85/93
f 163/178 195/213 164/179
f 258/281 84/92 75/83
f 75/83 74/82 310/338
f 74/82 77/85 311/339
f 312/340 77/85 88/97
f 313/341 88/97 87/96
f 314/342 77/85 312/340
f 310/338 74/82 315/343
f 315/343 74/82 311/339
f 95/106 108/119 316/344
f 314/342 311/339 77/85
f 118/130 317/345 108/119
f 95/106 318/346 87/95
f 75/83 310/338 319/347
f 320/348 321/349 127/139
f 127/139 129/141 322/350
f 323/351 128/140 324/352
f 324/352 128/140 133/145
f 129/141 128/140 325/353
f 322/350 129/141 326/354
f 326/354 129/141 325/353
f 136/149 327/355 132/144
f 323/351 325/353 128/140
f 328/356 136/149 135/148
f 132/144 329/357 133/146
f 118/130 321/349 330/358
f 331/359 127/139 322/350
f 312/340 88/97 332/360
f 313/341 87/96 333/361
f 333/362 87/95 318/346
f 88/97 313/341 332/360
f 334/363 95/106 316/344
f 316/344 108/119 335/364
f 317/345 118/130 336/365
f 336/365 118/130 330/358
f 108/119 317/345 335/364
f 95/106 334/363 318/346
f 337/366 321/349 320/348
f 337/366 330/358 321/349
f 338/367 324/352 133/145
f 339/369 329/357 132/144
f 327/355 339/369 132/144
f 338/368 133/146 329/357
f 320/348 127/139 331/359
f 340/370 136/149 328/356
f 328/356 135/148 341/371
f 327/355 136/149 340/370
f 135/148 342/372 341/371
f 135/148 140/153 342/372
f 75/83 319/347 343/373
f 344/374 345/375 140/153
f 196/214 199/217 346/376
f 347/377 199/217 206/224
f 348/378 206/224 209/227
f 349/379 209/228 215/235
f 347/377 350/380 199/217
f 140/153 196/214 344/374
f 351/381 347/377 206/224
f 352/383 348/378 209/227
f 349/379 352/382 209/228
f 351/381 206/224 348/378
f 215/235 353/384 349/379
f 140/153 345/375 342/372
f 354/385 214/234 355/386
f 356/387 214/234 237/259
f 357/388 238/260 247/269
f 358/389 247/269 249/271
f 359/390 237/259 238/260
f 354/385 353/384 215/235
f 248/270 360/391 249/271
f 252/275 361/392 248/270
f 362/393 252/274 254/277
f 363/394 254/277 256/279
f 364/395 256/279 258/281
f 354/385 215/235 214/234
f 344/374 196/214 365/396
f 365/396 196/214 346/376
f 350/380 346/376 199/217
f 356/387 355/386 214/234
f 366/397 356/387 237/259
f 366/397 237/259 359/390
f 367/398 238/260 357/388
f 357/388 247/269 368/399
f 238/260 367/398 359/390
f 358/389 368/399 247/269
f 249/271 360/391 369/400
f 358/389 249/271 369/400
f 360/391 248/270 370/401
f 371/402 364/395 258/281
f 343/373 371/402 258/281
f 372/403 256/279 364/395
f 370/401 248/270 361/392
f 361/392 252/275 373/405
f 362/393 254/277 374/406
f 374/406 254/277 363/394
f 252/274 362/393 373/404
f 372/403 363/394 256/279
f 258/281 75/83 343/373
f 375/407 376/408 377/409
f 378/410 379/411 380/412
f 376/408 378/410 381/413
f 377/409 382/414 383/415
f 384/416 375/407 377/409
f 381/413 380/412 385/417
f 377/409 376/408 381/413
f 381/413 378/410 380/412
f 380/412 386/418 387/419
f 379/411 386/418 380/412
f 377/409 381/413 388/420
f 379/411 389/421 386/418
f 390/422 389/421 391/423
f 392/424 393/425 394/426
f 395/427 396/428 393/425
f 397/429 398/430 391/423
f 391/423 398/430 390/422
f 399/431 400/433 401/435
f 402/436 397/429 400/434
f 396/428 403/437 401/435
f 394/426 404/438 405/439
f 389/421 390/422 386/418
f 386/418 390/422 406/440
f 382/414 388/420 407/441
f 382/414 377/409 388/420
f 381/413 385/417 388/420
f 402/436 398/430 397/429
f 399/432 402/436 400/434
f 408/442 398/430 402/436
f 398/430 409/443 390/422
f 402/436 399/432 410/445
f 385/417 387/419 411/446
f 385/417 380/412 387/419
f 406/440 409/443 412/447
f 406/440 390/422 409/443
f 408/442 409/443 398/430
f 409/443 408/442 413/448
f 386/418 406/440 387/419
f 387/419 406/440 414/449
f 410/445 408/442 402/436
f 388/420 385/417 415/450
f 403/437 395/427 416/451
f 395/427 403/437 396/428
f 392/424 405/439 417/452
f 405/439 392/424 394/426
f 418/453 405/439 404/438
f 418/453 419/454 405/439
f 395/427 393/425 392/424
f 395/427 392/424 420/455
f 410/444 421/456 422/457
f 410/444 399/431 421/456
f 416/451 420/455 423/458
f 420/455 416/451 395/427
f 417/452 420/455 392/424
f 420/455 417/452 424/459
f 421/456 403/437 416/451
f 421/456 416/451 425/460
f 419/454 417/452 405/439
f 421/456 399/431 403/437
f 399/431 401/435 403/437
f 408/442 410/445 426/462
f 404/438 427/463 418/453
f 428/464 429/465 382/414
f 430/466 431/467 432/468
f 433/469 434/470 435/471
f 436/472 430/466 435/471
f 437/473 433/469 438/474
f 439/475 418/453 440/476
f 440/476 427/463 441/477
f 442/478 441/477 443/479
f 440/476 441/477 442/478
f 432/468 444/480 443/479
f 445/481 438/474 446/482
f 447/483 448/485 449/486
f 450/487 451/488 452/489
f 453/490 448/484 454/492
f 455/493 456/494 457/495
f 458/496 459/497 460/498
f 461/499 459/497 451/488
f 458/496 462/500 456/494
f 455/493 463/501 454/492
f 446/482 447/483 464/502
f 465/503 452/489 466/504
f 444/480 467/505 442/478
f 444/480 442/478 443/479
f 468/506 444/480 431/467
f 436/472 431/467 430/466
f 434/470 436/472 435/471
f 469/507 431/467 436/472
f 444/480 432/468 431/467
f 442/478 467/505 470/508
f 419/454 439/475 471/509
f 439/475 419/454 418/453
f 437/473 472/510 434/470
f 439/475 440/476 470/508
f 445/481 437/473 438/474
f 445/481 473/511 437/473
f 436/472 434/470 474/512
f 439/475 470/508 475/513
f 434/470 433/469 437/473
f 440/476 442/478 470/508
f 476/514 445/481 464/502
f 449/486 464/502 447/483
f 477/516 449/486 453/491
f 463/501 453/490 454/492
f 457/495 463/501 455/493
f 478/517 453/490 463/501
f 449/486 448/485 453/491
f 479/518 464/502 449/486
f 480/519 457/495 462/500
f 460/498 462/500 458/496
f 481/520 460/498 461/499
f 450/487 461/499 451/488
f 465/503 450/487 452/489
f 482/521 461/499 450/487
f 460/498 459/497 461/499
f 483/522 462/500 460/498
f 457/495 456/494 462/500
f 484/523 463/501 457/495
f 445/481 446/482 464/502
f 485/524 450/487 465/503
f 465/503 486/525 485/524
f 440/476 418/453 427/463
f 417/452 419/454 487/526
f 428/464 407/441 341/371
f 428/464 382/414 407/441
f 415/450 411/446 340/370
f 415/450 385/417 411/446
f 388/420 415/450 407/441
f 407/441 415/450 328/356
f 414/449 412/447 339/369
f 414/449 406/440 412/447
f 413/448 426/462 338/368
f 413/448 408/442 426/462
f 426/461 410/444 422/457
f 426/461 422/457 324/352
f 409/443 413/448 412/447
f 412/447 413/448 329/357
f 387/419 414/449 411/446
f 411/446 414/449 327/355
f 425/460 423/458 325/353
f 425/460 416/451 423/458
f 420/455 424/459 423/458
f 468/506 467/505 444/480
f 469/507 468/506 431/467
f 467/505 468/506 488/527
f 422/457 421/456 425/460
f 489/528 467/505 488/527
f 424/459 487/526 322/350
f 424/459 417/452 487/526
f 471/509 475/513 320/348
f 471/509 439/475 475/513
f 475/513 470/508 489/528
f 475/513 489/528 490/529
f 419/454 471/509 487/526
f 487/526 471/509 331/359
f 469/507 491/530 468/506
f 423/458 424/459 326/354
f 489/528 470/508 467/505
f 422/457 425/460 323/351
f 342/372 428/464 341/371
f 415/450 340/370 328/356
f 328/356 341/371 407/441
f 492/531 428/464 342/372
f 339/369 327/355 414/449
f 338/368 329/357 413/448
f 412/447 329/357 339/369
f 426/461 324/352 338/367
f 411/446 327/355 340/370
f 323/351 425/460 325/353
f 424/459 322/350 326/354
f 326/354 325/353 423/458
f 487/526 331/359 322/350
f 324/352 422/457 323/351
f 471/509 320/348 331/359
f 330/358 490/529 489/528
f 330/358 488/527 336/365
f 490/529 320/348 475/513
f 336/365 488/527 491/530
f 488/527 330/358 489/528
f 468/506 491/530 488/527
f 492/531 493/532 428/464
f 474/512 472/510 494/533
f 472/510 474/512 434/470
f 473/511 476/514 495/534
f 476/514 473/511 445/481
f 479/518 476/514 464/502
f 479/518 496/535 476/514
f 472/510 437/473 473/511
f 472/510 473/511 497/536
f 491/530 498/537 317/345
f 491/530 469/507 498/537
f 494/533 497/536 316/344
f 497/536 494/533 472/510
f 495/534 497/536 473/511
f 497/536 495/534 334/363
f 498/537 474/512 494/533
f 498/537 494/533 335/364
f 496/535 495/534 476/514
f 498/537 469/507 474/512
f 478/517 499/538 477/515
f 478/517 477/515 453/490
f 500/539 478/517 484/523
f 480/519 484/523 457/495
f 483/522 480/519 462/500
f 501/540 484/523 480/519
f 478/517 463/501 484/523
f 477/515 499/538 502/541
f 496/535 502/542 333/362
f 479/518 502/542 496/535
f 503/543 483/522 481/520
f 482/521 481/520 461/499
f 485/524 482/521 450/487
f 504/544 481/520 482/521
f 505/545 480/519 483/522
f 506/546 482/521 485/524
f 483/522 460/498 481/520
f 502/542 479/518 477/516
f 479/518 449/486 477/516
f 495/534 496/535 318/346
f 317/345 498/537 335/364
f 316/344 497/536 334/363
f 316/344 335/364 494/533
f 500/539 499/538 478/517
f 332/360 499/538 500/539
f 313/341 502/541 499/538
f 334/363 495/534 318/346
f 313/341 333/361 502/541
f 313/341 499/538 332/360
f 496/535 333/362 318/346
f 500/539 312/340 332/360
f 501/540 505/545 314/342
f 505/545 501/540 480/519
f 503/543 504/544 315/343
f 504/544 503/543 481/520
f 506/546 504/544 482/521
f 504/544 506/546 310/338
f 505/545 483/522 503/543
f 505/545 503/543 311/339
f 312/340 501/540 314/342
f 503/543 315/343 311/339
f 314/342 505/545 311/339
f 310/338 315/343 504/544
f 310/338 506/546 507/547
f 501/540 312/340 500/539
f 500/539 484/523 501/540
f 485/524 508/548 509/549
f 491/530 317/345 336/365
f 469/507 436/472 474/512
f 466/504 486/525 465/503
f 383/415 384/416 377/409
f 510/550 511/551 512/552
f 513/553 512/552 514/554
f 515/555 514/554 516/556
f 517/557 510/550 518/558
f 510/550 517/557 511/551
f 513/553 515/555 519/559
f 515/555 513/553 514/554
f 520/560 515/555 516/556
f 515/555 520/560 521/561
f 510/550 512/552 513/553
f 510/550 513/553 522/562
f 516/556 523/563 520/560
f 517/557 486/525 466/504
f 524/564 525/566 526/567
f 527/568 528/569 529/571
f 524/564 526/567 529/570
f 530/572 531/573 527/568
f 523/563 532/574 520/560
f 532/574 523/563 533/575
f 526/567 525/566 533/575
f 534/576 535/577 536/578
f 533/575 525/566 532/574
f 530/572 535/577 537/579
f 532/574 525/566 538/580
f 520/560 532/574 539/581
f 486/525 508/548 485/524
f 486/525 517/557 508/548
f 540/582 508/548 517/557
f 540/582 517/557 518/558
f 513/553 519/559 522/562
f 540/582 518/558 541/583
f 524/564 542/584 525/566
f 508/548 540/582 509/549
f 522/562 519/559 543/586
f 518/558 510/550 522/562
f 521/561 539/581 544/587
f 521/561 520/560 539/581
f 539/581 532/574 538/580
f 539/581 538/580 545/588
f 515/555 521/561 519/559
f 519/559 521/561 546/589
f 542/584 538/580 525/566
f 518/558 522/562 547/590
f 528/569 531/573 548/591
f 531/573 528/569 527/568
f 537/579 534/576 549/592
f 534/576 537/579 535/577
f 550/593 534/576 536/578
f 550/593 551/594 534/576
f 531/573 530/572 537/579
f 531/573 537/579 552/595
f 542/585 553/596 554/597
f 542/585 524/565 553/596
f 548/591 552/595 555/598
f 552/595 548/591 531/573
f 549/592 552/595 537/579
f 552/595 549/592 556/599
f 553/596 528/569 548/591
f 553/596 548/591 557/600
f 551/594 549/592 534/576
f 553/596 524/565 528/569
f 524/565 529/571 528/569
f 538/580 542/584 558/601
f 536/578 559/603 550/593
f 517/557 466/504 511/551
f 560/604 559/603 561/605
f 562/606 563/607 561/605
f 563/607 560/604 561/605
f 564/608 565/609 562/606
f 566/610 567/611 568/612
f 564/608 568/612 569/613
f 570/614 571/615 572/616
f 573/617 566/610 571/615
f 574/618 575/619 572/616
f 576/620 550/593 560/604
f 577/621 578/622 579/623
f 580/624 581/625 582/626
f 583/627 580/624 584/628
f 578/622 583/627 585/629
f 586/630 574/618 587/631
f 577/621 588/632 589/634
f 590/635 591/637 589/633
f 592/638 581/625 593/639
f 594/640 587/631 591/637
f 383/415 593/639 595/641
f 565/609 596/642 563/607
f 565/609 563/607 562/606
f 597/643 565/609 569/613
f 567/611 569/613 568/612
f 573/617 567/611 566/610
f 598/644 569/613 567/611
f 565/609 564/608 569/613
f 563/607 596/642 599/645
f 551/594 576/620 600/646
f 576/620 551/594 550/593
f 570/614 601/647 573/617
f 576/620 560/604 599/645
f 575/619 570/614 572/616
f 575/619 602/648 570/614
f 567/611 573/617 603/649
f 576/620 599/645 604/650
f 573/617 571/615 570/614
f 560/604 563/607 599/645
f 605/651 575/619 586/630
f 594/640 586/630 587/631
f 606/652 594/640 590/635
f 588/632 590/636 589/634
f 579/623 588/632 577/621
f 607/654 590/636 588/632
f 594/640 591/637 590/635
f 608/655 586/630 594/640
f 609/656 579/623 585/629
f 584/628 585/629 583/627
f 610/657 584/628 582/626
f 592/638 582/626 581/625
f 383/415 592/638 593/639
f 611/658 582/626 592/638
f 584/628 580/624 582/626
f 612/659 585/629 584/628
f 579/623 578/622 585/629
f 613/660 588/632 579/623
f 575/619 574/618 586/630
f 429/465 592/638 383/415
f 429/465 383/415 382/414
f 560/604 550/593 559/603
f 549/592 551/594 614/661
f 509/549 615/662 507/547
f 615/662 540/582 541/583
f 541/583 547/590 371/402
f 547/590 541/583 518/558
f 543/586 547/590 522/562
f 547/590 543/586 364/395
f 519/559 546/589 543/586
f 615/662 541/583 343/373
f 546/589 544/587 363/394
f 544/587 546/589 521/561
f 545/588 558/601 362/393
f 558/601 545/588 538/580
f 554/597 558/602 542/585
f 558/602 554/597 373/405
f 544/587 539/581 545/588
f 544/587 545/588 374/406
f 615/662 509/549 540/582
f 543/586 546/589 372/403
f 557/600 555/598 370/401
f 557/600 548/591 555/598
f 552/595 556/599 555/598
f 597/643 596/642 565/609
f 598/644 597/643 569/613
f 596/642 597/643 616/663
f 554/597 553/596 557/600
f 617/664 596/642 616/663
f 556/599 614/661 369/400
f 556/599 549/592 614/661
f 600/646 604/650 368/399
f 600/646 576/620 604/650
f 604/650 599/645 617/664
f 604/650 617/664 357/388
f 551/594 600/646 614/661
f 614/661 600/646 358/389
f 597/643 598/644 618/665
f 555/598 556/599 360/391
f 599/645 596/642 617/664
f 554/597 557/600 361/392
f 374/406 363/394 544/587
f 373/404 362/393 558/601
f 554/597 361/392 373/405
f 545/588 362/393 374/406
f 343/373 541/583 371/402
f 364/395 371/402 547/590
f 372/403 364/395 543/586
f 363/394 372/403 546/589
f 507/547 615/662 343/373
f 357/388 617/664 619/666
f 616/663 618/665 359/390
f 618/665 616/663 597/643
f 359/390 618/665 366/397
f 616/663 359/390 619/666
f 368/399 604/650 357/388
f 555/598 360/391 370/401
f 358/389 369/400 614/661
f 600/646 368/399 358/389
f 369/400 360/391 556/599
f 370/401 361/392 557/600
f 617/664 616/663 619/666
f 603/649 620/667 598/644
f 509/549 507/547 506/546
f 603/649 601/647 621/668
f 601/647 603/649 573/617
f 602/648 605/651 622/669
f 605/651 602/648 575/619
f 608/655 605/651 586/630
f 605/651 608/655 623/670
f 601/647 570/614 602/648
f 601/647 602/648 624/671
f 620/667 621/668 356/387
f 621/668 620/667 603/649
f 624/671 622/669 354/385
f 622/669 624/671 602/648
f 623/670 622/669 605/651
f 622/669 623/670 353/384
f 621/668 601/647 624/671
f 621/668 624/671 355/386
f 606/652 625/672 608/655
f 620/667 366/397 618/665
f 606/653 607/654 626/674
f 607/654 606/653 590/636
f 607/654 627/675 626/674
f 609/656 613/660 579/623
f 612/659 609/656 585/629
f 628/676 613/660 609/656
f 607/654 588/632 613/660
f 613/660 627/675 607/654
f 625/673 626/674 352/383
f 625/673 606/653 626/674
f 629/677 612/659 610/657
f 611/658 610/657 582/626
f 429/465 611/658 592/638
f 630/678 610/657 611/658
f 631/679 609/656 612/659
f 493/532 611/658 429/465
f 612/659 584/628 610/657
f 625/672 623/670 608/655
f 608/655 594/640 606/652
f 623/670 625/672 349/379
f 349/379 625/672 352/382
f 348/378 627/675 351/381
f 348/378 352/383 626/674
f 351/381 627/675 628/676
f 353/384 623/670 349/379
f 366/397 620/667 356/387
f 356/387 621/668 355/386
f 354/385 622/669 353/384
f 354/385 355/386 624/671
f 348/378 626/674 627/675
f 628/676 631/679 347/377
f 631/679 628/676 609/656
f 629/677 630/678 346/376
f 630/678 629/677 610/657
f 493/532 630/678 611/658
f 630/678 493/532 365/396
f 631/679 612/659 629/677
f 631/679 629/677 350/380
f 350/380 347/377 631/679
f 346/376 350/380 629/677
f 344/374 365/396 493/532
f 630/678 365/396 346/376
f 344/374 493/532 492/531
f 628/676 347/377 351/381
f 627/675 613/660 628/676
f 428/464 493/532 429/465
f 618/665 598/644 620/667
f 598/644 567/611 603/649
f 383/415 595/641 384/416
f 509/549 506/546 485/524
f 632/680 633/681 634/682
f 635/683 636/684 637/685
f 637/685 638/686 632/680
f 639/687 640/688 641/689
f 642/690 639/687 643/691
f 644/692 635/683 641/689
f 645/693 646/694 647/696
f 648/698 649/699 650/700
f 646/695 648/698 651/701
f 652/702 653/703 654/704
f 655/705 656/706 657/707
f 654/704 657/707 658/708
f 659/709 653/703 660/710
f 649/699 659/709 661/711
f 643/691 645/693 642/690
f 662/712 663/713 664/714
f 665/715 662/712 666/716
f 667/717 668/718 669/719
f 670/720 671/722 672/724
f 672/724 673/725 674/726
f 675/727 676/728 670/721
f 677/729 678/730 668/718
f 679/731 680/732 681/733
f 669/719 674/726 682/734
f 663/713 678/730 683/735
f 684/736 685/737 686/738
f 687/739 688/740 689/741
f 685/737 687/739 690/742
f 680/732 684/736 691/743
f 655/705 665/715 692/744
f 675/727 679/731 676/728
f 633/681 693/745 634/682
f 636/684 638/686 637/685
f 633/681 632/680 638/686
f 640/688 644/692 641/689
f 694/746 642/690 645/693
f 640/688 639/687 642/690
f 636/684 635/683 644/692
f 651/701 647/697 646/695
f 661/711 650/700 649/699
f 651/701 648/698 650/700
f 652/702 660/710 653/703
f 656/706 658/708 657/707
f 652/702 654/704 658/708
f 661/711 659/709 660/710
f 694/746 645/693 647/696
f 666/716 692/744 665/715
f 683/735 664/714 663/713
f 666/716 662/712 664/714
f 667/717 677/729 668/718
f 673/725 682/734 674/726
f 667/717 669/719 682/734
f 683/735 678/730 677/729
f 676/728 671/723 670/721
f 681/733 695/747 679/731
f 676/728 679/731 695/747
f 686/738 691/743 684/736
f 689/741 690/742 687/739
f 686/738 685/737 690/742
f 681/733 680/732 691/743
f 673/725 672/724 671/722
f 656/706 655/705 692/744
f 688/740 696/748 689/741
f 634/682 693/745 697/749
f 698/751 699/753 700/754
f 701/755 702/756 700/754
f 703/757 704/758 705/759
f 706/760 703/757 705/759
f 707/761 698/750 708/762
f 704/758 709/763 708/762
f 710/764 711/765 712/766
f 713/767 714/768 715/769
f 711/765 713/767 716/770
f 717/771 718/772 719/773
f 720/774 702/756 721/775
f 722/776 717/771 723/777
f 706/760 719/773 724/778
f 714/768 720/774 725/779
f 726/780 710/764 696/748
f 727/781 728/782 729/783
f 730/784 731/785 732/786
f 733/787 734/788 732/786
f 735/789 736/790 737/791
f 737/791 738/792 733/787
f 739/793 740/794 735/789
f 741/795 742/796 743/797
f 743/797 744/798 745/799
f 729/783 742/796 746/800
f 747/801 748/802 749/803
f 750/804 731/785 751/806
f 748/802 750/805 752/808
f 753/809 747/801 754/810
f 739/793 755/811 697/749
f 723/777 728/782 756/812
f 745/799 744/798 753/809
f 757/813 696/748 710/764
f 716/770 712/766 711/765
f 757/813 710/764 712/766
f 725/779 715/769 714/768
f 701/755 721/775 702/756
f 725/779 720/774 721/775
f 716/770 713/767 715/769
f 707/761 699/752 698/750
f 703/757 709/763 704/758
f 707/761 708/762 709/763
f 724/778 758/814 706/760
f 722/776 718/772 717/771
f 724/778 719/773 718/772
f 703/757 706/760 758/814
f 701/755 700/754 699/753
f 727/781 756/812 728/782
f 741/795 746/800 742/796
f 727/781 729/783 746/800
f 759/815 745/799 753/809
f 749/803 754/810 747/801
f 759/815 753/809 754/810
f 741/795 743/797 745/799
f 751/806 752/807 750/804
f 734/788 730/784 732/786
f 751/806 731/785 730/784
f 736/790 738/792 737/791
f 697/749 740/794 739/793
f 736/790 735/789 740/794
f 734/788 733/787 738/792
f 749/803 748/802 752/808
f 722/776 723/777 756/812
f 755/811 634/682 697/749
f 726/780 696/748 688/740
f 760/816 761/817 762/818
f 762/818 763/819 764/820
f 764/820 765/821 762/818
f 765/821 766/822 767/823
f 760/816 762/818 765/821
f 768/824 767/823 766/822
f 763/819 769/825 764/820
f 770/826 771/827 772/828
f 773/829 774/830 772/828
f 775/831 764/820 772/828
f 764/820 776/832 777/833
f 770/826 772/828 777/833
f 777/833 772/828 764/820
f 764/820 778/834 765/821
f 765/821 778/834 779/835
f 780/836 766/822 781/837
f 782/838 783/839 781/837
f 781/837 765/821 779/835
f 782/838 781/837 779/835
f 784/840 785/841 786/842
f 786/842 779/835 784/840
f 781/837 766/822 765/821
f 787/843 784/840 788/844
f 789/845 790/846 788/844
f 784/840 779/835 788/844
f 791/847 789/845 792/848
f 793/849 789/845 788/844
f 793/849 788/844 779/835
f 792/848 789/845 793/849
f 794/850 795/851 792/848
f 774/830 775/831 772/828
f 774/830 796/852 775/831
f 778/834 764/820 775/831
f 778/834 775/831 797/853
f 793/849 779/835 778/834
f 798/854 799/855 778/834
f 778/834 797/853 800/856
f 799/855 801/857 778/834
f 801/857 802/858 778/834
f 801/857 803/859 802/858
f 804/860 802/858 803/859
f 802/858 805/861 806/862
f 778/834 806/862 793/849
f 778/834 802/858 806/862
f 799/855 807/863 801/857
f 808/864 809/865 806/862
f 810/866 811/867 812/868
f 812/868 813/869 814/870
f 813/869 812/868 811/867
f 815/871 794/850 793/849
f 793/849 813/869 811/867
f 811/867 816/872 793/849
f 794/850 792/848 793/849
f 817/873 818/874 809/865
f 806/862 813/869 793/849
f 818/874 813/869 806/862
f 814/870 813/869 819/875
f 820/876 813/869 818/874
f 821/877 820/876 818/874
f 806/862 809/865 818/874
f 808/864 822/878 809/865
f 796/852 774/830 823/879
