# Exported from USD: /khi_rs025n/onrobot_rg2_base_link/collisions
mtllib collisions_2.mtl

g collisions
v -0.02067855 0.03633180 0.04807290
v -0.02059531 0.03652919 0.03661285
v -0.02936985 0.02357943 0.02819316
v -0.02067855 0.03633180 0.04807290
v -0.01875730 0.03767417 0.04560905
v -0.02059531 0.03652919 0.03661285
v -0.02059531 0.03652919 0.03661285
v -0.02557150 0.02882889 0.02851326
v -0.02936985 0.02357943 0.02819316
v -0.01362953 -0.03221108 0.12510780
v 0.01186604 -0.03711800 0.04860431
v 0.01299642 -0.03228277 0.12385545
v -0.01362953 -0.03221108 0.12510780
v -0.01200240 -0.03175125 0.12770450
v -0.01486871 -0.03063683 0.13031109
v -0.01362953 -0.03221108 0.12510780
v 0.01299642 -0.03228277 0.12385545
v -0.01200240 -0.03175125 0.12770450
v 0.03122091 -0.01804520 0.02768637
v 0.01760389 -0.02737996 0.12785459
v 0.02010388 -0.03503265 0.04912876
v 0.03831205 -0.00621624 0.00967624
v 0.01760389 -0.02737996 0.12785459
v 0.03122091 -0.01804520 0.02768637
v 0.02010388 -0.03503265 0.04912876
v 0.02667748 -0.02569005 0.02906113
v 0.03122091 -0.01804520 0.02768637
v 0.02667748 -0.02569005 0.02906113
v 0.03831205 -0.00621624 0.00967624
v 0.03122091 -0.01804520 0.02768637
v -0.00678909 0.03256053 0.00000016
v -0.01908389 0.02712613 0.00000016
v -0.01576303 0.02987241 0.00027658
v -0.01875730 0.03767417 0.04560905
v -0.01876072 0.03772838 0.03981535
v -0.02059531 0.03652919 0.03661285
v -0.01839611 -0.02587147 0.13144019
v -0.01615950 -0.02995626 0.12766784
v -0.01486871 -0.03063683 0.13031109
v 0.01760389 -0.02737996 0.12785459
v 0.03932601 -0.00263946 0.01261001
v 0.01760389 -0.02356346 0.13507757
v 0.01760389 -0.02737996 0.12785459
v 0.03831205 -0.00621624 0.00967624
v 0.03932601 -0.00263946 0.01261001
v 0.03932601 -0.00263946 0.01261001
v 0.03831205 -0.00621624 0.00967624
v 0.03914915 -0.00075098 0.00979996
v 0.03932601 -0.00263946 0.01261001
v 0.03914915 -0.00075098 0.00979996
v 0.03942742 0.00052609 0.01369218
v 0.01186604 -0.03711800 0.04860431
v 0.01652263 -0.03697567 0.04996844
v 0.01299642 -0.03228277 0.12385545
v 0.01652263 -0.03697567 0.04996844
v 0.01746057 -0.03662538 0.05323950
v 0.01299642 -0.03228277 0.12385545
v 0.01746057 -0.03662538 0.05323950
v 0.01652263 -0.03697567 0.04996844
v 0.01657493 -0.03725400 0.04292947
v -0.02067855 0.03633180 0.04807290
v -0.01511718 0.03186988 0.12481046
v -0.01875730 0.03767417 0.04560905
v -0.01511718 0.03186988 0.12481046
v -0.01193659 0.03260369 0.12468510
v -0.01875730 0.03767417 0.04560905
v -0.03352746 0.01451500 0.02912680
v -0.02936985 0.02357943 0.02819316
v -0.03175253 0.01819298 0.02393604
v -0.03184000 0.01525581 0.00180838
v -0.03175253 0.01819298 0.02393604
v -0.02936985 0.02357943 0.02819316
v -0.03184000 0.01525581 0.00180838
v -0.03324387 0.01244809 0.00592589
v -0.03175253 0.01819298 0.02393604
v -0.02059531 0.03652919 0.03661285
v -0.01816730 0.03739239 0.03339023
v -0.02050239 0.02898062 0.00241339
v -0.01716679 0.03772838 0.03618443
v -0.01816730 0.03739239 0.03339023
v -0.01876072 0.03772838 0.03981535
v -0.01876072 0.03772838 0.03981535
v -0.01816730 0.03739239 0.03339023
v -0.02059531 0.03652919 0.03661285
v -0.01011202 0.03402786 0.00307753
v -0.01816730 0.03739239 0.03339023
v -0.00496987 0.03512644 0.00197662
v -0.00950622 0.03772838 0.02527809
v -0.01816730 0.03739239 0.03339023
v -0.01716679 0.03772838 0.03618443
v -0.00496987 0.03512644 0.00197662
v -0.01816730 0.03739239 0.03339023
v -0.00950622 0.03772838 0.02527809
v -0.02936972 0.01993865 0.00212102
v -0.02557150 0.02882889 0.02851326
v -0.02059531 0.03652919 0.03661285
v -0.02557150 0.02882889 0.02851326
v -0.02936972 0.01993865 0.00212102
v -0.02936985 0.02357943 0.02819316
v -0.02936972 0.01993865 0.00212102
v -0.03184000 0.01525581 0.00180838
v -0.02936985 0.02357943 0.02819316
v -0.02936972 0.01993865 0.00212102
v -0.02866007 0.01690008 0.00000016
v -0.03184000 0.01525581 0.00180838
v -0.00950622 0.03772838 0.02527809
v -0.00180639 0.03545309 0.00308742
v -0.00496987 0.03512644 0.00197662
v -0.01193659 0.03260369 0.12468510
v -0.01674288 0.03758271 0.04887010
v -0.01875730 0.03767417 0.04560905
v 0.01370944 0.03761023 0.02895982
v 0.00421538 0.03493280 0.00168666
v 0.00948669 0.03763346 0.02534887
v 0.00453864 0.03177398 0.00000016
v 0.00053351 0.03497941 0.00148559
v 0.00421538 0.03493280 0.00168666
v 0.00053351 0.03497941 0.00148559
v -0.00678909 0.03256053 0.00000016
v -0.00496987 0.03512644 0.00197662
v -0.00180639 0.03545309 0.00308742
v 0.00053351 0.03497941 0.00148559
v -0.00496987 0.03512644 0.00197662
v -0.00180639 0.03545309 0.00308742
v 0.00421538 0.03493280 0.00168666
v 0.00053351 0.03497941 0.00148559
v 0.03501014 -0.00110206 0.00152901
v 0.03475922 0.00688605 0.00193650
v 0.03914915 -0.00075098 0.00979996
v 0.03914915 -0.00075098 0.00979996
v 0.03475922 0.00688605 0.00193650
v 0.03872396 0.00241961 0.00933048
v -0.01617651 0.03772838 0.04357154
v -0.01876072 0.03772838 0.03981535
v -0.01875730 0.03767417 0.04560905
v -0.00341163 0.03772838 0.02361489
v -0.00180639 0.03545309 0.00308742
v -0.00950622 0.03772838 0.02527809
v 0.03914915 -0.00075098 0.00979996
v 0.03929071 0.00355981 0.01320095
v 0.03942742 0.00052609 0.01369218
v 0.03929071 0.00355981 0.01320095
v 0.03914915 -0.00075098 0.00979996
v 0.03872396 0.00241961 0.00933048
v -0.01942208 -0.03719565 0.04656858
v -0.01615950 -0.02995626 0.12766784
v -0.02089611 -0.03480781 0.04962172
v -0.01942208 -0.03719565 0.04656858
v -0.01362953 -0.03221108 0.12510780
v -0.01486871 -0.03063683 0.13031109
v -0.01615950 -0.02995626 0.12766784
v -0.01942208 -0.03719565 0.04656858
v -0.01486871 -0.03063683 0.13031109
v -0.03536320 0.00698486 0.02529048
v -0.03581392 0.00298602 0.02827682
v -0.03538647 0.00663319 0.02914619
v -0.01764514 -0.02498047 0.13563290
v -0.01839611 -0.02155266 0.13641684
v -0.01839611 -0.02587147 0.13144019
v -0.01839611 -0.01832606 0.13979828
v -0.01839611 -0.02155266 0.13641684
v -0.01764514 -0.02498047 0.13563290
v -0.03555449 -0.00543219 0.02880833
v -0.01839611 -0.02587147 0.13144019
v -0.01839611 -0.02155266 0.13641684
v -0.03555449 -0.00543219 0.02880833
v -0.01839611 -0.02155266 0.13641684
v -0.01839611 -0.01832606 0.13979828
v -0.01615950 -0.02995626 0.12766784
v -0.01839611 -0.02756827 0.12130018
v -0.02089611 -0.03480781 0.04962172
v -0.03052543 -0.02102702 0.02904257
v -0.02089611 -0.03480781 0.04962172
v -0.01839611 -0.02756827 0.12130018
v -0.01359459 0.02520098 0.14081572
v -0.01328973 0.02132623 0.14396273
v 0.01211591 0.02267232 0.14301243
v -0.01242551 -0.00352786 0.14804685
v -0.01437281 -0.00776151 0.14804074
v 0.01238155 -0.00711263 0.14804685
v -0.01359459 0.02520098 0.14081572
v -0.01595173 0.02229426 0.14133240
v -0.01328973 0.02132623 0.14396273
v -0.01839611 0.02161197 0.13774349
v -0.01595173 0.02229426 0.14133240
v -0.01755751 0.02589023 0.13497256
v 0.01238155 -0.00711263 0.14804685
v 0.00990389 -0.00978077 0.14783318
v 0.01285295 -0.01572567 0.14658046
v 0.01285295 -0.01572567 0.14658046
v 0.00990389 -0.00978077 0.14783318
v -0.01357469 -0.01435645 0.14702839
v -0.01437281 -0.00776151 0.14804074
v 0.00990389 -0.00978077 0.14783318
v 0.01238155 -0.00711263 0.14804685
v 0.00990389 -0.00978077 0.14783318
v -0.01437281 -0.00776151 0.14804074
v -0.01357469 -0.01435645 0.14702839
v 0.01509924 -0.00802188 0.14654057
v 0.01461217 -0.01195068 0.14658418
v 0.01651657 -0.01260780 0.14448734
v 0.01285295 -0.01572567 0.14658046
v 0.01461217 -0.01195068 0.14658418
v 0.01238155 -0.00711263 0.14804685
v -0.01839611 -0.02587147 0.13144019
v -0.01486871 -0.03063683 0.13031109
v -0.01559361 -0.02852024 0.13368548
v -0.01559361 -0.02852024 0.13368548
v -0.01764514 -0.02498047 0.13563290
v -0.01839611 -0.02587147 0.13144019
v 0.03942742 0.00052609 0.01369218
v 0.01760389 -0.01041407 0.14273664
v 0.03932601 -0.00263946 0.01261001
v 0.01635193 -0.03727162 0.03258830
v 0.00383063 -0.03529205 0.00472247
v 0.00817140 -0.03454528 0.00359470
v -0.00280777 -0.03511780 0.00173251
v 0.00817140 -0.03454528 0.00359470
v 0.00383063 -0.03529205 0.00472247
v -0.00280777 -0.03511780 0.00173251
v 0.00383063 -0.03529205 0.00472247
v 0.00012811 -0.03531312 0.00390387
v 0.00383063 -0.03529205 0.00472247
v 0.00490381 -0.03727162 0.02435782
v 0.00012811 -0.03531312 0.00390387
v 0.02155145 -0.02820651 0.00229131
v 0.01595535 -0.02963698 0.00016116
v 0.01864881 -0.02760016 0.00000016
v 0.01595535 -0.02963698 0.00016116
v 0.01260155 -0.02986885 0.00000016
v 0.01864881 -0.02760016 0.00000016
v 0.01260155 -0.02986885 0.00000016
v 0.01595535 -0.02963698 0.00016116
v 0.00964428 -0.03239864 0.00030473
v -0.01737344 -0.02827302 0.00000016
v -0.00418833 -0.03288987 0.00000016
v -0.00818614 -0.03376948 0.00124843
v -0.00418833 -0.03288987 0.00000016
v -0.00280777 -0.03511780 0.00173251
v -0.00818614 -0.03376948 0.00124843
v -0.01200240 -0.03175125 0.12770450
v 0.01299642 -0.03228277 0.12385545
v 0.01413706 -0.03130759 0.12722734
v 0.01413706 -0.03130759 0.12722734
v 0.01110389 -0.02972363 0.13278133
v -0.01200240 -0.03175125 0.12770450
v 0.02667748 -0.02569005 0.02906113
v 0.03054610 -0.01808609 0.00294231
v 0.03831205 -0.00621624 0.00967624
v 0.02861002 -0.02101331 0.00258235
v 0.03054610 -0.01808609 0.00294231
v 0.02667748 -0.02569005 0.02906113
v 0.02332068 -0.02254339 0.00000016
v 0.02768711 -0.01898156 0.00007068
v 0.01864881 -0.02760016 0.00000016
v 0.01864881 -0.02760016 0.00000016
v 0.02430853 -0.02587061 0.00214268
v 0.02155145 -0.02820651 0.00229131
v 0.01652263 -0.03697567 0.04996844
v 0.01522325 -0.03714895 0.04740766
v 0.01657493 -0.03725400 0.04292947
v 0.01522325 -0.03714895 0.04740766
v 0.01652263 -0.03697567 0.04996844
v 0.01186604 -0.03711800 0.04860431
v 0.00964428 -0.03239864 0.00030473
v 0.01239566 -0.03326447 0.00291754
v 0.00817140 -0.03454528 0.00359470
v 0.01239566 -0.03326447 0.00291754
v 0.01635193 -0.03727162 0.03258830
v 0.00817140 -0.03454528 0.00359470
v -0.01839611 -0.02587147 0.13144019
v -0.03493799 -0.00913052 0.02822231
v -0.03334403 -0.01466901 0.02728346
v -0.03555449 -0.00543219 0.02880833
v -0.03493799 -0.00913052 0.02822231
v -0.01839611 -0.02587147 0.13144019
v -0.01816491 -0.01520133 0.14274766
v -0.03582517 -0.00236293 0.02906630
v -0.01839611 -0.01832606 0.13979828
v -0.01839611 -0.01832606 0.13979828
v -0.03582517 -0.00236293 0.02906630
v -0.03555449 -0.00543219 0.02880833
v -0.01839611 -0.00291438 0.14401466
v -0.03582517 -0.00236293 0.02906630
v -0.01816491 -0.01520133 0.14274766
v -0.03582517 -0.00236293 0.02906630
v -0.01839611 0.00292762 0.14342470
v -0.03581392 0.00298602 0.02827682
v -0.01839611 0.00292762 0.14342470
v -0.03582517 -0.00236293 0.02906630
v -0.01839611 -0.00291438 0.14401466
v -0.03582517 -0.00236293 0.02906630
v -0.03581392 0.00298602 0.02827682
v -0.03588123 -0.00086144 0.02665676
v -0.03334403 -0.01466901 0.02728346
v -0.03198572 -0.01825345 0.02834814
v -0.01839611 -0.02587147 0.13144019
v -0.01839611 -0.02587147 0.13144019
v -0.03198572 -0.01825345 0.02834814
v -0.03052543 -0.02102702 0.02904257
v -0.01839611 0.02750352 0.12868196
v -0.02067855 0.03633180 0.04807290
v -0.02936985 0.02357943 0.02819316
v -0.03352746 0.01451500 0.02912680
v -0.01839611 0.02750352 0.12868196
v -0.02936985 0.02357943 0.02819316
v -0.01755751 0.02589023 0.13497256
v -0.01839611 0.02750352 0.12868196
v -0.01839611 0.02161197 0.13774349
v -0.01839611 0.02161197 0.13774349
v -0.01839611 0.02750352 0.12868196
v -0.03538647 0.00663319 0.02914619
v -0.03175253 0.01819298 0.02393604
v -0.03308702 0.01472780 0.02161639
v -0.03352746 0.01451500 0.02912680
v -0.03308702 0.01472780 0.02161639
v -0.03324387 0.01244809 0.00592589
v -0.03352746 0.01451500 0.02912680
v -0.03324387 0.01244809 0.00592589
v -0.03308702 0.01472780 0.02161639
v -0.03175253 0.01819298 0.02393604
v -0.01816730 0.03739239 0.03339023
v -0.01371394 0.03274269 0.00427220
v -0.02050239 0.02898062 0.00241339
v -0.01011202 0.03402786 0.00307753
v -0.01371394 0.03274269 0.00427220
v -0.01816730 0.03739239 0.03339023
v -0.02050239 0.02898062 0.00241339
v -0.02401595 0.02567949 0.00166093
v -0.02059531 0.03652919 0.03661285
v -0.02050239 0.02898062 0.00241339
v -0.01576303 0.02987241 0.00027658
v -0.02401595 0.02567949 0.00166093
v -0.01908389 0.02712613 0.00000016
v -0.02401595 0.02567949 0.00166093
v -0.01576303 0.02987241 0.00027658
v -0.01455138 0.02946780 0.13481651
v -0.01359459 0.02520098 0.14081572
v 0.01355748 0.02840165 0.13690576
v 0.00421538 0.03493280 0.00168666
v 0.01099727 0.03375186 0.00346744
v 0.01375776 0.03272466 0.00211479
v 0.01370944 0.03761023 0.02895982
v 0.01099727 0.03375186 0.00346744
v 0.00421538 0.03493280 0.00168666
v 0.00453864 0.03177398 0.00000016
v 0.00095419 0.03213096 0.00000016
v 0.00053351 0.03497941 0.00148559
v 0.00053351 0.03497941 0.00148559
v 0.00095419 0.03213096 0.00000016
v -0.00678909 0.03256053 0.00000016
v 0.01351872 0.03769258 0.04927803
v -0.01617651 0.03772838 0.04357154
v -0.01875730 0.03767417 0.04560905
v -0.01617651 0.03772838 0.04357154
v 0.01351872 0.03769258 0.04927803
v 0.01533077 0.03771082 0.04654234
v -0.01674288 0.03758271 0.04887010
v 0.01351872 0.03769258 0.04927803
v -0.01875730 0.03767417 0.04560905
v -0.01674288 0.03758271 0.04887010
v -0.01193659 0.03260369 0.12468510
v 0.01351872 0.03769258 0.04927803
v 0.01380721 0.03232956 0.12539627
v 0.01351872 0.03769258 0.04927803
v -0.01193659 0.03260369 0.12468510
v -0.01138953 -0.03708753 0.04851645
v 0.01186604 -0.03711800 0.04860431
v -0.01362953 -0.03221108 0.12510780
v -0.01942208 -0.03719565 0.04656858
v -0.01138953 -0.03708753 0.04851645
v -0.01362953 -0.03221108 0.12510780
v 0.01186604 -0.03711800 0.04860431
v -0.01138953 -0.03708753 0.04851645
v -0.01942208 -0.03719565 0.04656858
v -0.01942208 -0.03719565 0.04656858
v -0.02089611 -0.03549622 0.04276407
v -0.02089611 -0.03573790 0.03842091
v -0.02089611 -0.03549622 0.04276407
v -0.01942208 -0.03719565 0.04656858
v -0.02089611 -0.03480781 0.04962172
v -0.01906542 -0.03727162 0.03625296
v -0.01919378 -0.03727162 0.04106389
v -0.02089611 -0.03573790 0.03842091
v -0.01919378 -0.03727162 0.04106389
v -0.01942208 -0.03719565 0.04656858
v -0.02089611 -0.03573790 0.03842091
v -0.00818614 -0.03376948 0.00124843
v -0.01156060 -0.03321192 0.00166795
v -0.01737344 -0.02827302 0.00000016
v -0.00280777 -0.03511780 0.00173251
v -0.01156060 -0.03321192 0.00166795
v -0.00818614 -0.03376948 0.00124843
v -0.03538647 0.00663319 0.02914619
v -0.03477232 0.01027819 0.02764353
v -0.03536320 0.00698486 0.02529048
v -0.03536320 0.00698486 0.02529048
v -0.03477232 0.01027819 0.02764353
v -0.03509630 0.00772134 0.01724958
v -0.03477232 0.01027819 0.02764353
v -0.01839611 0.02750352 0.12868196
v -0.03352746 0.01451500 0.02912680
v -0.01839611 0.02750352 0.12868196
v -0.03477232 0.01027819 0.02764353
v -0.03538647 0.00663319 0.02914619
v -0.03052543 -0.02102702 0.02904257
v -0.01839611 -0.02658928 0.12723349
v -0.01839611 -0.02587147 0.13144019
v -0.01839611 -0.02756827 0.12130018
v -0.01839611 -0.02658928 0.12723349
v -0.03052543 -0.02102702 0.02904257
v -0.01839611 -0.02587147 0.13144019
v -0.01839611 -0.02658928 0.12723349
v -0.01615950 -0.02995626 0.12766784
v -0.01615950 -0.02995626 0.12766784
v -0.01839611 -0.02658928 0.12723349
v -0.01839611 -0.02756827 0.12130018
v 0.01319349 0.00047705 0.14804685
v 0.01426530 -0.00448271 0.14738543
v 0.01440371 0.00446023 0.14724702
v 0.01509924 -0.00802188 0.14654057
v 0.01426530 -0.00448271 0.14738543
v 0.01461217 -0.01195068 0.14658418
v 0.01426530 -0.00448271 0.14738543
v 0.01319349 0.00047705 0.14804685
v 0.01238155 -0.00711263 0.14804685
v 0.01461217 -0.01195068 0.14658418
v 0.01426530 -0.00448271 0.14738543
v 0.01238155 -0.00711263 0.14804685
v 0.01004570 0.01238991 0.14759600
v -0.01185194 0.01369024 0.14730811
v -0.01381053 0.01067345 0.14786361
v -0.01381053 0.01067345 0.14786361
v -0.01517914 0.01381417 0.14646673
v -0.01646148 0.00954071 0.14590409
v 0.01319349 0.00047705 0.14804685
v 0.01440371 0.00446023 0.14724702
v 0.01452263 0.01190470 0.14675015
v 0.01452263 0.01190470 0.14675015
v 0.01388135 0.01573920 0.14640911
v 0.01004570 0.01238991 0.14759600
v -0.01839611 0.00292762 0.14342470
v -0.01758288 0.01174808 0.14447311
v -0.01795459 0.01477650 0.14326869
v -0.01758288 0.01174808 0.14447311
v -0.01839611 0.00292762 0.14342470
v -0.01839611 -0.00291438 0.14401466
v -0.01758288 0.01174808 0.14447311
v -0.01517914 0.01381417 0.14646673
v -0.01795459 0.01477650 0.14326869
v -0.01517914 0.01381417 0.14646673
v -0.01758288 0.01174808 0.14447311
v -0.01646148 0.00954071 0.14590409
v -0.01747589 -0.01218796 0.14441425
v -0.01839611 -0.00291438 0.14401466
v -0.01816491 -0.01520133 0.14274766
v -0.01521985 -0.01750924 0.14495489
v -0.01747589 -0.01218796 0.14441425
v -0.01816491 -0.01520133 0.14274766
v -0.01839611 0.01876384 0.14017598
v -0.01595173 0.02229426 0.14133240
v -0.01839611 0.02161197 0.13774349
v -0.01839611 0.01876384 0.14017598
v -0.03538647 0.00663319 0.02914619
v -0.03581392 0.00298602 0.02827682
v -0.03538647 0.00663319 0.02914619
v -0.01839611 0.01876384 0.14017598
v -0.01839611 0.02161197 0.13774349
v -0.01839611 0.00292762 0.14342470
v -0.01839611 0.01876384 0.14017598
v -0.03581392 0.00298602 0.02827682
v -0.01795459 0.01477650 0.14326869
v -0.01839611 0.01876384 0.14017598
v -0.01839611 0.00292762 0.14342470
v -0.01592907 -0.02168183 0.14156593
v -0.01521985 -0.01750924 0.14495489
v -0.01816491 -0.01520133 0.14274766
v -0.01521985 -0.01750924 0.14495489
v -0.01592907 -0.02168183 0.14156593
v -0.01480102 -0.02501689 0.14006008
v -0.01480102 -0.02501689 0.14006008
v -0.01592907 -0.02168183 0.14156593
v -0.01764514 -0.02498047 0.13563290
v -0.01839611 -0.01832606 0.13979828
v -0.01592907 -0.02168183 0.14156593
v -0.01816491 -0.01520133 0.14274766
v -0.01839611 -0.01832606 0.13979828
v -0.01764514 -0.02498047 0.13563290
v -0.01592907 -0.02168183 0.14156593
v -0.01247237 -0.02189371 0.14332432
v -0.01521985 -0.01750924 0.14495489
v -0.01480102 -0.02501689 0.14006008
v 0.01328733 -0.02090418 0.14400499
v -0.01247237 -0.02189371 0.14332432
v 0.01057316 -0.02304944 0.14232792
v -0.01399291 -0.02768700 0.13743275
v -0.01480102 -0.02501689 0.14006008
v -0.01764514 -0.02498047 0.13563290
v -0.01559361 -0.02852024 0.13368548
v -0.01399291 -0.02768700 0.13743275
v -0.01764514 -0.02498047 0.13563290
v -0.01559361 -0.02852024 0.13368548
v -0.01486871 -0.03063683 0.13031109
v -0.01399291 -0.02768700 0.13743275
v 0.01110389 -0.02806639 0.13596171
v -0.01399291 -0.02768700 0.13743275
v 0.01110389 -0.02972363 0.13278133
v -0.01399291 -0.02768700 0.13743275
v -0.01247237 -0.02189371 0.14332432
v -0.01480102 -0.02501689 0.14006008
v -0.01247237 -0.02189371 0.14332432
v -0.01399291 -0.02768700 0.13743275
v 0.01057316 -0.02304944 0.14232792
v 0.01110389 -0.02972363 0.13278133
v -0.01189611 -0.03014667 0.13242915
v -0.01200240 -0.03175125 0.12770450
v -0.01200240 -0.03175125 0.12770450
v -0.01189611 -0.03014667 0.13242915
v -0.01486871 -0.03063683 0.13031109
v -0.01399291 -0.02768700 0.13743275
v -0.01189611 -0.03014667 0.13242915
v 0.01110389 -0.02972363 0.13278133
v -0.01189611 -0.03014667 0.13242915
v -0.01399291 -0.02768700 0.13743275
v -0.01486871 -0.03063683 0.13031109
v 0.01632176 -0.01949577 0.14167836
v 0.01424421 -0.01835465 0.14474593
v 0.01328733 -0.02090418 0.14400499
v 0.01424421 -0.01835465 0.14474593
v 0.01285295 -0.01572567 0.14658046
v 0.01328733 -0.02090418 0.14400499
v 0.01424421 -0.01835465 0.14474593
v 0.01461217 -0.01195068 0.14658418
v 0.01285295 -0.01572567 0.14658046
v 0.03932601 -0.00263946 0.01261001
v 0.01721228 -0.02177498 0.13876016
v 0.01760389 -0.02356346 0.13507757
v 0.01760389 -0.01041407 0.14273664
v 0.01721228 -0.02177498 0.13876016
v 0.03932601 -0.00263946 0.01261001
v -0.01156060 -0.03321192 0.00166795
v -0.00554170 -0.03506233 0.00329380
v -0.01906542 -0.03727162 0.03625296
v -0.00554170 -0.03506233 0.00329380
v -0.00996111 -0.03727162 0.02750500
v -0.01906542 -0.03727162 0.03625296
v -0.00996111 -0.03727162 0.02750500
v -0.00554170 -0.03506233 0.00329380
v -0.00280777 -0.03511780 0.00173251
v -0.00280777 -0.03511780 0.00173251
v -0.00554170 -0.03506233 0.00329380
v -0.01156060 -0.03321192 0.00166795
v 0.00103073 -0.03727162 0.02371822
v -0.00996111 -0.03727162 0.02750500
v -0.00280777 -0.03511780 0.00173251
v 0.00103073 -0.03727162 0.02371822
v -0.00280777 -0.03511780 0.00173251
v 0.00012811 -0.03531312 0.00390387
v 0.00490381 -0.03727162 0.02435782
v 0.00103073 -0.03727162 0.02371822
v 0.00012811 -0.03531312 0.00390387
v 0.00383063 -0.03529205 0.00472247
v 0.01635193 -0.03727162 0.03258830
v 0.00733214 -0.03727162 0.02586031
v 0.00383063 -0.03529205 0.00472247
v 0.00733214 -0.03727162 0.02586031
v 0.00490381 -0.03727162 0.02435782
v 0.00964428 -0.03239864 0.00030473
v 0.00266574 -0.03404742 0.00065355
v -0.00418833 -0.03288987 0.00000016
v -0.00418833 -0.03288987 0.00000016
v 0.00266574 -0.03404742 0.00065355
v -0.00280777 -0.03511780 0.00173251
v 0.00266574 -0.03404742 0.00065355
v 0.00964428 -0.03239864 0.00030473
v 0.00817140 -0.03454528 0.00359470
v -0.00280777 -0.03511780 0.00173251
v 0.00266574 -0.03404742 0.00065355
v 0.00817140 -0.03454528 0.00359470
v -0.00033896 -0.03232070 0.00000016
v 0.01260155 -0.02986885 0.00000016
v 0.00964428 -0.03239864 0.00030473
v -0.00418833 -0.03288987 0.00000016
v -0.00033896 -0.03232070 0.00000016
v 0.00964428 -0.03239864 0.00030473
v 0.01760389 -0.02356346 0.13507757
v 0.01656300 -0.02754761 0.13156739
v 0.01760389 -0.02737996 0.12785459
v 0.01721228 -0.02177498 0.13876016
v 0.01656300 -0.02754761 0.13156739
v 0.01760389 -0.02356346 0.13507757
v 0.01656300 -0.02754761 0.13156739
v 0.01721228 -0.02177498 0.13876016
v 0.01574045 -0.02464993 0.13787882
v 0.01760389 -0.02737996 0.12785459
v 0.01478550 -0.02985610 0.13042627
v 0.01585387 -0.02993681 0.12519330
v 0.01585387 -0.02993681 0.12519330
v 0.01478550 -0.02985610 0.13042627
v 0.01413706 -0.03130759 0.12722734
v 0.01656300 -0.02754761 0.13156739
v 0.01478550 -0.02985610 0.13042627
v 0.01760389 -0.02737996 0.12785459
v 0.01413706 -0.03130759 0.12722734
v 0.01478550 -0.02985610 0.13042627
v 0.01110389 -0.02972363 0.13278133
v 0.03914915 -0.00075098 0.00979996
v 0.03516120 -0.00487697 0.00253052
v 0.03501014 -0.00110206 0.00152901
v 0.03914915 -0.00075098 0.00979996
v 0.03831205 -0.00621624 0.00967624
v 0.03516120 -0.00487697 0.00253052
v 0.03091708 -0.01485374 0.00080143
v 0.03054610 -0.01808609 0.00294231
v 0.02861002 -0.02101331 0.00258235
v 0.02768711 -0.01898156 0.00007068
v 0.03091708 -0.01485374 0.00080143
v 0.02861002 -0.02101331 0.00258235
v 0.01900253 -0.03638430 0.03498536
v 0.01699790 -0.03727162 0.03888453
v 0.01635193 -0.03727162 0.03258830
v 0.02430853 -0.02587061 0.00214268
v 0.01900253 -0.03638430 0.03498536
v 0.02155145 -0.02820651 0.00229131
v 0.01790711 -0.03064989 0.00320861
v 0.02155145 -0.02820651 0.00229131
v 0.01900253 -0.03638430 0.03498536
v 0.02667748 -0.02569005 0.02906113
v 0.01900253 -0.03638430 0.03498536
v 0.02861002 -0.02101331 0.00258235
v 0.02861002 -0.02101331 0.00258235
v 0.01900253 -0.03638430 0.03498536
v 0.02430853 -0.02587061 0.00214268
v 0.02861002 -0.02101331 0.00258235
v 0.02643474 -0.02311721 0.00161789
v 0.02768711 -0.01898156 0.00007068
v 0.02430853 -0.02587061 0.00214268
v 0.02643474 -0.02311721 0.00161789
v 0.02861002 -0.02101331 0.00258235
v 0.02768711 -0.01898156 0.00007068
v 0.02643474 -0.02311721 0.00161789
v 0.01864881 -0.02760016 0.00000016
v 0.02643474 -0.02311721 0.00161789
v 0.02430853 -0.02587061 0.00214268
v 0.01864881 -0.02760016 0.00000016
v -0.01919378 -0.03727162 0.04106389
v -0.01497173 -0.03727162 0.04352272
v -0.01942208 -0.03719565 0.04656858
v 0.02155145 -0.02820651 0.00229131
v 0.01508696 -0.03213184 0.00288651
v 0.01595535 -0.02963698 0.00016116
v 0.01790711 -0.03064989 0.00320861
v 0.01508696 -0.03213184 0.00288651
v 0.02155145 -0.02820651 0.00229131
v 0.01595535 -0.02963698 0.00016116
v 0.01508696 -0.03213184 0.00288651
v 0.00964428 -0.03239864 0.00030473
v 0.01508696 -0.03213184 0.00288651
v 0.01239566 -0.03326447 0.00291754
v 0.00964428 -0.03239864 0.00030473
v 0.01239566 -0.03326447 0.00291754
v 0.01508696 -0.03213184 0.00288651
v 0.01635193 -0.03727162 0.03258830
v 0.01508696 -0.03213184 0.00288651
v 0.01900253 -0.03638430 0.03498536
v 0.01635193 -0.03727162 0.03258830
v 0.01900253 -0.03638430 0.03498536
v 0.01508696 -0.03213184 0.00288651
v 0.01790711 -0.03064989 0.00320861
v -0.03493799 -0.00913052 0.02822231
v -0.03421571 -0.01154792 0.02465985
v -0.03334403 -0.01466901 0.02728346
v -0.03555449 -0.00543219 0.02880833
v -0.03545872 -0.00531246 0.01808967
v -0.03493799 -0.00913052 0.02822231
v -0.01755931 0.02911172 0.12658677
v -0.01511718 0.03186988 0.12481046
v -0.02067855 0.03633180 0.04807290
v -0.01839611 0.02750352 0.12868196
v -0.01755931 0.02911172 0.12658677
v -0.02067855 0.03633180 0.04807290
v -0.01511718 0.03186988 0.12481046
v -0.01217490 0.03177292 0.12925880
v -0.01193659 0.03260369 0.12468510
v -0.01359459 0.02520098 0.14081572
v -0.01514066 0.02657240 0.13816260
v -0.01595173 0.02229426 0.14133240
v -0.01455138 0.02946780 0.13481651
v -0.01514066 0.02657240 0.13816260
v -0.01359459 0.02520098 0.14081572
v -0.01595173 0.02229426 0.14133240
v -0.01514066 0.02657240 0.13816260
v -0.01755751 0.02589023 0.13497256
v -0.01514066 0.02657240 0.13816260
v -0.01455138 0.02946780 0.13481651
v -0.01755751 0.02589023 0.13497256
v -0.03536320 0.00698486 0.02529048
v -0.03581352 0.00276313 0.02145825
v -0.03581392 0.00298602 0.02827682
v -0.03509630 0.00772134 0.01724958
v -0.03581352 0.00276313 0.02145825
v -0.03536320 0.00698486 0.02529048
v -0.03581392 0.00298602 0.02827682
v -0.03581352 0.00276313 0.02145825
v -0.03588123 -0.00086144 0.02665676
v -0.03382757 0.00650831 0.00094959
v -0.03493186 0.00632396 0.00434976
v -0.03184000 0.01525581 0.00180838
v -0.01371394 0.03274269 0.00427220
v -0.01339855 0.03220075 0.00137830
v -0.02050239 0.02898062 0.00241339
v -0.01371394 0.03274269 0.00427220
v -0.01011202 0.03402786 0.00307753
v -0.01339855 0.03220075 0.00137830
v -0.02050239 0.02898062 0.00241339
v -0.01339855 0.03220075 0.00137830
v -0.01576303 0.02987241 0.00027658
v -0.01011202 0.03402786 0.00307753
v -0.00496987 0.03512644 0.00197662
v -0.01339855 0.03220075 0.00137830
v -0.01339855 0.03220075 0.00137830
v -0.00678909 0.03256053 0.00000016
v -0.01576303 0.02987241 0.00027658
v -0.00678909 0.03256053 0.00000016
v -0.01339855 0.03220075 0.00137830
v -0.00496987 0.03512644 0.00197662
v -0.02668033 0.02341833 0.00441928
v -0.02936972 0.01993865 0.00212102
v -0.02059531 0.03652919 0.03661285
v -0.02401595 0.02567949 0.00166093
v -0.02668033 0.02341833 0.00441928
v -0.02059531 0.03652919 0.03661285
v -0.02936972 0.01993865 0.00212102
v -0.02668033 0.02341833 0.00441928
v -0.02401595 0.02567949 0.00166093
v -0.02936972 0.01993865 0.00212102
v -0.02616656 0.02287213 0.00125425
v -0.02866007 0.01690008 0.00000016
v -0.02401595 0.02567949 0.00166093
v -0.02616656 0.02287213 0.00125425
v -0.02936972 0.01993865 0.00212102
v -0.02866007 0.01690008 0.00000016
v -0.02616656 0.02287213 0.00125425
v -0.01908389 0.02712613 0.00000016
v -0.01908389 0.02712613 0.00000016
v -0.02616656 0.02287213 0.00125425
v -0.02401595 0.02567949 0.00166093
v 0.01380721 0.03232956 0.12539627
v 0.01483570 0.02910121 0.13313781
v 0.01678319 0.02857472 0.12893473
v 0.01189678 0.02576328 0.14023829
v -0.01359459 0.02520098 0.14081572
v 0.01211591 0.02267232 0.14301243
v 0.01189678 0.02576328 0.14023829
v 0.01355748 0.02840165 0.13690576
v -0.01359459 0.02520098 0.14081572
v 0.01454978 0.02440072 0.14027686
v 0.01189678 0.02576328 0.14023829
v 0.01211591 0.02267232 0.14301243
v 0.01355748 0.02840165 0.13690576
v 0.01189678 0.02576328 0.14023829
v 0.01454978 0.02440072 0.14027686
v 0.01856129 0.03772838 0.03668322
v 0.01588744 0.03772838 0.04231139
v 0.01533077 0.03771082 0.04654234
v 0.01588744 0.03772838 0.04231139
v -0.01617651 0.03772838 0.04357154
v 0.01533077 0.03771082 0.04654234
v -0.00341163 0.03772838 0.02361489
v 0.00623115 0.03772838 0.02432066
v -0.00180639 0.03545309 0.00308742
v 0.00421538 0.03493280 0.00168666
v 0.00623115 0.03772838 0.02432066
v 0.00948669 0.03763346 0.02534887
v -0.00180639 0.03545309 0.00308742
v 0.00623115 0.03772838 0.02432066
v 0.00421538 0.03493280 0.00168666
v 0.01856129 0.03772838 0.03668322
v 0.02010388 0.03597177 0.03949851
v 0.02553135 0.02797838 0.02863226
v -0.02089611 -0.03549622 0.04276407
v -0.02808243 -0.02520628 0.02866027
v -0.02089611 -0.03573790 0.03842091
v -0.03052543 -0.02102702 0.02904257
v -0.02808243 -0.02520628 0.02866027
v -0.02089611 -0.03480781 0.04962172
v -0.02808243 -0.02520628 0.02866027
v -0.02089611 -0.03549622 0.04276407
v -0.02089611 -0.03480781 0.04962172
v -0.02089611 -0.03573790 0.03842091
v -0.02658672 -0.02352303 0.00398402
v -0.01906542 -0.03727162 0.03625296
v -0.02808243 -0.02520628 0.02866027
v -0.02658672 -0.02352303 0.00398402
v -0.02089611 -0.03573790 0.03842091
v -0.03417313 0.00961295 0.00565117
v -0.03493186 0.00632396 0.00434976
v -0.03509630 0.00772134 0.01724958
v -0.03184000 0.01525581 0.00180838
v -0.03417313 0.00961295 0.00565117
v -0.03324387 0.01244809 0.00592589
v -0.03493186 0.00632396 0.00434976
v -0.03417313 0.00961295 0.00565117
v -0.03184000 0.01525581 0.00180838
v 0.01426530 -0.00448271 0.14738543
v 0.01509924 -0.00802188 0.14654057
v 0.01747588 -0.00669991 0.14417484
v 0.01509924 -0.00802188 0.14654057
v 0.01651657 -0.01260780 0.14448734
v 0.01747588 -0.00669991 0.14417484
v 0.03942742 0.00052609 0.01369218
v 0.01747588 -0.00669991 0.14417484
v 0.01760389 -0.01041407 0.14273664
v -0.01185194 0.01369024 0.14730811
v -0.01312475 0.01648668 0.14643241
v -0.01381053 0.01067345 0.14786361
v -0.01517914 0.01381417 0.14646673
v -0.01381053 0.01067345 0.14786361
v -0.01312475 0.01648668 0.14643241
v -0.01595173 0.02229426 0.14133240
v -0.01570550 0.01836391 0.14417157
v -0.01328973 0.02132623 0.14396273
v -0.01328973 0.02132623 0.14396273
v -0.01570550 0.01836391 0.14417157
v -0.01312475 0.01648668 0.14643241
v -0.01312475 0.01648668 0.14643241
v -0.01570550 0.01836391 0.14417157
v -0.01517914 0.01381417 0.14646673
v -0.01517914 0.01381417 0.14646673
v -0.01570550 0.01836391 0.14417157
v -0.01795459 0.01477650 0.14326869
v -0.01570550 0.01836391 0.14417157
v -0.01839611 0.01876384 0.14017598
v -0.01795459 0.01477650 0.14326869
v -0.01839611 0.01876384 0.14017598
v -0.01570550 0.01836391 0.14417157
v -0.01595173 0.02229426 0.14133240
v 0.01452263 0.01190470 0.14675015
v 0.01145796 0.00566621 0.14804685
v 0.01319349 0.00047705 0.14804685
v 0.01145796 0.00566621 0.14804685
v 0.01452263 0.01190470 0.14675015
v 0.01004570 0.01238991 0.14759600
v 0.01145796 0.00566621 0.14804685
v 0.01004570 0.01238991 0.14759600
v -0.01381053 0.01067345 0.14786361
v -0.01367418 0.00709731 0.14804685
v 0.01145796 0.00566621 0.14804685
v -0.01381053 0.01067345 0.14786361
v 0.02553135 0.02797838 0.02863226
v 0.02982611 0.02091396 0.02620828
v 0.03877439 0.00605159 0.01520040
v 0.03877439 0.00605159 0.01520040
v 0.02982611 0.02091396 0.02620828
v 0.03109701 0.01882081 0.02903750
v 0.03109701 0.01882081 0.02903750
v 0.02982611 0.02091396 0.02620828
v 0.02553135 0.02797838 0.02863226
v -0.01739798 0.00634608 0.14504498
v -0.01758288 0.01174808 0.14447311
v -0.01839611 -0.00291438 0.14401466
v -0.01758288 0.01174808 0.14447311
v -0.01739798 0.00634608 0.14504498
v -0.01646148 0.00954071 0.14590409
v -0.01636612 0.00098035 0.14607684
v -0.01739798 0.00634608 0.14504498
v -0.01839611 -0.00291438 0.14401466
v -0.01520612 -0.00481756 0.14723684
v -0.01739798 0.00634608 0.14504498
v -0.01636612 0.00098035 0.14607684
v -0.01437281 -0.00776151 0.14804074
v -0.01520612 -0.00481756 0.14723684
v -0.01839611 -0.00291438 0.14401466
v -0.01636612 0.00098035 0.14607684
v -0.01839611 -0.00291438 0.14401466
v -0.01520612 -0.00481756 0.14723684
v -0.01506324 -0.01092642 0.14710762
v -0.01437281 -0.00776151 0.14804074
v -0.01839611 -0.00291438 0.14401466
v -0.01747589 -0.01218796 0.14441425
v -0.01506324 -0.01092642 0.14710762
v -0.01839611 -0.00291438 0.14401466
v -0.01747589 -0.01218796 0.14441425
v -0.01521985 -0.01750924 0.14495489
v -0.01506324 -0.01092642 0.14710762
v -0.01437281 -0.00776151 0.14804074
v -0.01506324 -0.01092642 0.14710762
v -0.01357469 -0.01435645 0.14702839
v -0.01357469 -0.01435645 0.14702839
v -0.01506324 -0.01092642 0.14710762
v -0.01521985 -0.01750924 0.14495489
v -0.01242551 -0.00352786 0.14804685
v -0.01435450 0.00334303 0.14804685
v -0.01437281 -0.00776151 0.14804074
v -0.01435450 0.00334303 0.14804685
v -0.01367418 0.00709731 0.14804685
v -0.01381053 0.01067345 0.14786361
v -0.01646148 0.00954071 0.14590409
v -0.01435450 0.00334303 0.14804685
v -0.01381053 0.01067345 0.14786361
v -0.01520612 -0.00481756 0.14723684
v -0.01437281 -0.00776151 0.14804074
v -0.01435450 0.00334303 0.14804685
v -0.01739798 0.00634608 0.14504498
v -0.01435450 0.00334303 0.14804685
v -0.01646148 0.00954071 0.14590409
v -0.01520612 -0.00481756 0.14723684
v -0.01435450 0.00334303 0.14804685
v -0.01739798 0.00634608 0.14504498
v -0.01521985 -0.01750924 0.14495489
v -0.01186971 -0.01718113 0.14600646
v -0.01357469 -0.01435645 0.14702839
v -0.01247237 -0.02189371 0.14332432
v -0.01186971 -0.01718113 0.14600646
v -0.01521985 -0.01750924 0.14495489
v -0.01186971 -0.01718113 0.14600646
v 0.01285295 -0.01572567 0.14658046
v -0.01357469 -0.01435645 0.14702839
v 0.01285295 -0.01572567 0.14658046
v -0.01186971 -0.01718113 0.14600646
v 0.01328733 -0.02090418 0.14400499
v 0.01328733 -0.02090418 0.14400499
v -0.01186971 -0.01718113 0.14600646
v -0.01247237 -0.02189371 0.14332432
v 0.01110389 -0.02806639 0.13596171
v 0.01110389 -0.02584361 0.13909273
v -0.01399291 -0.02768700 0.13743275
v -0.01399291 -0.02768700 0.13743275
v 0.01110389 -0.02584361 0.13909273
v 0.01057316 -0.02304944 0.14232792
v 0.01424421 -0.01835465 0.14474593
v 0.01632176 -0.01949577 0.14167836
v 0.01660389 -0.01556032 0.14343248
v 0.01721228 -0.02177498 0.13876016
v 0.01660389 -0.01556032 0.14343248
v 0.01632176 -0.01949577 0.14167836
v 0.01461217 -0.01195068 0.14658418
v 0.01660389 -0.01556032 0.14343248
v 0.01651657 -0.01260780 0.14448734
v 0.01424421 -0.01835465 0.14474593
v 0.01660389 -0.01556032 0.14343248
v 0.01461217 -0.01195068 0.14658418
v 0.01760389 -0.01041407 0.14273664
v 0.01660389 -0.01556032 0.14343248
v 0.01721228 -0.02177498 0.13876016
v 0.01660389 -0.01556032 0.14343248
v 0.01747588 -0.00669991 0.14417484
v 0.01651657 -0.01260780 0.14448734
v 0.01747588 -0.00669991 0.14417484
v 0.01660389 -0.01556032 0.14343248
v 0.01760389 -0.01041407 0.14273664
v 0.01489962 -0.02746066 0.13541064
v 0.01656300 -0.02754761 0.13156739
v 0.01574045 -0.02464993 0.13787882
v 0.01656300 -0.02754761 0.13156739
v 0.01489962 -0.02746066 0.13541064
v 0.01478550 -0.02985610 0.13042627
v 0.01110389 -0.02972363 0.13278133
v 0.01489962 -0.02746066 0.13541064
v 0.01110389 -0.02806639 0.13596171
v 0.01478550 -0.02985610 0.13042627
v 0.01489962 -0.02746066 0.13541064
v 0.01110389 -0.02972363 0.13278133
v 0.03516120 -0.00487697 0.00253052
v 0.03831205 -0.00621624 0.00967624
v 0.03406084 -0.00826700 0.00155191
v 0.03516120 -0.00487697 0.00253052
v 0.03406084 -0.00826700 0.00155191
v 0.03501014 -0.00110206 0.00152901
v 0.03234079 -0.00458706 0.00000016
v 0.02947236 0.01539291 0.00000016
v 0.03115759 0.01243826 0.00004941
v 0.03406084 -0.00826700 0.00155191
v 0.03234079 -0.00458706 0.00000016
v 0.03501014 -0.00110206 0.00152901
v 0.01957447 -0.03630104 0.04503801
v 0.02667748 -0.02569005 0.02906113
v 0.02010388 -0.03503265 0.04912876
v 0.02667748 -0.02569005 0.02906113
v 0.01957447 -0.03630104 0.04503801
v 0.01900253 -0.03638430 0.03498536
v 0.01900253 -0.03638430 0.03498536
v 0.01957447 -0.03630104 0.04503801
v 0.01699790 -0.03727162 0.03888453
v 0.01413706 -0.03130759 0.12722734
v 0.01957447 -0.03630104 0.04503801
v 0.01585387 -0.02993681 0.12519330
v 0.01746057 -0.03662538 0.05323950
v 0.01957447 -0.03630104 0.04503801
v 0.01299642 -0.03228277 0.12385545
v 0.01957447 -0.03630104 0.04503801
v 0.01413706 -0.03130759 0.12722734
v 0.01299642 -0.03228277 0.12385545
v 0.01746057 -0.03662538 0.05323950
v 0.01657493 -0.03725400 0.04292947
v 0.01957447 -0.03630104 0.04503801
v 0.01699790 -0.03727162 0.03888453
v 0.01957447 -0.03630104 0.04503801
v 0.01657493 -0.03725400 0.04292947
v 0.01760389 -0.02737996 0.12785459
v 0.01957447 -0.03630104 0.04503801
v 0.02010388 -0.03503265 0.04912876
v 0.01585387 -0.02993681 0.12519330
v 0.01957447 -0.03630104 0.04503801
v 0.01760389 -0.02737996 0.12785459
v 0.01264889 -0.03727162 0.04499135
v 0.01699790 -0.03727162 0.03888453
v 0.01657493 -0.03725400 0.04292947
v 0.01522325 -0.03714895 0.04740766
v 0.01264889 -0.03727162 0.04499135
v 0.01657493 -0.03725400 0.04292947
v -0.01497173 -0.03727162 0.04352272
v 0.01264889 -0.03727162 0.04499135
v -0.01942208 -0.03719565 0.04656858
v 0.01264889 -0.03727162 0.04499135
v 0.01522325 -0.03714895 0.04740766
v 0.01186604 -0.03711800 0.04860431
v -0.01942208 -0.03719565 0.04656858
v 0.01264889 -0.03727162 0.04499135
v 0.01186604 -0.03711800 0.04860431
v -0.03545872 -0.00531246 0.01808967
v -0.03514646 -0.00742424 0.02191210
v -0.03493799 -0.00913052 0.02822231
v -0.03555449 -0.00543219 0.02880833
v -0.03562235 -0.00461105 0.02498246
v -0.03545872 -0.00531246 0.01808967
v -0.03144976 -0.00981403 0.00000016
v -0.03392262 -0.01045991 0.00307407
v -0.03241297 -0.00635409 0.00000016
v -0.03543916 -0.00207161 0.00346534
v -0.03241297 -0.00635409 0.00000016
v -0.03392262 -0.01045991 0.00307407
v -0.03392262 -0.01045991 0.00307407
v -0.03198572 -0.01825345 0.02834814
v -0.03334403 -0.01466901 0.02728346
v -0.03421571 -0.01154792 0.02465985
v -0.03392262 -0.01045991 0.00307407
v -0.03334403 -0.01466901 0.02728346
v -0.03421571 -0.01154792 0.02465985
v -0.03493799 -0.00913052 0.02822231
v -0.03392262 -0.01045991 0.00307407
v -0.01530648 0.03101083 0.12848769
v -0.01217490 0.03177292 0.12925880
v -0.01511718 0.03186988 0.12481046
v -0.01217490 0.03177292 0.12925880
v -0.01530648 0.03101083 0.12848769
v -0.01455138 0.02946780 0.13481651
v -0.01564041 0.02986643 0.13124985
v -0.01455138 0.02946780 0.13481651
v -0.01530648 0.03101083 0.12848769
v -0.01755931 0.02911172 0.12658677
v -0.01530648 0.03101083 0.12848769
v -0.01511718 0.03186988 0.12481046
v -0.01564041 0.02986643 0.13124985
v -0.01530648 0.03101083 0.12848769
v -0.01755931 0.02911172 0.12658677
v 0.01355748 0.02840165 0.13690576
v -0.01210739 0.03081080 0.13227212
v -0.01455138 0.02946780 0.13481651
v -0.01210739 0.03081080 0.13227212
v -0.01217490 0.03177292 0.12925880
v -0.01455138 0.02946780 0.13481651
v -0.03301611 0.00045064 0.00000016
v -0.03204173 0.01156057 0.00056484
v -0.02973235 0.01353385 0.00000016
v -0.03204173 0.01156057 0.00056484
v -0.03301611 0.00045064 0.00000016
v -0.03382757 0.00650831 0.00094959
v -0.02973235 0.01353385 0.00000016
v -0.03204173 0.01156057 0.00056484
v -0.02866007 0.01690008 0.00000016
v -0.02866007 0.01690008 0.00000016
v -0.03204173 0.01156057 0.00056484
v -0.03184000 0.01525581 0.00180838
v -0.03204173 0.01156057 0.00056484
v -0.03382757 0.00650831 0.00094959
v -0.03184000 0.01525581 0.00180838
v -0.03543916 -0.00207161 0.00346534
v -0.03273523 -0.00277322 0.00000016
v -0.03241297 -0.00635409 0.00000016
v -0.03301611 0.00045064 0.00000016
v -0.03273523 -0.00277322 0.00000016
v -0.03543916 -0.00207161 0.00346534
v -0.03301611 0.00045064 0.00000016
v -0.03539583 0.00269396 0.00292052
v -0.03382757 0.00650831 0.00094959
v -0.03543916 -0.00207161 0.00346534
v -0.03539583 0.00269396 0.00292052
v -0.03301611 0.00045064 0.00000016
v -0.03493186 0.00632396 0.00434976
v -0.03382757 0.00650831 0.00094959
v -0.03539583 0.00269396 0.00292052
v -0.03539583 0.00269396 0.00292052
v -0.03581352 0.00276313 0.02145825
v -0.03509630 0.00772134 0.01724958
v -0.03493186 0.00632396 0.00434976
v -0.03539583 0.00269396 0.00292052
v -0.03509630 0.00772134 0.01724958
v 0.01454978 0.02440072 0.14027686
v 0.01589591 0.02579054 0.13664022
v 0.01355748 0.02840165 0.13690576
v 0.01626231 0.03772838 0.03306559
v 0.01370944 0.03761023 0.02895982
v 0.00948669 0.03763346 0.02534887
v 0.00623115 0.03772838 0.02432066
v 0.01626231 0.03772838 0.03306559
v 0.00948669 0.03763346 0.02534887
v 0.01626231 0.03772838 0.03306559
v 0.01099727 0.03375186 0.00346744
v 0.01370944 0.03761023 0.02895982
v 0.01099727 0.03375186 0.00346744
v 0.01626231 0.03772838 0.03306559
v 0.01375776 0.03272466 0.00211479
v 0.01375776 0.03272466 0.00211479
v 0.01626231 0.03772838 0.03306559
v 0.01856129 0.03772838 0.03668322
v 0.02525932 0.02494160 0.00422273
v 0.02297060 0.02706526 0.00413271
v 0.01856129 0.03772838 0.03668322
v 0.02759326 0.02233271 0.00394324
v 0.01856129 0.03772838 0.03668322
v 0.02553135 0.02797838 0.02863226
v 0.02759326 0.02233271 0.00394324
v 0.02525932 0.02494160 0.00422273
v 0.01856129 0.03772838 0.03668322
v 0.03109701 0.01882081 0.02903750
v 0.01732523 0.02888184 0.12455645
v 0.03877439 0.00605159 0.01520040
v 0.01380721 0.03232956 0.12539627
v 0.01678319 0.02857472 0.12893473
v 0.01732523 0.02888184 0.12455645
v 0.01992584 0.03598741 0.05135847
v 0.03109701 0.01882081 0.02903750
v 0.02553135 0.02797838 0.02863226
v 0.03109701 0.01882081 0.02903750
v 0.01992584 0.03598741 0.05135847
v 0.01732523 0.02888184 0.12455645
v 0.01732523 0.02888184 0.12455645
v 0.01992584 0.03598741 0.05135847
v 0.01380721 0.03232956 0.12539627
v -0.03392262 -0.01045991 0.00307407
v -0.03252064 -0.01423511 0.00556552
v -0.03198572 -0.01825345 0.02834814
v -0.03477232 0.01027819 0.02764353
v -0.03422558 0.01098903 0.01720787
v -0.03509630 0.00772134 0.01724958
v -0.03509630 0.00772134 0.01724958
v -0.03422558 0.01098903 0.01720787
v -0.03417313 0.00961295 0.00565117
v -0.01328973 0.02132623 0.14396273
v 0.01298883 0.01904873 0.14529201
v 0.01211591 0.02267232 0.14301243
v -0.01312475 0.01648668 0.14643241
v 0.01298883 0.01904873 0.14529201
v -0.01328973 0.02132623 0.14396273
v 0.01298883 0.01904873 0.14529201
v 0.01454978 0.02440072 0.14027686
v 0.01211591 0.02267232 0.14301243
v 0.01057316 -0.02304944 0.14232792
v 0.01405936 -0.02478830 0.14022405
v 0.01328733 -0.02090418 0.14400499
v 0.01110389 -0.02584361 0.13909273
v 0.01405936 -0.02478830 0.14022405
v 0.01057316 -0.02304944 0.14232792
v 0.01574045 -0.02464993 0.13787882
v 0.01405936 -0.02478830 0.14022405
v 0.01489962 -0.02746066 0.13541064
v 0.01405936 -0.02478830 0.14022405
v 0.01110389 -0.02584361 0.13909273
v 0.01110389 -0.02806639 0.13596171
v 0.01489962 -0.02746066 0.13541064
v 0.01405936 -0.02478830 0.14022405
v 0.01110389 -0.02806639 0.13596171
v 0.01721228 -0.02177498 0.13876016
v 0.01405936 -0.02478830 0.14022405
v 0.01574045 -0.02464993 0.13787882
v 0.01405936 -0.02478830 0.14022405
v 0.01632176 -0.01949577 0.14167836
v 0.01328733 -0.02090418 0.14400499
v 0.01632176 -0.01949577 0.14167836
v 0.01405936 -0.02478830 0.14022405
v 0.01721228 -0.02177498 0.13876016
v 0.01132182 0.03077270 0.00000016
v 0.00421538 0.03493280 0.00168666
v 0.01375776 0.03272466 0.00211479
v 0.00421538 0.03493280 0.00168666
v 0.01132182 0.03077270 0.00000016
v 0.00453864 0.03177398 0.00000016
v 0.03054610 -0.01808609 0.00294231
v 0.03318080 -0.01261840 0.00355290
v 0.03831205 -0.00621624 0.00967624
v 0.03318080 -0.01261840 0.00355290
v 0.03406084 -0.00826700 0.00155191
v 0.03831205 -0.00621624 0.00967624
v 0.03091708 -0.01485374 0.00080143
v 0.03318080 -0.01261840 0.00355290
v 0.03054610 -0.01808609 0.00294231
v 0.03406084 -0.00826700 0.00155191
v 0.03318080 -0.01261840 0.00355290
v 0.03091708 -0.01485374 0.00080143
v 0.03234079 -0.00458706 0.00000016
v 0.03391680 0.00272554 0.00052768
v 0.03501014 -0.00110206 0.00152901
v 0.03391680 0.00272554 0.00052768
v 0.03234079 -0.00458706 0.00000016
v 0.03115759 0.01243826 0.00004941
v 0.03296994 0.00979759 0.00089624
v 0.03391680 0.00272554 0.00052768
v 0.03115759 0.01243826 0.00004941
v 0.03501014 -0.00110206 0.00152901
v 0.03391680 0.00272554 0.00052768
v 0.03475922 0.00688605 0.00193650
v 0.03391680 0.00272554 0.00052768
v 0.03296994 0.00979759 0.00089624
v 0.03475922 0.00688605 0.00193650
v 0.03115925 -0.00762192 0.00000016
v 0.02768711 -0.01898156 0.00007068
v 0.02332068 -0.02254339 0.00000016
v 0.02768711 -0.01898156 0.00007068
v 0.03115925 -0.00762192 0.00000016
v 0.03234079 -0.00458706 0.00000016
v 0.03091708 -0.01485374 0.00080143
v 0.03178328 -0.01155680 0.00032050
v 0.03406084 -0.00826700 0.00155191
v 0.03234079 -0.00458706 0.00000016
v 0.03406084 -0.00826700 0.00155191
v 0.03178328 -0.01155680 0.00032050
v 0.03178328 -0.01155680 0.00032050
v 0.03091708 -0.01485374 0.00080143
v 0.02768711 -0.01898156 0.00007068
v 0.03234079 -0.00458706 0.00000016
v 0.03178328 -0.01155680 0.00032050
v 0.02768711 -0.01898156 0.00007068
v -0.03545872 -0.00531246 0.01808967
v -0.03583325 -0.00184140 0.01732183
v -0.03543916 -0.00207161 0.00346534
v -0.03581352 0.00276313 0.02145825
v -0.03583325 -0.00184140 0.01732183
v -0.03588123 -0.00086144 0.02665676
v -0.03583325 -0.00184140 0.01732183
v -0.03582517 -0.00236293 0.02906630
v -0.03588123 -0.00086144 0.02665676
v -0.03543916 -0.00207161 0.00346534
v -0.03583325 -0.00184140 0.01732183
v -0.03539583 0.00269396 0.00292052
v -0.03539583 0.00269396 0.00292052
v -0.03583325 -0.00184140 0.01732183
v -0.03581352 0.00276313 0.02145825
v -0.02938496 -0.01603249 0.00000016
v -0.03146110 -0.01644305 0.00246076
v -0.03144976 -0.00981403 0.00000016
v -0.03144976 -0.00981403 0.00000016
v -0.03146110 -0.01644305 0.00246076
v -0.03392262 -0.01045991 0.00307407
v -0.03252064 -0.01423511 0.00556552
v -0.03392262 -0.01045991 0.00307407
v -0.03146110 -0.01644305 0.00246076
v -0.03146110 -0.01644305 0.00246076
v -0.02808243 -0.02520628 0.02866027
v -0.03052543 -0.02102702 0.02904257
v -0.03198572 -0.01825345 0.02834814
v -0.03146110 -0.01644305 0.00246076
v -0.03052543 -0.02102702 0.02904257
v -0.03252064 -0.01423511 0.00556552
v -0.03146110 -0.01644305 0.00246076
v -0.03198572 -0.01825345 0.02834814
v -0.03543916 -0.00207161 0.00346534
v -0.03491464 -0.00641303 0.00385567
v -0.03545872 -0.00531246 0.01808967
v -0.03392262 -0.01045991 0.00307407
v -0.03491464 -0.00641303 0.00385567
v -0.03543916 -0.00207161 0.00346534
v -0.03491464 -0.00641303 0.00385567
v -0.03514646 -0.00742424 0.02191210
v -0.03545872 -0.00531246 0.01808967
v -0.03514646 -0.00742424 0.02191210
v -0.03491464 -0.00641303 0.00385567
v -0.03493799 -0.00913052 0.02822231
v -0.03491464 -0.00641303 0.00385567
v -0.03392262 -0.01045991 0.00307407
v -0.03493799 -0.00913052 0.02822231
v -0.01742752 0.02758069 0.13213576
v -0.01755931 0.02911172 0.12658677
v -0.01839611 0.02750352 0.12868196
v -0.01742752 0.02758069 0.13213576
v -0.01564041 0.02986643 0.13124985
v -0.01755931 0.02911172 0.12658677
v -0.01839611 0.02750352 0.12868196
v -0.01755751 0.02589023 0.13497256
v -0.01742752 0.02758069 0.13213576
v -0.01455138 0.02946780 0.13481651
v -0.01742752 0.02758069 0.13213576
v -0.01755751 0.02589023 0.13497256
v -0.01564041 0.02986643 0.13124985
v -0.01742752 0.02758069 0.13213576
v -0.01455138 0.02946780 0.13481651
v -0.01210739 0.03081080 0.13227212
v 0.01355748 0.02840165 0.13690576
v 0.01237736 0.03188191 0.12876818
v 0.01237736 0.03188191 0.12876818
v 0.01483570 0.02910121 0.13313781
v 0.01380721 0.03232956 0.12539627
v 0.01483570 0.02910121 0.13313781
v 0.01237736 0.03188191 0.12876818
v 0.01355748 0.02840165 0.13690576
v -0.01210739 0.03081080 0.13227212
v 0.01237736 0.03188191 0.12876818
v -0.01217490 0.03177292 0.12925880
v 0.01237736 0.03188191 0.12876818
v 0.01380721 0.03232956 0.12539627
v -0.01193659 0.03260369 0.12468510
v -0.01217490 0.03177292 0.12925880
v 0.01237736 0.03188191 0.12876818
v -0.01193659 0.03260369 0.12468510
v 0.01760389 0.02129247 0.13891296
v 0.01589591 0.02579054 0.13664022
v 0.01454978 0.02440072 0.14027686
v 0.03929071 0.00355981 0.01320095
v 0.01760389 0.02129247 0.13891296
v 0.03942742 0.00052609 0.01369218
v 0.01760389 0.02129247 0.13891296
v 0.03929071 0.00355981 0.01320095
v 0.03877439 0.00605159 0.01520040
v 0.01856129 0.03772838 0.03668322
v 0.02015237 0.02922345 0.00490143
v 0.01375776 0.03272466 0.00211479
v 0.02297060 0.02706526 0.00413271
v 0.02015237 0.02922345 0.00490143
v 0.01856129 0.03772838 0.03668322
v 0.02553135 0.02797838 0.02863226
v 0.03877439 0.00605159 0.01520040
v 0.03016161 0.01872178 0.00460989
v 0.03016161 0.01872178 0.00460989
v 0.02759326 0.02233271 0.00394324
v 0.02553135 0.02797838 0.02863226
v 0.02010388 0.03597177 0.03949851
v 0.01950412 0.03682814 0.04281355
v 0.02553135 0.02797838 0.02863226
v 0.02553135 0.02797838 0.02863226
v 0.01950412 0.03682814 0.04281355
v 0.01992584 0.03598741 0.05135847
v 0.01856129 0.03772838 0.03668322
v 0.01950412 0.03682814 0.04281355
v 0.02010388 0.03597177 0.03949851
v -0.02381133 -0.02462838 0.00075965
v -0.02457608 -0.02113201 0.00000016
v -0.01737344 -0.02827302 0.00000016
v -0.02457608 -0.02113201 0.00000016
v -0.02381133 -0.02462838 0.00075965
v -0.02938496 -0.01603249 0.00000016
v -0.01156060 -0.03321192 0.00166795
v -0.01524873 -0.03144978 0.00145269
v -0.01737344 -0.02827302 0.00000016
v -0.01524873 -0.03144978 0.00145269
v -0.01156060 -0.03321192 0.00166795
v -0.01906542 -0.03727162 0.03625296
v -0.03352746 0.01451500 0.02912680
v -0.03390370 0.01298525 0.02444642
v -0.03477232 0.01027819 0.02764353
v -0.03422558 0.01098903 0.01720787
v -0.03477232 0.01027819 0.02764353
v -0.03390370 0.01298525 0.02444642
v -0.03324387 0.01244809 0.00592589
v -0.03390370 0.01298525 0.02444642
v -0.03352746 0.01451500 0.02912680
v -0.03417313 0.00961295 0.00565117
v -0.03390370 0.01298525 0.02444642
v -0.03324387 0.01244809 0.00592589
v -0.03422558 0.01098903 0.01720787
v -0.03390370 0.01298525 0.02444642
v -0.03417313 0.00961295 0.00565117
v 0.01012630 0.01637223 0.14647529
v 0.01298883 0.01904873 0.14529201
v -0.01312475 0.01648668 0.14643241
v -0.01185194 0.01369024 0.14730811
v 0.01004570 0.01238991 0.14759600
v 0.01012630 0.01637223 0.14647529
v 0.01012630 0.01637223 0.14647529
v -0.01312475 0.01648668 0.14643241
v -0.01185194 0.01369024 0.14730811
v 0.01388135 0.01573920 0.14640911
v 0.01012630 0.01637223 0.14647529
v 0.01004570 0.01238991 0.14759600
v 0.01298883 0.01904873 0.14529201
v 0.01012630 0.01637223 0.14647529
v 0.01388135 0.01573920 0.14640911
v -0.03562235 -0.00461105 0.02498246
v -0.03573662 -0.00326829 0.02073536
v -0.03545872 -0.00531246 0.01808967
v -0.03545872 -0.00531246 0.01808967
v -0.03573662 -0.00326829 0.02073536
v -0.03583325 -0.00184140 0.01732183
v -0.03583325 -0.00184140 0.01732183
v -0.03573662 -0.00326829 0.02073536
v -0.03582517 -0.00236293 0.02906630
v -0.03582517 -0.00236293 0.02906630
v -0.03573662 -0.00326829 0.02073536
v -0.03555449 -0.00543219 0.02880833
v -0.03573662 -0.00326829 0.02073536
v -0.03562235 -0.00461105 0.02498246
v -0.03555449 -0.00543219 0.02880833
v -0.03146110 -0.01644305 0.00246076
v -0.02892863 -0.01946425 0.00136938
v -0.02658672 -0.02352303 0.00398402
v -0.02381133 -0.02462838 0.00075965
v -0.02892863 -0.01946425 0.00136938
v -0.02938496 -0.01603249 0.00000016
v -0.02938496 -0.01603249 0.00000016
v -0.02892863 -0.01946425 0.00136938
v -0.03146110 -0.01644305 0.00246076
v -0.02852623 -0.02112813 0.00580313
v -0.02658672 -0.02352303 0.00398402
v -0.02808243 -0.02520628 0.02866027
v -0.03146110 -0.01644305 0.00246076
v -0.02852623 -0.02112813 0.00580313
v -0.02808243 -0.02520628 0.02866027
v -0.02658672 -0.02352303 0.00398402
v -0.02852623 -0.02112813 0.00580313
v -0.03146110 -0.01644305 0.00246076
v 0.01760389 0.00878779 0.14400569
v 0.01452263 0.01190470 0.14675015
v 0.01440371 0.00446023 0.14724702
v 0.01760389 0.02129247 0.13891296
v 0.01760389 0.00878779 0.14400569
v 0.03942742 0.00052609 0.01369218
v 0.01747588 -0.00669991 0.14417484
v 0.01760389 0.00878779 0.14400569
v 0.01740366 -0.00320462 0.14424707
v 0.03942742 0.00052609 0.01369218
v 0.01760389 0.00878779 0.14400569
v 0.01747588 -0.00669991 0.14417484
v 0.01760389 0.02129247 0.13891296
v 0.01760389 0.02580042 0.13340868
v 0.01589591 0.02579054 0.13664022
v 0.01483570 0.02910121 0.13313781
v 0.01760389 0.02580042 0.13340868
v 0.01678319 0.02857472 0.12893473
v 0.01760389 0.02580042 0.13340868
v 0.01732523 0.02888184 0.12455645
v 0.01678319 0.02857472 0.12893473
v 0.01483570 0.02910121 0.13313781
v 0.01355748 0.02840165 0.13690576
v 0.01760389 0.02580042 0.13340868
v 0.01589591 0.02579054 0.13664022
v 0.01760389 0.02580042 0.13340868
v 0.01355748 0.02840165 0.13690576
v 0.01732523 0.02888184 0.12455645
v 0.01760389 0.02580042 0.13340868
v 0.03877439 0.00605159 0.01520040
v 0.03877439 0.00605159 0.01520040
v 0.01760389 0.02580042 0.13340868
v 0.01760389 0.02129247 0.13891296
v 0.01529349 0.02033340 0.14259326
v 0.01760389 0.02129247 0.13891296
v 0.01454978 0.02440072 0.14027686
v 0.01298883 0.01904873 0.14529201
v 0.01388135 0.01573920 0.14640911
v 0.01529349 0.02033340 0.14259326
v 0.01298883 0.01904873 0.14529201
v 0.01529349 0.02033340 0.14259326
v 0.01454978 0.02440072 0.14027686
v 0.02015237 0.02922345 0.00490143
v 0.02107476 0.02774546 0.00134382
v 0.01375776 0.03272466 0.00211479
v 0.02107476 0.02774546 0.00134382
v 0.02015237 0.02922345 0.00490143
v 0.02297060 0.02706526 0.00413271
v 0.02297060 0.02706526 0.00413271
v 0.02525932 0.02494160 0.00422273
v 0.02107476 0.02774546 0.00134382
v 0.03192347 0.01552402 0.00216939
v 0.03016161 0.01872178 0.00460989
v 0.03877439 0.00605159 0.01520040
v 0.03475922 0.00688605 0.00193650
v 0.03192347 0.01552402 0.00216939
v 0.03872396 0.00241961 0.00933048
v 0.03296994 0.00979759 0.00089624
v 0.03192347 0.01552402 0.00216939
v 0.03475922 0.00688605 0.00193650
v 0.03872396 0.00241961 0.00933048
v 0.03192347 0.01552402 0.00216939
v 0.03929071 0.00355981 0.01320095
v 0.03929071 0.00355981 0.01320095
v 0.03192347 0.01552402 0.00216939
v 0.03877439 0.00605159 0.01520040
v 0.03115759 0.01243826 0.00004941
v 0.03192347 0.01552402 0.00216939
v 0.03296994 0.00979759 0.00089624
v 0.01854100 0.03762228 0.04719877
v 0.01950412 0.03682814 0.04281355
v 0.01856129 0.03772838 0.03668322
v 0.01950412 0.03682814 0.04281355
v 0.01854100 0.03762228 0.04719877
v 0.01992584 0.03598741 0.05135847
v 0.01854100 0.03762228 0.04719877
v 0.01856129 0.03772838 0.03668322
v 0.01533077 0.03771082 0.04654234
v 0.01992584 0.03598741 0.05135847
v 0.01854100 0.03762228 0.04719877
v 0.01380721 0.03232956 0.12539627
v 0.01351872 0.03769258 0.04927803
v 0.01854100 0.03762228 0.04719877
v 0.01533077 0.03771082 0.04654234
v 0.01351872 0.03769258 0.04927803
v 0.01380721 0.03232956 0.12539627
v 0.01854100 0.03762228 0.04719877
v -0.01906542 -0.03727162 0.03625296
v -0.01806631 -0.03055614 0.00456584
v -0.01524873 -0.03144978 0.00145269
v 0.01683396 0.00341041 0.14481677
v 0.01760389 0.00878779 0.14400569
v 0.01440371 0.00446023 0.14724702
v 0.01760389 0.00878779 0.14400569
v 0.01683396 0.00341041 0.14481677
v 0.01740366 -0.00320462 0.14424707
v 0.01452263 0.01190470 0.14675015
v 0.01637350 0.01419915 0.14429139
v 0.01388135 0.01573920 0.14640911
v 0.01760389 0.00878779 0.14400569
v 0.01637350 0.01419915 0.14429139
v 0.01452263 0.01190470 0.14675015
v 0.01637350 0.01419915 0.14429139
v 0.01529349 0.02033340 0.14259326
v 0.01388135 0.01573920 0.14640911
v 0.01760389 0.02129247 0.13891296
v 0.01637350 0.01419915 0.14429139
v 0.01760389 0.00878779 0.14400569
v 0.01529349 0.02033340 0.14259326
v 0.01637350 0.01419915 0.14429139
v 0.01760389 0.02129247 0.13891296
v 0.01778304 0.02918454 0.00067732
v 0.01132182 0.03077270 0.00000016
v 0.01375776 0.03272466 0.00211479
v 0.02107476 0.02774546 0.00134382
v 0.01778304 0.02918454 0.00067732
v 0.01375776 0.03272466 0.00211479
v 0.02370711 0.02455655 0.00063520
v 0.01778304 0.02918454 0.00067732
v 0.02107476 0.02774546 0.00134382
v 0.01132182 0.03077270 0.00000016
v 0.01778304 0.02918454 0.00067732
v 0.01404143 0.02902868 0.00000016
v 0.01778304 0.02918454 0.00067732
v 0.02505170 0.02159548 0.00000016
v 0.01404143 0.02902868 0.00000016
v 0.02505170 0.02159548 0.00000016
v 0.01778304 0.02918454 0.00067732
v 0.02370711 0.02455655 0.00063520
v 0.02107476 0.02774546 0.00134382
v 0.02776811 0.02105165 0.00134613
v 0.02370711 0.02455655 0.00063520
v 0.02759326 0.02233271 0.00394324
v 0.02776811 0.02105165 0.00134613
v 0.02525932 0.02494160 0.00422273
v 0.02776811 0.02105165 0.00134613
v 0.02107476 0.02774546 0.00134382
v 0.02525932 0.02494160 0.00422273
v 0.02505170 0.02159548 0.00000016
v 0.02776811 0.02105165 0.00134613
v 0.02947236 0.01539291 0.00000016
v 0.02776811 0.02105165 0.00134613
v 0.02505170 0.02159548 0.00000016
v 0.02370711 0.02455655 0.00063520
v -0.01806631 -0.03055614 0.00456584
v -0.02142506 -0.02782688 0.00162118
v -0.01524873 -0.03144978 0.00145269
v -0.01737344 -0.02827302 0.00000016
v -0.02142506 -0.02782688 0.00162118
v -0.02381133 -0.02462838 0.00075965
v -0.01524873 -0.03144978 0.00145269
v -0.02142506 -0.02782688 0.00162118
v -0.01737344 -0.02827302 0.00000016
v -0.02892863 -0.01946425 0.00136938
v -0.02142506 -0.02782688 0.00162118
v -0.02658672 -0.02352303 0.00398402
v -0.02381133 -0.02462838 0.00075965
v -0.02142506 -0.02782688 0.00162118
v -0.02892863 -0.01946425 0.00136938
v -0.02658672 -0.02352303 0.00398402
v -0.02142506 -0.02782688 0.00162118
v -0.01906542 -0.03727162 0.03625296
v -0.02142506 -0.02782688 0.00162118
v -0.01806631 -0.03055614 0.00456584
v -0.01906542 -0.03727162 0.03625296
v 0.03015201 0.01832767 0.00178734
v 0.02776811 0.02105165 0.00134613
v 0.02759326 0.02233271 0.00394324
v 0.03016161 0.01872178 0.00460989
v 0.03015201 0.01832767 0.00178734
v 0.02759326 0.02233271 0.00394324
v 0.03192347 0.01552402 0.00216939
v 0.03015201 0.01832767 0.00178734
v 0.03016161 0.01872178 0.00460989
v 0.02776811 0.02105165 0.00134613
v 0.03015201 0.01832767 0.00178734
v 0.02947236 0.01539291 0.00000016
v 0.02947236 0.01539291 0.00000016
v 0.03015201 0.01832767 0.00178734
v 0.03115759 0.01243826 0.00004941
v 0.03115759 0.01243826 0.00004941
v 0.03015201 0.01832767 0.00178734
v 0.03192347 0.01552402 0.00216939
v 0.01319349 0.00047705 0.14804685
v -0.01435450 0.00334303 0.14804685
v 0.01238155 -0.00711263 0.14804685
v 0.01238155 -0.00711263 0.14804685
v -0.01435450 0.00334303 0.14804685
v -0.01242551 -0.00352786 0.14804685
v 0.01145796 0.00566621 0.14804685
v -0.01435450 0.00334303 0.14804685
v 0.01319349 0.00047705 0.14804685
v -0.01435450 0.00334303 0.14804685
v 0.01145796 0.00566621 0.14804685
v -0.01367418 0.00709731 0.14804685
v 0.01264889 -0.03727162 0.04499135
v -0.01919378 -0.03727162 0.04106389
v -0.01906542 -0.03727162 0.03625296
v 0.01699790 -0.03727162 0.03888453
v 0.01264889 -0.03727162 0.04499135
v 0.01635193 -0.03727162 0.03258830
v 0.00103073 -0.03727162 0.02371822
v 0.01264889 -0.03727162 0.04499135
v -0.00996111 -0.03727162 0.02750500
v 0.00103073 -0.03727162 0.02371822
v 0.00490381 -0.03727162 0.02435782
v 0.01264889 -0.03727162 0.04499135
v 0.00733214 -0.03727162 0.02586031
v 0.01635193 -0.03727162 0.03258830
v 0.01264889 -0.03727162 0.04499135
v -0.00996111 -0.03727162 0.02750500
v 0.01264889 -0.03727162 0.04499135
v -0.01906542 -0.03727162 0.03625296
v 0.00733214 -0.03727162 0.02586031
v 0.01264889 -0.03727162 0.04499135
v 0.00490381 -0.03727162 0.02435782
v 0.01264889 -0.03727162 0.04499135
v -0.01497173 -0.03727162 0.04352272
v -0.01919378 -0.03727162 0.04106389
v -0.01876072 0.03772838 0.03981535
v 0.01626231 0.03772838 0.03306559
v -0.01716679 0.03772838 0.03618443
v -0.01617651 0.03772838 0.04357154
v 0.01626231 0.03772838 0.03306559
v -0.01876072 0.03772838 0.03981535
v 0.01626231 0.03772838 0.03306559
v -0.00950622 0.03772838 0.02527809
v -0.01716679 0.03772838 0.03618443
v 0.01588744 0.03772838 0.04231139
v 0.01626231 0.03772838 0.03306559
v -0.01617651 0.03772838 0.04357154
v 0.01626231 0.03772838 0.03306559
v -0.00341163 0.03772838 0.02361489
v -0.00950622 0.03772838 0.02527809
v 0.01588744 0.03772838 0.04231139
v 0.01856129 0.03772838 0.03668322
v 0.01626231 0.03772838 0.03306559
v -0.00341163 0.03772838 0.02361489
v 0.01626231 0.03772838 0.03306559
v 0.00623115 0.03772838 0.02432066
v 0.02505170 0.02159548 0.00000016
v -0.00418833 -0.03288987 0.00000016
v -0.01737344 -0.02827302 0.00000016
v 0.01132182 0.03077270 0.00000016
v 0.02505170 0.02159548 0.00000016
v 0.00453864 0.03177398 0.00000016
v 0.00095419 0.03213096 0.00000016
v 0.00453864 0.03177398 0.00000016
v 0.02505170 0.02159548 0.00000016
v -0.00678909 0.03256053 0.00000016
v 0.02505170 0.02159548 0.00000016
v -0.01908389 0.02712613 0.00000016
v 0.02505170 0.02159548 0.00000016
v 0.02332068 -0.02254339 0.00000016
v 0.01864881 -0.02760016 0.00000016
v -0.02866007 0.01690008 0.00000016
v -0.01908389 0.02712613 0.00000016
v 0.02505170 0.02159548 0.00000016
v -0.00033896 -0.03232070 0.00000016
v 0.02505170 0.02159548 0.00000016
v 0.01260155 -0.02986885 0.00000016
v -0.02866007 0.01690008 0.00000016
v 0.02505170 0.02159548 0.00000016
v -0.02973235 0.01353385 0.00000016
v 0.01260155 -0.02986885 0.00000016
v 0.02505170 0.02159548 0.00000016
v 0.01864881 -0.02760016 0.00000016
v 0.02505170 0.02159548 0.00000016
v -0.03144976 -0.00981403 0.00000016
v -0.03241297 -0.00635409 0.00000016
v 0.00095419 0.03213096 0.00000016
v 0.02505170 0.02159548 0.00000016
v -0.00678909 0.03256053 0.00000016
v 0.02505170 0.02159548 0.00000016
v 0.03115925 -0.00762192 0.00000016
v 0.02332068 -0.02254339 0.00000016
v -0.03273523 -0.00277322 0.00000016
v 0.02505170 0.02159548 0.00000016
v -0.03241297 -0.00635409 0.00000016
v 0.02505170 0.02159548 0.00000016
v -0.00033896 -0.03232070 0.00000016
v -0.00418833 -0.03288987 0.00000016
v 0.02505170 0.02159548 0.00000016
v -0.03301611 0.00045064 0.00000016
v -0.02973235 0.01353385 0.00000016
v -0.02457608 -0.02113201 0.00000016
v 0.02505170 0.02159548 0.00000016
v -0.01737344 -0.02827302 0.00000016
v 0.03234079 -0.00458706 0.00000016
v 0.02505170 0.02159548 0.00000016
v 0.02947236 0.01539291 0.00000016
v -0.03144976 -0.00981403 0.00000016
v 0.02505170 0.02159548 0.00000016
v -0.02938496 -0.01603249 0.00000016
v 0.02505170 0.02159548 0.00000016
v -0.03273523 -0.00277322 0.00000016
v -0.03301611 0.00045064 0.00000016
v 0.01132182 0.03077270 0.00000016
v 0.01404143 0.02902868 0.00000016
v 0.02505170 0.02159548 0.00000016
v 0.03115925 -0.00762192 0.00000016
v 0.02505170 0.02159548 0.00000016
v 0.03234079 -0.00458706 0.00000016
v 0.02505170 0.02159548 0.00000016
v -0.02457608 -0.02113201 0.00000016
v -0.02938496 -0.01603249 0.00000016
v 0.01426530 -0.00448271 0.14738543
v 0.01683396 0.00341041 0.14481677
v 0.01440371 0.00446023 0.14724702
v 0.01740366 -0.00320462 0.14424707
v 0.01683396 0.00341041 0.14481677
v 0.01747588 -0.00669991 0.14417484
v 0.01747588 -0.00669991 0.14417484
v 0.01683396 0.00341041 0.14481677
v 0.01426530 -0.00448271 0.14738543
f 1 2 3
f 4 5 6
f 7 8 9
f 10 11 12
f 13 14 15
f 16 17 18
f 19 20 21
f 22 23 24
f 25 26 27
f 28 29 30
f 31 32 33
f 34 35 36
f 37 38 39
f 40 41 42
f 43 44 45
f 46 47 48
f 49 50 51
f 52 53 54
f 55 56 57
f 58 59 60
f 61 62 63
f 64 65 66
f 67 68 69
f 70 71 72
f 73 74 75
f 76 77 78
f 79 80 81
f 82 83 84
f 85 86 87
f 88 89 90
f 91 92 93
f 94 95 96
f 97 98 99
f 100 101 102
f 103 104 105
f 106 107 108
f 109 110 111
f 112 113 114
f 115 116 117
f 118 119 120
f 121 122 123
f 124 125 126
f 127 128 129
f 130 131 132
f 133 134 135
f 136 137 138
f 139 140 141
f 142 143 144
f 145 146 147
f 148 149 150
f 151 152 153
f 154 155 156
f 157 158 159
f 160 161 162
f 163 164 165
f 166 167 168
f 169 170 171
f 172 173 174
f 175 176 177
f 178 179 180
f 181 182 183
f 184 185 186
f 187 188 189
f 190 191 192
f 193 194 195
f 196 197 198
f 199 200 201
f 202 203 204
f 205 206 207
f 208 209 210
f 211 212 213
f 214 215 216
f 217 218 219
f 220 221 222
f 223 224 225
f 226 227 228
f 229 230 231
f 232 233 234
f 235 236 237
f 238 239 240
f 241 242 243
f 244 245 246
f 247 248 249
f 250 251 252
f 253 254 255
f 256 257 258
f 259 260 261
f 262 263 264
f 265 266 267
f 268 269 270
f 271 272 273
f 274 275 276
f 277 278 279
f 280 281 282
f 283 284 285
f 286 287 288
f 289 290 291
f 292 293 294
f 295 296 297
f 298 299 300
f 301 302 303
f 304 305 306
f 307 308 309
f 310 311 312
f 313 314 315
f 316 317 318
f 319 320 321
f 322 323 324
f 325 326 327
f 328 329 330
f 331 332 333
f 334 335 336
f 337 338 339
f 340 341 342
f 343 344 345
f 346 347 348
f 349 350 351
f 352 353 354
f 355 356 357
f 358 359 360
f 361 362 363
f 364 365 366
f 367 368 369
f 370 371 372
f 373 374 375
f 376 377 378
f 379 380 381
f 382 383 384
f 385 386 387
f 388 389 390
f 391 392 393
f 394 395 396
f 397 398 399
f 400 401 402
f 403 404 405
f 406 407 408
f 409 410 411
f 412 413 414
f 415 416 417
f 418 419 420
f 421 422 423
f 424 425 426
f 427 428 429
f 430 431 432
f 433 434 435
f 436 437 438
f 439 440 441
f 442 443 444
f 445 446 447
f 448 449 450
f 451 452 453
f 454 455 456
f 457 458 459
f 460 461 462
f 463 464 465
f 466 467 468
f 469 470 471
f 472 473 474
f 475 476 477
f 478 479 480
f 481 482 483
f 484 485 486
f 487 488 489
f 490 491 492
f 493 494 495
f 496 497 498
f 499 500 501
f 502 503 504
f 505 506 507
f 508 509 510
f 511 512 513
f 514 515 516
f 517 518 519
f 520 521 522
f 523 524 525
f 526 527 528
f 529 530 531
f 532 533 534
f 535 536 537
f 538 539 540
f 541 542 543
f 544 545 546
f 547 548 549
f 550 551 552
f 553 554 555
f 556 557 558
f 559 560 561
f 562 563 564
f 565 566 567
f 568 569 570
f 571 572 573
f 574 575 576
f 577 578 579
f 580 581 582
f 583 584 585
f 586 587 588
f 589 590 591
f 592 593 594
f 595 596 597
f 598 599 600
f 601 602 603
f 604 605 606
f 607 608 609
f 610 611 612
f 613 614 615
f 616 617 618
f 619 620 621
f 622 623 624
f 625 626 627
f 628 629 630
f 631 632 633
f 634 635 636
f 637 638 639
f 640 641 642
f 643 644 645
f 646 647 648
f 649 650 651
f 652 653 654
f 655 656 657
f 658 659 660
f 661 662 663
f 664 665 666
f 667 668 669
f 670 671 672
f 673 674 675
f 676 677 678
f 679 680 681
f 682 683 684
f 685 686 687
f 688 689 690
f 691 692 693
f 694 695 696
f 697 698 699
f 700 701 702
f 703 704 705
f 706 707 708
f 709 710 711
f 712 713 714
f 715 716 717
f 718 719 720
f 721 722 723
f 724 725 726
f 727 728 729
f 730 731 732
f 733 734 735
f 736 737 738
f 739 740 741
f 742 743 744
f 745 746 747
f 748 749 750
f 751 752 753
f 754 755 756
f 757 758 759
f 760 761 762
f 763 764 765
f 766 767 768
f 769 770 771
f 772 773 774
f 775 776 777
f 778 779 780
f 781 782 783
f 784 785 786
f 787 788 789
f 790 791 792
f 793 794 795
f 796 797 798
f 799 800 801
f 802 803 804
f 805 806 807
f 808 809 810
f 811 812 813
f 814 815 816
f 817 818 819
f 820 821 822
f 823 824 825
f 826 827 828
f 829 830 831
f 832 833 834
f 835 836 837
f 838 839 840
f 841 842 843
f 844 845 846
f 847 848 849
f 850 851 852
f 853 854 855
f 856 857 858
f 859 860 861
f 862 863 864
f 865 866 867
f 868 869 870
f 871 872 873
f 874 875 876
f 877 878 879
f 880 881 882
f 883 884 885
f 886 887 888
f 889 890 891
f 892 893 894
f 895 896 897
f 898 899 900
f 901 902 903
f 904 905 906
f 907 908 909
f 910 911 912
f 913 914 915
f 916 917 918
f 919 920 921
f 922 923 924
f 925 926 927
f 928 929 930
f 931 932 933
f 934 935 936
f 937 938 939
f 940 941 942
f 943 944 945
f 946 947 948
f 949 950 951
f 952 953 954
f 955 956 957
f 958 959 960
f 961 962 963
f 964 965 966
f 967 968 969
f 970 971 972
f 973 974 975
f 976 977 978
f 979 980 981
f 982 983 984
f 985 986 987
f 988 989 990
f 991 992 993
f 994 995 996
f 997 998 999
f 1000 1001 1002
f 1003 1004 1005
f 1006 1007 1008
f 1009 1010 1011
f 1012 1013 1014
f 1015 1016 1017
f 1018 1019 1020
f 1021 1022 1023
f 1024 1025 1026
f 1027 1028 1029
f 1030 1031 1032
f 1033 1034 1035
f 1036 1037 1038
f 1039 1040 1041
f 1042 1043 1044
f 1045 1046 1047
f 1048 1049 1050
f 1051 1052 1053
f 1054 1055 1056
f 1057 1058 1059
f 1060 1061 1062
f 1063 1064 1065
f 1066 1067 1068
f 1069 1070 1071
f 1072 1073 1074
f 1075 1076 1077
f 1078 1079 1080
f 1081 1082 1083
f 1084 1085 1086
f 1087 1088 1089
f 1090 1091 1092
f 1093 1094 1095
f 1096 1097 1098
f 1099 1100 1101
f 1102 1103 1104
f 1105 1106 1107
f 1108 1109 1110
f 1111 1112 1113
f 1114 1115 1116
f 1117 1118 1119
f 1120 1121 1122
f 1123 1124 1125
f 1126 1127 1128
f 1129 1130 1131
f 1132 1133 1134
f 1135 1136 1137
f 1138 1139 1140
f 1141 1142 1143
f 1144 1145 1146
f 1147 1148 1149
f 1150 1151 1152
f 1153 1154 1155
f 1156 1157 1158
f 1159 1160 1161
f 1162 1163 1164
f 1165 1166 1167
f 1168 1169 1170
f 1171 1172 1173
f 1174 1175 1176
f 1177 1178 1179
f 1180 1181 1182
f 1183 1184 1185
f 1186 1187 1188
f 1189 1190 1191
f 1192 1193 1194
f 1195 1196 1197
f 1198 1199 1200
f 1201 1202 1203
f 1204 1205 1206
f 1207 1208 1209
f 1210 1211 1212
f 1213 1214 1215
f 1216 1217 1218
f 1219 1220 1221
f 1222 1223 1224
f 1225 1226 1227
f 1228 1229 1230
f 1231 1232 1233
f 1234 1235 1236
f 1237 1238 1239
f 1240 1241 1242
f 1243 1244 1245
f 1246 1247 1248
f 1249 1250 1251
f 1252 1253 1254
f 1255 1256 1257
f 1258 1259 1260
f 1261 1262 1263
f 1264 1265 1266
f 1267 1268 1269
f 1270 1271 1272
f 1273 1274 1275
f 1276 1277 1278
f 1279 1280 1281
f 1282 1283 1284
f 1285 1286 1287
f 1288 1289 1290
f 1291 1292 1293
f 1294 1295 1296
f 1297 1298 1299
f 1300 1301 1302
f 1303 1304 1305
f 1306 1307 1308
f 1309 1310 1311
f 1312 1313 1314
f 1315 1316 1317
f 1318 1319 1320
f 1321 1322 1323
f 1324 1325 1326
f 1327 1328 1329
f 1330 1331 1332
f 1333 1334 1335
f 1336 1337 1338
f 1339 1340 1341
f 1342 1343 1344
f 1345 1346 1347
f 1348 1349 1350
f 1351 1352 1353
f 1354 1355 1356
f 1357 1358 1359
f 1360 1361 1362
f 1363 1364 1365
f 1366 1367 1368
f 1369 1370 1371
f 1372 1373 1374
f 1375 1376 1377
f 1378 1379 1380
f 1381 1382 1383
f 1384 1385 1386
f 1387 1388 1389
f 1390 1391 1392
f 1393 1394 1395
f 1396 1397 1398
f 1399 1400 1401
f 1402 1403 1404
f 1405 1406 1407
f 1408 1409 1410
f 1411 1412 1413
f 1414 1415 1416
f 1417 1418 1419
f 1420 1421 1422
f 1423 1424 1425
f 1426 1427 1428
f 1429 1430 1431
f 1432 1433 1434
f 1435 1436 1437
f 1438 1439 1440
f 1441 1442 1443
f 1444 1445 1446
f 1447 1448 1449
f 1450 1451 1452
f 1453 1454 1455
f 1456 1457 1458
f 1459 1460 1461
f 1462 1463 1464
f 1465 1466 1467
f 1468 1469 1470
f 1471 1472 1473
f 1474 1475 1476
f 1477 1478 1479
f 1480 1481 1482
f 1483 1484 1485
f 1486 1487 1488
f 1489 1490 1491
f 1492 1493 1494
f 1495 1496 1497
f 1498 1499 1500
f 1501 1502 1503
f 1504 1505 1506
f 1507 1508 1509
f 1510 1511 1512
f 1513 1514 1515
f 1516 1517 1518
f 1519 1520 1521
f 1522 1523 1524
f 1525 1526 1527
f 1528 1529 1530
f 1531 1532 1533
f 1534 1535 1536
f 1537 1538 1539
f 1540 1541 1542
f 1543 1544 1545
f 1546 1547 1548
f 1549 1550 1551
f 1552 1553 1554
f 1555 1556 1557
f 1558 1559 1560
f 1561 1562 1563
f 1564 1565 1566
f 1567 1568 1569
f 1570 1571 1572
f 1573 1574 1575
f 1576 1577 1578
f 1579 1580 1581
f 1582 1583 1584
f 1585 1586 1587
f 1588 1589 1590
f 1591 1592 1593
f 1594 1595 1596
f 1597 1598 1599
f 1600 1601 1602
f 1603 1604 1605
f 1606 1607 1608
f 1609 1610 1611
f 1612 1613 1614
f 1615 1616 1617
f 1618 1619 1620
f 1621 1622 1623
f 1624 1625 1626
f 1627 1628 1629
f 1630 1631 1632
f 1633 1634 1635
f 1636 1637 1638
f 1639 1640 1641
f 1642 1643 1644
f 1645 1646 1647
f 1648 1649 1650
f 1651 1652 1653
f 1654 1655 1656
f 1657 1658 1659
f 1660 1661 1662
f 1663 1664 1665
f 1666 1667 1668
f 1669 1670 1671
f 1672 1673 1674
f 1675 1676 1677
f 1678 1679 1680
f 1681 1682 1683
f 1684 1685 1686
f 1687 1688 1689
f 1690 1691 1692
f 1693 1694 1695
f 1696 1697 1698
f 1699 1700 1701
f 1702 1703 1704
f 1705 1706 1707
f 1708 1709 1710
f 1711 1712 1713
f 1714 1715 1716
f 1717 1718 1719
f 1720 1721 1722
f 1723 1724 1725
f 1726 1727 1728
f 1729 1730 1731
f 1732 1733 1734
