# Exported from USD: /khi_rs025n/left_outer_knuckle/collisions
mtllib collisions_4.mtl

g collisions
v 0.00960389 -0.01100734 -0.00942203
v 0.00960388 -0.04295252 0.03503563
v 0.00953440 -0.01191982 -0.00868688
v 0.00960388 -0.03604541 0.04134523
v 0.00954149 0.00614807 0.01151819
v 0.00934829 -0.03639032 0.04220250
v -0.01038475 0.00370518 0.01152848
v -0.01039612 0.00232394 0.01266702
v -0.01037303 0.00489586 0.01102756
v -0.01038475 0.00370518 0.01152848
v -0.01037303 0.00489586 0.01102756
v -0.01039611 -0.00435903 -0.01330062
v -0.01038475 0.00370518 0.01152848
v -0.01039611 -0.00435903 -0.01330062
v -0.01039612 0.00232394 0.01266702
v 0.00954149 0.00614807 0.01151819
v 0.00891545 0.00576738 0.01237008
v 0.00934829 -0.03639032 0.04220250
v 0.00777898 0.00589003 0.01231347
v 0.00934829 -0.03639032 0.04220250
v 0.00891545 0.00576738 0.01237008
v 0.00954149 0.00614807 0.01151819
v 0.00645113 0.00651182 0.01174129
v 0.00891545 0.00576738 0.01237008
v 0.00891545 0.00576738 0.01237008
v 0.00645113 0.00651182 0.01174129
v 0.00777898 0.00589003 0.01231347
v 0.00867947 -0.00685318 -0.01311585
v 0.00523569 -0.00613849 -0.01346568
v 0.00919562 -0.00542067 -0.01377112
v 0.00820389 0.00848616 -0.00695884
v 0.00809891 0.00591937 -0.00927181
v 0.00804944 0.00767574 -0.00787810
v 0.00960388 -0.03604541 0.04134523
v 0.00960388 0.00506522 0.01211389
v 0.00954149 0.00614807 0.01151819
v 0.00954149 0.00614807 0.01151819
v 0.00960388 0.00506522 0.01211389
v 0.00960389 -0.00383031 -0.01266589
v 0.00953440 -0.01191982 -0.00868688
v 0.00887977 -0.01153327 -0.00927302
v 0.00895717 -0.01068474 -0.01024062
v -0.00948784 -0.04346058 0.03524074
v -0.00883230 -0.01180024 -0.00893049
v -0.00656635 -0.01186653 -0.00884376
v -0.01039612 -0.04411504 0.03818831
v -0.00977206 -0.04422790 0.03987639
v -0.01039612 -0.04320259 0.04103903
v -0.00977206 -0.04422790 0.03987639
v -0.00781373 -0.04408386 0.04025477
v -0.00935507 -0.04384466 0.04073727
v -0.00781373 -0.04408386 0.04025477
v -0.00977206 -0.04422790 0.03987639
v 0.00908453 -0.04414234 0.04011070
v -0.01039612 0.00232394 0.01266702
v -0.01039612 -0.03593720 0.04082541
v -0.01037303 0.00489586 0.01102756
v -0.01039611 -0.00435903 -0.01330062
v -0.00899611 0.00693901 -0.00847332
v -0.00882895 0.00489525 -0.00985099
v -0.00990756 -0.00497768 -0.01393712
v -0.01039611 -0.00542174 -0.01322307
v -0.01039611 -0.00435903 -0.01330062
v -0.00988869 -0.00766930 -0.01265580
v -0.01039611 -0.00542174 -0.01322307
v -0.00990756 -0.00497768 -0.01393712
v -0.01039611 -0.00542174 -0.01322307
v -0.00988869 -0.00766930 -0.01265580
v -0.01024396 -0.01094415 -0.00995190
v -0.01039611 -0.00962022 -0.01018588
v -0.01039611 -0.00542174 -0.01322307
v -0.01024396 -0.01094415 -0.00995190
v -0.01028897 -0.00302623 -0.01246040
v -0.01039611 -0.00435903 -0.01330062
v -0.01037303 0.00489586 0.01102756
v -0.01039611 -0.00435903 -0.01330062
v -0.01028897 -0.00302623 -0.01246040
v -0.00899611 0.00693901 -0.00847332
v 0.00808001 0.01047759 0.00335056
v 0.00820389 0.01066516 -0.00111478
v 0.00741936 0.01099851 0.00007757
v 0.00919562 -0.00542067 -0.01377112
v 0.00958356 -0.00787469 -0.01239520
v 0.00867947 -0.00685318 -0.01311585
v 0.00958356 -0.00787469 -0.01239520
v 0.00960389 -0.00467761 -0.01311561
v 0.00960389 -0.00852849 -0.01145202
v 0.00958356 -0.00787469 -0.01239520
v 0.00960389 -0.00852849 -0.01145202
v 0.00960389 -0.01100734 -0.00942203
v 0.00523569 -0.00613849 -0.01346568
v 0.00419837 -0.00580341 -0.01361418
v 0.00919562 -0.00542067 -0.01377112
v 0.00809891 0.00591937 -0.00927181
v 0.00777552 0.00675014 -0.00868383
v 0.00804944 0.00767574 -0.00787810
v 0.00960389 -0.00383031 -0.01266589
v 0.00820389 0.00979704 -0.00451946
v 0.00954149 0.00614807 0.01151819
v 0.00820389 0.00848616 -0.00695884
v 0.00820389 0.00979704 -0.00451946
v 0.00960389 -0.00383031 -0.01266589
v -0.00843850 0.00858431 -0.00687696
v -0.00809623 0.00786184 -0.00769192
v -0.00899611 0.00693901 -0.00847332
v 0.00804944 0.00767574 -0.00787810
v 0.00719058 0.00830751 -0.00720977
v 0.00820389 0.00848616 -0.00695884
v -0.01028897 -0.00302623 -0.01246040
v -0.00899611 0.00779616 -0.00741793
v -0.00899611 0.00693901 -0.00847332
v 0.00741936 0.01099851 0.00007757
v 0.00730945 0.01088939 0.00154989
v 0.00808001 0.01047759 0.00335056
v 0.00895717 -0.01068474 -0.01024062
v 0.00844380 -0.01016794 -0.01075204
v 0.00868788 -0.00937430 -0.01145202
v -0.00656635 -0.01186653 -0.00884376
v -0.00272145 -0.01210901 -0.00850845
v -0.00948784 -0.04346058 0.03524074
v -0.00988869 -0.00766930 -0.01265580
v -0.00980761 -0.00943056 -0.01140467
v -0.01024396 -0.01094415 -0.00995190
v -0.00990756 -0.00497768 -0.01393712
v -0.00949394 -0.00595296 -0.01354878
v -0.00988869 -0.00766930 -0.01265580
v 0.00523569 -0.00613849 -0.01346568
v -0.00949394 -0.00595296 -0.01354878
v 0.00419837 -0.00580341 -0.01361418
v 0.00804748 -0.00770309 -0.01263553
v 0.00666064 -0.00744299 -0.01279192
v 0.00867947 -0.00685318 -0.01311585
v -0.01021292 -0.04396252 0.03608393
v -0.01034641 -0.01245323 -0.00786606
v -0.00948784 -0.04346058 0.03524074
v -0.00883230 -0.01180024 -0.00893049
v -0.01034641 -0.01245323 -0.00786606
v -0.01024396 -0.01094415 -0.00995190
v -0.01034641 -0.01245323 -0.00786606
v -0.00883230 -0.01180024 -0.00893049
v -0.00948784 -0.04346058 0.03524074
v -0.01039611 -0.00962022 -0.01018588
v -0.01034641 -0.01245323 -0.00786606
v -0.01039612 -0.04185849 0.03442936
v -0.01024396 -0.01094415 -0.00995190
v -0.01034641 -0.01245323 -0.00786606
v -0.01039611 -0.00962022 -0.01018588
v -0.01039612 -0.04271634 0.03581586
v -0.01035646 -0.04420983 0.03721083
v -0.01039612 -0.04411504 0.03818831
v -0.01039612 -0.04185849 0.03442936
v -0.01035646 -0.04420983 0.03721083
v -0.01039612 -0.04271634 0.03581586
v -0.01035646 -0.04420983 0.03721083
v -0.01034641 -0.01245323 -0.00786606
v -0.01021292 -0.04396252 0.03608393
v -0.01034641 -0.01245323 -0.00786606
v -0.01035646 -0.04420983 0.03721083
v -0.01039612 -0.04185849 0.03442936
v 0.00917319 -0.04444908 0.03763594
v 0.00848904 -0.04399219 0.03610560
v 0.00960388 -0.04389742 0.03677069
v 0.00848904 -0.04399219 0.03610560
v -0.00652536 -0.04384102 0.03581876
v 0.00728710 -0.04384413 0.03582417
v 0.00960388 -0.04389742 0.03677069
v 0.00939632 -0.04439314 0.03926003
v 0.00917319 -0.04444908 0.03763594
v 0.00939632 -0.04439314 0.03926003
v 0.00908453 -0.04414234 0.04011070
v -0.00977206 -0.04422790 0.03987639
v 0.00645113 0.00651182 0.01174129
v -0.00714724 0.00640811 0.01202542
v 0.00777898 0.00589003 0.01231347
v -0.00962315 0.00648837 0.01189072
v -0.00714724 0.00640811 0.01202542
v 0.00645113 0.00651182 0.01174129
v 0.00777898 0.00589003 0.01231347
v -0.00714724 0.00640811 0.01202542
v 0.00934829 -0.03639032 0.04220250
v -0.01010904 0.00510539 0.01260652
v -0.00943849 -0.03694675 0.04258303
v -0.00962315 0.00648837 0.01189072
v -0.01037303 0.00489586 0.01102756
v -0.01010904 0.00510539 0.01260652
v -0.00962315 0.00648837 0.01189072
v -0.01039612 -0.03593720 0.04082541
v -0.01010904 0.00510539 0.01260652
v -0.01037303 0.00489586 0.01102756
v -0.01039612 -0.04320259 0.04103903
v -0.00970219 -0.04314958 0.04168679
v -0.01017195 -0.04134777 0.04292257
v -0.00977206 -0.04422790 0.03987639
v -0.00970219 -0.04314958 0.04168679
v -0.01039612 -0.04320259 0.04103903
v -0.00970219 -0.04314958 0.04168679
v -0.00977206 -0.04422790 0.03987639
v -0.00935507 -0.04384466 0.04073727
v -0.00872814 0.00621139 -0.00907823
v -0.00882895 0.00489525 -0.00985099
v -0.00899611 0.00693901 -0.00847332
v 0.00932486 -0.03798575 0.04304777
v 0.00960388 -0.03604541 0.04134523
v 0.00934829 -0.03639032 0.04220250
v 0.00820389 0.01066516 -0.00111478
v 0.00820389 0.01030130 0.00242069
v 0.00954149 0.00614807 0.01151819
v 0.00820389 0.01030130 0.00242069
v 0.00808001 0.01047759 0.00335056
v 0.00954149 0.00614807 0.01151819
v 0.00808001 0.01047759 0.00335056
v 0.00820389 0.01030130 0.00242069
v 0.00820389 0.01066516 -0.00111478
v 0.00895717 -0.01068474 -0.01024062
v 0.00868788 -0.00937430 -0.01145202
v 0.00956359 -0.00998498 -0.01081435
v 0.00895717 -0.01068474 -0.01024062
v 0.00956359 -0.00998498 -0.01081435
v 0.00953440 -0.01191982 -0.00868688
v 0.00956359 -0.00998498 -0.01081435
v 0.00960389 -0.01100734 -0.00942203
v 0.00953440 -0.01191982 -0.00868688
v 0.00956359 -0.00998498 -0.01081435
v 0.00958356 -0.00787469 -0.01239520
v 0.00960389 -0.01100734 -0.00942203
v 0.00958356 -0.00787469 -0.01239520
v 0.00919562 -0.00542067 -0.01377112
v 0.00949188 -0.00400150 -0.01368173
v 0.00958356 -0.00787469 -0.01239520
v 0.00949188 -0.00400150 -0.01368173
v 0.00960389 -0.00467761 -0.01311561
v 0.00807682 0.00397622 -0.01025469
v 0.00949188 -0.00400150 -0.01368173
v 0.00768974 -0.00428648 -0.01393885
v 0.00809891 0.00591937 -0.00927181
v 0.00949188 -0.00400150 -0.01368173
v 0.00807682 0.00397622 -0.01025469
v 0.00960389 -0.00467761 -0.01311561
v 0.00949188 -0.00400150 -0.01368173
v 0.00960389 -0.00383031 -0.01266589
v 0.00949188 -0.00400150 -0.01368173
v 0.00820389 0.00848616 -0.00695884
v 0.00960389 -0.00383031 -0.01266589
v 0.00949188 -0.00400150 -0.01368173
v 0.00809891 0.00591937 -0.00927181
v 0.00820389 0.00848616 -0.00695884
v 0.00804748 -0.00770309 -0.01263553
v 0.00867947 -0.00685318 -0.01311585
v 0.00881174 -0.00851082 -0.01210627
v 0.00958356 -0.00787469 -0.01239520
v 0.00881174 -0.00851082 -0.01210627
v 0.00867947 -0.00685318 -0.01311585
v 0.00881174 -0.00851082 -0.01210627
v 0.00956359 -0.00998498 -0.01081435
v 0.00868788 -0.00937430 -0.01145202
v 0.00956359 -0.00998498 -0.01081435
v 0.00881174 -0.00851082 -0.01210627
v 0.00958356 -0.00787469 -0.01239520
v 0.00585354 -0.00779314 -0.01258134
v 0.00881174 -0.00851082 -0.01210627
v 0.00377695 -0.00806939 -0.01240502
v 0.00585354 -0.00779314 -0.01258134
v 0.00804748 -0.00770309 -0.01263553
v 0.00881174 -0.00851082 -0.01210627
v 0.00820389 0.01066516 -0.00111478
v 0.00954149 0.00614807 0.01151819
v 0.00820389 0.01033098 -0.00289184
v 0.00820389 0.00979704 -0.00451946
v 0.00820389 0.01033098 -0.00289184
v 0.00954149 0.00614807 0.01151819
v 0.00820389 0.00848616 -0.00695884
v 0.00764551 0.00955661 -0.00544508
v 0.00820389 0.00979704 -0.00451946
v -0.00376807 0.01098967 0.00046460
v -0.00261256 0.01099714 0.00023909
v -0.00631619 0.01099945 -0.00008402
v 0.00730945 0.01088939 0.00154989
v 0.00724086 0.01066518 0.00269000
v 0.00808001 0.01047759 0.00335056
v 0.00741936 0.01099851 0.00007757
v 0.00633715 0.01095489 0.00099159
v 0.00730945 0.01088939 0.00154989
v -0.00135683 -0.01060640 -0.01032135
v -0.00442877 -0.01056578 -0.01036320
v 0.00895717 -0.01068474 -0.01024062
v 0.00887977 -0.01153327 -0.00927302
v 0.00801848 -0.01119620 -0.00967645
v 0.00895717 -0.01068474 -0.01024062
v 0.00790634 -0.01190236 -0.00879421
v 0.00880474 -0.04349955 0.03529425
v 0.00595124 -0.01196626 -0.00870585
v 0.00790634 -0.01190236 -0.00879421
v 0.00887977 -0.01153327 -0.00927302
v 0.00880474 -0.04349955 0.03529425
v 0.00595124 -0.01196626 -0.00870585
v 0.00880474 -0.04349955 0.03529425
v 0.00176606 -0.01210249 -0.00851747
v 0.00880474 -0.04349955 0.03529425
v 0.00848904 -0.04399219 0.03610560
v 0.00728710 -0.04384413 0.03582417
v 0.00176606 -0.01210249 -0.00851747
v 0.00880474 -0.04349955 0.03529425
v -0.00272145 -0.01210901 -0.00850845
v -0.00272145 -0.01210901 -0.00850845
v 0.00880474 -0.04349955 0.03529425
v -0.00948784 -0.04346058 0.03524074
v 0.00953440 -0.01191982 -0.00868688
v 0.00880474 -0.04349955 0.03529425
v 0.00887977 -0.01153327 -0.00927302
v 0.00960388 -0.04295252 0.03503563
v 0.00880474 -0.04349955 0.03529425
v 0.00953440 -0.01191982 -0.00868688
v 0.00960388 -0.04389742 0.03677069
v 0.00880474 -0.04349955 0.03529425
v 0.00960388 -0.04295252 0.03503563
v 0.00848904 -0.04399219 0.03610560
v 0.00880474 -0.04349955 0.03529425
v 0.00960388 -0.04389742 0.03677069
v -0.00980761 -0.00943056 -0.01140467
v -0.00980387 -0.01018209 -0.01073835
v -0.01024396 -0.01094415 -0.00995190
v -0.00990756 -0.00497768 -0.01393712
v -0.00823235 -0.00573596 -0.01364178
v -0.00949394 -0.00595296 -0.01354878
v -0.00949394 -0.00595296 -0.01354878
v -0.00823235 -0.00573596 -0.01364178
v 0.00419837 -0.00580341 -0.01361418
v -0.00724140 -0.00762063 -0.01268578
v 0.00585354 -0.00779314 -0.01258134
v -0.00988869 -0.00766930 -0.01265580
v 0.00585354 -0.00779314 -0.01258134
v -0.00724140 -0.00762063 -0.01268578
v 0.00804748 -0.00770309 -0.01263553
v -0.01021292 -0.04396252 0.03608393
v -0.00924800 -0.04445878 0.03772706
v -0.01035646 -0.04420983 0.03721083
v -0.01039612 -0.04411504 0.03818831
v -0.00948786 -0.04445606 0.03885751
v -0.00977206 -0.04422790 0.03987639
v -0.01035646 -0.04420983 0.03721083
v -0.00948786 -0.04445606 0.03885751
v -0.01039612 -0.04411504 0.03818831
v -0.00924800 -0.04445878 0.03772706
v -0.00948786 -0.04445606 0.03885751
v -0.01035646 -0.04420983 0.03721083
v -0.00948786 -0.04445606 0.03885751
v -0.00924800 -0.04445878 0.03772706
v -0.00836028 -0.04448742 0.03845467
v 0.00939632 -0.04439314 0.03926003
v 0.00817653 -0.04448035 0.03797530
v 0.00917319 -0.04444908 0.03763594
v -0.00924800 -0.04445878 0.03772706
v 0.00817653 -0.04448035 0.03797530
v -0.00836028 -0.04448742 0.03845467
v -0.00924800 -0.04445878 0.03772706
v 0.00917319 -0.04444908 0.03763594
v 0.00817653 -0.04448035 0.03797530
v -0.00745989 -0.03683026 0.04251372
v -0.00943849 -0.03694675 0.04258303
v 0.00618793 -0.03687956 0.04254338
v -0.00745989 -0.03683026 0.04251372
v -0.00714724 0.00640811 0.01202542
v -0.00943849 -0.03694675 0.04258303
v -0.00943849 -0.03694675 0.04258303
v -0.00887523 0.00603872 0.01224005
v -0.00962315 0.00648837 0.01189072
v -0.00887523 0.00603872 0.01224005
v -0.00714724 0.00640811 0.01202542
v -0.00962315 0.00648837 0.01189072
v -0.00714724 0.00640811 0.01202542
v -0.00887523 0.00603872 0.01224005
v -0.00943849 -0.03694675 0.04258303
v -0.00860962 0.01036994 0.00366814
v -0.00899612 0.00987156 0.00452291
v -0.00962315 0.00648837 0.01189072
v 0.00645113 0.00651182 0.01174129
v 0.00771725 0.01004578 0.00448055
v -0.00962315 0.00648837 0.01189072
v -0.01017195 -0.04134777 0.04292257
v -0.01039612 -0.04151608 0.04185165
v -0.01039612 -0.04320259 0.04103903
v -0.01025462 -0.03995086 0.04319952
v -0.01039612 -0.04151608 0.04185165
v -0.01017195 -0.04134777 0.04292257
v -0.01017195 -0.04134777 0.04292257
v -0.00951601 -0.04068064 0.04313595
v -0.01025462 -0.03995086 0.04319952
v -0.00970219 -0.04314958 0.04168679
v -0.00974289 -0.04217421 0.04249784
v -0.01017195 -0.04134777 0.04292257
v 0.00777552 0.00675014 -0.00868383
v 0.00809891 0.00591937 -0.00927181
v 0.00486936 0.00625441 -0.00904844
v -0.00882895 0.00489525 -0.00985099
v 0.00375396 0.00517972 -0.00970377
v 0.00474632 0.00483404 -0.00988071
v -0.00872814 0.00621139 -0.00907823
v -0.00806989 0.00544355 -0.00955728
v -0.00882895 0.00489525 -0.00985099
v -0.00696755 0.00450556 -0.01003488
v -0.00569400 -0.00443671 -0.01405516
v -0.00882895 0.00489525 -0.00985099
v -0.00569400 -0.00443671 -0.01405516
v -0.00909751 -0.00434263 -0.01398415
v -0.00882895 0.00489525 -0.00985099
v -0.00677473 -0.00472737 -0.01402316
v 0.00480911 -0.00499206 -0.01393231
v -0.00990756 -0.00497768 -0.01393712
v 0.00934829 -0.03639032 0.04220250
v 0.00883291 -0.03716612 0.04270545
v 0.00932486 -0.03798575 0.04304777
v 0.00807682 0.00397622 -0.01025469
v 0.00734592 0.00482497 -0.00988457
v 0.00809891 0.00591937 -0.00927181
v 0.00375396 0.00517972 -0.00970377
v 0.00734592 0.00482497 -0.00988457
v 0.00474632 0.00483404 -0.00988071
v 0.00847057 -0.00483437 -0.01398637
v 0.00949188 -0.00400150 -0.01368173
v 0.00919562 -0.00542067 -0.01377112
v 0.00949188 -0.00400150 -0.01368173
v 0.00847057 -0.00483437 -0.01398637
v 0.00768974 -0.00428648 -0.01393885
v 0.00751494 -0.00524741 -0.01383676
v 0.00847057 -0.00483437 -0.01398637
v 0.00919562 -0.00542067 -0.01377112
v 0.00847057 -0.00483437 -0.01398637
v 0.00751494 -0.00524741 -0.01383676
v 0.00480911 -0.00499206 -0.01393231
v 0.00680394 -0.04171423 0.04275744
v 0.00593341 -0.04221413 0.04247227
v 0.00899156 -0.04166825 0.04278049
v 0.00762621 -0.04382720 0.04076717
v 0.00896421 -0.04369993 0.04097730
v -0.00935507 -0.04384466 0.04073727
v 0.00896421 -0.04369993 0.04097730
v 0.00762621 -0.04382720 0.04076717
v 0.00908453 -0.04414234 0.04011070
v -0.00781373 -0.04408386 0.04025477
v 0.00762621 -0.04382720 0.04076717
v -0.00935507 -0.04384466 0.04073727
v 0.00908453 -0.04414234 0.04011070
v 0.00762621 -0.04382720 0.04076717
v -0.00781373 -0.04408386 0.04025477
v 0.00795345 -0.04320763 0.04162305
v 0.00663478 -0.04341738 0.04137519
v 0.00896421 -0.04369993 0.04097730
v 0.00820389 0.01066516 -0.00111478
v 0.00797057 0.01080609 -0.00205780
v 0.00741936 0.01099851 0.00007757
v 0.00820389 0.01033098 -0.00289184
v 0.00797057 0.01080609 -0.00205780
v 0.00820389 0.01066516 -0.00111478
v 0.00820389 0.00979704 -0.00451946
v 0.00797057 0.01080609 -0.00205780
v 0.00820389 0.01033098 -0.00289184
v -0.00899611 0.00693901 -0.00847332
v -0.00811889 0.00677383 -0.00866569
v -0.00872814 0.00621139 -0.00907823
v -0.00809623 0.00786184 -0.00769192
v -0.00811889 0.00677383 -0.00866569
v -0.00899611 0.00693901 -0.00847332
v -0.00843850 0.00858431 -0.00687696
v -0.00626292 0.00806901 -0.00747566
v -0.00809623 0.00786184 -0.00769192
v -0.00377176 0.00820041 -0.00733162
v -0.00626292 0.00806901 -0.00747566
v -0.00843850 0.00858431 -0.00687696
v -0.00631619 0.01099945 -0.00008402
v -0.00031138 0.01099893 0.00011083
v 0.00741936 0.01099851 0.00007757
v -0.00261256 0.01099714 0.00023909
v -0.00031138 0.01099893 0.00011083
v -0.00631619 0.01099945 -0.00008402
v -0.00031138 0.01099893 0.00011083
v 0.00361985 0.01099864 0.00013971
v 0.00741936 0.01099851 0.00007757
v 0.00361985 0.01099864 0.00013971
v -0.00031138 0.01099893 0.00011083
v -0.00261256 0.01099714 0.00023909
v -0.00683317 0.01089245 0.00153094
v -0.00349433 0.01090832 0.00141580
v -0.00795277 0.01091640 0.00134718
v -0.00795277 0.01091640 0.00134718
v -0.00596502 0.01095011 0.00104650
v -0.00631619 0.01099945 -0.00008402
v -0.00376807 0.01098967 0.00046460
v -0.00631619 0.01099945 -0.00008402
v -0.00596502 0.01095011 0.00104650
v 0.00895717 -0.01068474 -0.01024062
v 0.00721452 -0.01057757 -0.01034998
v 0.00844380 -0.01016794 -0.01075204
v 0.00404586 -0.01053492 -0.01039432
v 0.00721452 -0.01057757 -0.01034998
v 0.00895717 -0.01068474 -0.01024062
v 0.00844380 -0.01016794 -0.01075204
v 0.00721452 -0.01057757 -0.01034998
v 0.00404586 -0.01053492 -0.01039432
v -0.00883230 -0.01180024 -0.00893049
v 0.00271111 -0.01177191 -0.00896723
v -0.00656635 -0.01186653 -0.00884376
v 0.00790634 -0.01190236 -0.00879421
v -0.00656635 -0.01186653 -0.00884376
v 0.00271111 -0.01177191 -0.00896723
v 0.00271111 -0.01177191 -0.00896723
v 0.00453056 -0.01174181 -0.00900627
v 0.00790634 -0.01190236 -0.00879421
v 0.00887977 -0.01153327 -0.00927302
v 0.00667373 -0.01159934 -0.00919106
v -0.00064361 -0.01145551 -0.00936772
v -0.00064361 -0.01145551 -0.00936772
v 0.00667373 -0.01159934 -0.00919106
v -0.00781597 -0.01171855 -0.00903644
v 0.00790634 -0.01190236 -0.00879421
v 0.00667373 -0.01159934 -0.00919106
v 0.00887977 -0.01153327 -0.00927302
v 0.00453056 -0.01174181 -0.00900627
v 0.00667373 -0.01159934 -0.00919106
v 0.00790634 -0.01190236 -0.00879421
v 0.00880474 -0.04349955 0.03529425
v -0.00774007 -0.04365286 0.03551198
v -0.00948784 -0.04346058 0.03524074
v -0.00948784 -0.04346058 0.03524074
v -0.00774007 -0.04365286 0.03551198
v -0.01021292 -0.04396252 0.03608393
v -0.00774007 -0.04365286 0.03551198
v -0.00652536 -0.04384102 0.03581876
v -0.01021292 -0.04396252 0.03608393
v -0.00652536 -0.04384102 0.03581876
v -0.00774007 -0.04365286 0.03551198
v 0.00728710 -0.04384413 0.03582417
v 0.00728710 -0.04384413 0.03582417
v -0.00774007 -0.04365286 0.03551198
v 0.00880474 -0.04349955 0.03529425
v -0.00980387 -0.01018209 -0.01073835
v -0.00863322 -0.01047881 -0.01044965
v -0.01024396 -0.01094415 -0.00995190
v 0.00404586 -0.01053492 -0.01039432
v -0.00863322 -0.01047881 -0.01044965
v 0.00844380 -0.01016794 -0.01075204
v -0.00863322 -0.01047881 -0.01044965
v -0.00980387 -0.01018209 -0.01073835
v 0.00844380 -0.01016794 -0.01075204
v 0.00844380 -0.01016794 -0.01075204
v 0.00628585 -0.00988294 -0.01101531
v 0.00868788 -0.00937430 -0.01145202
v 0.00868788 -0.00937430 -0.01145202
v 0.00628585 -0.00988294 -0.01101531
v 0.00374287 -0.00976339 -0.01112043
v 0.00867947 -0.00685318 -0.01311585
v 0.00618882 -0.00654184 -0.01327432
v 0.00523569 -0.00613849 -0.01346568
v -0.00949394 -0.00595296 -0.01354878
v -0.00946653 -0.00685983 -0.01311235
v -0.00988869 -0.00766930 -0.01265580
v -0.00715148 -0.00673721 -0.01317655
v -0.00946653 -0.00685983 -0.01311235
v -0.00949394 -0.00595296 -0.01354878
v -0.00506082 -0.00519681 -0.01385585
v -0.00823235 -0.00573596 -0.01364178
v -0.00990756 -0.00497768 -0.01393712
v -0.00823235 -0.00573596 -0.01364178
v -0.00506082 -0.00519681 -0.01385585
v 0.00919562 -0.00542067 -0.01377112
v 0.00919562 -0.00542067 -0.01377112
v -0.00506082 -0.00519681 -0.01385585
v 0.00751494 -0.00524741 -0.01383676
v 0.00480911 -0.00499206 -0.01393231
v -0.00506082 -0.00519681 -0.01385585
v -0.00990756 -0.00497768 -0.01393712
v 0.00751494 -0.00524741 -0.01383676
v -0.00506082 -0.00519681 -0.01385585
v 0.00480911 -0.00499206 -0.01393231
v 0.00419837 -0.00580341 -0.01361418
v 0.00619683 -0.00552478 -0.01372896
v 0.00919562 -0.00542067 -0.01377112
v 0.00919562 -0.00542067 -0.01377112
v 0.00619683 -0.00552478 -0.01372896
v -0.00823235 -0.00573596 -0.01364178
v -0.00823235 -0.00573596 -0.01364178
v 0.00619683 -0.00552478 -0.01372896
v 0.00419837 -0.00580341 -0.01361418
v 0.00804748 -0.00770309 -0.01263553
v 0.00484615 -0.00750873 -0.01275251
v 0.00666064 -0.00744299 -0.01279192
v -0.00724140 -0.00762063 -0.01268578
v 0.00484615 -0.00750873 -0.01275251
v 0.00804748 -0.00770309 -0.01263553
v 0.00484615 -0.00750873 -0.01275251
v -0.00724140 -0.00762063 -0.01268578
v 0.00666064 -0.00744299 -0.01279192
v -0.00977206 -0.04422790 0.03987639
v -0.00853081 -0.04435468 0.03943739
v 0.00939632 -0.04439314 0.03926003
v -0.00948786 -0.04445606 0.03885751
v -0.00853081 -0.04435468 0.03943739
v -0.00977206 -0.04422790 0.03987639
v 0.00817653 -0.04448035 0.03797530
v 0.00619062 -0.04445460 0.03887088
v -0.00836028 -0.04448742 0.03845467
v 0.00939632 -0.04439314 0.03926003
v 0.00619062 -0.04445460 0.03887088
v 0.00817653 -0.04448035 0.03797530
v -0.00836028 -0.04448742 0.03845467
v 0.00619062 -0.04445460 0.03887088
v -0.00948786 -0.04445606 0.03885751
v 0.00934829 -0.03639032 0.04220250
v 0.00833929 -0.03644344 0.04224342
v 0.00618793 -0.03687956 0.04254338
v 0.00833929 -0.03644344 0.04224342
v -0.00745989 -0.03683026 0.04251372
v 0.00618793 -0.03687956 0.04254338
v -0.00714724 0.00640811 0.01202542
v 0.00833929 -0.03644344 0.04224342
v 0.00934829 -0.03639032 0.04220250
v -0.00745989 -0.03683026 0.04251372
v 0.00833929 -0.03644344 0.04224342
v -0.00714724 0.00640811 0.01202542
v -0.00026712 0.01083014 0.00191780
v -0.00683317 0.01089245 0.00153094
v -0.00481402 0.01077652 0.00220517
v -0.00707202 0.00993137 0.00472827
v -0.00798979 0.00978688 0.00501908
v -0.00962315 0.00648837 0.01189072
v -0.00962315 0.00648837 0.01189072
v -0.00798979 0.00978688 0.00501908
v -0.00860962 0.01036994 0.00366814
v -0.00860962 0.01036994 0.00366814
v -0.00798979 0.00978688 0.00501908
v -0.00707202 0.00993137 0.00472827
v -0.00962315 0.00648837 0.01189072
v 0.00260425 0.00989801 0.00479781
v -0.00707202 0.00993137 0.00472827
v 0.00954149 0.00614807 0.01151819
v 0.00812021 0.00942717 0.00566541
v 0.00645113 0.00651182 0.01174129
v 0.00812021 0.00942717 0.00566541
v 0.00771725 0.01004578 0.00448055
v 0.00645113 0.00651182 0.01174129
v 0.00808001 0.01047759 0.00335056
v 0.00812021 0.00942717 0.00566541
v 0.00954149 0.00614807 0.01151819
v 0.00771725 0.01004578 0.00448055
v 0.00812021 0.00942717 0.00566541
v 0.00808001 0.01047759 0.00335056
v 0.00808001 0.01047759 0.00335056
v 0.00706517 0.01031614 0.00381544
v 0.00771725 0.01004578 0.00448055
v -0.01010904 0.00510539 0.01260652
v -0.01032548 -0.03891752 0.04311680
v -0.00943849 -0.03694675 0.04258303
v -0.01039612 -0.03593720 0.04082541
v -0.01032548 -0.03891752 0.04311680
v -0.01010904 0.00510539 0.01260652
v -0.01032548 -0.03891752 0.04311680
v -0.01039612 -0.03593720 0.04082541
v -0.01039612 -0.03806819 0.04232742
v -0.01039612 -0.03988045 0.04225474
v -0.01032548 -0.03891752 0.04311680
v -0.01039612 -0.03806819 0.04232742
v -0.00920021 -0.03833386 0.04314388
v -0.00943849 -0.03694675 0.04258303
v -0.01032548 -0.03891752 0.04311680
v -0.00920021 -0.03833386 0.04314388
v -0.01032548 -0.03891752 0.04311680
v -0.01025462 -0.03995086 0.04319952
v -0.01039612 -0.04151608 0.04185165
v -0.01032548 -0.03891752 0.04311680
v -0.01039612 -0.03988045 0.04225474
v -0.01032548 -0.03891752 0.04311680
v -0.01039612 -0.04151608 0.04185165
v -0.01025462 -0.03995086 0.04319952
v -0.00920021 -0.03833386 0.04314388
v -0.00760625 -0.03770049 0.04294755
v -0.00943849 -0.03694675 0.04258303
v -0.00760625 -0.03770049 0.04294755
v 0.00883291 -0.03716612 0.04270545
v -0.00943849 -0.03694675 0.04258303
v 0.00883291 -0.03716612 0.04270545
v -0.00760625 -0.03770049 0.04294755
v 0.00932486 -0.03798575 0.04304777
v -0.00951601 -0.04068064 0.04313595
v -0.00791934 -0.04099812 0.04304644
v 0.00822320 -0.04069012 0.04313349
v -0.00791934 -0.04099812 0.04304644
v -0.00951601 -0.04068064 0.04313595
v -0.01017195 -0.04134777 0.04292257
v 0.00822320 -0.04069012 0.04313349
v -0.00791934 -0.04099812 0.04304644
v 0.00899156 -0.04166825 0.04278049
v 0.00899156 -0.04166825 0.04278049
v -0.00791934 -0.04099812 0.04304644
v -0.01017195 -0.04134777 0.04292257
v 0.00899156 -0.04166825 0.04278049
v 0.00894277 -0.03985158 0.04326759
v 0.00822320 -0.04069012 0.04313349
v 0.00638577 -0.03853622 0.04318871
v 0.00932486 -0.03798575 0.04304777
v 0.00830362 -0.03806781 0.04307300
v -0.00920021 -0.03833386 0.04314388
v 0.00638577 -0.03853622 0.04318871
v 0.00830362 -0.03806781 0.04307300
v 0.00932486 -0.03798575 0.04304777
v 0.00638577 -0.03853622 0.04318871
v 0.00894277 -0.03985158 0.04326759
v 0.00894277 -0.03985158 0.04326759
v 0.00638577 -0.03853622 0.04318871
v 0.00674116 -0.03945624 0.04327894
v 0.00638577 -0.03853622 0.04318871
v -0.00640347 -0.03899084 0.04325437
v 0.00674116 -0.03945624 0.04327894
v -0.00974289 -0.04217421 0.04249784
v -0.00866516 -0.04161598 0.04280669
v -0.01017195 -0.04134777 0.04292257
v -0.01017195 -0.04134777 0.04292257
v -0.00866516 -0.04161598 0.04280669
v 0.00899156 -0.04166825 0.04278049
v 0.00899156 -0.04166825 0.04278049
v -0.00866516 -0.04161598 0.04280669
v 0.00680394 -0.04171423 0.04275744
v -0.00880253 -0.04260479 0.04219070
v -0.00974289 -0.04217421 0.04249784
v -0.00970219 -0.04314958 0.04168679
v 0.00672098 -0.04264249 0.04216054
v -0.00880253 -0.04260479 0.04219070
v 0.00583617 -0.04296093 0.04187891
v 0.00486936 0.00625441 -0.00904844
v 0.00809891 0.00591937 -0.00927181
v 0.00199981 0.00613956 -0.00912709
v 0.00486936 0.00625441 -0.00904844
v 0.00199981 0.00613956 -0.00912709
v -0.00872814 0.00621139 -0.00907823
v -0.00806989 0.00544355 -0.00955728
v -0.00211333 0.00536521 -0.00960247
v -0.00882895 0.00489525 -0.00985099
v 0.00375396 0.00517972 -0.00970377
v -0.00211333 0.00536521 -0.00960247
v 0.00266178 0.00527972 -0.00964921
v 0.00474632 0.00483404 -0.00988071
v -0.00567214 0.00469285 -0.00994791
v -0.00882895 0.00489525 -0.00985099
v -0.00696755 0.00450556 -0.01003488
v -0.00882895 0.00489525 -0.00985099
v -0.00567214 0.00469285 -0.00994791
v -0.00890892 0.00409204 -0.01020940
v -0.00909751 -0.00434263 -0.01398415
v -0.00990756 -0.00497768 -0.01393712
v -0.00909751 -0.00434263 -0.01398415
v -0.00890892 0.00409204 -0.01020940
v -0.00882895 0.00489525 -0.00985099
v -0.01039611 -0.00435903 -0.01330062
v -0.00890892 0.00409204 -0.01020940
v -0.00990756 -0.00497768 -0.01393712
v -0.00882895 0.00489525 -0.00985099
v -0.00890892 0.00409204 -0.01020940
v -0.01039611 -0.00435903 -0.01330062
v -0.00909751 -0.00434263 -0.01398415
v -0.00569400 -0.00443671 -0.01405516
v -0.00791859 -0.00460879 -0.01406385
v -0.00909751 -0.00434263 -0.01398415
v -0.00791859 -0.00460879 -0.01406385
v -0.00990756 -0.00497768 -0.01393712
v -0.00791859 -0.00460879 -0.01406385
v -0.00677473 -0.00472737 -0.01402316
v -0.00990756 -0.00497768 -0.01393712
v -0.00677473 -0.00472737 -0.01402316
v -0.00791859 -0.00460879 -0.01406385
v 0.00480911 -0.00499206 -0.01393231
v -0.00791859 -0.00460879 -0.01406385
v 0.00847057 -0.00483437 -0.01398637
v 0.00480911 -0.00499206 -0.01393231
v 0.00618793 -0.03687956 0.04254338
v 0.00728831 -0.03699161 0.04260950
v 0.00934829 -0.03639032 0.04220250
v 0.00934829 -0.03639032 0.04220250
v 0.00728831 -0.03699161 0.04260950
v 0.00883291 -0.03716612 0.04270545
v -0.00943849 -0.03694675 0.04258303
v 0.00728831 -0.03699161 0.04260950
v 0.00618793 -0.03687956 0.04254338
v 0.00883291 -0.03716612 0.04270545
v 0.00728831 -0.03699161 0.04260950
v -0.00943849 -0.03694675 0.04258303
v 0.00734592 0.00482497 -0.00988457
v 0.00683357 0.00549908 -0.00952598
v 0.00809891 0.00591937 -0.00927181
v 0.00683357 0.00549908 -0.00952598
v 0.00734592 0.00482497 -0.00988457
v 0.00375396 0.00517972 -0.00970377
v 0.00809891 0.00591937 -0.00927181
v 0.00683357 0.00549908 -0.00952598
v 0.00561050 0.00576988 -0.00936425
v 0.00683357 0.00549908 -0.00952598
v 0.00375396 0.00517972 -0.00970377
v 0.00266178 0.00527972 -0.00964921
v -0.00211333 0.00536521 -0.00960247
v 0.00683357 0.00549908 -0.00952598
v 0.00266178 0.00527972 -0.00964921
v -0.00211333 0.00536521 -0.00960247
v -0.00806989 0.00544355 -0.00955728
v 0.00683357 0.00549908 -0.00952598
v 0.00679024 -0.00454661 -0.01407784
v 0.00807682 0.00397622 -0.01025469
v 0.00768974 -0.00428648 -0.01393885
v 0.00807682 0.00397622 -0.01025469
v 0.00679024 -0.00454661 -0.01407784
v 0.00734592 0.00482497 -0.00988457
v 0.00847057 -0.00483437 -0.01398637
v 0.00679024 -0.00454661 -0.01407784
v 0.00768974 -0.00428648 -0.01393885
v -0.00791859 -0.00460879 -0.01406385
v -0.00569400 -0.00443671 -0.01405516
v 0.00679024 -0.00454661 -0.01407784
v -0.00791859 -0.00460879 -0.01406385
v 0.00679024 -0.00454661 -0.01407784
v 0.00847057 -0.00483437 -0.01398637
v -0.00980761 -0.00943056 -0.01140467
v -0.00712026 -0.00929082 -0.01152002
v 0.00868788 -0.00937430 -0.01145202
v 0.00445358 -0.00887924 -0.01184003
v 0.00881174 -0.00851082 -0.01210627
v 0.00649703 -0.00905657 -0.01170409
v 0.00649703 -0.00905657 -0.01170409
v -0.00712026 -0.00929082 -0.01152002
v 0.00445358 -0.00887924 -0.01184003
v 0.00939632 -0.04439314 0.03926003
v 0.00960388 -0.04284300 0.04157929
v 0.00908453 -0.04414234 0.04011070
v 0.00960388 -0.04284300 0.04157929
v 0.00896421 -0.04369993 0.04097730
v 0.00908453 -0.04414234 0.04011070
v 0.00939632 -0.04439314 0.03926003
v 0.00960388 -0.04389742 0.03677069
v 0.00960388 -0.04284300 0.04157929
v 0.00769434 -0.04247855 0.04228903
v -0.00880253 -0.04260479 0.04219070
v 0.00672098 -0.04264249 0.04216054
v -0.00880253 -0.04260479 0.04219070
v 0.00769434 -0.04247855 0.04228903
v -0.00974289 -0.04217421 0.04249784
v 0.00896421 -0.04369993 0.04097730
v -0.00766056 -0.04357549 0.04116334
v -0.00935507 -0.04384466 0.04073727
v 0.00663478 -0.04341738 0.04137519
v -0.00766056 -0.04357549 0.04116334
v 0.00896421 -0.04369993 0.04097730
v -0.00970219 -0.04314958 0.04168679
v -0.00882747 -0.04332032 0.04149372
v 0.00795345 -0.04320763 0.04162305
v 0.00795345 -0.04320763 0.04162305
v -0.00882747 -0.04332032 0.04149372
v 0.00663478 -0.04341738 0.04137519
v 0.00663478 -0.04341738 0.04137519
v -0.00882747 -0.04332032 0.04149372
v -0.00766056 -0.04357549 0.04116334
v -0.00935507 -0.04384466 0.04073727
v -0.00882747 -0.04332032 0.04149372
v -0.00970219 -0.04314958 0.04168679
v -0.00766056 -0.04357549 0.04116334
v -0.00882747 -0.04332032 0.04149372
v -0.00935507 -0.04384466 0.04073727
v 0.00764551 0.00955661 -0.00544508
v 0.00721034 0.01014982 -0.00423996
v 0.00820389 0.00979704 -0.00451946
v 0.00797057 0.01080609 -0.00205780
v 0.00820389 0.00979704 -0.00451946
v 0.00721034 0.01014982 -0.00423996
v 0.00465286 0.00776178 -0.00779399
v -0.00142244 0.00767717 -0.00787708
v -0.00809623 0.00786184 -0.00769192
v -0.00142244 0.00767717 -0.00787708
v -0.00505158 0.00762185 -0.00793065
v -0.00809623 0.00786184 -0.00769192
v 0.00804944 0.00767574 -0.00787810
v -0.00142244 0.00767717 -0.00787708
v 0.00465286 0.00776178 -0.00779399
v -0.00505158 0.00762185 -0.00793065
v -0.00142244 0.00767717 -0.00787708
v 0.00804944 0.00767574 -0.00787810
v 0.00558518 0.00728141 -0.00824401
v 0.00215242 0.00748172 -0.00806252
v 0.00804944 0.00767574 -0.00787810
v 0.00215242 0.00748172 -0.00806252
v 0.00558518 0.00728141 -0.00824401
v -0.00389158 0.00740615 -0.00813281
v -0.00505158 0.00762185 -0.00793065
v 0.00804944 0.00767574 -0.00787810
v 0.00215242 0.00748172 -0.00806252
v -0.00505158 0.00762185 -0.00793065
v 0.00215242 0.00748172 -0.00806252
v -0.00389158 0.00740615 -0.00813281
v -0.00621183 0.00706940 -0.00842673
v -0.00505158 0.00762185 -0.00793065
v -0.00389158 0.00740615 -0.00813281
v -0.00505158 0.00762185 -0.00793065
v -0.00621183 0.00706940 -0.00842673
v -0.00809623 0.00786184 -0.00769192
v 0.00589285 0.00842848 -0.00706700
v -0.00509277 0.00855103 -0.00691881
v 0.00241094 0.00866823 -0.00677184
v -0.00828361 0.00911055 -0.00616209
v -0.00591654 0.00888414 -0.00648502
v -0.00843850 0.00858431 -0.00687696
v 0.00820389 0.00848616 -0.00695884
v 0.00766137 0.00896025 -0.00637994
v 0.00764551 0.00955661 -0.00544508
v 0.00719058 0.00830751 -0.00720977
v 0.00766137 0.00896025 -0.00637994
v 0.00820389 0.00848616 -0.00695884
v 0.00589285 0.00842848 -0.00706700
v 0.00766137 0.00896025 -0.00637994
v 0.00719058 0.00830751 -0.00720977
v -0.00238692 0.00796113 -0.00759010
v 0.00465286 0.00776178 -0.00779399
v -0.00809623 0.00786184 -0.00769192
v -0.00626292 0.00806901 -0.00747566
v -0.00238692 0.00796113 -0.00759010
v -0.00809623 0.00786184 -0.00769192
v -0.00377176 0.00820041 -0.00733162
v 0.00719058 0.00830751 -0.00720977
v 0.00317126 0.00810744 -0.00743399
v -0.00377176 0.00820041 -0.00733162
v 0.00317126 0.00810744 -0.00743399
v -0.00626292 0.00806901 -0.00747566
v 0.00317126 0.00810744 -0.00743399
v -0.00238692 0.00796113 -0.00759010
v -0.00626292 0.00806901 -0.00747566
v -0.00238692 0.00796113 -0.00759010
v 0.00317126 0.00810744 -0.00743399
v 0.00465286 0.00776178 -0.00779399
v 0.00804944 0.00767574 -0.00787810
v 0.00317126 0.00810744 -0.00743399
v 0.00719058 0.00830751 -0.00720977
v 0.00465286 0.00776178 -0.00779399
v 0.00317126 0.00810744 -0.00743399
v 0.00804944 0.00767574 -0.00787810
v -0.00683317 0.01089245 0.00153094
v 0.00112870 0.01087216 0.00166965
v 0.00730945 0.01088939 0.00154989
v -0.00026712 0.01083014 0.00191780
v 0.00112870 0.01087216 0.00166965
v -0.00683317 0.01089245 0.00153094
v 0.00730945 0.01088939 0.00154989
v 0.00629194 0.01077856 0.00219729
v 0.00724086 0.01066518 0.00269000
v 0.00633715 0.01095489 0.00099159
v 0.00523772 0.01091019 0.00140392
v 0.00730945 0.01088939 0.00154989
v 0.00523772 0.01091019 0.00140392
v -0.00683317 0.01089245 0.00153094
v 0.00730945 0.01088939 0.00154989
v -0.00683317 0.01089245 0.00153094
v 0.00523772 0.01091019 0.00140392
v -0.00349433 0.01090832 0.00141580
v 0.00741936 0.01099851 0.00007757
v 0.00575896 0.01099357 0.00036410
v 0.00633715 0.01095489 0.00099159
v 0.00472123 0.01098243 0.00062557
v 0.00633715 0.01095489 0.00099159
v 0.00575896 0.01099357 0.00036410
v 0.00361985 0.01099864 0.00013971
v 0.00575896 0.01099357 0.00036410
v 0.00741936 0.01099851 0.00007757
v 0.00575896 0.01099357 0.00036410
v 0.00361985 0.01099864 0.00013971
v -0.00261256 0.01099714 0.00023909
v -0.00376807 0.01098967 0.00046460
v 0.00575896 0.01099357 0.00036410
v -0.00261256 0.01099714 0.00023909
v 0.00472123 0.01098243 0.00062557
v 0.00575896 0.01099357 0.00036410
v -0.00376807 0.01098967 0.00046460
v -0.00596502 0.01095011 0.00104650
v 0.00054448 0.01098326 0.00060439
v -0.00376807 0.01098967 0.00046460
v 0.00472123 0.01098243 0.00062557
v -0.00376807 0.01098967 0.00046460
v 0.00054448 0.01098326 0.00060439
v 0.00243036 0.01097034 0.00079543
v -0.00596502 0.01095011 0.00104650
v 0.00633715 0.01095489 0.00099159
v 0.00472123 0.01098243 0.00062557
v 0.00243036 0.01097034 0.00079543
v 0.00633715 0.01095489 0.00099159
v -0.00596502 0.01095011 0.00104650
v 0.00243036 0.01097034 0.00079543
v 0.00054448 0.01098326 0.00060439
v 0.00054448 0.01098326 0.00060439
v 0.00243036 0.01097034 0.00079543
v 0.00472123 0.01098243 0.00062557
v 0.00475196 -0.01102634 -0.00987084
v 0.00269657 -0.01092105 -0.00998638
v 0.00895717 -0.01068474 -0.01024062
v 0.00801848 -0.01119620 -0.00967645
v 0.00632705 -0.01104732 -0.00984684
v 0.00895717 -0.01068474 -0.01024062
v 0.00475196 -0.01102634 -0.00987084
v 0.00895717 -0.01068474 -0.01024062
v 0.00632705 -0.01104732 -0.00984684
v -0.00781597 -0.01171855 -0.00903644
v -0.00883230 -0.01180024 -0.00893049
v -0.00830960 -0.01121431 -0.00965573
v -0.01024396 -0.01094415 -0.00995190
v -0.00830960 -0.01121431 -0.00965573
v -0.00883230 -0.01180024 -0.00893049
v -0.00863322 -0.01047881 -0.01044965
v -0.00772611 -0.01075778 -0.01016204
v -0.01024396 -0.01094415 -0.00995190
v -0.00863322 -0.01047881 -0.01044965
v -0.00036725 -0.01054468 -0.01038462
v -0.00442877 -0.01056578 -0.01036320
v 0.00404586 -0.01053492 -0.01039432
v -0.00036725 -0.01054468 -0.01038462
v -0.00863322 -0.01047881 -0.01044965
v -0.00442877 -0.01056578 -0.01036320
v -0.00036725 -0.01054468 -0.01038462
v 0.00895717 -0.01068474 -0.01024062
v -0.00036725 -0.01054468 -0.01038462
v 0.00404586 -0.01053492 -0.01039432
v 0.00895717 -0.01068474 -0.01024062
v -0.00980387 -0.01018209 -0.01073835
v 0.00519535 -0.01010516 -0.01081136
v 0.00844380 -0.01016794 -0.01075204
v 0.00844380 -0.01016794 -0.01075204
v 0.00519535 -0.01010516 -0.01081136
v 0.00628585 -0.00988294 -0.01101531
v -0.00896406 -0.00955394 -0.01130121
v -0.00980761 -0.00943056 -0.01140467
v 0.00868788 -0.00937430 -0.01145202
v 0.00374287 -0.00976339 -0.01112043
v -0.00896406 -0.00955394 -0.01130121
v 0.00868788 -0.00937430 -0.01145202
v -0.00980761 -0.00943056 -0.01140467
v -0.00896406 -0.00955394 -0.01130121
v -0.00980387 -0.01018209 -0.01073835
v -0.00793845 -0.00984725 -0.01104692
v -0.00980387 -0.01018209 -0.01073835
v -0.00896406 -0.00955394 -0.01130121
v 0.00628585 -0.00988294 -0.01101531
v -0.00540243 -0.00988444 -0.01101459
v 0.00374287 -0.00976339 -0.01112043
v 0.00867947 -0.00685318 -0.01311585
v 0.00722304 -0.00671841 -0.01318647
v 0.00618882 -0.00654184 -0.01327432
v 0.00618882 -0.00654184 -0.01327432
v 0.00722304 -0.00671841 -0.01318647
v -0.00715148 -0.00673721 -0.01317655
v -0.00528965 -0.00643118 -0.01332787
v -0.00715148 -0.00673721 -0.01317655
v -0.00949394 -0.00595296 -0.01354878
v -0.00528965 -0.00643118 -0.01332787
v 0.00618882 -0.00654184 -0.01327432
v -0.00715148 -0.00673721 -0.01317655
v 0.00618882 -0.00654184 -0.01327432
v -0.00528965 -0.00643118 -0.01332787
v 0.00523569 -0.00613849 -0.01346568
v -0.00946653 -0.00685983 -0.01311235
v -0.00804585 -0.00726077 -0.01289494
v -0.00988869 -0.00766930 -0.01265580
v -0.01021292 -0.04396252 0.03608393
v -0.00879872 -0.04410696 0.03636023
v -0.00924800 -0.04445878 0.03772706
v -0.00785252 -0.04427615 0.03683388
v -0.00924800 -0.04445878 0.03772706
v -0.00879872 -0.04410696 0.03636023
v -0.00879872 -0.04410696 0.03636023
v 0.00848904 -0.04399219 0.03610560
v 0.00645571 -0.04413201 0.03642304
v -0.00652536 -0.04384102 0.03581876
v -0.00879872 -0.04410696 0.03636023
v -0.01021292 -0.04396252 0.03608393
v 0.00848904 -0.04399219 0.03610560
v -0.00879872 -0.04410696 0.03636023
v -0.00652536 -0.04384102 0.03581876
v -0.00785252 -0.04427615 0.03683388
v 0.00785148 -0.04425073 0.03675495
v 0.00706141 -0.04441730 0.03743115
v 0.00706141 -0.04441730 0.03743115
v 0.00785148 -0.04425073 0.03675495
v 0.00917319 -0.04444908 0.03763594
v 0.00645571 -0.04413201 0.03642304
v 0.00785148 -0.04425073 0.03675495
v -0.00879872 -0.04410696 0.03636023
v -0.00879872 -0.04410696 0.03636023
v 0.00785148 -0.04425073 0.03675495
v -0.00785252 -0.04427615 0.03683388
v 0.00848904 -0.04399219 0.03610560
v 0.00785148 -0.04425073 0.03675495
v 0.00645571 -0.04413201 0.03642304
v 0.00917319 -0.04444908 0.03763594
v 0.00785148 -0.04425073 0.03675495
v 0.00848904 -0.04399219 0.03610560
v -0.00702584 -0.04443702 0.03755821
v -0.00785252 -0.04427615 0.03683388
v 0.00706141 -0.04441730 0.03743115
v -0.00785252 -0.04427615 0.03683388
v -0.00702584 -0.04443702 0.03755821
v -0.00924800 -0.04445878 0.03772706
v 0.00917319 -0.04444908 0.03763594
v -0.00702584 -0.04443702 0.03755821
v 0.00706141 -0.04441730 0.03743115
v -0.00924800 -0.04445878 0.03772706
v -0.00702584 -0.04443702 0.03755821
v 0.00917319 -0.04444908 0.03763594
v -0.00948786 -0.04445606 0.03885751
v -0.00712323 -0.04440979 0.03917372
v -0.00853081 -0.04435468 0.03943739
v 0.00619062 -0.04445460 0.03887088
v -0.00712323 -0.04440979 0.03917372
v -0.00948786 -0.04445606 0.03885751
v 0.00260425 0.00989801 0.00479781
v 0.00653538 0.01002060 0.00453532
v -0.00707202 0.00993137 0.00472827
v 0.00771725 0.01004578 0.00448055
v 0.00653538 0.01002060 0.00453532
v -0.00962315 0.00648837 0.01189072
v 0.00653538 0.01002060 0.00453532
v 0.00260425 0.00989801 0.00479781
v -0.00962315 0.00648837 0.01189072
v 0.00706517 0.01031614 0.00381544
v -0.00516562 0.01037660 0.00364998
v -0.00860962 0.01036994 0.00366814
v -0.00860962 0.01036994 0.00366814
v -0.00516562 0.01037660 0.00364998
v -0.00659518 0.01042445 0.00350827
v -0.00237392 0.01010950 0.00433501
v -0.00452060 0.01006412 0.00443929
v 0.00771725 0.01004578 0.00448055
v 0.00653538 0.01002060 0.00453532
v -0.00452060 0.01006412 0.00443929
v -0.00707202 0.00993137 0.00472827
v -0.00452060 0.01006412 0.00443929
v 0.00653538 0.01002060 0.00453532
v 0.00771725 0.01004578 0.00448055
v -0.00707202 0.00993137 0.00472827
v -0.00452060 0.01006412 0.00443929
v -0.00860962 0.01036994 0.00366814
v -0.00237392 0.01010950 0.00433501
v -0.00860962 0.01036994 0.00366814
v -0.00452060 0.01006412 0.00443929
v 0.00025681 0.01024571 0.00400379
v 0.00706517 0.01031614 0.00381544
v -0.00860962 0.01036994 0.00366814
v -0.00237392 0.01010950 0.00433501
v 0.00025681 0.01024571 0.00400379
v -0.00860962 0.01036994 0.00366814
v 0.00932486 -0.03798575 0.04304777
v 0.00722010 -0.03799622 0.04305127
v 0.00830362 -0.03806781 0.04307300
v -0.00760625 -0.03770049 0.04294755
v 0.00722010 -0.03799622 0.04305127
v 0.00932486 -0.03798575 0.04304777
v 0.00722010 -0.03799622 0.04305127
v -0.00920021 -0.03833386 0.04314388
v 0.00830362 -0.03806781 0.04307300
v 0.00722010 -0.03799622 0.04305127
v -0.00760625 -0.03770049 0.04294755
v -0.00920021 -0.03833386 0.04314388
v 0.00822320 -0.04069012 0.04313349
v 0.00657951 -0.04049978 0.04317621
v -0.00951601 -0.04068064 0.04313595
v 0.00894277 -0.03985158 0.04326759
v 0.00657951 -0.04049978 0.04317621
v 0.00822320 -0.04069012 0.04313349
v -0.00640347 -0.03899084 0.04325437
v -0.00734877 -0.03973255 0.04327325
v 0.00674116 -0.03945624 0.04327894
v -0.00866516 -0.04161598 0.04280669
v -0.00776021 -0.04213646 0.04252202
v 0.00680394 -0.04171423 0.04275744
v -0.00776021 -0.04213646 0.04252202
v -0.00866516 -0.04161598 0.04280669
v -0.00974289 -0.04217421 0.04249784
v 0.00680394 -0.04171423 0.04275744
v -0.00776021 -0.04213646 0.04252202
v 0.00593341 -0.04221413 0.04247227
v 0.00593341 -0.04221413 0.04247227
v -0.00776021 -0.04213646 0.04252202
v -0.00974289 -0.04217421 0.04249784
v 0.00795345 -0.04320763 0.04162305
v -0.00681688 -0.04315441 0.04168148
v -0.00970219 -0.04314958 0.04168679
v 0.00583617 -0.04296093 0.04187891
v -0.00681688 -0.04315441 0.04168148
v 0.00795345 -0.04320763 0.04162305
v -0.00970219 -0.04314958 0.04168679
v -0.00787433 -0.04302589 0.04181468
v -0.00880253 -0.04260479 0.04219070
v -0.00880253 -0.04260479 0.04219070
v -0.00787433 -0.04302589 0.04181468
v 0.00583617 -0.04296093 0.04187891
v -0.00681688 -0.04315441 0.04168148
v -0.00787433 -0.04302589 0.04181468
v -0.00970219 -0.04314958 0.04168679
v 0.00583617 -0.04296093 0.04187891
v -0.00787433 -0.04302589 0.04181468
v -0.00681688 -0.04315441 0.04168148
v 0.00561050 0.00576988 -0.00936425
v -0.00666381 0.00580203 -0.00934447
v 0.00809891 0.00591937 -0.00927181
v -0.00666381 0.00580203 -0.00934447
v -0.00806989 0.00544355 -0.00955728
v -0.00872814 0.00621139 -0.00907823
v -0.00882895 0.00489525 -0.00985099
v 0.00060835 0.00518833 -0.00969836
v 0.00375396 0.00517972 -0.00970377
v -0.00211333 0.00536521 -0.00960247
v 0.00060835 0.00518833 -0.00969836
v -0.00882895 0.00489525 -0.00985099
v 0.00060835 0.00518833 -0.00969836
v -0.00211333 0.00536521 -0.00960247
v 0.00375396 0.00517972 -0.00970377
v 0.00734592 0.00482497 -0.00988457
v 0.00649867 0.00456077 -0.01000989
v 0.00474632 0.00483404 -0.00988071
v 0.00474632 0.00483404 -0.00988071
v 0.00649867 0.00456077 -0.01000989
v -0.00567214 0.00469285 -0.00994791
v -0.00567214 0.00469285 -0.00994791
v 0.00649867 0.00456077 -0.01000989
v -0.00696755 0.00450556 -0.01003488
v 0.00649867 0.00456077 -0.01000989
v 0.00679024 -0.00454661 -0.01407784
v -0.00569400 -0.00443671 -0.01405516
v 0.00679024 -0.00454661 -0.01407784
v 0.00649867 0.00456077 -0.01000989
v 0.00734592 0.00482497 -0.00988457
v -0.00696755 0.00450556 -0.01003488
v 0.00649867 0.00456077 -0.01000989
v -0.00569400 -0.00443671 -0.01405516
v -0.00712026 -0.00929082 -0.01152002
v -0.00960992 -0.00862753 -0.01202491
v 0.00445358 -0.00887924 -0.01184003
v -0.00988869 -0.00766930 -0.01265580
v -0.00960992 -0.00862753 -0.01202491
v -0.00980761 -0.00943056 -0.01140467
v -0.00712026 -0.00929082 -0.01152002
v -0.00980761 -0.00943056 -0.01140467
v -0.00960992 -0.00862753 -0.01202491
v 0.00868788 -0.00937430 -0.01145202
v 0.00750577 -0.00923690 -0.01156223
v 0.00881174 -0.00851082 -0.01210627
v 0.00649703 -0.00905657 -0.01170409
v 0.00881174 -0.00851082 -0.01210627
v 0.00750577 -0.00923690 -0.01156223
v -0.00712026 -0.00929082 -0.01152002
v 0.00750577 -0.00923690 -0.01156223
v 0.00868788 -0.00937430 -0.01145202
v 0.00649703 -0.00905657 -0.01170409
v 0.00750577 -0.00923690 -0.01156223
v -0.00712026 -0.00929082 -0.01152002
v 0.00960388 -0.04284300 0.04157929
v 0.00936594 -0.04242891 0.04232462
v 0.00896421 -0.04369993 0.04097730
v 0.00896421 -0.04369993 0.04097730
v 0.00936594 -0.04242891 0.04232462
v 0.00795345 -0.04320763 0.04162305
v 0.00936594 -0.04242891 0.04232462
v 0.00769434 -0.04247855 0.04228903
v 0.00672098 -0.04264249 0.04216054
v 0.00936594 -0.04242891 0.04232462
v 0.00899156 -0.04166825 0.04278049
v 0.00593341 -0.04221413 0.04247227
v 0.00583617 -0.04296093 0.04187891
v 0.00795345 -0.04320763 0.04162305
v 0.00936594 -0.04242891 0.04232462
v 0.00583617 -0.04296093 0.04187891
v 0.00936594 -0.04242891 0.04232462
v 0.00672098 -0.04264249 0.04216054
v -0.00974289 -0.04217421 0.04249784
v 0.00936594 -0.04242891 0.04232462
v 0.00593341 -0.04221413 0.04247227
v 0.00769434 -0.04247855 0.04228903
v 0.00936594 -0.04242891 0.04232462
v -0.00974289 -0.04217421 0.04249784
v 0.00932486 -0.03798575 0.04304777
v 0.00960388 -0.04063200 0.04279329
v 0.00960388 -0.03604541 0.04134523
v 0.00936594 -0.04242891 0.04232462
v 0.00960388 -0.04284300 0.04157929
v 0.00960388 -0.04063200 0.04279329
v 0.00894277 -0.03985158 0.04326759
v 0.00960388 -0.04063200 0.04279329
v 0.00932486 -0.03798575 0.04304777
v 0.00960388 -0.04063200 0.04279329
v 0.00894277 -0.03985158 0.04326759
v 0.00899156 -0.04166825 0.04278049
v 0.00936594 -0.04242891 0.04232462
v 0.00960388 -0.04063200 0.04279329
v 0.00899156 -0.04166825 0.04278049
v 0.00646623 0.01097851 -0.00067067
v 0.00505729 0.01099116 -0.00042975
v 0.00741936 0.01099851 0.00007757
v 0.00797057 0.01080609 -0.00205780
v 0.00731978 0.01090652 -0.00142273
v 0.00741936 0.01099851 0.00007757
v 0.00646623 0.01097851 -0.00067067
v 0.00741936 0.01099851 0.00007757
v 0.00731978 0.01090652 -0.00142273
v 0.00512952 0.01092385 -0.00129189
v 0.00646623 0.01097851 -0.00067067
v 0.00731978 0.01090652 -0.00142273
v -0.00828361 0.00911055 -0.00616209
v -0.00843850 0.00858431 -0.00687696
v -0.00888985 0.00972318 -0.00514116
v -0.00899611 0.00693901 -0.00847332
v -0.00888985 0.00972318 -0.00514116
v -0.00843850 0.00858431 -0.00687696
v -0.00899611 0.00779616 -0.00741793
v -0.00888985 0.00972318 -0.00514116
v -0.00899611 0.00693901 -0.00847332
v -0.00872814 0.00621139 -0.00907823
v 0.00337998 0.00635235 -0.00898005
v 0.00486936 0.00625441 -0.00904844
v 0.00486936 0.00625441 -0.00904844
v 0.00337998 0.00635235 -0.00898005
v 0.00777552 0.00675014 -0.00868383
v -0.00811889 0.00677383 -0.00866569
v -0.00571184 0.00650822 -0.00886801
v -0.00872814 0.00621139 -0.00907823
v -0.00430035 0.00675275 -0.00868289
v -0.00571184 0.00650822 -0.00886801
v -0.00811889 0.00677383 -0.00866569
v -0.00872814 0.00621139 -0.00907823
v -0.00571184 0.00650822 -0.00886801
v 0.00337998 0.00635235 -0.00898005
v -0.00571184 0.00650822 -0.00886801
v -0.00430035 0.00675275 -0.00868289
v 0.00777552 0.00675014 -0.00868383
v 0.00558518 0.00728141 -0.00824401
v -0.00258503 0.00714984 -0.00835826
v -0.00389158 0.00740615 -0.00813281
v -0.00258503 0.00714984 -0.00835826
v -0.00621183 0.00706940 -0.00842673
v -0.00389158 0.00740615 -0.00813281
v -0.00809623 0.00786184 -0.00769192
v -0.00714010 0.00698438 -0.00849692
v -0.00811889 0.00677383 -0.00866569
v -0.00621183 0.00706940 -0.00842673
v -0.00714010 0.00698438 -0.00849692
v -0.00809623 0.00786184 -0.00769192
v 0.00241094 0.00866823 -0.00677184
v -0.00284127 0.00860779 -0.00684800
v -0.00843850 0.00858431 -0.00687696
v -0.00843850 0.00858431 -0.00687696
v -0.00284127 0.00860779 -0.00684800
v -0.00509277 0.00855103 -0.00691881
v -0.00509277 0.00855103 -0.00691881
v -0.00284127 0.00860779 -0.00684800
v 0.00241094 0.00866823 -0.00677184
v 0.00719058 0.00830751 -0.00720977
v -0.00000891 0.00838881 -0.00711471
v 0.00589285 0.00842848 -0.00706700
v -0.00509277 0.00855103 -0.00691881
v 0.00589285 0.00842848 -0.00706700
v -0.00000891 0.00838881 -0.00711471
v -0.00843850 0.00858431 -0.00687696
v -0.00000891 0.00838881 -0.00711471
v -0.00377176 0.00820041 -0.00733162
v -0.00509277 0.00855103 -0.00691881
v -0.00000891 0.00838881 -0.00711471
v -0.00843850 0.00858431 -0.00687696
v -0.00117133 0.00872972 -0.00669143
v 0.00241094 0.00866823 -0.00677184
v -0.00843850 0.00858431 -0.00687696
v -0.00591654 0.00888414 -0.00648502
v -0.00117133 0.00872972 -0.00669143
v -0.00843850 0.00858431 -0.00687696
v -0.00828361 0.00911055 -0.00616209
v -0.00353551 0.00896395 -0.00637502
v -0.00591654 0.00888414 -0.00648502
v -0.00353551 0.00896395 -0.00637502
v 0.00766137 0.00896025 -0.00637994
v -0.00591654 0.00888414 -0.00648502
v 0.00112870 0.01087216 0.00166965
v 0.00366789 0.01081612 0.00199923
v 0.00730945 0.01088939 0.00154989
v 0.00730945 0.01088939 0.00154989
v 0.00366789 0.01081612 0.00199923
v 0.00629194 0.01077856 0.00219729
v -0.00026712 0.01083014 0.00191780
v 0.00366789 0.01081612 0.00199923
v 0.00112870 0.01087216 0.00166965
v -0.00481402 0.01077652 0.00220517
v 0.00366789 0.01081612 0.00199923
v -0.00026712 0.01083014 0.00191780
v -0.00596502 0.01095011 0.00104650
v 0.00387028 0.01095037 0.00104206
v 0.00633715 0.01095489 0.00099159
v 0.00633715 0.01095489 0.00099159
v 0.00387028 0.01095037 0.00104206
v 0.00523772 0.01091019 0.00140392
v -0.00207615 0.01092414 0.00128740
v 0.00387028 0.01095037 0.00104206
v -0.00596502 0.01095011 0.00104650
v 0.00387028 0.01095037 0.00104206
v -0.00207615 0.01092414 0.00128740
v 0.00523772 0.01091019 0.00140392
v -0.00064361 -0.01145551 -0.00936772
v -0.00781597 -0.01171855 -0.00903644
v -0.00539858 -0.01134925 -0.00949713
v -0.00830960 -0.01121431 -0.00965573
v -0.00539858 -0.01134925 -0.00949713
v -0.00781597 -0.01171855 -0.00903644
v -0.00565110 -0.01059886 -0.01032912
v -0.00863322 -0.01047881 -0.01044965
v -0.00442877 -0.01056578 -0.01036320
v -0.00863322 -0.01047881 -0.01044965
v -0.00565110 -0.01059886 -0.01032912
v -0.00772611 -0.01075778 -0.01016204
v -0.00135683 -0.01060640 -0.01032135
v -0.00565110 -0.01059886 -0.01032912
v -0.00442877 -0.01056578 -0.01036320
v -0.00772611 -0.01075778 -0.01016204
v -0.00565110 -0.01059886 -0.01032912
v 0.00895717 -0.01068474 -0.01024062
v -0.00135683 -0.01060640 -0.01032135
v 0.00895717 -0.01068474 -0.01024062
v -0.00565110 -0.01059886 -0.01032912
v -0.00669684 -0.01105782 -0.00983482
v -0.00772611 -0.01075778 -0.01016204
v 0.00269657 -0.01092105 -0.00998638
v -0.00669684 -0.01105782 -0.00983482
v 0.00269657 -0.01092105 -0.00998638
v 0.00475196 -0.01102634 -0.00987084
v -0.01024396 -0.01094415 -0.00995190
v -0.00669684 -0.01105782 -0.00983482
v -0.00830960 -0.01121431 -0.00965573
v -0.00772611 -0.01075778 -0.01016204
v -0.00669684 -0.01105782 -0.00983482
v -0.01024396 -0.01094415 -0.00995190
v -0.00450365 -0.00979577 -0.01109206
v -0.00896406 -0.00955394 -0.01130121
v 0.00374287 -0.00976339 -0.01112043
v -0.00896406 -0.00955394 -0.01130121
v -0.00450365 -0.00979577 -0.01109206
v -0.00793845 -0.00984725 -0.01104692
v -0.00540243 -0.00988444 -0.01101459
v -0.00450365 -0.00979577 -0.01109206
v 0.00374287 -0.00976339 -0.01112043
v -0.00540243 -0.00988444 -0.01101459
v -0.00793845 -0.00984725 -0.01104692
v -0.00450365 -0.00979577 -0.01109206
v 0.00519535 -0.01010516 -0.01081136
v -0.00658405 -0.00995957 -0.01094693
v 0.00628585 -0.00988294 -0.01101531
v -0.00658405 -0.00995957 -0.01094693
v -0.00540243 -0.00988444 -0.01101459
v 0.00628585 -0.00988294 -0.01101531
v -0.00980387 -0.01018209 -0.01073835
v -0.00658405 -0.00995957 -0.01094693
v 0.00519535 -0.01010516 -0.01081136
v -0.00793845 -0.00984725 -0.01104692
v -0.00658405 -0.00995957 -0.01094693
v -0.00980387 -0.01018209 -0.01073835
v -0.00540243 -0.00988444 -0.01101459
v -0.00658405 -0.00995957 -0.01094693
v -0.00793845 -0.00984725 -0.01104692
v -0.00715148 -0.00673721 -0.01317655
v 0.00422779 -0.00689096 -0.01309619
v -0.00946653 -0.00685983 -0.01311235
v 0.00722304 -0.00671841 -0.01318647
v 0.00422779 -0.00689096 -0.01309619
v -0.00715148 -0.00673721 -0.01317655
v 0.00867947 -0.00685318 -0.01311585
v 0.00422779 -0.00689096 -0.01309619
v 0.00722304 -0.00671841 -0.01318647
v -0.00946653 -0.00685983 -0.01311235
v 0.00422779 -0.00689096 -0.01309619
v -0.00804585 -0.00726077 -0.01289494
v 0.00666064 -0.00744299 -0.01279192
v 0.00422779 -0.00689096 -0.01309619
v 0.00867947 -0.00685318 -0.01311585
v -0.00804585 -0.00726077 -0.01289494
v 0.00422779 -0.00689096 -0.01309619
v 0.00666064 -0.00744299 -0.01279192
v 0.00523569 -0.00613849 -0.01346568
v -0.00616513 -0.00608766 -0.01348842
v -0.00949394 -0.00595296 -0.01354878
v -0.00528965 -0.00643118 -0.01332787
v -0.00616513 -0.00608766 -0.01348842
v 0.00523569 -0.00613849 -0.01346568
v -0.00616513 -0.00608766 -0.01348842
v -0.00528965 -0.00643118 -0.01332787
v -0.00949394 -0.00595296 -0.01354878
v -0.00724140 -0.00762063 -0.01268578
v -0.00599929 -0.00753509 -0.01273679
v 0.00666064 -0.00744299 -0.01279192
v -0.00599929 -0.00753509 -0.01273679
v -0.00804585 -0.00726077 -0.01289494
v 0.00666064 -0.00744299 -0.01279192
v -0.00988869 -0.00766930 -0.01265580
v -0.00599929 -0.00753509 -0.01273679
v -0.00724140 -0.00762063 -0.01268578
v -0.00804585 -0.00726077 -0.01289494
v -0.00599929 -0.00753509 -0.01273679
v -0.00988869 -0.00766930 -0.01265580
v 0.00939632 -0.04439314 0.03926003
v 0.00839502 -0.04441023 0.03917101
v 0.00619062 -0.04445460 0.03887088
v -0.00712323 -0.04440979 0.03917372
v 0.00619062 -0.04445460 0.03887088
v 0.00839502 -0.04441023 0.03917101
v 0.00724086 0.01066518 0.00269000
v 0.00512671 0.01059100 0.00297133
v 0.00808001 0.01047759 0.00335056
v -0.00760314 0.01047791 0.00334901
v -0.00659518 0.01042445 0.00350827
v 0.00808001 0.01047759 0.00335056
v -0.00426514 0.01049901 0.00328187
v -0.00760314 0.01047791 0.00334901
v 0.00808001 0.01047759 0.00335056
v -0.00659518 0.01042445 0.00350827
v -0.00760314 0.01047791 0.00334901
v -0.00860962 0.01036994 0.00366814
v -0.00659518 0.01042445 0.00350827
v 0.00238431 0.01043139 0.00348786
v 0.00808001 0.01047759 0.00335056
v -0.00516562 0.01037660 0.00364998
v 0.00238431 0.01043139 0.00348786
v -0.00659518 0.01042445 0.00350827
v 0.00808001 0.01047759 0.00335056
v 0.00238431 0.01043139 0.00348786
v 0.00706517 0.01031614 0.00381544
v -0.00516562 0.01037660 0.00364998
v 0.00706517 0.01031614 0.00381544
v 0.00238431 0.01043139 0.00348786
v 0.00706517 0.01031614 0.00381544
v 0.00527687 0.01013869 0.00426429
v 0.00771725 0.01004578 0.00448055
v 0.00674116 -0.03945624 0.04327894
v 0.00789364 -0.03971659 0.04327396
v 0.00894277 -0.03985158 0.04326759
v -0.00734877 -0.03973255 0.04327325
v 0.00789364 -0.03971659 0.04327396
v 0.00674116 -0.03945624 0.04327894
v -0.00734877 -0.03973255 0.04327325
v 0.00894277 -0.03985158 0.04326759
v 0.00789364 -0.03971659 0.04327396
v 0.00894277 -0.03985158 0.04326759
v -0.00850370 -0.03990432 0.04326245
v 0.00657951 -0.04049978 0.04317621
v -0.00734877 -0.03973255 0.04327325
v -0.00850370 -0.03990432 0.04326245
v 0.00894277 -0.03985158 0.04326759
v 0.00657951 -0.04049978 0.04317621
v -0.00850370 -0.03990432 0.04326245
v -0.00951601 -0.04068064 0.04313595
v -0.00951601 -0.04068064 0.04313595
v -0.00850370 -0.03990432 0.04326245
v -0.01025462 -0.03995086 0.04319952
v -0.01025462 -0.03995086 0.04319952
v -0.00850370 -0.03990432 0.04326245
v -0.00920021 -0.03833386 0.04314388
v -0.00850370 -0.03990432 0.04326245
v -0.00734877 -0.03973255 0.04327325
v -0.00640347 -0.03899084 0.04325437
v -0.00528226 0.00562168 -0.00945452
v 0.00683357 0.00549908 -0.00952598
v -0.00806989 0.00544355 -0.00955728
v -0.00666381 0.00580203 -0.00934447
v -0.00528226 0.00562168 -0.00945452
v -0.00806989 0.00544355 -0.00955728
v 0.00683357 0.00549908 -0.00952598
v -0.00528226 0.00562168 -0.00945452
v 0.00561050 0.00576988 -0.00936425
v 0.00561050 0.00576988 -0.00936425
v -0.00528226 0.00562168 -0.00945452
v -0.00666381 0.00580203 -0.00934447
v -0.00666381 0.00580203 -0.00934447
v -0.00386040 0.00600494 -0.00921593
v 0.00809891 0.00591937 -0.00927181
v 0.00199981 0.00613956 -0.00912709
v 0.00809891 0.00591937 -0.00927181
v -0.00386040 0.00600494 -0.00921593
v -0.00386040 0.00600494 -0.00921593
v -0.00666381 0.00580203 -0.00934447
v -0.00872814 0.00621139 -0.00907823
v 0.00199981 0.00613956 -0.00912709
v -0.00386040 0.00600494 -0.00921593
v -0.00872814 0.00621139 -0.00907823
v 0.00881174 -0.00851082 -0.01210627
v -0.00513065 -0.00843424 -0.01216001
v 0.00377695 -0.00806939 -0.01240502
v 0.00445358 -0.00887924 -0.01184003
v 0.00559318 -0.00856234 -0.01207138
v 0.00881174 -0.00851082 -0.01210627
v -0.00960992 -0.00862753 -0.01202491
v 0.00559318 -0.00856234 -0.01207138
v 0.00445358 -0.00887924 -0.01184003
v 0.00881174 -0.00851082 -0.01210627
v 0.00559318 -0.00856234 -0.01207138
v -0.00513065 -0.00843424 -0.01216001
v 0.00741936 0.01099851 0.00007757
v 0.00271443 0.01099582 -0.00028729
v -0.00631619 0.01099945 -0.00008402
v 0.00505729 0.01099116 -0.00042975
v 0.00271443 0.01099582 -0.00028729
v 0.00741936 0.01099851 0.00007757
v 0.00337998 0.00635235 -0.00898005
v -0.00038588 0.00653291 -0.00884828
v 0.00777552 0.00675014 -0.00868383
v -0.00038588 0.00653291 -0.00884828
v -0.00571184 0.00650822 -0.00886801
v 0.00777552 0.00675014 -0.00868383
v -0.00571184 0.00650822 -0.00886801
v -0.00038588 0.00653291 -0.00884828
v 0.00337998 0.00635235 -0.00898005
v -0.00258503 0.00714984 -0.00835826
v 0.00558518 0.00728141 -0.00824401
v 0.00365801 0.00714371 -0.00836404
v -0.00258503 0.00714984 -0.00835826
v 0.00365801 0.00714371 -0.00836404
v -0.00621183 0.00706940 -0.00842673
v -0.00377176 0.00820041 -0.00733162
v 0.00423129 0.00833062 -0.00718284
v 0.00719058 0.00830751 -0.00720977
v 0.00719058 0.00830751 -0.00720977
v 0.00423129 0.00833062 -0.00718284
v -0.00000891 0.00838881 -0.00711471
v -0.00000891 0.00838881 -0.00711471
v 0.00423129 0.00833062 -0.00718284
v -0.00377176 0.00820041 -0.00733162
v 0.00766137 0.00896025 -0.00637994
v 0.00508482 0.00875870 -0.00665443
v -0.00591654 0.00888414 -0.00648502
v -0.00591654 0.00888414 -0.00648502
v 0.00508482 0.00875870 -0.00665443
v -0.00117133 0.00872972 -0.00669143
v -0.00117133 0.00872972 -0.00669143
v 0.00508482 0.00875870 -0.00665443
v 0.00241094 0.00866823 -0.00677184
v 0.00508482 0.00875870 -0.00665443
v 0.00589285 0.00842848 -0.00706700
v 0.00241094 0.00866823 -0.00677184
v 0.00589285 0.00842848 -0.00706700
v 0.00508482 0.00875870 -0.00665443
v 0.00766137 0.00896025 -0.00637994
v 0.00404664 0.00915331 -0.00610011
v 0.00159949 0.00907996 -0.00620834
v -0.00828361 0.00911055 -0.00616209
v 0.00159949 0.00907996 -0.00620834
v -0.00353551 0.00896395 -0.00637502
v -0.00828361 0.00911055 -0.00616209
v 0.00629194 0.01077856 0.00219729
v -0.00175106 0.01078188 0.00217806
v -0.00481402 0.01077652 0.00220517
v -0.00481402 0.01077652 0.00220517
v -0.00175106 0.01078188 0.00217806
v 0.00366789 0.01081612 0.00199923
v 0.00366789 0.01081612 0.00199923
v -0.00175106 0.01078188 0.00217806
v 0.00629194 0.01077856 0.00219729
v -0.00795277 0.01091640 0.00134718
v -0.00500859 0.01092018 0.00131814
v -0.00596502 0.01095011 0.00104650
v -0.00500859 0.01092018 0.00131814
v -0.00207615 0.01092414 0.00128740
v -0.00596502 0.01095011 0.00104650
v 0.00523772 0.01091019 0.00140392
v -0.00109216 0.01091286 0.00138103
v -0.00349433 0.01090832 0.00141580
v -0.00207615 0.01092414 0.00128740
v -0.00109216 0.01091286 0.00138103
v 0.00523772 0.01091019 0.00140392
v -0.00500859 0.01092018 0.00131814
v -0.00109216 0.01091286 0.00138103
v -0.00207615 0.01092414 0.00128740
v -0.00349433 0.01090832 0.00141580
v -0.00109216 0.01091286 0.00138103
v -0.00795277 0.01091640 0.00134718
v -0.00500859 0.01092018 0.00131814
v -0.00795277 0.01091640 0.00134718
v -0.00109216 0.01091286 0.00138103
v 0.00112513 -0.01132569 -0.00952582
v -0.00830960 -0.01121431 -0.00965573
v 0.00801848 -0.01119620 -0.00967645
v -0.00830960 -0.01121431 -0.00965573
v 0.00112513 -0.01132569 -0.00952582
v -0.00539858 -0.01134925 -0.00949713
v 0.00939632 -0.04439314 0.03926003
v 0.00723877 -0.04439844 0.03923559
v 0.00839502 -0.04441023 0.03917101
v 0.00839502 -0.04441023 0.03917101
v 0.00723877 -0.04439844 0.03923559
v -0.00712323 -0.04440979 0.03917372
v -0.00853081 -0.04435468 0.03943739
v 0.00723877 -0.04439844 0.03923559
v 0.00939632 -0.04439314 0.03926003
v -0.00712323 -0.04440979 0.03917372
v 0.00723877 -0.04439844 0.03923559
v -0.00853081 -0.04435468 0.03943739
v 0.00808001 0.01047759 0.00335056
v 0.00346572 0.01052220 0.00320458
v -0.00426514 0.01049901 0.00328187
v 0.00512671 0.01059100 0.00297133
v 0.00346572 0.01052220 0.00320458
v 0.00808001 0.01047759 0.00335056
v 0.00346572 0.01052220 0.00320458
v 0.00512671 0.01059100 0.00297133
v -0.00426514 0.01049901 0.00328187
v 0.00629194 0.01077856 0.00219729
v 0.00249834 0.01071264 0.00249722
v 0.00724086 0.01066518 0.00269000
v 0.00629194 0.01077856 0.00219729
v -0.00481402 0.01077652 0.00220517
v 0.00249834 0.01071264 0.00249722
v 0.00512671 0.01059100 0.00297133
v -0.00893099 0.01068036 0.00263149
v -0.00426514 0.01049901 0.00328187
v -0.00893099 0.01068036 0.00263149
v -0.00760314 0.01047791 0.00334901
v -0.00426514 0.01049901 0.00328187
v 0.00249834 0.01071264 0.00249722
v -0.00893099 0.01068036 0.00263149
v 0.00724086 0.01066518 0.00269000
v -0.00683317 0.01089245 0.00153094
v -0.00795277 0.01091640 0.00134718
v -0.00893099 0.01068036 0.00263149
v -0.00760314 0.01047791 0.00334901
v -0.00893099 0.01068036 0.00263149
v -0.00860962 0.01036994 0.00366814
v -0.00795277 0.01091640 0.00134718
v -0.00899611 0.01088203 0.00034685
v -0.00893099 0.01068036 0.00263149
v -0.00860962 0.01036994 0.00366814
v -0.00893099 0.01068036 0.00263149
v -0.00899612 0.00987156 0.00452291
v -0.01037303 0.00489586 0.01102756
v -0.00893099 0.01068036 0.00263149
v -0.00899611 0.01088203 0.00034685
v -0.00962315 0.00648837 0.01189072
v -0.00893099 0.01068036 0.00263149
v -0.01037303 0.00489586 0.01102756
v -0.00899612 0.00987156 0.00452291
v -0.00893099 0.01068036 0.00263149
v -0.00962315 0.00648837 0.01189072
v 0.00426013 0.01022459 0.00405703
v 0.00025681 0.01024571 0.00400379
v -0.00237392 0.01010950 0.00433501
v 0.00025681 0.01024571 0.00400379
v 0.00426013 0.01022459 0.00405703
v 0.00706517 0.01031614 0.00381544
v 0.00706517 0.01031614 0.00381544
v 0.00426013 0.01022459 0.00405703
v 0.00527687 0.01013869 0.00426429
v -0.00850370 -0.03990432 0.04326245
v -0.00752378 -0.03864476 0.04320694
v -0.00920021 -0.03833386 0.04314388
v -0.00850370 -0.03990432 0.04326245
v -0.00640347 -0.03899084 0.04325437
v -0.00752378 -0.03864476 0.04320694
v -0.00752378 -0.03864476 0.04320694
v 0.00638577 -0.03853622 0.04318871
v -0.00920021 -0.03833386 0.04314388
v 0.00638577 -0.03853622 0.04318871
v -0.00752378 -0.03864476 0.04320694
v -0.00640347 -0.03899084 0.04325437
v -0.00513065 -0.00843424 -0.01216001
v -0.00877954 -0.00810326 -0.01238279
v 0.00377695 -0.00806939 -0.01240502
v 0.00377695 -0.00806939 -0.01240502
v -0.00877954 -0.00810326 -0.01238279
v 0.00585354 -0.00779314 -0.01258134
v 0.00585354 -0.00779314 -0.01258134
v -0.00877954 -0.00810326 -0.01238279
v -0.00988869 -0.00766930 -0.01265580
v -0.00988869 -0.00766930 -0.01265580
v -0.00877954 -0.00810326 -0.01238279
v -0.00960992 -0.00862753 -0.01202491
v -0.00960992 -0.00862753 -0.01202491
v -0.00778537 -0.00855905 -0.01207328
v 0.00559318 -0.00856234 -0.01207138
v 0.00559318 -0.00856234 -0.01207138
v -0.00778537 -0.00855905 -0.01207328
v -0.00513065 -0.00843424 -0.01216001
v -0.00877954 -0.00810326 -0.01238279
v -0.00778537 -0.00855905 -0.01207328
v -0.00960992 -0.00862753 -0.01202491
v -0.00778537 -0.00855905 -0.01207328
v -0.00877954 -0.00810326 -0.01238279
v -0.00513065 -0.00843424 -0.01216001
v -0.00437116 0.01099640 -0.00026139
v 0.00271443 0.01099582 -0.00028729
v 0.00505729 0.01099116 -0.00042975
v 0.00271443 0.01099582 -0.00028729
v -0.00437116 0.01099640 -0.00026139
v -0.00631619 0.01099945 -0.00008402
v -0.00888985 0.00972318 -0.00514116
v -0.00783793 0.00960004 -0.00537020
v -0.00828361 0.00911055 -0.00616209
v 0.00404664 0.00915331 -0.00610011
v 0.00217835 0.00944613 -0.00563486
v 0.00764551 0.00955661 -0.00544508
v 0.00764551 0.00955661 -0.00544508
v 0.00217835 0.00944613 -0.00563486
v -0.00073548 0.00955060 -0.00545830
v -0.00828361 0.00911055 -0.00616209
v -0.00434387 0.00923362 -0.00597722
v 0.00404664 0.00915331 -0.00610011
v 0.00764551 0.00955661 -0.00544508
v 0.00603184 0.00970446 -0.00517719
v 0.00721034 0.01014982 -0.00423996
v -0.00613256 0.01094680 -0.00107190
v -0.00230170 0.01096405 -0.00087841
v 0.00512952 0.01092385 -0.00129189
v -0.00884335 0.01067264 -0.00265853
v -0.00899611 0.01009159 -0.00363539
v -0.00899611 0.01088203 0.00034685
v -0.00899611 0.01009159 -0.00363539
v -0.00884335 0.01067264 -0.00265853
v -0.00888985 0.00972318 -0.00514116
v -0.00899611 0.01088203 0.00034685
v -0.00899611 0.01009159 -0.00363539
v -0.01037303 0.00489586 0.01102756
v -0.01037303 0.00489586 0.01102756
v -0.00899611 0.01009159 -0.00363539
v -0.01028897 -0.00302623 -0.01246040
v -0.01028897 -0.00302623 -0.01246040
v -0.00899611 0.01009159 -0.00363539
v -0.00899611 0.00779616 -0.00741793
v -0.00899611 0.00779616 -0.00741793
v -0.00899611 0.01009159 -0.00363539
v -0.00888985 0.00972318 -0.00514116
v -0.00430035 0.00675275 -0.00868289
v 0.00672599 0.00695405 -0.00852196
v 0.00777552 0.00675014 -0.00868383
v 0.00365801 0.00714371 -0.00836404
v 0.00558518 0.00728141 -0.00824401
v 0.00672599 0.00695405 -0.00852196
v 0.00777552 0.00675014 -0.00868383
v 0.00672599 0.00695405 -0.00852196
v 0.00804944 0.00767574 -0.00787810
v 0.00558518 0.00728141 -0.00824401
v 0.00804944 0.00767574 -0.00787810
v 0.00672599 0.00695405 -0.00852196
v -0.00353551 0.00896395 -0.00637502
v 0.00616633 0.00906851 -0.00622463
v 0.00766137 0.00896025 -0.00637994
v 0.00159949 0.00907996 -0.00620834
v 0.00616633 0.00906851 -0.00622463
v -0.00353551 0.00896395 -0.00637502
v 0.00616633 0.00906851 -0.00622463
v 0.00159949 0.00907996 -0.00620834
v 0.00404664 0.00915331 -0.00610011
v 0.00766137 0.00896025 -0.00637994
v 0.00616633 0.00906851 -0.00622463
v 0.00764551 0.00955661 -0.00544508
v 0.00404664 0.00915331 -0.00610011
v 0.00764551 0.00955661 -0.00544508
v 0.00616633 0.00906851 -0.00622463
v 0.00887977 -0.01153327 -0.00927302
v 0.00375660 -0.01136036 -0.00948360
v 0.00801848 -0.01119620 -0.00967645
v 0.00112513 -0.01132569 -0.00952582
v 0.00801848 -0.01119620 -0.00967645
v 0.00375660 -0.01136036 -0.00948360
v 0.00724086 0.01066518 0.00269000
v 0.00006182 0.01063681 0.00280006
v 0.00512671 0.01059100 0.00297133
v -0.00893099 0.01068036 0.00263149
v 0.00006182 0.01063681 0.00280006
v 0.00724086 0.01066518 0.00269000
v 0.00006182 0.01063681 0.00280006
v -0.00893099 0.01068036 0.00263149
v 0.00512671 0.01059100 0.00297133
v -0.00759878 0.01072404 0.00244349
v 0.00249834 0.01071264 0.00249722
v -0.00481402 0.01077652 0.00220517
v -0.00481402 0.01077652 0.00220517
v -0.00683317 0.01089245 0.00153094
v -0.00759878 0.01072404 0.00244349
v -0.00893099 0.01068036 0.00263149
v -0.00759878 0.01072404 0.00244349
v -0.00683317 0.01089245 0.00153094
v 0.00333021 0.01013122 0.00428272
v 0.00426013 0.01022459 0.00405703
v -0.00237392 0.01010950 0.00433501
v 0.00426013 0.01022459 0.00405703
v 0.00333021 0.01013122 0.00428272
v 0.00527687 0.01013869 0.00426429
v -0.00237392 0.01010950 0.00433501
v 0.00771725 0.01004578 0.00448055
v 0.00333021 0.01013122 0.00428272
v 0.00527687 0.01013869 0.00426429
v 0.00333021 0.01013122 0.00428272
v 0.00771725 0.01004578 0.00448055
v -0.00783793 0.00960004 -0.00537020
v -0.00684133 0.00927240 -0.00591695
v -0.00828361 0.00911055 -0.00616209
v -0.00684133 0.00927240 -0.00591695
v -0.00783793 0.00960004 -0.00537020
v -0.00537201 0.00933876 -0.00581158
v -0.00434387 0.00923362 -0.00597722
v -0.00828361 0.00911055 -0.00616209
v -0.00684133 0.00927240 -0.00591695
v 0.00217835 0.00944613 -0.00563486
v -0.00277809 0.00943572 -0.00565224
v -0.00073548 0.00955060 -0.00545830
v -0.00783793 0.00960004 -0.00537020
v -0.00277809 0.00943572 -0.00565224
v -0.00537201 0.00933876 -0.00581158
v -0.00277809 0.00943572 -0.00565224
v -0.00783793 0.00960004 -0.00537020
v -0.00073548 0.00955060 -0.00545830
v -0.00434387 0.00923362 -0.00597722
v -0.00171452 0.00933409 -0.00582035
v 0.00404664 0.00915331 -0.00610011
v 0.00404664 0.00915331 -0.00610011
v -0.00171452 0.00933409 -0.00582035
v 0.00217835 0.00944613 -0.00563486
v -0.00537201 0.00933876 -0.00581158
v -0.00171452 0.00933409 -0.00582035
v -0.00684133 0.00927240 -0.00591695
v -0.00684133 0.00927240 -0.00591695
v -0.00171452 0.00933409 -0.00582035
v -0.00434387 0.00923362 -0.00597722
v -0.00277809 0.00943572 -0.00565224
v -0.00171452 0.00933409 -0.00582035
v -0.00537201 0.00933876 -0.00581158
v -0.00277809 0.00943572 -0.00565224
v 0.00217835 0.00944613 -0.00563486
v -0.00171452 0.00933409 -0.00582035
v -0.00888985 0.00972318 -0.00514116
v -0.00627173 0.00965068 -0.00527822
v -0.00783793 0.00960004 -0.00537020
v 0.00603184 0.00970446 -0.00517719
v 0.00519125 0.01004465 -0.00448200
v 0.00721034 0.01014982 -0.00423996
v 0.00519125 0.01004465 -0.00448200
v 0.00603184 0.00970446 -0.00517719
v 0.00271030 0.00984684 -0.00490156
v -0.00715575 0.00994117 -0.00470808
v -0.00514240 0.00982976 -0.00493619
v -0.00888985 0.00972318 -0.00514116
v -0.00884335 0.01067264 -0.00265853
v -0.00793114 0.01043423 -0.00348068
v -0.00888985 0.00972318 -0.00514116
v -0.00715575 0.00994117 -0.00470808
v -0.00888985 0.00972318 -0.00514116
v -0.00793114 0.01043423 -0.00348068
v 0.00797057 0.01080609 -0.00205780
v 0.00625772 0.01085381 -0.00178286
v 0.00731978 0.01090652 -0.00142273
v -0.00899611 0.01088203 0.00034685
v -0.00861382 0.01085289 -0.00178662
v -0.00884335 0.01067264 -0.00265853
v 0.00646623 0.01097851 -0.00067067
v -0.00315978 0.01098858 -0.00048586
v 0.00505729 0.01099116 -0.00042975
v -0.00315978 0.01098858 -0.00048586
v -0.00437116 0.01099640 -0.00026139
v 0.00505729 0.01099116 -0.00042975
v -0.00613256 0.01094680 -0.00107190
v -0.00315978 0.01098858 -0.00048586
v -0.00230170 0.01096405 -0.00087841
v 0.00721034 0.01014982 -0.00423996
v 0.00651618 0.01045347 -0.00342131
v 0.00797057 0.01080609 -0.00205780
v 0.00651618 0.01045347 -0.00342131
v 0.00678060 0.01070041 -0.00254621
v 0.00797057 0.01080609 -0.00205780
v 0.00678060 0.01070041 -0.00254621
v 0.00651618 0.01045347 -0.00342131
v 0.00546748 0.01054693 -0.00312346
v -0.00430035 0.00675275 -0.00868289
v -0.00144074 0.00698557 -0.00849665
v 0.00672599 0.00695405 -0.00852196
v -0.00144074 0.00698557 -0.00849665
v -0.00430035 0.00675275 -0.00868289
v -0.00811889 0.00677383 -0.00866569
v -0.00714010 0.00698438 -0.00849692
v -0.00144074 0.00698557 -0.00849665
v -0.00811889 0.00677383 -0.00866569
v -0.00144074 0.00698557 -0.00849665
v -0.00714010 0.00698438 -0.00849692
v -0.00621183 0.00706940 -0.00842673
v -0.00652657 0.01070731 0.00251881
v -0.00893099 0.01068036 0.00263149
v 0.00249834 0.01071264 0.00249722
v -0.00759878 0.01072404 0.00244349
v -0.00652657 0.01070731 0.00251881
v 0.00249834 0.01071264 0.00249722
v -0.00893099 0.01068036 0.00263149
v -0.00652657 0.01070731 0.00251881
v -0.00759878 0.01072404 0.00244349
v 0.00603184 0.00970446 -0.00517719
v 0.00403569 0.00973767 -0.00511554
v 0.00271030 0.00984684 -0.00490156
v 0.00108785 0.00972691 -0.00513695
v 0.00403569 0.00973767 -0.00511554
v 0.00603184 0.00970446 -0.00517719
v -0.00514240 0.00982976 -0.00493619
v 0.00271030 0.00984684 -0.00490156
v 0.00403569 0.00973767 -0.00511554
v -0.00514240 0.00982976 -0.00493619
v 0.00403569 0.00973767 -0.00511554
v 0.00108785 0.00972691 -0.00513695
v 0.00108785 0.00972691 -0.00513695
v 0.00603184 0.00970446 -0.00517719
v 0.00487666 0.00964238 -0.00529309
v 0.00487666 0.00964238 -0.00529309
v -0.00627173 0.00965068 -0.00527822
v 0.00108785 0.00972691 -0.00513695
v 0.00764551 0.00955661 -0.00544508
v 0.00487666 0.00964238 -0.00529309
v 0.00603184 0.00970446 -0.00517719
v -0.00073548 0.00955060 -0.00545830
v 0.00487666 0.00964238 -0.00529309
v 0.00764551 0.00955661 -0.00544508
v -0.00783793 0.00960004 -0.00537020
v 0.00487666 0.00964238 -0.00529309
v -0.00073548 0.00955060 -0.00545830
v -0.00627173 0.00965068 -0.00527822
v 0.00487666 0.00964238 -0.00529309
v -0.00783793 0.00960004 -0.00537020
v -0.00888985 0.00972318 -0.00514116
v -0.00425606 0.00971630 -0.00515595
v -0.00627173 0.00965068 -0.00527822
v -0.00627173 0.00965068 -0.00527822
v -0.00425606 0.00971630 -0.00515595
v 0.00108785 0.00972691 -0.00513695
v -0.00514240 0.00982976 -0.00493619
v -0.00425606 0.00971630 -0.00515595
v -0.00888985 0.00972318 -0.00514116
v -0.00425606 0.00971630 -0.00515595
v -0.00514240 0.00982976 -0.00493619
v 0.00108785 0.00972691 -0.00513695
v -0.00163885 0.01005784 -0.00445401
v 0.00519125 0.01004465 -0.00448200
v -0.00715575 0.00994117 -0.00470808
v -0.00514240 0.00982976 -0.00493619
v -0.00262131 0.00990855 -0.00477698
v 0.00271030 0.00984684 -0.00490156
v -0.00262131 0.00990855 -0.00477698
v -0.00514240 0.00982976 -0.00493619
v -0.00715575 0.00994117 -0.00470808
v 0.00271030 0.00984684 -0.00490156
v -0.00262131 0.00990855 -0.00477698
v 0.00519125 0.01004465 -0.00448200
v 0.00519125 0.01004465 -0.00448200
v -0.00262131 0.00990855 -0.00477698
v -0.00715575 0.00994117 -0.00470808
v -0.00884335 0.01067264 -0.00265853
v -0.00703512 0.01061356 -0.00288854
v -0.00793114 0.01043423 -0.00348068
v -0.00753737 0.01092827 -0.00125418
v -0.00613256 0.01094680 -0.00107190
v 0.00512952 0.01092385 -0.00129189
v 0.00011025 0.01091656 -0.00135032
v -0.00753737 0.01092827 -0.00125418
v 0.00512952 0.01092385 -0.00129189
v 0.00797057 0.01080609 -0.00205780
v 0.00251190 0.01084634 -0.00183031
v 0.00625772 0.01085381 -0.00178286
v 0.00646623 0.01097851 -0.00067067
v 0.00170838 0.01097205 -0.00077050
v -0.00315978 0.01098858 -0.00048586
v -0.00315978 0.01098858 -0.00048586
v 0.00170838 0.01097205 -0.00077050
v -0.00230170 0.01096405 -0.00087841
v 0.00512952 0.01092385 -0.00129189
v 0.00170838 0.01097205 -0.00077050
v 0.00646623 0.01097851 -0.00067067
v -0.00230170 0.01096405 -0.00087841
v 0.00170838 0.01097205 -0.00077050
v 0.00512952 0.01092385 -0.00129189
v -0.00315978 0.01098858 -0.00048586
v -0.00613256 0.01094680 -0.00107190
v -0.00746688 0.01099580 -0.00026458
v -0.00753737 0.01092827 -0.00125418
v -0.00746688 0.01099580 -0.00026458
v -0.00613256 0.01094680 -0.00107190
v -0.00437116 0.01099640 -0.00026139
v -0.00746688 0.01099580 -0.00026458
v -0.00631619 0.01099945 -0.00008402
v -0.00315978 0.01098858 -0.00048586
v -0.00746688 0.01099580 -0.00026458
v -0.00437116 0.01099640 -0.00026139
v -0.00746688 0.01099580 -0.00026458
v -0.00795277 0.01091640 0.00134718
v -0.00631619 0.01099945 -0.00008402
v -0.00795277 0.01091640 0.00134718
v -0.00746688 0.01099580 -0.00026458
v -0.00899611 0.01088203 0.00034685
v -0.00899611 0.01088203 0.00034685
v -0.00746688 0.01099580 -0.00026458
v -0.00861382 0.01085289 -0.00178662
v -0.00753737 0.01092827 -0.00125418
v -0.00861382 0.01085289 -0.00178662
v -0.00746688 0.01099580 -0.00026458
v 0.00721034 0.01014982 -0.00423996
v 0.00406236 0.01034913 -0.00372601
v 0.00651618 0.01045347 -0.00342131
v 0.00365801 0.00714371 -0.00836404
v 0.00456636 0.00701051 -0.00847574
v -0.00621183 0.00706940 -0.00842673
v 0.00456636 0.00701051 -0.00847574
v -0.00144074 0.00698557 -0.00849665
v -0.00621183 0.00706940 -0.00842673
v 0.00672599 0.00695405 -0.00852196
v 0.00456636 0.00701051 -0.00847574
v 0.00365801 0.00714371 -0.00836404
v -0.00144074 0.00698557 -0.00849665
v 0.00456636 0.00701051 -0.00847574
v 0.00672599 0.00695405 -0.00852196
v 0.00519125 0.01004465 -0.00448200
v 0.00070345 0.01009816 -0.00436136
v 0.00721034 0.01014982 -0.00423996
v -0.00163885 0.01005784 -0.00445401
v 0.00070345 0.01009816 -0.00436136
v 0.00519125 0.01004465 -0.00448200
v -0.00793114 0.01043423 -0.00348068
v -0.00673663 0.01028536 -0.00389984
v -0.00715575 0.00994117 -0.00470808
v -0.00482295 0.01047517 -0.00335537
v -0.00703512 0.01061356 -0.00288854
v 0.00546748 0.01054693 -0.00312346
v -0.00703512 0.01061356 -0.00288854
v -0.00482295 0.01047517 -0.00335537
v -0.00793114 0.01043423 -0.00348068
v 0.00651618 0.01045347 -0.00342131
v -0.00482295 0.01047517 -0.00335537
v 0.00546748 0.01054693 -0.00312346
v -0.00482295 0.01047517 -0.00335537
v 0.00651618 0.01045347 -0.00342131
v -0.00793114 0.01043423 -0.00348068
v -0.00884335 0.01067264 -0.00265853
v -0.00570976 0.01065874 -0.00271726
v -0.00703512 0.01061356 -0.00288854
v 0.00546748 0.01054693 -0.00312346
v 0.00445223 0.01060014 -0.00293707
v 0.00678060 0.01070041 -0.00254621
v -0.00460119 0.01078502 -0.00216269
v -0.00354192 0.01072428 -0.00244531
v -0.00884335 0.01067264 -0.00265853
v -0.00884335 0.01067264 -0.00265853
v -0.00354192 0.01072428 -0.00244531
v -0.00570976 0.01065874 -0.00271726
v -0.00570976 0.01065874 -0.00271726
v -0.00354192 0.01072428 -0.00244531
v 0.00678060 0.01070041 -0.00254621
v -0.00661055 0.01082876 -0.00192958
v 0.00251190 0.01084634 -0.00183031
v 0.00797057 0.01080609 -0.00205780
v 0.00251190 0.01084634 -0.00183031
v -0.00661055 0.01082876 -0.00192958
v -0.00861382 0.01085289 -0.00178662
v -0.00460119 0.01078502 -0.00216269
v -0.00661055 0.01082876 -0.00192958
v 0.00797057 0.01080609 -0.00205780
v -0.00861382 0.01085289 -0.00178662
v -0.00661055 0.01082876 -0.00192958
v -0.00884335 0.01067264 -0.00265853
v -0.00460119 0.01078502 -0.00216269
v -0.00884335 0.01067264 -0.00265853
v -0.00661055 0.01082876 -0.00192958
v 0.00731978 0.01090652 -0.00142273
v 0.00398110 0.01091066 -0.00139633
v 0.00512952 0.01092385 -0.00129189
v 0.00512952 0.01092385 -0.00129189
v 0.00398110 0.01091066 -0.00139633
v 0.00011025 0.01091656 -0.00135032
v -0.00753737 0.01092827 -0.00125418
v -0.00539962 0.01087533 -0.00164930
v -0.00861382 0.01085289 -0.00178662
v 0.00251190 0.01084634 -0.00183031
v -0.00539962 0.01087533 -0.00164930
v 0.00625772 0.01085381 -0.00178286
v -0.00861382 0.01085289 -0.00178662
v -0.00539962 0.01087533 -0.00164930
v 0.00251190 0.01084634 -0.00183031
v 0.00625772 0.01085381 -0.00178286
v -0.00539962 0.01087533 -0.00164930
v 0.00731978 0.01090652 -0.00142273
v 0.00651618 0.01045347 -0.00342131
v -0.00307851 0.01039762 -0.00358887
v -0.00793114 0.01043423 -0.00348068
v 0.00406236 0.01034913 -0.00372601
v -0.00307851 0.01039762 -0.00358887
v 0.00651618 0.01045347 -0.00342131
v -0.00307851 0.01039762 -0.00358887
v -0.00673663 0.01028536 -0.00389984
v -0.00793114 0.01043423 -0.00348068
v -0.00673663 0.01028536 -0.00389984
v -0.00307851 0.01039762 -0.00358887
v 0.00406236 0.01034913 -0.00372601
v 0.00721034 0.01014982 -0.00423996
v 0.00266633 0.01024147 -0.00401433
v 0.00406236 0.01034913 -0.00372601
v -0.00703512 0.01061356 -0.00288854
v 0.00199020 0.01060371 -0.00292609
v 0.00546748 0.01054693 -0.00312346
v 0.00199020 0.01060371 -0.00292609
v 0.00445223 0.01060014 -0.00293707
v 0.00546748 0.01054693 -0.00312346
v -0.00570976 0.01065874 -0.00271726
v 0.00199020 0.01060371 -0.00292609
v -0.00703512 0.01061356 -0.00288854
v 0.00445223 0.01060014 -0.00293707
v 0.00199020 0.01060371 -0.00292609
v 0.00678060 0.01070041 -0.00254621
v 0.00678060 0.01070041 -0.00254621
v 0.00087241 0.01072932 -0.00242085
v 0.00797057 0.01080609 -0.00205780
v -0.00354192 0.01072428 -0.00244531
v 0.00087241 0.01072932 -0.00242085
v 0.00678060 0.01070041 -0.00254621
v -0.00460119 0.01078502 -0.00216269
v 0.00797057 0.01080609 -0.00205780
v 0.00087241 0.01072932 -0.00242085
v 0.00087241 0.01072932 -0.00242085
v -0.00354192 0.01072428 -0.00244531
v -0.00460119 0.01078502 -0.00216269
v -0.00323752 0.01089341 -0.00152295
v -0.00753737 0.01092827 -0.00125418
v 0.00011025 0.01091656 -0.00135032
v -0.00753737 0.01092827 -0.00125418
v -0.00323752 0.01089341 -0.00152295
v -0.00539962 0.01087533 -0.00164930
v 0.00398110 0.01091066 -0.00139633
v -0.00323752 0.01089341 -0.00152295
v 0.00011025 0.01091656 -0.00135032
v 0.00731978 0.01090652 -0.00142273
v -0.00323752 0.01089341 -0.00152295
v 0.00398110 0.01091066 -0.00139633
v -0.00539962 0.01087533 -0.00164930
v -0.00323752 0.01089341 -0.00152295
v 0.00731978 0.01090652 -0.00142273
v 0.00406236 0.01034913 -0.00372601
v 0.00164301 0.01031784 -0.00381108
v -0.00673663 0.01028536 -0.00389984
v 0.00266633 0.01024147 -0.00401433
v 0.00164301 0.01031784 -0.00381108
v 0.00406236 0.01034913 -0.00372601
v 0.00164301 0.01031784 -0.00381108
v 0.00266633 0.01024147 -0.00401433
v -0.00673663 0.01028536 -0.00389984
v 0.00070345 0.01009816 -0.00436136
v -0.00547855 0.01025594 -0.00397736
v 0.00721034 0.01014982 -0.00423996
v 0.00721034 0.01014982 -0.00423996
v -0.00547855 0.01025594 -0.00397736
v 0.00266633 0.01024147 -0.00401433
v 0.00266633 0.01024147 -0.00401433
v -0.00547855 0.01025594 -0.00397736
v -0.00673663 0.01028536 -0.00389984
v -0.00547855 0.01025594 -0.00397736
v 0.00070345 0.01009816 -0.00436136
v -0.00163885 0.01005784 -0.00445401
v -0.00547855 0.01025594 -0.00397736
v -0.00163885 0.01005784 -0.00445401
v -0.00715575 0.00994117 -0.00470808
v -0.00673663 0.01028536 -0.00389984
v -0.00547855 0.01025594 -0.00397736
v -0.00715575 0.00994117 -0.00470808
v -0.00106242 0.01067117 -0.00266566
v -0.00570976 0.01065874 -0.00271726
v 0.00678060 0.01070041 -0.00254621
v 0.00199020 0.01060371 -0.00292609
v -0.00106242 0.01067117 -0.00266566
v 0.00678060 0.01070041 -0.00254621
v -0.00570976 0.01065874 -0.00271726
v -0.00106242 0.01067117 -0.00266566
v 0.00199020 0.01060371 -0.00292609
v 0.00790634 -0.01190236 -0.00879421
v 0.00176606 -0.01210249 -0.00851747
v -0.00656635 -0.01186653 -0.00884376
v -0.00656635 -0.01186653 -0.00884376
v 0.00176606 -0.01210249 -0.00851747
v -0.00272145 -0.01210901 -0.00850845
v 0.00595124 -0.01196626 -0.00870585
v 0.00176606 -0.01210249 -0.00851747
v 0.00790634 -0.01190236 -0.00879421
v -0.01039612 -0.04151608 0.04185165
v -0.01039612 -0.04185849 0.03442936
v -0.01039612 -0.04271634 0.03581586
v -0.01039611 -0.00542174 -0.01322307
v -0.01039612 -0.04151608 0.04185165
v -0.01039611 -0.00435903 -0.01330062
v -0.01039612 -0.04151608 0.04185165
v -0.01039612 -0.04411504 0.03818831
v -0.01039612 -0.04320259 0.04103903
v -0.01039612 -0.04151608 0.04185165
v -0.01039611 -0.00542174 -0.01322307
v -0.01039611 -0.00962022 -0.01018588
v -0.01039611 -0.00435903 -0.01330062
v -0.01039612 -0.04151608 0.04185165
v -0.01039612 0.00232394 0.01266702
v -0.01039612 -0.04411504 0.03818831
v -0.01039612 -0.04151608 0.04185165
v -0.01039612 -0.04271634 0.03581586
v -0.01039612 0.00232394 0.01266702
v -0.01039612 -0.04151608 0.04185165
v -0.01039612 -0.03593720 0.04082541
v -0.01039612 -0.03593720 0.04082541
v -0.01039612 -0.04151608 0.04185165
v -0.01039612 -0.03806819 0.04232742
v -0.01039612 -0.04185849 0.03442936
v -0.01039612 -0.04151608 0.04185165
v -0.01039611 -0.00962022 -0.01018588
v -0.01039612 -0.03988045 0.04225474
v -0.01039612 -0.03806819 0.04232742
v -0.01039612 -0.04151608 0.04185165
v -0.00883230 -0.01180024 -0.00893049
v 0.00667373 -0.01159934 -0.00919106
v 0.00271111 -0.01177191 -0.00896723
v -0.00781597 -0.01171855 -0.00903644
v 0.00667373 -0.01159934 -0.00919106
v -0.00883230 -0.01180024 -0.00893049
v 0.00271111 -0.01177191 -0.00896723
v 0.00667373 -0.01159934 -0.00919106
v 0.00453056 -0.01174181 -0.00900627
v 0.00269657 -0.01092105 -0.00998638
v -0.00772611 -0.01075778 -0.01016204
v 0.00895717 -0.01068474 -0.01024062
v 0.00960389 -0.00852849 -0.01145202
v 0.00960388 -0.04063200 0.04279329
v 0.00960389 -0.01100734 -0.00942203
v 0.00960388 -0.04295252 0.03503563
v 0.00960388 -0.04063200 0.04279329
v 0.00960388 -0.04389742 0.03677069
v 0.00960388 0.00506522 0.01211389
v 0.00960388 -0.04063200 0.04279329
v 0.00960389 -0.00383031 -0.01266589
v 0.00960388 -0.04295252 0.03503563
v 0.00960389 -0.01100734 -0.00942203
v 0.00960388 -0.04063200 0.04279329
v 0.00960388 -0.04284300 0.04157929
v 0.00960388 -0.04389742 0.03677069
v 0.00960388 -0.04063200 0.04279329
v 0.00960388 -0.04063200 0.04279329
v 0.00960388 0.00506522 0.01211389
v 0.00960388 -0.03604541 0.04134523
v 0.00960389 -0.00383031 -0.01266589
v 0.00960388 -0.04063200 0.04279329
v 0.00960389 -0.00467761 -0.01311561
v 0.00960389 -0.00467761 -0.01311561
v 0.00960388 -0.04063200 0.04279329
v 0.00960389 -0.00852849 -0.01145202
v 0.00632705 -0.01104732 -0.00984684
v -0.00669684 -0.01105782 -0.00983482
v 0.00475196 -0.01102634 -0.00987084
v 0.00801848 -0.01119620 -0.00967645
v -0.00669684 -0.01105782 -0.00983482
v 0.00632705 -0.01104732 -0.00984684
v -0.00830960 -0.01121431 -0.00965573
v -0.00669684 -0.01105782 -0.00983482
v 0.00801848 -0.01119620 -0.00967645
v -0.00539858 -0.01134925 -0.00949713
v 0.00375660 -0.01136036 -0.00948360
v -0.00064361 -0.01145551 -0.00936772
v -0.00064361 -0.01145551 -0.00936772
v 0.00375660 -0.01136036 -0.00948360
v 0.00887977 -0.01153327 -0.00927302
v 0.00112513 -0.01132569 -0.00952582
v 0.00375660 -0.01136036 -0.00948360
v -0.00539858 -0.01134925 -0.00949713
f 1 2 3
f 4 5 6
f 7 8 9
f 10 11 12
f 13 14 15
f 16 17 18
f 19 20 21
f 22 23 24
f 25 26 27
f 28 29 30
f 31 32 33
f 34 35 36
f 37 38 39
f 40 41 42
f 43 44 45
f 46 47 48
f 49 50 51
f 52 53 54
f 55 56 57
f 58 59 60
f 61 62 63
f 64 65 66
f 67 68 69
f 70 71 72
f 73 74 75
f 76 77 78
f 79 80 81
f 82 83 84
f 85 86 87
f 88 89 90
f 91 92 93
f 94 95 96
f 97 98 99
f 100 101 102
f 103 104 105
f 106 107 108
f 109 110 111
f 112 113 114
f 115 116 117
f 118 119 120
f 121 122 123
f 124 125 126
f 127 128 129
f 130 131 132
f 133 134 135
f 136 137 138
f 139 140 141
f 142 143 144
f 145 146 147
f 148 149 150
f 151 152 153
f 154 155 156
f 157 158 159
f 160 161 162
f 163 164 165
f 166 167 168
f 169 170 171
f 172 173 174
f 175 176 177
f 178 179 180
f 181 182 183
f 184 185 186
f 187 188 189
f 190 191 192
f 193 194 195
f 196 197 198
f 199 200 201
f 202 203 204
f 205 206 207
f 208 209 210
f 211 212 213
f 214 215 216
f 217 218 219
f 220 221 222
f 223 224 225
f 226 227 228
f 229 230 231
f 232 233 234
f 235 236 237
f 238 239 240
f 241 242 243
f 244 245 246
f 247 248 249
f 250 251 252
f 253 254 255
f 256 257 258
f 259 260 261
f 262 263 264
f 265 266 267
f 268 269 270
f 271 272 273
f 274 275 276
f 277 278 279
f 280 281 282
f 283 284 285
f 286 287 288
f 289 290 291
f 292 293 294
f 295 296 297
f 298 299 300
f 301 302 303
f 304 305 306
f 307 308 309
f 310 311 312
f 313 314 315
f 316 317 318
f 319 320 321
f 322 323 324
f 325 326 327
f 328 329 330
f 331 332 333
f 334 335 336
f 337 338 339
f 340 341 342
f 343 344 345
f 346 347 348
f 349 350 351
f 352 353 354
f 355 356 357
f 358 359 360
f 361 362 363
f 364 365 366
f 367 368 369
f 370 371 372
f 373 374 375
f 376 377 378
f 379 380 381
f 382 383 384
f 385 386 387
f 388 389 390
f 391 392 393
f 394 395 396
f 397 398 399
f 400 401 402
f 403 404 405
f 406 407 408
f 409 410 411
f 412 413 414
f 415 416 417
f 418 419 420
f 421 422 423
f 424 425 426
f 427 428 429
f 430 431 432
f 433 434 435
f 436 437 438
f 439 440 441
f 442 443 444
f 445 446 447
f 448 449 450
f 451 452 453
f 454 455 456
f 457 458 459
f 460 461 462
f 463 464 465
f 466 467 468
f 469 470 471
f 472 473 474
f 475 476 477
f 478 479 480
f 481 482 483
f 484 485 486
f 487 488 489
f 490 491 492
f 493 494 495
f 496 497 498
f 499 500 501
f 502 503 504
f 505 506 507
f 508 509 510
f 511 512 513
f 514 515 516
f 517 518 519
f 520 521 522
f 523 524 525
f 526 527 528
f 529 530 531
f 532 533 534
f 535 536 537
f 538 539 540
f 541 542 543
f 544 545 546
f 547 548 549
f 550 551 552
f 553 554 555
f 556 557 558
f 559 560 561
f 562 563 564
f 565 566 567
f 568 569 570
f 571 572 573
f 574 575 576
f 577 578 579
f 580 581 582
f 583 584 585
f 586 587 588
f 589 590 591
f 592 593 594
f 595 596 597
f 598 599 600
f 601 602 603
f 604 605 606
f 607 608 609
f 610 611 612
f 613 614 615
f 616 617 618
f 619 620 621
f 622 623 624
f 625 626 627
f 628 629 630
f 631 632 633
f 634 635 636
f 637 638 639
f 640 641 642
f 643 644 645
f 646 647 648
f 649 650 651
f 652 653 654
f 655 656 657
f 658 659 660
f 661 662 663
f 664 665 666
f 667 668 669
f 670 671 672
f 673 674 675
f 676 677 678
f 679 680 681
f 682 683 684
f 685 686 687
f 688 689 690
f 691 692 693
f 694 695 696
f 697 698 699
f 700 701 702
f 703 704 705
f 706 707 708
f 709 710 711
f 712 713 714
f 715 716 717
f 718 719 720
f 721 722 723
f 724 725 726
f 727 728 729
f 730 731 732
f 733 734 735
f 736 737 738
f 739 740 741
f 742 743 744
f 745 746 747
f 748 749 750
f 751 752 753
f 754 755 756
f 757 758 759
f 760 761 762
f 763 764 765
f 766 767 768
f 769 770 771
f 772 773 774
f 775 776 777
f 778 779 780
f 781 782 783
f 784 785 786
f 787 788 789
f 790 791 792
f 793 794 795
f 796 797 798
f 799 800 801
f 802 803 804
f 805 806 807
f 808 809 810
f 811 812 813
f 814 815 816
f 817 818 819
f 820 821 822
f 823 824 825
f 826 827 828
f 829 830 831
f 832 833 834
f 835 836 837
f 838 839 840
f 841 842 843
f 844 845 846
f 847 848 849
f 850 851 852
f 853 854 855
f 856 857 858
f 859 860 861
f 862 863 864
f 865 866 867
f 868 869 870
f 871 872 873
f 874 875 876
f 877 878 879
f 880 881 882
f 883 884 885
f 886 887 888
f 889 890 891
f 892 893 894
f 895 896 897
f 898 899 900
f 901 902 903
f 904 905 906
f 907 908 909
f 910 911 912
f 913 914 915
f 916 917 918
f 919 920 921
f 922 923 924
f 925 926 927
f 928 929 930
f 931 932 933
f 934 935 936
f 937 938 939
f 940 941 942
f 943 944 945
f 946 947 948
f 949 950 951
f 952 953 954
f 955 956 957
f 958 959 960
f 961 962 963
f 964 965 966
f 967 968 969
f 970 971 972
f 973 974 975
f 976 977 978
f 979 980 981
f 982 983 984
f 985 986 987
f 988 989 990
f 991 992 993
f 994 995 996
f 997 998 999
f 1000 1001 1002
f 1003 1004 1005
f 1006 1007 1008
f 1009 1010 1011
f 1012 1013 1014
f 1015 1016 1017
f 1018 1019 1020
f 1021 1022 1023
f 1024 1025 1026
f 1027 1028 1029
f 1030 1031 1032
f 1033 1034 1035
f 1036 1037 1038
f 1039 1040 1041
f 1042 1043 1044
f 1045 1046 1047
f 1048 1049 1050
f 1051 1052 1053
f 1054 1055 1056
f 1057 1058 1059
f 1060 1061 1062
f 1063 1064 1065
f 1066 1067 1068
f 1069 1070 1071
f 1072 1073 1074
f 1075 1076 1077
f 1078 1079 1080
f 1081 1082 1083
f 1084 1085 1086
f 1087 1088 1089
f 1090 1091 1092
f 1093 1094 1095
f 1096 1097 1098
f 1099 1100 1101
f 1102 1103 1104
f 1105 1106 1107
f 1108 1109 1110
f 1111 1112 1113
f 1114 1115 1116
f 1117 1118 1119
f 1120 1121 1122
f 1123 1124 1125
f 1126 1127 1128
f 1129 1130 1131
f 1132 1133 1134
f 1135 1136 1137
f 1138 1139 1140
f 1141 1142 1143
f 1144 1145 1146
f 1147 1148 1149
f 1150 1151 1152
f 1153 1154 1155
f 1156 1157 1158
f 1159 1160 1161
f 1162 1163 1164
f 1165 1166 1167
f 1168 1169 1170
f 1171 1172 1173
f 1174 1175 1176
f 1177 1178 1179
f 1180 1181 1182
f 1183 1184 1185
f 1186 1187 1188
f 1189 1190 1191
f 1192 1193 1194
f 1195 1196 1197
f 1198 1199 1200
f 1201 1202 1203
f 1204 1205 1206
f 1207 1208 1209
f 1210 1211 1212
f 1213 1214 1215
f 1216 1217 1218
f 1219 1220 1221
f 1222 1223 1224
f 1225 1226 1227
f 1228 1229 1230
f 1231 1232 1233
f 1234 1235 1236
f 1237 1238 1239
f 1240 1241 1242
f 1243 1244 1245
f 1246 1247 1248
f 1249 1250 1251
f 1252 1253 1254
f 1255 1256 1257
f 1258 1259 1260
f 1261 1262 1263
f 1264 1265 1266
f 1267 1268 1269
f 1270 1271 1272
f 1273 1274 1275
f 1276 1277 1278
f 1279 1280 1281
f 1282 1283 1284
f 1285 1286 1287
f 1288 1289 1290
f 1291 1292 1293
f 1294 1295 1296
f 1297 1298 1299
f 1300 1301 1302
f 1303 1304 1305
f 1306 1307 1308
f 1309 1310 1311
f 1312 1313 1314
f 1315 1316 1317
f 1318 1319 1320
f 1321 1322 1323
f 1324 1325 1326
f 1327 1328 1329
f 1330 1331 1332
f 1333 1334 1335
f 1336 1337 1338
f 1339 1340 1341
f 1342 1343 1344
f 1345 1346 1347
f 1348 1349 1350
f 1351 1352 1353
f 1354 1355 1356
f 1357 1358 1359
f 1360 1361 1362
f 1363 1364 1365
f 1366 1367 1368
f 1369 1370 1371
f 1372 1373 1374
f 1375 1376 1377
f 1378 1379 1380
f 1381 1382 1383
f 1384 1385 1386
f 1387 1388 1389
f 1390 1391 1392
f 1393 1394 1395
f 1396 1397 1398
f 1399 1400 1401
f 1402 1403 1404
f 1405 1406 1407
f 1408 1409 1410
f 1411 1412 1413
f 1414 1415 1416
f 1417 1418 1419
f 1420 1421 1422
f 1423 1424 1425
f 1426 1427 1428
f 1429 1430 1431
f 1432 1433 1434
f 1435 1436 1437
f 1438 1439 1440
f 1441 1442 1443
f 1444 1445 1446
f 1447 1448 1449
f 1450 1451 1452
f 1453 1454 1455
f 1456 1457 1458
f 1459 1460 1461
f 1462 1463 1464
f 1465 1466 1467
f 1468 1469 1470
f 1471 1472 1473
f 1474 1475 1476
f 1477 1478 1479
f 1480 1481 1482
f 1483 1484 1485
f 1486 1487 1488
f 1489 1490 1491
f 1492 1493 1494
f 1495 1496 1497
f 1498 1499 1500
f 1501 1502 1503
f 1504 1505 1506
f 1507 1508 1509
f 1510 1511 1512
f 1513 1514 1515
f 1516 1517 1518
f 1519 1520 1521
f 1522 1523 1524
f 1525 1526 1527
f 1528 1529 1530
f 1531 1532 1533
f 1534 1535 1536
f 1537 1538 1539
f 1540 1541 1542
f 1543 1544 1545
f 1546 1547 1548
f 1549 1550 1551
f 1552 1553 1554
f 1555 1556 1557
f 1558 1559 1560
f 1561 1562 1563
f 1564 1565 1566
f 1567 1568 1569
f 1570 1571 1572
f 1573 1574 1575
f 1576 1577 1578
f 1579 1580 1581
f 1582 1583 1584
f 1585 1586 1587
f 1588 1589 1590
f 1591 1592 1593
f 1594 1595 1596
f 1597 1598 1599
f 1600 1601 1602
f 1603 1604 1605
f 1606 1607 1608
f 1609 1610 1611
f 1612 1613 1614
f 1615 1616 1617
f 1618 1619 1620
f 1621 1622 1623
f 1624 1625 1626
f 1627 1628 1629
f 1630 1631 1632
f 1633 1634 1635
f 1636 1637 1638
f 1639 1640 1641
f 1642 1643 1644
f 1645 1646 1647
f 1648 1649 1650
f 1651 1652 1653
f 1654 1655 1656
f 1657 1658 1659
f 1660 1661 1662
f 1663 1664 1665
f 1666 1667 1668
f 1669 1670 1671
f 1672 1673 1674
f 1675 1676 1677
f 1678 1679 1680
f 1681 1682 1683
f 1684 1685 1686
f 1687 1688 1689
f 1690 1691 1692
f 1693 1694 1695
f 1696 1697 1698
f 1699 1700 1701
f 1702 1703 1704
f 1705 1706 1707
f 1708 1709 1710
f 1711 1712 1713
f 1714 1715 1716
f 1717 1718 1719
f 1720 1721 1722
f 1723 1724 1725
f 1726 1727 1728
f 1729 1730 1731
f 1732 1733 1734
f 1735 1736 1737
f 1738 1739 1740
f 1741 1742 1743
f 1744 1745 1746
f 1747 1748 1749
f 1750 1751 1752
f 1753 1754 1755
f 1756 1757 1758
f 1759 1760 1761
f 1762 1763 1764
f 1765 1766 1767
f 1768 1769 1770
f 1771 1772 1773
f 1774 1775 1776
f 1777 1778 1779
f 1780 1781 1782
f 1783 1784 1785
f 1786 1787 1788
f 1789 1790 1791
f 1792 1793 1794
f 1795 1796 1797
f 1798 1799 1800
f 1801 1802 1803
f 1804 1805 1806
f 1807 1808 1809
f 1810 1811 1812
f 1813 1814 1815
f 1816 1817 1818
f 1819 1820 1821
f 1822 1823 1824
f 1825 1826 1827
f 1828 1829 1830
f 1831 1832 1833
f 1834 1835 1836
f 1837 1838 1839
f 1840 1841 1842
f 1843 1844 1845
f 1846 1847 1848
f 1849 1850 1851
f 1852 1853 1854
f 1855 1856 1857
f 1858 1859 1860
f 1861 1862 1863
f 1864 1865 1866
f 1867 1868 1869
f 1870 1871 1872
f 1873 1874 1875
f 1876 1877 1878
f 1879 1880 1881
f 1882 1883 1884
f 1885 1886 1887
f 1888 1889 1890
f 1891 1892 1893
f 1894 1895 1896
f 1897 1898 1899
f 1900 1901 1902
f 1903 1904 1905
f 1906 1907 1908
f 1909 1910 1911
f 1912 1913 1914
f 1915 1916 1917
f 1918 1919 1920
f 1921 1922 1923
f 1924 1925 1926
f 1927 1928 1929
f 1930 1931 1932
f 1933 1934 1935
f 1936 1937 1938
f 1939 1940 1941
f 1942 1943 1944
f 1945 1946 1947
f 1948 1949 1950
f 1951 1952 1953
f 1954 1955 1956
f 1957 1958 1959
f 1960 1961 1962
f 1963 1964 1965
f 1966 1967 1968
f 1969 1970 1971
f 1972 1973 1974
f 1975 1976 1977
f 1978 1979 1980
f 1981 1982 1983
f 1984 1985 1986
f 1987 1988 1989
f 1990 1991 1992
f 1993 1994 1995
f 1996 1997 1998
f 1999 2000 2001
f 2002 2003 2004
f 2005 2006 2007
f 2008 2009 2010
f 2011 2012 2013
f 2014 2015 2016
f 2017 2018 2019
f 2020 2021 2022
f 2023 2024 2025
f 2026 2027 2028
f 2029 2030 2031
f 2032 2033 2034
f 2035 2036 2037
f 2038 2039 2040
f 2041 2042 2043
f 2044 2045 2046
f 2047 2048 2049
f 2050 2051 2052
f 2053 2054 2055
f 2056 2057 2058
f 2059 2060 2061
f 2062 2063 2064
f 2065 2066 2067
f 2068 2069 2070
f 2071 2072 2073
f 2074 2075 2076
f 2077 2078 2079
f 2080 2081 2082
f 2083 2084 2085
f 2086 2087 2088
f 2089 2090 2091
f 2092 2093 2094
f 2095 2096 2097
f 2098 2099 2100
f 2101 2102 2103
f 2104 2105 2106
f 2107 2108 2109
f 2110 2111 2112
f 2113 2114 2115
f 2116 2117 2118
f 2119 2120 2121
f 2122 2123 2124
f 2125 2126 2127
f 2128 2129 2130
f 2131 2132 2133
f 2134 2135 2136
f 2137 2138 2139
f 2140 2141 2142
f 2143 2144 2145
f 2146 2147 2148
f 2149 2150 2151
f 2152 2153 2154
f 2155 2156 2157
f 2158 2159 2160
f 2161 2162 2163
f 2164 2165 2166
f 2167 2168 2169
f 2170 2171 2172
f 2173 2174 2175
f 2176 2177 2178
f 2179 2180 2181
f 2182 2183 2184
f 2185 2186 2187
f 2188 2189 2190
f 2191 2192 2193
f 2194 2195 2196
f 2197 2198 2199
f 2200 2201 2202
f 2203 2204 2205
f 2206 2207 2208
f 2209 2210 2211
f 2212 2213 2214
f 2215 2216 2217
f 2218 2219 2220
f 2221 2222 2223
f 2224 2225 2226
f 2227 2228 2229
f 2230 2231 2232
f 2233 2234 2235
f 2236 2237 2238
f 2239 2240 2241
f 2242 2243 2244
f 2245 2246 2247
f 2248 2249 2250
f 2251 2252 2253
f 2254 2255 2256
f 2257 2258 2259
f 2260 2261 2262
f 2263 2264 2265
f 2266 2267 2268
f 2269 2270 2271
f 2272 2273 2274
f 2275 2276 2277
f 2278 2279 2280
f 2281 2282 2283
f 2284 2285 2286
f 2287 2288 2289
f 2290 2291 2292
f 2293 2294 2295
f 2296 2297 2298
f 2299 2300 2301
f 2302 2303 2304
f 2305 2306 2307
f 2308 2309 2310
f 2311 2312 2313
f 2314 2315 2316
f 2317 2318 2319
f 2320 2321 2322
f 2323 2324 2325
f 2326 2327 2328
f 2329 2330 2331
f 2332 2333 2334
f 2335 2336 2337
f 2338 2339 2340
f 2341 2342 2343
f 2344 2345 2346
f 2347 2348 2349
f 2350 2351 2352
f 2353 2354 2355
f 2356 2357 2358
