# Exported from USD: /kuka_kr210/link_1/collisions
mtllib collisions_1.mtl

g collisions
v -0.00401001 -0.45535335 0.07432135
v -0.37752596 -0.45247585 -0.32770197
v -0.00401001 -0.46086392 -0.00752767
v -0.37752596 -0.45247585 -0.32770197
v -0.00401001 -0.45535335 0.07432135
v -0.46172547 -0.40623352 0.02690769
v -0.00401000 0.44699183 -0.10190257
v -0.55420296 0.26697868 0.18966644
v -0.00401001 0.45843416 -0.02067017
v -0.55420296 0.26697868 0.18966644
v -0.00401000 0.44699183 -0.10190257
v -0.29962059 0.26901901 -0.39004178
v -0.18568784 0.24477492 -0.51206962
v -0.40221109 -0.16346607 -0.53982854
v -0.29962059 0.26901901 -0.39004178
v -0.37737063 -0.45247585 -0.38131185
v -0.16151785 -0.45209327 -0.49738003
v -0.00401001 -0.46086392 -0.00752767
v -0.37737063 -0.45247585 -0.38131185
v -0.00401001 -0.46086392 -0.00752767
v -0.37752596 -0.45247585 -0.32770197
v -0.37737063 -0.45247585 -0.38131185
v -0.37752596 -0.45247585 -0.32770197
v -0.46172547 -0.40623352 0.02690769
v -0.00401001 -0.45535335 0.07432135
v -0.00401002 -0.43539199 0.15389001
v -0.46172547 -0.40623352 0.02690769
v -0.00401002 -0.43539199 0.15389001
v -0.00401002 -0.40161467 0.22864775
v -0.46172547 -0.40623352 0.02690769
v -0.46172547 -0.40623352 0.02690769
v -0.00401002 -0.40161467 0.22864775
v -0.51445854 -0.03547585 0.57829327
v -0.50924620 -0.30365336 0.01800067
v -0.37737063 -0.45247585 -0.38131185
v -0.46172547 -0.40623352 0.02690769
v -0.37737063 -0.45247585 -0.38131185
v -0.50924620 -0.30365336 0.01800067
v -0.45836488 -0.28703895 -0.33873155
v -0.00401000 0.42130253 -0.17981076
v -0.18568784 0.24477492 -0.51206962
v -0.29962059 0.26901901 -0.39004178
v -0.00401000 0.42130253 -0.17981076
v -0.29962059 0.26901901 -0.39004178
v -0.00401000 0.44699183 -0.10190257
v -0.60386973 0.24584229 0.24489040
v -0.59485125 0.25105634 0.23159700
v -0.29962059 0.26901901 -0.39004178
v -0.16151785 -0.45209327 -0.49738003
v -0.37737063 -0.45247585 -0.38131185
v -0.32786139 -0.37964544 -0.52589285
v -0.32786139 -0.37964544 -0.52589285
v -0.37737063 -0.45247585 -0.38131185
v -0.35804256 -0.36035115 -0.53154986
v -0.44915358 -0.28703895 -0.38787576
v -0.37737063 -0.45247585 -0.38131185
v -0.45836488 -0.28703895 -0.33873155
v -0.37737063 -0.45247585 -0.38131185
v -0.44915358 -0.28703895 -0.38787576
v -0.40221109 -0.30400100 -0.53982854
v -0.33531972 0.04102414 0.58291621
v -0.34802338 -0.03547585 0.58714761
v -0.00000001 0.00559974 0.46257305
v -0.50924620 -0.30365336 0.01800067
v -0.61320548 -0.10017586 0.14502193
v -0.45836488 -0.28703895 -0.33873155
v -0.61320548 -0.10017586 0.14502193
v -0.44915358 -0.28703895 -0.38787576
v -0.45836488 -0.28703895 -0.33873155
v -0.61320548 -0.10017586 0.14502193
v -0.50924620 -0.30365336 0.01800067
v -0.46172547 -0.40623352 0.02690769
v -0.55861307 -0.03547585 0.55396986
v -0.59695292 -0.03547585 0.52102446
v -0.46172547 -0.40623352 0.02690769
v -0.46172547 -0.40623352 0.02690769
v -0.51445854 -0.03547585 0.57829327
v -0.55861307 -0.03547585 0.55396986
v -0.00401003 -0.35509562 0.29621701
v -0.51445854 -0.03547585 0.57829327
v -0.00401002 -0.40161467 0.22864775
v -0.29962059 0.26901901 -0.39004178
v -0.59485125 0.25105634 0.23159700
v -0.58757614 0.25457117 0.22299864
v -0.58757614 0.25457117 0.22299864
v -0.58484756 0.25588942 0.21977376
v -0.29962059 0.26901901 -0.39004178
v -0.06400998 0.24776383 -0.51206962
v -0.41797467 -0.23373355 -0.54278320
v -0.41398378 -0.19769628 -0.54203516
v -0.06400998 0.24776383 -0.51206962
v -0.40221109 -0.16346607 -0.53982854
v -0.18568784 0.24477492 -0.51206962
v -0.06400998 0.24776383 -0.51206962
v -0.41398378 -0.19769628 -0.54203516
v -0.40221109 -0.16346607 -0.53982854
v 0.00000004 0.05577624 -0.45386573
v -0.06400998 0.24776383 -0.51206962
v 0.00000004 0.26901901 -0.43776014
v -0.06400998 0.24776383 -0.51206962
v 0.00000004 0.05577624 -0.45386573
v 0.00000004 -0.02200795 -0.45689895
v -0.00401000 0.42130253 -0.17981076
v -0.06400998 0.24776383 -0.51206962
v -0.18568784 0.24477492 -0.51206962
v 0.00000002 0.42130253 -0.17981076
v -0.06400998 0.24776383 -0.51206962
v -0.00401000 0.42130253 -0.17981076
v -0.40221109 -0.16346607 -0.53982854
v -0.41398378 -0.19769628 -0.54203516
v -0.60852056 0.24315341 0.25174583
v -0.60852056 0.24315341 0.25174583
v -0.29962059 0.26901901 -0.39004178
v -0.40221109 -0.16346607 -0.53982854
v -0.60852056 0.24315341 0.25174583
v -0.60386973 0.24584229 0.24489040
v -0.29962059 0.26901901 -0.39004178
v -0.59485125 0.25105634 0.23159700
v -0.60386973 0.24584229 0.24489040
v -0.60852056 0.24315341 0.25174583
v -0.06414636 -0.32331601 -0.49738002
v -0.05900996 -0.04581762 -0.51206962
v 0.00000004 -0.02200795 -0.45689895
v -0.06414636 -0.32331601 -0.49738002
v -0.07658355 -0.38845736 -0.49738002
v -0.05900996 -0.04581762 -0.51206962
v -0.32882741 0.09916572 0.57758732
v -0.33531972 0.04102414 0.58291621
v -0.00000001 0.00559974 0.46257305
v -0.33531972 0.04102414 0.58291621
v -0.32882741 0.09916572 0.57758732
v -0.35238567 0.09912121 0.58559455
v -0.00000001 0.08719436 0.45409098
v -0.32882741 0.09916572 0.57758732
v -0.00000001 0.00559974 0.46257305
v -0.32882741 0.09916572 0.57758732
v -0.00000001 0.08719436 0.45409098
v -0.33060046 0.15655673 0.56954659
v -0.00000001 0.08719436 0.45409098
v -0.33522322 0.20675407 0.55881561
v -0.33060046 0.15655673 0.56954659
v -0.00000001 0.08719436 0.45409098
v -0.00000001 0.16598485 0.43125057
v -0.33522322 0.20675407 0.55881561
v -0.38324704 -0.33470771 -0.53627401
v -0.35804256 -0.36035115 -0.53154986
v -0.37737063 -0.45247585 -0.38131185
v -0.37737063 -0.45247585 -0.38131185
v -0.40221109 -0.30400100 -0.53982854
v -0.38324704 -0.33470771 -0.53627401
v -0.38324704 -0.33470771 -0.53627401
v -0.40221109 -0.30400100 -0.53982854
v -0.05900996 -0.04581762 -0.51206962
v -0.05900996 -0.04581762 -0.51206962
v -0.41398378 -0.26977080 -0.54203516
v -0.41797467 -0.23373355 -0.54278320
v -0.41398378 -0.26977080 -0.54203516
v -0.05900996 -0.04581762 -0.51206962
v -0.40221109 -0.30400100 -0.53982854
v -0.41398378 -0.26977080 -0.54203516
v -0.40221109 -0.30400100 -0.53982854
v -0.44915358 -0.28703895 -0.38787576
v -0.35238567 0.09912121 0.58559455
v -0.37157622 0.04102416 0.59302725
v -0.35562923 0.04102414 0.58931924
v -0.41797467 -0.23373355 -0.54278320
v -0.41398378 -0.26977080 -0.54203516
v -0.62801002 -0.02147586 0.14642897
v -0.59997350 0.24844097 0.33692299
v -0.61551713 0.23818223 0.26483599
v -0.62035167 0.23474719 0.27388118
v -0.60852056 0.24315341 0.25174583
v -0.59997350 0.24844097 0.33692299
v -0.60068058 0.24814256 0.29687719
v -0.55808676 0.04102414 0.55433404
v -0.55861307 -0.03547585 0.55396986
v -0.55123312 0.03602415 0.55889601
v -0.45314166 0.04102416 0.59527231
v -0.44832936 -0.03547585 0.59590203
v -0.42573592 0.04102419 0.59757341
v -0.52919823 0.27728003 0.42160236
v -0.00401001 0.45526567 0.06130292
v -0.53857976 0.27771214 0.40364044
v -0.06400998 0.24776383 -0.51206962
v 0.00000003 0.38218325 -0.25191702
v 0.00000004 0.26901901 -0.43776014
v 0.00000003 0.38218325 -0.25191702
v -0.06400998 0.24776383 -0.51206962
v 0.00000002 0.42130253 -0.17981076
v -0.56316213 0.26426092 0.19858330
v -0.55420296 0.26697868 0.18966644
v -0.29962059 0.26901901 -0.39004178
v -0.56316213 0.26426092 0.19858330
v -0.29962059 0.26901901 -0.39004178
v -0.56570821 0.26341483 0.20113166
v -0.58484756 0.25588942 0.21977376
v -0.56811588 0.26246816 0.20347676
v -0.29962059 0.26901901 -0.39004178
v -0.56811588 0.26246816 0.20347676
v -0.56570821 0.26341483 0.20113166
v -0.29962059 0.26901901 -0.39004178
v -0.57312482 0.26485980 0.29721917
v -0.58757614 0.25457117 0.22299864
v -0.59485125 0.25105634 0.23159700
v -0.57312482 0.26485980 0.29721917
v -0.58484756 0.25588942 0.21977376
v -0.58757614 0.25457117 0.22299864
v -0.57312482 0.26485980 0.29721917
v -0.54814684 0.27911505 0.33766409
v -0.58484756 0.25588942 0.21977376
v -0.05900996 -0.03281762 -0.51206962
v -0.05900996 -0.04581762 -0.51206962
v -0.41797467 -0.23373355 -0.54278320
v -0.05900996 -0.03281762 -0.51206962
v -0.41797467 -0.23373355 -0.54278320
v -0.06400998 0.24776383 -0.51206962
v 0.00000004 -0.02200795 -0.45689895
v -0.05900996 -0.04581762 -0.51206962
v -0.05900996 -0.03281762 -0.51206962
v -0.05900996 -0.03281762 -0.51206962
v -0.06400998 0.24776383 -0.51206962
v 0.00000004 -0.02200795 -0.45689895
v -0.61219930 0.24053961 0.25862853
v -0.61551713 0.23818223 0.26483599
v -0.59997350 0.24844097 0.33692299
v -0.61219930 0.24053961 0.25862853
v -0.59997350 0.24844097 0.33692299
v -0.60852056 0.24315341 0.25174583
v -0.31194600 0.21227433 0.54608442
v -0.00000001 0.23946540 0.39477816
v -0.00000001 0.30529910 0.34583377
v -0.00000001 0.30529910 0.34583377
v -0.00000000 0.36139214 0.28597395
v -0.31194600 0.21227433 0.54608442
v -0.00000001 0.16598485 0.43125057
v -0.00000001 0.23946540 0.39477816
v -0.31194600 0.21227433 0.54608442
v -0.41901007 0.26145670 0.50742317
v -0.41901007 0.27673784 0.48262000
v -0.44589153 0.26932281 0.49233374
v -0.39880963 0.27708247 0.48104099
v -0.41901007 0.27673784 0.48262000
v -0.41901007 0.26145670 0.50742317
v -0.41901007 0.27673784 0.48262000
v -0.39880963 0.27708247 0.48104099
v 0.00000000 0.40596062 0.21710247
v -0.43920323 0.27651846 0.48104212
v -0.44589153 0.26932281 0.49233374
v -0.41901007 0.27673784 0.48262000
v -0.07658355 -0.38845736 -0.49738002
v -0.09146543 -0.42752546 -0.49738002
v -0.05900996 -0.04581762 -0.51206962
v -0.09146543 -0.42752546 -0.49738002
v -0.38324704 -0.33470771 -0.53627401
v -0.05900996 -0.04581762 -0.51206962
v -0.09146543 -0.42752546 -0.49738002
v -0.10700487 -0.44721812 -0.49738002
v -0.35804256 -0.36035115 -0.53154986
v -0.09146543 -0.42752546 -0.49738002
v -0.35804256 -0.36035115 -0.53154986
v -0.38324704 -0.33470771 -0.53627401
v 0.00000002 -0.45286795 -0.15037999
v -0.10700487 -0.44721812 -0.49738002
v -0.09146543 -0.42752546 -0.49738002
v -0.00000001 -0.07620401 0.45642698
v -0.00000001 0.00559974 0.46257305
v -0.34802338 -0.03547585 0.58714761
v -0.35728505 0.03602415 0.58975704
v -0.37157622 0.04102416 0.59302725
v -0.34802338 -0.03547585 0.58714761
v -0.34802338 -0.03547585 0.58714761
v -0.35562923 0.04102414 0.58931924
v -0.35728505 0.03602415 0.58975704
v -0.35728505 0.03602415 0.58975704
v -0.35562923 0.04102414 0.58931924
v -0.37157622 0.04102416 0.59302725
v -0.35188684 0.04102414 0.58813937
v -0.34802338 -0.03547585 0.58714761
v -0.33531972 0.04102414 0.58291621
v -0.35188684 0.04102414 0.58813937
v -0.35562923 0.04102414 0.58931924
v -0.34802338 -0.03547585 0.58714761
v -0.35188684 0.04102414 0.58813937
v -0.33531972 0.04102414 0.58291621
v -0.35238567 0.09912121 0.58559455
v -0.35562923 0.04102414 0.58931924
v -0.35188684 0.04102414 0.58813937
v -0.35238567 0.09912121 0.58559455
v -0.45652304 -0.25176468 -0.38925703
v -0.41398378 -0.26977080 -0.54203516
v -0.44915358 -0.28703895 -0.38787576
v -0.45652304 -0.25176468 -0.38925703
v -0.62801002 -0.02147586 0.14642897
v -0.41398378 -0.26977080 -0.54203516
v -0.44915358 -0.28703895 -0.38787576
v -0.61320548 -0.10017586 0.14502193
v -0.45652304 -0.25176468 -0.38925703
v -0.61320548 -0.10017586 0.14502193
v -0.62801002 -0.02147586 0.14642897
v -0.45652304 -0.25176468 -0.38925703
v -0.55861307 -0.03547585 0.55396986
v -0.57509751 0.04102414 0.54146880
v -0.59695292 -0.03547585 0.52102446
v -0.57509751 0.04102414 0.54146880
v -0.55861307 -0.03547585 0.55396986
v -0.55808676 0.04102414 0.55433404
v -0.46172547 -0.40623352 0.02690769
v -0.59695292 -0.03547585 0.52102446
v -0.62313593 -0.00497586 0.47802993
v -0.44832936 -0.03547585 0.59590203
v -0.00401003 -0.35509562 0.29621701
v -0.00401003 -0.29731429 0.35444885
v -0.44832936 -0.03547585 0.59590203
v -0.45314166 0.04102416 0.59527231
v -0.45745811 0.03602415 0.59462763
v -0.37091824 0.23890954 0.53240998
v -0.37093547 0.21314117 0.55906660
v -0.33522322 0.20675407 0.55881561
v -0.41901007 0.24725278 0.52557612
v -0.37091824 0.23890954 0.53240998
v -0.41901007 0.26145670 0.50742317
v -0.44319752 0.24560064 0.52598233
v -0.41901007 0.24725278 0.52557612
v -0.41901007 0.26145670 0.50742317
v -0.44589153 0.26932281 0.49233374
v -0.44319752 0.24560064 0.52598233
v -0.41901007 0.26145670 0.50742317
v -0.44319752 0.24560064 0.52598233
v -0.47241166 0.26448697 0.49242649
v -0.46706113 0.24108519 0.52612687
v -0.44319752 0.24560064 0.52598233
v -0.44589153 0.26932281 0.49233374
v -0.47241166 0.26448697 0.49242649
v -0.52737152 0.27721423 0.42443773
v -0.51496565 0.27687094 0.44032704
v -0.00401001 0.45526567 0.06130292
v -0.52737152 0.27721423 0.42443773
v -0.00401001 0.45526567 0.06130292
v -0.52919823 0.27728003 0.42160236
v 0.00000004 -0.24298626 -0.38857173
v -0.01173701 -0.22122358 -0.44544360
v 0.00000004 -0.17355919 -0.42377772
v 0.00000003 -0.30548289 -0.34216323
v -0.02327155 -0.28851911 -0.44507474
v 0.00000004 -0.24298626 -0.38857173
v -0.03062286 -0.32029298 -0.44485304
v -0.07658355 -0.38845736 -0.49738002
v -0.02327155 -0.28851911 -0.44507474
v -0.03062286 -0.32029298 -0.44485304
v -0.02327155 -0.28851911 -0.44507474
v 0.00000003 -0.30548289 -0.34216323
v -0.03062286 -0.32029298 -0.44485304
v 0.00000003 -0.30548289 -0.34216323
v 0.00000003 -0.35925937 -0.28588115
v -0.01688205 -0.25467864 -0.44527575
v -0.07658355 -0.38845736 -0.49738002
v -0.06414636 -0.32331601 -0.49738002
v -0.01688205 -0.25467864 -0.44527575
v -0.06414636 -0.32331601 -0.49738002
v -0.01173701 -0.22122358 -0.44544360
v -0.01688205 -0.25467864 -0.44527575
v -0.01173701 -0.22122358 -0.44544360
v 0.00000004 -0.24298626 -0.38857173
v -0.00401001 0.45843416 -0.02067017
v -0.55420296 0.26697868 0.18966644
v -0.53599667 0.28228262 0.29592677
v -0.55420296 0.26697868 0.18966644
v -0.56316213 0.26426092 0.19858330
v -0.53599667 0.28228262 0.29592677
v -0.57312482 0.26485980 0.29721917
v -0.57289063 0.26605570 0.33701263
v -0.54814684 0.27911505 0.33766409
v -0.57289063 0.26605570 0.33701263
v -0.60068058 0.24814256 0.29687719
v -0.59997350 0.24844097 0.33692299
v -0.57289063 0.26605570 0.33701263
v -0.60852056 0.24315341 0.25174583
v -0.60068058 0.24814256 0.29687719
v -0.59485125 0.25105634 0.23159700
v -0.60852056 0.24315341 0.25174583
v -0.57289063 0.26605570 0.33701263
v -0.57289063 0.26605570 0.33701263
v -0.57312482 0.26485980 0.29721917
v -0.59485125 0.25105634 0.23159700
v -0.16151785 -0.45209327 -0.49738003
v -0.32786139 -0.37964544 -0.52589285
v -0.13855078 -0.45209327 -0.49738003
v -0.32786139 -0.37964544 -0.52589285
v -0.11857256 -0.45157012 -0.49738003
v -0.13855078 -0.45209327 -0.49738003
v -0.13855078 -0.45209327 -0.49738003
v -0.11857256 -0.45157012 -0.49738003
v 0.00000001 -0.46086392 -0.00752767
v -0.11618688 -0.45133716 -0.49738003
v -0.11857256 -0.45157012 -0.49738003
v -0.32786139 -0.37964544 -0.52589285
v -0.11618688 -0.45133716 -0.49738003
v -0.32786139 -0.37964544 -0.52589285
v -0.35804256 -0.36035115 -0.53154986
v -0.35804256 -0.36035115 -0.53154986
v -0.10700487 -0.44721812 -0.49738002
v -0.11618688 -0.45133716 -0.49738003
v -0.11618688 -0.45133716 -0.49738003
v -0.10700487 -0.44721812 -0.49738002
v 0.00000002 -0.45286795 -0.15037999
v -0.11618688 -0.45133716 -0.49738003
v 0.00000002 -0.45286795 -0.15037999
v 0.00000001 -0.46086392 -0.00752767
v -0.11857256 -0.45157012 -0.49738003
v -0.11618688 -0.45133716 -0.49738003
v 0.00000001 -0.46086392 -0.00752767
v 0.00000002 -0.45286795 -0.15037999
v -0.05990111 -0.40171596 -0.44404450
v -0.04868468 -0.37709311 -0.44434398
v -0.04868468 -0.37709311 -0.44434398
v 0.00000003 -0.35925937 -0.28588115
v 0.00000002 -0.45286795 -0.15037999
v -0.04868468 -0.37709311 -0.44434398
v -0.03903391 -0.34987316 -0.44461056
v 0.00000003 -0.35925937 -0.28588115
v -0.05990111 -0.40171596 -0.44404450
v -0.09146543 -0.42752546 -0.49738002
v -0.04868468 -0.37709311 -0.44434398
v -0.04868468 -0.37709311 -0.44434398
v -0.07658355 -0.38845736 -0.49738002
v -0.03903391 -0.34987316 -0.44461056
v -0.04868468 -0.37709311 -0.44434398
v -0.09146543 -0.42752546 -0.49738002
v -0.07658355 -0.38845736 -0.49738002
v -0.37095781 0.26020381 0.50411732
v -0.00000000 0.36139214 0.28597395
v 0.00000000 0.40596062 0.21710247
v -0.37095781 0.26020381 0.50411732
v 0.00000000 0.40596062 0.21710247
v -0.39880963 0.27708247 0.48104099
v -0.37095781 0.26020381 0.50411732
v -0.37091824 0.23890954 0.53240998
v -0.00000000 0.36139214 0.28597395
v -0.37095781 0.26020381 0.50411732
v -0.39880963 0.27708247 0.48104099
v -0.41901007 0.26145670 0.50742317
v -0.37095781 0.26020381 0.50411732
v -0.41901007 0.26145670 0.50742317
v -0.37091824 0.23890954 0.53240998
v -0.06148254 -0.40467322 -0.44400293
v -0.05990111 -0.40171596 -0.44404450
v 0.00000002 -0.45286795 -0.15037999
v -0.09146543 -0.42752546 -0.49738002
v -0.06148254 -0.40467322 -0.44400293
v 0.00000002 -0.45286795 -0.15037999
v -0.06148254 -0.40467322 -0.44400293
v -0.09146543 -0.42752546 -0.49738002
v -0.05990111 -0.40171596 -0.44404450
v -0.34802338 -0.03547585 0.58714761
v -0.00000001 -0.23010840 0.40149131
v -0.00000001 -0.15561524 0.43584823
v -0.00000001 -0.15561524 0.43584823
v -0.00000001 -0.07620401 0.45642698
v -0.34802338 -0.03547585 0.58714761
v -0.39750430 -0.03547585 0.59671850
v -0.39838883 0.04102418 0.59679492
v -0.40701637 0.03602415 0.59737165
v -0.34802338 -0.03547585 0.58714761
v -0.37157622 0.04102416 0.59302725
v -0.39750430 -0.03547585 0.59671850
v -0.39838883 0.04102418 0.59679492
v -0.39750430 -0.03547585 0.59671850
v -0.37157622 0.04102416 0.59302725
v -0.42573592 0.04102419 0.59757341
v -0.44832936 -0.03547585 0.59590203
v -0.39750430 -0.03547585 0.59671850
v -0.39750430 -0.03547585 0.59671850
v -0.40701637 0.03602415 0.59737165
v -0.42573592 0.04102419 0.59757341
v -0.39750430 -0.03547585 0.59671850
v -0.00000001 -0.29731429 0.35444885
v -0.00000001 -0.23010840 0.40149131
v -0.39750430 -0.03547585 0.59671850
v -0.00000001 -0.23010840 0.40149131
v -0.34802338 -0.03547585 0.58714761
v -0.39750430 -0.03547585 0.59671850
v -0.00401003 -0.29731429 0.35444885
v -0.00000001 -0.29731429 0.35444885
v -0.44832936 -0.03547585 0.59590203
v -0.00401003 -0.29731429 0.35444885
v -0.39750430 -0.03547585 0.59671850
v -0.66011554 0.04102393 0.30909855
v -0.62801002 0.00537264 0.14642897
v -0.62801002 -0.02147586 0.14642897
v -0.64263457 0.15672676 0.28019170
v -0.62801002 0.00537264 0.14642897
v -0.64987754 0.09920879 0.27776361
v -0.62801002 0.00537264 0.14642897
v -0.41398378 -0.19769628 -0.54203516
v -0.41797467 -0.23373355 -0.54278320
v -0.62801002 -0.02147586 0.14642897
v -0.62801002 0.00537264 0.14642897
v -0.41797467 -0.23373355 -0.54278320
v -0.65823060 0.03602415 0.29970051
v -0.62801002 -0.02147586 0.14642897
v -0.61320548 -0.10017586 0.14502193
v -0.65823060 0.03602415 0.29970051
v -0.66011554 0.04102393 0.30909855
v -0.62801002 -0.02147586 0.14642897
v -0.62273102 0.21194907 0.26153062
v -0.62035167 0.23474719 0.27388118
v -0.61551713 0.23818223 0.26483599
v -0.41398378 -0.19769628 -0.54203516
v -0.62801002 0.00537264 0.14642897
v -0.62273102 0.21194907 0.26153062
v -0.61551713 0.23818223 0.26483599
v -0.61219930 0.24053961 0.25862853
v -0.62273102 0.21194907 0.26153062
v -0.62273102 0.21194907 0.26153062
v -0.60852056 0.24315341 0.25174583
v -0.41398378 -0.19769628 -0.54203516
v -0.62273102 0.21194907 0.26153062
v -0.61219930 0.24053961 0.25862853
v -0.60852056 0.24315341 0.25174583
v -0.63067686 0.21207738 0.28418029
v -0.64893049 0.15680650 0.30478624
v -0.63632822 0.21219373 0.30751459
v -0.63067686 0.21207738 0.28418029
v -0.64263457 0.15672676 0.28019170
v -0.64893049 0.15680650 0.30478624
v -0.63067686 0.21207738 0.28418029
v -0.62273102 0.21194907 0.26153062
v -0.64263457 0.15672676 0.28019170
v -0.63067686 0.21207738 0.28418029
v -0.62035167 0.23474719 0.27388118
v -0.62273102 0.21194907 0.26153062
v -0.57215638 0.09921200 0.54078793
v -0.57509751 0.04102414 0.54146880
v -0.55808676 0.04102414 0.55433404
v -0.57215638 0.09921200 0.54078793
v -0.59180272 0.09924193 0.52302593
v -0.59085561 0.04102414 0.52724415
v -0.57215638 0.09921200 0.54078793
v -0.59085561 0.04102414 0.52724415
v -0.57509751 0.04102414 0.54146880
v -0.59695292 -0.03547585 0.52102446
v -0.61992622 0.03602415 0.49280348
v -0.62577528 0.00752415 0.48009198
v -0.62577528 0.00752415 0.48009198
v -0.62313593 -0.00497586 0.47802993
v -0.59695292 -0.03547585 0.52102446
v -0.62577528 0.00752415 0.48009198
v -0.64442981 0.03602415 0.44855143
v -0.62313593 -0.00497586 0.47802993
v -0.00401001 0.45526567 0.06130292
v -0.54503089 0.27816075 0.38453787
v -0.53857976 0.27771214 0.40364044
v -0.54503089 0.27816075 0.38453787
v -0.00401001 0.45526567 0.06130292
v -0.54581564 0.27823249 0.38126149
v -0.32410832 0.22823139 0.53219171
v -0.37091824 0.23890954 0.53240998
v -0.33522322 0.20675407 0.55881561
v -0.32410832 0.22823139 0.53219171
v -0.31194600 0.21227433 0.54608442
v -0.00000000 0.36139214 0.28597395
v -0.32410832 0.22823139 0.53219171
v -0.00000000 0.36139214 0.28597395
v -0.37091824 0.23890954 0.53240998
v -0.37093547 0.21314117 0.55906660
v -0.35141751 0.20263875 0.56578250
v -0.33522322 0.20675407 0.55881561
v -0.35141751 0.20263875 0.56578250
v -0.33060046 0.15655673 0.56954659
v -0.33522322 0.20675407 0.55881561
v -0.37689677 0.09909268 0.59120543
v -0.37157622 0.04102416 0.59302725
v -0.35238567 0.09912121 0.58559455
v -0.37689677 0.09909268 0.59120543
v -0.39838883 0.04102418 0.59679492
v -0.37157622 0.04102416 0.59302725
v -0.37794718 0.15636235 0.58311404
v -0.37689677 0.09909268 0.59120543
v -0.35238567 0.09912121 0.58559455
v -0.41901007 0.24725278 0.52557612
v -0.44319752 0.24560064 0.52598233
v -0.41901007 0.24140173 0.53305388
v -0.41901007 0.24140173 0.53305388
v -0.37091824 0.23890954 0.53240998
v -0.41901007 0.24725278 0.52557612
v -0.37093547 0.21314117 0.55906660
v -0.37091824 0.23890954 0.53240998
v -0.41901007 0.24140173 0.53305388
v -0.46706113 0.24108519 0.52612687
v -0.46084914 0.21312898 0.55621064
v -0.44006506 0.21729545 0.55593038
v -0.44006506 0.21729545 0.55593038
v -0.44319752 0.24560064 0.52598233
v -0.46706113 0.24108519 0.52612687
v -0.44006506 0.21729545 0.55593038
v -0.41901007 0.24140173 0.53305388
v -0.44319752 0.24560064 0.52598233
v -0.49029866 0.23397385 0.52624840
v -0.46084914 0.21312898 0.55621064
v -0.46706113 0.24108519 0.52612687
v -0.49029866 0.23397385 0.52624840
v -0.48110417 0.20678380 0.55646122
v -0.46084914 0.21312898 0.55621064
v -0.49823311 0.25672174 0.49250221
v -0.46706113 0.24108519 0.52612687
v -0.47241166 0.26448697 0.49242649
v -0.49823311 0.25672174 0.49250221
v -0.49029866 0.23397385 0.52624840
v -0.46706113 0.24108519 0.52612687
v -0.00503959 -0.16209847 -0.44567328
v 0.00000004 -0.02200795 -0.45689895
v 0.00000004 -0.09918983 -0.44677296
v -0.00503959 -0.16209847 -0.44567328
v -0.06414636 -0.32331601 -0.49738002
v 0.00000004 -0.02200795 -0.45689895
v -0.01173701 -0.22122358 -0.44544360
v -0.06414636 -0.32331601 -0.49738002
v -0.00503959 -0.16209847 -0.44567328
v -0.00503959 -0.16209847 -0.44567328
v 0.00000004 -0.09918983 -0.44677296
v 0.00000004 -0.17355919 -0.42377772
v -0.00503959 -0.16209847 -0.44567328
v 0.00000004 -0.17355919 -0.42377772
v -0.01173701 -0.22122358 -0.44544360
v -0.03903391 -0.34987316 -0.44461056
v -0.07658355 -0.38845736 -0.49738002
v -0.03677027 -0.34191236 -0.44467583
v -0.03062286 -0.32029298 -0.44485304
v -0.03677027 -0.34191236 -0.44467583
v -0.07658355 -0.38845736 -0.49738002
v -0.03677027 -0.34191236 -0.44467583
v 0.00000003 -0.35925937 -0.28588115
v -0.03903391 -0.34987316 -0.44461056
v -0.03677027 -0.34191236 -0.44467583
v -0.03062286 -0.32029298 -0.44485304
v 0.00000003 -0.35925937 -0.28588115
v -0.01842462 -0.26284853 -0.44522723
v -0.02327155 -0.28851911 -0.44507474
v -0.07658355 -0.38845736 -0.49738002
v -0.01842462 -0.26284853 -0.44522723
v -0.07658355 -0.38845736 -0.49738002
v -0.01688205 -0.25467864 -0.44527575
v -0.01842462 -0.26284853 -0.44522723
v 0.00000004 -0.24298626 -0.38857173
v -0.02327155 -0.28851911 -0.44507474
v -0.01842462 -0.26284853 -0.44522723
v -0.01688205 -0.25467864 -0.44527575
v 0.00000004 -0.24298626 -0.38857173
v -0.54430764 0.28021261 0.31797166
v -0.56811588 0.26246816 0.20347676
v -0.58484756 0.25588942 0.21977376
v -0.56811588 0.26246816 0.20347676
v -0.54430764 0.28021261 0.31797166
v -0.56570821 0.26341483 0.20113166
v -0.54872298 0.27861765 0.36125477
v -0.00401001 0.45526567 0.06130292
v -0.00401001 0.45843416 -0.02067017
v -0.48055181 0.27646235 0.46713033
v -0.46201214 0.27642897 0.47530180
v -0.00401002 0.43758705 0.14140969
v -0.48055181 0.27646235 0.46713033
v -0.00401002 0.43758705 0.14140969
v -0.49751487 0.27659118 0.45623946
v -0.48055181 0.27646235 0.46713033
v -0.47241166 0.26448697 0.49242649
v -0.46201214 0.27642897 0.47530180
v -0.48055181 0.27646235 0.46713033
v -0.49823311 0.25672174 0.49250221
v -0.47241166 0.26448697 0.49242649
v -0.50451642 0.27417549 0.45631957
v -0.49823311 0.25672174 0.49250221
v -0.48055181 0.27646235 0.46713033
v -0.45881214 0.27643263 0.47637701
v -0.00401002 0.43758705 0.14140969
v -0.46201214 0.27642897 0.47530180
v -0.45881214 0.27643263 0.47637701
v -0.43920323 0.27651846 0.48104212
v -0.00401002 0.43758705 0.14140969
v -0.43920323 0.27651846 0.48104212
v -0.45881214 0.27643263 0.47637701
v -0.44589153 0.26932281 0.49233374
v -0.46201214 0.27642897 0.47530180
v -0.47241166 0.26448697 0.49242649
v -0.45881214 0.27643263 0.47637701
v -0.45881214 0.27643263 0.47637701
v -0.47241166 0.26448697 0.49242649
v -0.44589153 0.26932281 0.49233374
v -0.50017267 0.27662244 0.45417109
v -0.00401002 0.43758705 0.14140969
v -0.00401001 0.45526567 0.06130292
v -0.00401001 0.45526567 0.06130292
v -0.51496565 0.27687094 0.44032704
v -0.50017267 0.27662244 0.45417109
v -0.50017267 0.27662244 0.45417109
v -0.49751487 0.27659118 0.45623946
v -0.00401002 0.43758705 0.14140969
v -0.50017267 0.27662244 0.45417109
v -0.51496565 0.27687094 0.44032704
v -0.50451642 0.27417549 0.45631957
v -0.49751487 0.27659118 0.45623946
v -0.50017267 0.27662244 0.45417109
v -0.50451642 0.27417549 0.45631957
v -0.00401002 0.40596062 0.21710247
v -0.41901007 0.27673784 0.48262000
v 0.00000000 0.40596062 0.21710247
v -0.00401002 0.40596062 0.21710247
v -0.43920323 0.27651846 0.48104212
v -0.41901007 0.27673784 0.48262000
v -0.00401002 0.40596062 0.21710247
v -0.00401002 0.43758705 0.14140969
v -0.43920323 0.27651846 0.48104212
v -0.65656006 0.09923918 0.30312187
v -0.64987754 0.09920879 0.27776361
v -0.62801002 0.00537264 0.14642897
v -0.65656006 0.09923918 0.30312187
v -0.62801002 0.00537264 0.14642897
v -0.66011554 0.04102393 0.30909855
v -0.66011554 0.04102393 0.30909855
v -0.66051847 0.09926549 0.32916416
v -0.65656006 0.09923918 0.30312187
v -0.65656006 0.09923918 0.30312187
v -0.66051847 0.09926549 0.32916416
v -0.64893049 0.15680650 0.30478624
v -0.65656006 0.09923918 0.30312187
v -0.64263457 0.15672676 0.28019170
v -0.64987754 0.09920879 0.27776361
v -0.64893049 0.15680650 0.30478624
v -0.64263457 0.15672676 0.28019170
v -0.65656006 0.09923918 0.30312187
v -0.65265554 0.15687557 0.32997371
v -0.64893049 0.15680650 0.30478624
v -0.66051847 0.09926549 0.32916416
v -0.65265554 0.15687557 0.32997371
v -0.63632822 0.21219373 0.30751459
v -0.64893049 0.15680650 0.30478624
v -0.65265554 0.15687557 0.32997371
v -0.63964790 0.21229419 0.33129920
v -0.63632822 0.21219373 0.30751459
v -0.66337365 0.04102414 0.33496992
v -0.66051847 0.09926549 0.32916416
v -0.66011554 0.04102393 0.30909855
v -0.65823060 0.03602415 0.29970051
v -0.66337365 0.04102414 0.33496992
v -0.66011554 0.04102393 0.30909855
v -0.66337365 0.04102414 0.33496992
v -0.61320548 -0.10017586 0.14502193
v -0.66399551 0.03602415 0.35005532
v -0.66337365 0.04102414 0.33496992
v -0.65823060 0.03602415 0.29970051
v -0.61320548 -0.10017586 0.14502193
v -0.63632822 0.21219373 0.30751459
v -0.63964790 0.21229419 0.33129920
v -0.63645494 0.21939024 0.32138033
v -0.63385414 0.15663894 0.25646663
v -0.62801002 0.00537264 0.14642897
v -0.64263457 0.15672676 0.28019170
v -0.62273102 0.21194907 0.26153062
v -0.63385414 0.15663894 0.25646663
v -0.64263457 0.15672676 0.28019170
v -0.63385414 0.15663894 0.25646663
v -0.62273102 0.21194907 0.26153062
v -0.62801002 0.00537264 0.14642897
v -0.59085561 0.03602415 0.52724415
v -0.59695292 -0.03547585 0.52102446
v -0.57509751 0.04102414 0.54146880
v -0.57509751 0.04102414 0.54146880
v -0.59085561 0.04102414 0.52724415
v -0.59085561 0.03602415 0.52724415
v -0.59989823 0.04102409 0.51785355
v -0.59085561 0.04102414 0.52724415
v -0.59180272 0.09924193 0.52302593
v -0.54716546 0.15662205 0.54904419
v -0.57215638 0.09921200 0.54078793
v -0.55074430 0.09918098 0.55626166
v -0.55074430 0.09918098 0.55626166
v -0.57215638 0.09921200 0.54078793
v -0.55808676 0.04102414 0.55433404
v -0.55123312 0.03602415 0.55889601
v -0.55074430 0.09918098 0.55626166
v -0.55808676 0.04102414 0.55433404
v -0.56781150 0.15670930 0.53405934
v -0.57215638 0.09921200 0.54078793
v -0.54716546 0.15662205 0.54904419
v -0.56781150 0.15670930 0.53405934
v -0.59180272 0.09924193 0.52302593
v -0.57215638 0.09921200 0.54078793
v -0.50378204 0.09912328 0.57969749
v -0.50174988 0.15645921 0.57182455
v -0.52785111 0.09915078 0.56927479
v -0.53312654 0.04102423 0.56944490
v -0.55074430 0.09918098 0.55626166
v -0.55123312 0.03602415 0.55889601
v -0.53312654 0.04102423 0.56944490
v -0.52785111 0.09915078 0.56927479
v -0.55074430 0.09918098 0.55626166
v -0.53312654 0.04102423 0.56944490
v -0.55861307 -0.03547585 0.55396986
v -0.51445854 -0.03547585 0.57829327
v -0.53312654 0.04102423 0.56944490
v -0.55123312 0.03602415 0.55889601
v -0.55861307 -0.03547585 0.55396986
v -0.52785111 0.09915078 0.56927479
v -0.50174988 0.15645921 0.57182455
v -0.52505047 0.15653695 0.56167686
v -0.54716546 0.15662205 0.54904419
v -0.55074430 0.09918098 0.55626166
v -0.52505047 0.15653695 0.56167686
v -0.52505047 0.15653695 0.56167686
v -0.55074430 0.09918098 0.55626166
v -0.52785111 0.09915078 0.56927479
v -0.52505047 0.15653695 0.56167686
v -0.54006881 0.18713053 0.54576635
v -0.54716546 0.15662205 0.54904419
v -0.48135713 0.04102414 0.58959431
v -0.45314166 0.04102416 0.59527231
v -0.47885177 0.09910037 0.58743954
v -0.48135713 0.04102414 0.58959431
v -0.45745811 0.03602415 0.59462763
v -0.45314166 0.04102416 0.59527231
v -0.31201037 0.21225907 0.54611964
v -0.32410832 0.22823139 0.53219171
v -0.33522322 0.20675407 0.55881561
v -0.32410832 0.22823139 0.53219171
v -0.31201037 0.21225907 0.54611964
v -0.31194600 0.21227433 0.54608442
v -0.33522322 0.20675407 0.55881561
v -0.00000001 0.16598485 0.43125057
v -0.31201037 0.21225907 0.54611964
v -0.00000001 0.16598485 0.43125057
v -0.31194600 0.21227433 0.54608442
v -0.31201037 0.21225907 0.54611964
v -0.35383197 0.15643770 0.57754506
v -0.37794718 0.15636235 0.58311404
v -0.35238567 0.09912121 0.58559455
v -0.35383197 0.15643770 0.57754506
v -0.35238567 0.09912121 0.58559455
v -0.32882741 0.09916572 0.57758732
v -0.35383197 0.15643770 0.57754506
v -0.32882741 0.09916572 0.57758732
v -0.33060046 0.15655673 0.56954659
v -0.33060046 0.15655673 0.56954659
v -0.35141751 0.20263875 0.56578250
v -0.35383197 0.15643770 0.57754506
v -0.47755817 0.15639400 0.57939006
v -0.50378204 0.09912328 0.57969749
v -0.47885177 0.09910037 0.58743954
v -0.50174988 0.15645921 0.57182455
v -0.50378204 0.09912328 0.57969749
v -0.47755817 0.15639400 0.57939006
v -0.42769048 0.09907595 0.59471966
v -0.45314166 0.04102416 0.59527231
v -0.42573592 0.04102419 0.59757341
v -0.37276926 0.19749744 0.57272412
v -0.35141751 0.20263875 0.56578250
v -0.37093547 0.21314117 0.55906660
v -0.37276926 0.19749744 0.57272412
v -0.37093547 0.21314117 0.55906660
v -0.41901007 0.21739428 0.55739082
v -0.41901007 0.21739428 0.55739082
v -0.39413348 0.19339155 0.57715971
v -0.37276926 0.19749744 0.57272412
v -0.37276926 0.19749744 0.57272412
v -0.39413348 0.19339155 0.57715971
v -0.37794718 0.15636235 0.58311404
v -0.37276926 0.19749744 0.57272412
v -0.35383197 0.15643770 0.57754506
v -0.35141751 0.20263875 0.56578250
v -0.35383197 0.15643770 0.57754506
v -0.37276926 0.19749744 0.57272412
v -0.37794718 0.15636235 0.58311404
v -0.44006506 0.21729545 0.55593038
v -0.41901007 0.19064370 0.57920946
v -0.41901007 0.21739428 0.55739082
v -0.48110417 0.20678380 0.55646122
v -0.47153476 0.18866895 0.57365204
v -0.46084914 0.21312898 0.55621064
v -0.41901007 0.21739428 0.55739082
v -0.37093547 0.21314117 0.55906660
v -0.41901007 0.21923415 0.55552573
v -0.37093547 0.21314117 0.55906660
v -0.41901007 0.24140173 0.53305388
v -0.41901007 0.21923415 0.55552573
v -0.41901007 0.21923415 0.55552573
v -0.44006506 0.21729545 0.55593038
v -0.41901007 0.21739428 0.55739082
v -0.44006506 0.21729545 0.55593038
v -0.41901007 0.21923415 0.55552573
v -0.41901007 0.24140173 0.53305388
v -0.44531736 0.18943113 0.57800878
v -0.44006506 0.21729545 0.55593038
v -0.46084914 0.21312898 0.55621064
v -0.44531736 0.18943113 0.57800878
v -0.41901007 0.19064370 0.57920946
v -0.44006506 0.21729545 0.55593038
v -0.53768861 0.27453977 0.41764509
v -0.52737152 0.27721423 0.42443773
v -0.52919823 0.27728003 0.42160236
v -0.53768861 0.27453977 0.41764509
v -0.52919823 0.27728003 0.42160236
v -0.53857976 0.27771214 0.40364044
v -0.53768861 0.27453977 0.41764509
v -0.53857976 0.27771214 0.40364044
v -0.56464147 0.25977108 0.41782796
v -0.57009566 0.26553276 0.37743421
v -0.54503089 0.27816075 0.38453787
v -0.54581564 0.27823249 0.38126149
v -0.54503089 0.27816075 0.38453787
v -0.57009566 0.26553276 0.37743421
v -0.53857976 0.27771214 0.40364044
v -0.57009566 0.26553276 0.37743421
v -0.56464147 0.25977108 0.41782796
v -0.53857976 0.27771214 0.40364044
v -0.57009566 0.26553276 0.37743421
v -0.57289063 0.26605570 0.33701263
v -0.59997350 0.24844097 0.33692299
v -0.57009566 0.26553276 0.37743421
v -0.54872298 0.27861765 0.36125477
v -0.57289063 0.26605570 0.33701263
v -0.52302528 0.24610664 0.49256092
v -0.55675030 0.24859419 0.45667230
v -0.54651946 0.23285340 0.49260261
v -0.49823311 0.25672174 0.49250221
v -0.52302528 0.24610664 0.49256092
v -0.49029866 0.23397385 0.52624840
v -0.58995086 0.24229665 0.41797726
v -0.55675030 0.24859419 0.45667230
v -0.56464147 0.25977108 0.41782796
v -0.58995086 0.24229665 0.41797726
v -0.62106341 0.22756687 0.37761788
v -0.61347217 0.22244853 0.41809307
v -0.54803567 0.27914685 0.33709367
v -0.54814684 0.27911505 0.33766409
v -0.00401001 0.45843416 -0.02067017
v -0.00401001 0.45843416 -0.02067017
v -0.54430764 0.28021261 0.31797166
v -0.54803567 0.27914685 0.33709367
v -0.54814684 0.27911505 0.33766409
v -0.54803567 0.27914685 0.33709367
v -0.58484756 0.25588942 0.21977376
v -0.54803567 0.27914685 0.33709367
v -0.54430764 0.28021261 0.31797166
v -0.58484756 0.25588942 0.21977376
v -0.53751259 0.28192356 0.29916780
v -0.54430764 0.28021261 0.31797166
v -0.00401001 0.45843416 -0.02067017
v -0.53751259 0.28192356 0.29916780
v -0.56316213 0.26426092 0.19858330
v -0.56570821 0.26341483 0.20113166
v -0.00401001 0.45843416 -0.02067017
v -0.54814684 0.27911505 0.33766409
v -0.54851174 0.27899188 0.34124880
v -0.54851174 0.27899188 0.34124880
v -0.54872298 0.27861765 0.36125477
v -0.00401001 0.45843416 -0.02067017
v -0.57289063 0.26605570 0.33701263
v -0.54851174 0.27899188 0.34124880
v -0.54814684 0.27911505 0.33766409
v -0.54851174 0.27899188 0.34124880
v -0.57289063 0.26605570 0.33701263
v -0.54872298 0.27861765 0.36125477
v -0.49748060 0.27659091 0.45626148
v -0.49751487 0.27659118 0.45623946
v -0.50451642 0.27417549 0.45631957
v -0.50451642 0.27417549 0.45631957
v -0.48055181 0.27646235 0.46713033
v -0.49748060 0.27659091 0.45626148
v -0.49748060 0.27659091 0.45626148
v -0.48055181 0.27646235 0.46713033
v -0.49751487 0.27659118 0.45623946
v -0.66275972 0.04102414 0.37723790
v -0.66373080 0.04102407 0.36416174
v -0.66399551 0.03602415 0.35005532
v -0.65994734 0.09930246 0.38202019
v -0.65533299 0.09931152 0.40816771
v -0.64770955 0.15699443 0.40617903
v -0.66373080 0.04102407 0.36416174
v -0.66275972 0.04102414 0.37723790
v -0.65994734 0.09930246 0.38202019
v -0.65971822 0.04102414 0.39820944
v -0.65533299 0.09931152 0.40816771
v -0.65994734 0.09930246 0.38202019
v -0.65971822 0.04102414 0.39820944
v -0.65994734 0.09930246 0.38202019
v -0.66275972 0.04102414 0.37723790
v -0.65212155 0.15697178 0.38097684
v -0.65994734 0.09930246 0.38202019
v -0.64770955 0.15699443 0.40617903
v -0.64055717 0.15699671 0.43075894
v -0.63462109 0.20231885 0.41550727
v -0.64770955 0.15699443 0.40617903
v -0.64055717 0.15699671 0.43075894
v -0.64770955 0.15699443 0.40617903
v -0.65533299 0.09931152 0.40816771
v -0.65375477 0.15693139 0.35546900
v -0.64062387 0.21237487 0.35529943
v -0.63995033 0.21423158 0.34505181
v -0.63995033 0.21423158 0.34505181
v -0.65265554 0.15687557 0.32997371
v -0.65375477 0.15693139 0.35546900
v -0.63964790 0.21229419 0.33129920
v -0.65265554 0.15687557 0.32997371
v -0.63995033 0.21423158 0.34505181
v -0.63995033 0.21423158 0.34505181
v -0.64062387 0.21237487 0.35529943
v -0.62106341 0.22756687 0.37761788
v -0.63632822 0.21219373 0.30751459
v -0.63645494 0.21939024 0.32138033
v -0.62992596 0.22643028 0.29757450
v -0.62992596 0.22643028 0.29757450
v -0.63067686 0.21207738 0.28418029
v -0.63632822 0.21219373 0.30751459
v -0.60941601 0.09926887 0.50317931
v -0.59989823 0.04102409 0.51785355
v -0.59180272 0.09924193 0.52302593
v -0.60941601 0.09926887 0.50317931
v -0.60365862 0.15686947 0.49773606
v -0.62476278 0.09929094 0.48149039
v -0.59695292 0.03602415 0.52102446
v -0.59989823 0.04102409 0.51785355
v -0.59695292 -0.03547585 0.52102446
v -0.59085561 0.04102414 0.52724415
v -0.59989823 0.04102409 0.51785355
v -0.59695292 0.03602415 0.52102446
v -0.63992024 0.04102414 0.45852487
v -0.64442981 0.03602415 0.44855143
v -0.62577528 0.00752415 0.48009198
v -0.62993348 0.04102414 0.47723704
v -0.62577528 0.00752415 0.48009198
v -0.61992622 0.03602415 0.49280348
v -0.62993348 0.04102414 0.47723704
v -0.63992024 0.04102414 0.45852487
v -0.62577528 0.00752415 0.48009198
v -0.60365862 0.15686947 0.49773606
v -0.59815360 0.19048107 0.49256589
v -0.60860557 0.19236486 0.47771104
v -0.60860557 0.19236486 0.47771104
v -0.60273034 0.21285154 0.45684533
v -0.62080664 0.19571072 0.45514404
v -0.60273034 0.21285154 0.45684533
v -0.60860557 0.19236486 0.47771104
v -0.56853253 0.21725702 0.49262726
v -0.60860557 0.19236486 0.47771104
v -0.59815360 0.19048107 0.49256589
v -0.56853253 0.21725702 0.49262726
v -0.56781150 0.15670930 0.53405934
v -0.58672482 0.15679350 0.51689112
v -0.59180272 0.09924193 0.52302593
v -0.58672482 0.15679350 0.51689112
v -0.60941601 0.09926887 0.50317931
v -0.59180272 0.09924193 0.52302593
v -0.58672482 0.15679350 0.51689112
v -0.60365862 0.15686947 0.49773606
v -0.60941601 0.09926887 0.50317931
v -0.58672482 0.15679350 0.51689112
v -0.56781150 0.15670930 0.53405934
v -0.57838369 0.18813679 0.51564777
v -0.50651956 0.04102418 0.58149177
v -0.52785111 0.09915078 0.56927479
v -0.53312654 0.04102423 0.56944490
v -0.50651956 0.04102418 0.58149177
v -0.50378204 0.09912328 0.57969749
v -0.52785111 0.09915078 0.56927479
v -0.50651956 0.04102418 0.58149177
v -0.53312654 0.04102423 0.56944490
v -0.51445854 -0.03547585 0.57829327
v -0.51445854 -0.03547585 0.57829327
v -0.48135713 0.04102414 0.58959431
v -0.50171227 0.04102414 0.58327425
v -0.50171227 0.04102414 0.58327425
v -0.50378204 0.09912328 0.57969749
v -0.50651956 0.04102418 0.58149177
v -0.47885177 0.09910037 0.58743954
v -0.50378204 0.09912328 0.57969749
v -0.50171227 0.04102414 0.58327425
v -0.50171227 0.04102414 0.58327425
v -0.48135713 0.04102414 0.58959431
v -0.47885177 0.09910037 0.58743954
v -0.44832936 -0.03547585 0.59590203
v -0.45745811 0.03602415 0.59462763
v -0.46593371 -0.03547585 0.59312750
v -0.45745811 0.03602415 0.59462763
v -0.48135713 0.04102414 0.58959431
v -0.46593371 -0.03547585 0.59312750
v -0.46593371 -0.03547585 0.59312750
v -0.48135713 0.04102414 0.58959431
v -0.51445854 -0.03547585 0.57829327
v -0.46593371 -0.03547585 0.59312750
v -0.51445854 -0.03547585 0.57829327
v -0.00401003 -0.35509562 0.29621701
v -0.46593371 -0.03547585 0.59312750
v -0.00401003 -0.35509562 0.29621701
v -0.44832936 -0.03547585 0.59590203
v -0.37689677 0.09909268 0.59120543
v -0.40209541 0.09907822 0.59428145
v -0.39838883 0.04102418 0.59679492
v -0.40209541 0.09907822 0.59428145
v -0.40701637 0.03602415 0.59737165
v -0.39838883 0.04102418 0.59679492
v -0.40701637 0.03602415 0.59737165
v -0.40209541 0.09907822 0.59428145
v -0.42573592 0.04102419 0.59757341
v -0.40209541 0.09907822 0.59428145
v -0.42769048 0.09907595 0.59471966
v -0.42573592 0.04102419 0.59757341
v -0.41566279 0.19086748 0.57912780
v -0.41901007 0.21739428 0.55739082
v -0.41901007 0.19064370 0.57920946
v -0.47755817 0.15639400 0.57939006
v -0.47153476 0.18866895 0.57365204
v -0.49310109 0.18808733 0.56763858
v -0.49310109 0.18808733 0.56763858
v -0.49979166 0.18791829 0.56497944
v -0.50174988 0.15645921 0.57182455
v -0.50174988 0.15645921 0.57182455
v -0.47755817 0.15639400 0.57939006
v -0.49310109 0.18808733 0.56763858
v -0.45210031 0.18923394 0.57688165
v -0.44531736 0.18943113 0.57800878
v -0.46084914 0.21312898 0.55621064
v -0.42769048 0.09907595 0.59471966
v -0.40209541 0.09907822 0.59428145
v -0.40267208 0.15632550 0.58614344
v -0.37794718 0.15636235 0.58311404
v -0.40267208 0.15632550 0.58614344
v -0.37689677 0.09909268 0.59120543
v -0.40267208 0.15632550 0.58614344
v -0.40209541 0.09907822 0.59428145
v -0.37689677 0.09909268 0.59120543
v -0.39413348 0.19339155 0.57715971
v -0.40267208 0.15632550 0.58614344
v -0.37794718 0.15636235 0.58311404
v -0.45277772 0.15634651 0.58430702
v -0.47755817 0.15639400 0.57939006
v -0.47885177 0.09910037 0.58743954
v -0.45210031 0.18923394 0.57688165
v -0.45277772 0.15634651 0.58430702
v -0.44531736 0.18943113 0.57800878
v -0.45277772 0.15634651 0.58430702
v -0.47153476 0.18866895 0.57365204
v -0.47755817 0.15639400 0.57939006
v -0.54638540 0.27830797 0.37734066
v -0.57009566 0.26553276 0.37743421
v -0.54581564 0.27823249 0.38126149
v -0.54638540 0.27830797 0.37734066
v -0.54872298 0.27861765 0.36125477
v -0.57009566 0.26553276 0.37743421
v -0.54638540 0.27830797 0.37734066
v -0.54581564 0.27823249 0.38126149
v -0.00401001 0.45526567 0.06130292
v -0.54638540 0.27830797 0.37734066
v -0.00401001 0.45526567 0.06130292
v -0.54872298 0.27861765 0.36125477
v -0.55675030 0.24859419 0.45667230
v -0.52302528 0.24610664 0.49256092
v -0.53132224 0.26281080 0.45651841
v -0.53132224 0.26281080 0.45651841
v -0.50451642 0.27417549 0.45631957
v -0.51496565 0.27687094 0.44032704
v -0.53132224 0.26281080 0.45651841
v -0.49823311 0.25672174 0.49250221
v -0.50451642 0.27417549 0.45631957
v -0.53132224 0.26281080 0.45651841
v -0.52302528 0.24610664 0.49256092
v -0.49823311 0.25672174 0.49250221
v -0.53132224 0.26281080 0.45651841
v -0.51496565 0.27687094 0.44032704
v -0.52737152 0.27721423 0.42443773
v -0.52737152 0.27721423 0.42443773
v -0.53768861 0.27453977 0.41764509
v -0.53132224 0.26281080 0.45651841
v -0.53132224 0.26281080 0.45651841
v -0.56464147 0.25977108 0.41782796
v -0.55675030 0.24859419 0.45667230
v -0.53132224 0.26281080 0.45651841
v -0.53768861 0.27453977 0.41764509
v -0.56464147 0.25977108 0.41782796
v -0.59648657 0.24778029 0.37752958
v -0.62106341 0.22756687 0.37761788
v -0.58995086 0.24229665 0.41797726
v -0.59648657 0.24778029 0.37752958
v -0.57009566 0.26553276 0.37743421
v -0.59997350 0.24844097 0.33692299
v -0.56464147 0.25977108 0.41782796
v -0.57009566 0.26553276 0.37743421
v -0.59648657 0.24778029 0.37752958
v -0.59648657 0.24778029 0.37752958
v -0.58995086 0.24229665 0.41797726
v -0.56464147 0.25977108 0.41782796
v -0.00401001 0.45843416 -0.02067017
v -0.53599667 0.28228262 0.29592677
v -0.53681087 0.28208977 0.29766749
v -0.53681087 0.28208977 0.29766749
v -0.53751259 0.28192356 0.29916780
v -0.00401001 0.45843416 -0.02067017
v -0.53681087 0.28208977 0.29766749
v -0.53599667 0.28228262 0.29592677
v -0.56316213 0.26426092 0.19858330
v -0.53681087 0.28208977 0.29766749
v -0.56316213 0.26426092 0.19858330
v -0.53751259 0.28192356 0.29916780
v -0.56570821 0.26341483 0.20113166
v -0.54430764 0.28021261 0.31797166
v -0.54414224 0.27902567 0.29757650
v -0.54414224 0.27902567 0.29757650
v -0.53751259 0.28192356 0.29916780
v -0.56570821 0.26341483 0.20113166
v -0.53751259 0.28192356 0.29916780
v -0.54414224 0.27902567 0.29757650
v -0.54430764 0.28021261 0.31797166
v -0.65375477 0.15693139 0.35546900
v -0.65265554 0.15687557 0.32997371
v -0.66167063 0.09928685 0.35557244
v -0.66167063 0.09928685 0.35557244
v -0.65265554 0.15687557 0.32997371
v -0.66051847 0.09926549 0.32916416
v -0.66167063 0.09928685 0.35557244
v -0.65212155 0.15697178 0.38097684
v -0.65375477 0.15693139 0.35546900
v -0.65994734 0.09930246 0.38202019
v -0.65212155 0.15697178 0.38097684
v -0.66167063 0.09928685 0.35557244
v -0.66373080 0.04102407 0.36416174
v -0.65994734 0.09930246 0.38202019
v -0.66167063 0.09928685 0.35557244
v -0.66399551 0.03602415 0.35005532
v -0.66373080 0.04102407 0.36416174
v -0.66167063 0.09928685 0.35557244
v -0.66167063 0.09928685 0.35557244
v -0.66337365 0.04102414 0.33496992
v -0.66399551 0.03602415 0.35005532
v -0.66337365 0.04102414 0.33496992
v -0.66167063 0.09928685 0.35557244
v -0.66051847 0.09926549 0.32916416
v -0.65706557 0.04102404 0.40872632
v -0.65257335 0.04102387 0.42653622
v -0.65533299 0.09931152 0.40816771
v -0.65706557 0.04102404 0.40872632
v -0.65533299 0.09931152 0.40816771
v -0.65971822 0.04102414 0.39820944
v -0.64072335 0.21127541 0.36335535
v -0.65212155 0.15697178 0.38097684
v -0.63981724 0.20854986 0.37939121
v -0.64072335 0.21127541 0.36335535
v -0.64062387 0.21237487 0.35529943
v -0.65375477 0.15693139 0.35546900
v -0.64072335 0.21127541 0.36335535
v -0.65375477 0.15693139 0.35546900
v -0.65212155 0.15697178 0.38097684
v -0.63981724 0.20854986 0.37939121
v -0.62106341 0.22756687 0.37761788
v -0.64072335 0.21127541 0.36335535
v -0.64072335 0.21127541 0.36335535
v -0.62106341 0.22756687 0.37761788
v -0.64062387 0.21237487 0.35529943
v -0.63924217 0.20682009 0.38956828
v -0.65212155 0.15697178 0.38097684
v -0.64770955 0.15699443 0.40617903
v -0.63924217 0.20682009 0.38956828
v -0.64770955 0.15699443 0.40617903
v -0.63462109 0.20231885 0.41550727
v -0.63924217 0.20682009 0.38956828
v -0.63981724 0.20854986 0.37939121
v -0.65212155 0.15697178 0.38097684
v -0.63924217 0.20682009 0.38956828
v -0.63462109 0.20231885 0.41550727
v -0.61347217 0.22244853 0.41809307
v -0.63924217 0.20682009 0.38956828
v -0.62106341 0.22756687 0.37761788
v -0.63981724 0.20854986 0.37939121
v -0.61347217 0.22244853 0.41809307
v -0.62106341 0.22756687 0.37761788
v -0.63924217 0.20682009 0.38956828
v -0.63015223 0.19961052 0.43132867
v -0.62080664 0.19571072 0.45514404
v -0.60273034 0.21285154 0.45684533
v -0.63015223 0.19961052 0.43132867
v -0.60273034 0.21285154 0.45684533
v -0.61347217 0.22244853 0.41809307
v -0.63074995 0.15697598 0.45440723
v -0.62080664 0.19571072 0.45514404
v -0.63015223 0.19961052 0.43132867
v -0.63074995 0.15697598 0.45440723
v -0.63015223 0.19961052 0.43132867
v -0.64055717 0.15699671 0.43075894
v -0.63794708 0.21718809 0.33148531
v -0.63645494 0.21939024 0.32138033
v -0.63964790 0.21229419 0.33129920
v -0.63995033 0.21423158 0.34505181
v -0.63794708 0.21718809 0.33148531
v -0.63964790 0.21229419 0.33129920
v -0.62664514 0.22913228 0.29655046
v -0.59997350 0.24844097 0.33692299
v -0.62035167 0.23474719 0.27388118
v -0.62950134 0.22679916 0.29652364
v -0.63067686 0.21207738 0.28418029
v -0.62992596 0.22643028 0.29757450
v -0.62950134 0.22679916 0.29652364
v -0.62992596 0.22643028 0.29757450
v -0.62664514 0.22913228 0.29655046
v -0.60941601 0.09926887 0.50317931
v -0.61829210 0.04102414 0.49511787
v -0.59989823 0.04102409 0.51785355
v -0.61829210 0.04102414 0.49511787
v -0.61992622 0.03602415 0.49280348
v -0.59695292 -0.03547585 0.52102446
v -0.61829210 0.04102414 0.49511787
v -0.59695292 -0.03547585 0.52102446
v -0.59989823 0.04102409 0.51785355
v -0.61829210 0.04102414 0.49511787
v -0.60941601 0.09926887 0.50317931
v -0.62476278 0.09929094 0.48149039
v -0.58059192 0.23182763 0.45678129
v -0.55675030 0.24859419 0.45667230
v -0.58995086 0.24229665 0.41797726
v -0.58059192 0.23182763 0.45678129
v -0.60273034 0.21285154 0.45684533
v -0.56853253 0.21725702 0.49262726
v -0.58059192 0.23182763 0.45678129
v -0.58995086 0.24229665 0.41797726
v -0.61347217 0.22244853 0.41809307
v -0.58059192 0.23182763 0.45678129
v -0.61347217 0.22244853 0.41809307
v -0.60273034 0.21285154 0.45684533
v -0.54651946 0.23285340 0.49260261
v -0.55675030 0.24859419 0.45667230
v -0.58059192 0.23182763 0.45678129
v -0.58059192 0.23182763 0.45678129
v -0.56853253 0.21725702 0.49262726
v -0.54651946 0.23285340 0.49260261
v -0.51261020 0.22432493 0.52634692
v -0.52302528 0.24610664 0.49256092
v -0.54651946 0.23285340 0.49260261
v -0.54651946 0.23285340 0.49260261
v -0.53376019 0.21234007 0.52642238
v -0.51261020 0.22432493 0.52634692
v -0.51261020 0.22432493 0.52634692
v -0.49029866 0.23397385 0.52624840
v -0.52302528 0.24610664 0.49256092
v -0.55359644 0.19829784 0.52647483
v -0.54651946 0.23285340 0.49260261
v -0.56853253 0.21725702 0.49262726
v -0.55359644 0.19829784 0.52647483
v -0.53376019 0.21234007 0.52642238
v -0.54651946 0.23285340 0.49260261
v -0.55359644 0.19829784 0.52647483
v -0.56853253 0.21725702 0.49262726
v -0.57838369 0.18813679 0.51564777
v -0.55359644 0.19829784 0.52647483
v -0.54006881 0.18713053 0.54576635
v -0.53376019 0.21234007 0.52642238
v -0.64442981 0.03602415 0.44855143
v -0.63992024 0.04102414 0.45852487
v -0.64208490 0.04102406 0.45388423
v -0.59496403 0.18990621 0.49709901
v -0.59815360 0.19048107 0.49256589
v -0.60365862 0.15686947 0.49773606
v -0.58672482 0.15679350 0.51689112
v -0.59496403 0.18990621 0.49709901
v -0.60365862 0.15686947 0.49773606
v -0.56853253 0.21725702 0.49262726
v -0.59815360 0.19048107 0.49256589
v -0.59496403 0.18990621 0.49709901
v -0.50612820 0.03602415 0.58164126
v -0.50651956 0.04102418 0.58149177
v -0.51445854 -0.03547585 0.57829327
v -0.51445854 -0.03547585 0.57829327
v -0.50171227 0.04102414 0.58327425
v -0.50612820 0.03602415 0.58164126
v -0.50612820 0.03602415 0.58164126
v -0.50171227 0.04102414 0.58327425
v -0.50651956 0.04102418 0.58149177
v -0.40322241 0.19232598 0.57799060
v -0.39413348 0.19339155 0.57715971
v -0.41901007 0.21739428 0.55739082
v -0.41566279 0.19086748 0.57912780
v -0.40322241 0.19232598 0.57799060
v -0.41901007 0.21739428 0.55739082
v -0.40322241 0.19232598 0.57799060
v -0.40267208 0.15632550 0.58614344
v -0.39413348 0.19339155 0.57715971
v -0.40322241 0.19232598 0.57799060
v -0.41566279 0.19086748 0.57912780
v -0.40267208 0.15632550 0.58614344
v -0.47627345 0.18854116 0.57233072
v -0.47153476 0.18866895 0.57365204
v -0.48110417 0.20678380 0.55646122
v -0.49310109 0.18808733 0.56763858
v -0.47627345 0.18854116 0.57233072
v -0.48110417 0.20678380 0.55646122
v -0.47627345 0.18854116 0.57233072
v -0.49310109 0.18808733 0.56763858
v -0.47153476 0.18866895 0.57365204
v -0.45568207 0.18912981 0.57628644
v -0.46084914 0.21312898 0.55621064
v -0.47153476 0.18866895 0.57365204
v -0.45568207 0.18912981 0.57628644
v -0.45210031 0.18923394 0.57688165
v -0.46084914 0.21312898 0.55621064
v -0.47153476 0.18866895 0.57365204
v -0.45277772 0.15634651 0.58430702
v -0.45568207 0.18912981 0.57628644
v -0.45568207 0.18912981 0.57628644
v -0.45277772 0.15634651 0.58430702
v -0.45210031 0.18923394 0.57688165
v -0.45338139 0.09908397 0.59244705
v -0.45277772 0.15634651 0.58430702
v -0.47885177 0.09910037 0.58743954
v -0.45338139 0.09908397 0.59244705
v -0.47885177 0.09910037 0.58743954
v -0.45314166 0.04102416 0.59527231
v -0.45314166 0.04102416 0.59527231
v -0.42769048 0.09907595 0.59471966
v -0.45338139 0.09908397 0.59244705
v -0.42769048 0.09907595 0.59471966
v -0.40267208 0.15632550 0.58614344
v -0.42771402 0.15632196 0.58655704
v -0.42771402 0.15632196 0.58655704
v -0.45338139 0.09908397 0.59244705
v -0.42769048 0.09907595 0.59471966
v -0.45338139 0.09908397 0.59244705
v -0.42771402 0.15632196 0.58655704
v -0.45277772 0.15634651 0.58430702
v -0.42771402 0.15632196 0.58655704
v -0.41566279 0.19086748 0.57912780
v -0.41901007 0.19064370 0.57920946
v -0.42771402 0.15632196 0.58655704
v -0.40267208 0.15632550 0.58614344
v -0.41566279 0.19086748 0.57912780
v -0.44531736 0.18943113 0.57800878
v -0.42771402 0.15632196 0.58655704
v -0.41901007 0.19064370 0.57920946
v -0.42771402 0.15632196 0.58655704
v -0.44531736 0.18943113 0.57800878
v -0.45277772 0.15634651 0.58430702
v -0.65931315 0.03602415 0.40029608
v -0.65706557 0.04102404 0.40872632
v -0.65971822 0.04102414 0.39820944
v -0.65706557 0.04102404 0.40872632
v -0.65931315 0.03602415 0.40029608
v -0.65257335 0.04102387 0.42653622
v -0.46172547 -0.40623352 0.02690769
v -0.62313593 -0.00497586 0.47802993
v -0.65931315 0.03602415 0.40029608
v -0.65931315 0.03602415 0.40029608
v -0.66275972 0.04102414 0.37723790
v -0.66399551 0.03602415 0.35005532
v -0.65931315 0.03602415 0.40029608
v -0.65971822 0.04102414 0.39820944
v -0.66275972 0.04102414 0.37723790
v -0.65931315 0.03602415 0.40029608
v -0.62313593 -0.00497586 0.47802993
v -0.64442981 0.03602415 0.44855143
v -0.64442981 0.03602415 0.44855143
v -0.65257335 0.04102387 0.42653622
v -0.65931315 0.03602415 0.40029608
v -0.65931315 0.03602415 0.40029608
v -0.61320548 -0.10017586 0.14502193
v -0.46172547 -0.40623352 0.02690769
v -0.61320548 -0.10017586 0.14502193
v -0.65931315 0.03602415 0.40029608
v -0.66399551 0.03602415 0.35005532
v -0.63132537 0.20032150 0.42717533
v -0.63462109 0.20231885 0.41550727
v -0.64055717 0.15699671 0.43075894
v -0.63132537 0.20032150 0.42717533
v -0.64055717 0.15699671 0.43075894
v -0.63015223 0.19961052 0.43132867
v -0.63462109 0.20231885 0.41550727
v -0.63132537 0.20032150 0.42717533
v -0.61347217 0.22244853 0.41809307
v -0.63132537 0.20032150 0.42717533
v -0.63015223 0.19961052 0.43132867
v -0.61347217 0.22244853 0.41809307
v -0.61839730 0.15693204 0.47682430
v -0.60860557 0.19236486 0.47771104
v -0.62080664 0.19571072 0.45514404
v -0.62080664 0.19571072 0.45514404
v -0.63074995 0.15697598 0.45440723
v -0.61839730 0.15693204 0.47682430
v -0.60365862 0.15686947 0.49773606
v -0.60860557 0.19236486 0.47771104
v -0.61839730 0.15693204 0.47682430
v -0.61839730 0.15693204 0.47682430
v -0.62476278 0.09929094 0.48149039
v -0.60365862 0.15686947 0.49773606
v -0.62529254 0.22837737 0.33683584
v -0.63995033 0.21423158 0.34505181
v -0.62106341 0.22756687 0.37761788
v -0.63645494 0.21939024 0.32138033
v -0.63794708 0.21718809 0.33148531
v -0.62529254 0.22837737 0.33683584
v -0.62529254 0.22837737 0.33683584
v -0.59648657 0.24778029 0.37752958
v -0.59997350 0.24844097 0.33692299
v -0.62529254 0.22837737 0.33683584
v -0.62106341 0.22756687 0.37761788
v -0.59648657 0.24778029 0.37752958
v -0.62529254 0.22837737 0.33683584
v -0.62992596 0.22643028 0.29757450
v -0.63645494 0.21939024 0.32138033
v -0.62664514 0.22913228 0.29655046
v -0.62529254 0.22837737 0.33683584
v -0.59997350 0.24844097 0.33692299
v -0.62529254 0.22837737 0.33683584
v -0.62664514 0.22913228 0.29655046
v -0.62992596 0.22643028 0.29757450
v -0.62525331 0.23048930 0.28601114
v -0.62664514 0.22913228 0.29655046
v -0.62035167 0.23474719 0.27388118
v -0.62525331 0.23048930 0.28601114
v -0.62950134 0.22679916 0.29652364
v -0.62664514 0.22913228 0.29655046
v -0.62035167 0.23474719 0.27388118
v -0.63067686 0.21207738 0.28418029
v -0.62525331 0.23048930 0.28601114
v -0.62950134 0.22679916 0.29652364
v -0.62525331 0.23048930 0.28601114
v -0.63067686 0.21207738 0.28418029
v -0.62993348 0.04102414 0.47723704
v -0.61983681 0.04102414 0.49274524
v -0.62476278 0.09929094 0.48149039
v -0.61983681 0.04102414 0.49274524
v -0.61829210 0.04102414 0.49511787
v -0.62476278 0.09929094 0.48149039
v -0.61983681 0.04102414 0.49274524
v -0.62993348 0.04102414 0.47723704
v -0.61992622 0.03602415 0.49280348
v -0.61992622 0.03602415 0.49280348
v -0.61829210 0.04102414 0.49511787
v -0.61983681 0.04102414 0.49274524
v -0.50056959 0.19829701 0.55668211
v -0.48110417 0.20678380 0.55646122
v -0.49029866 0.23397385 0.52624840
v -0.50056959 0.19829701 0.55668211
v -0.49029866 0.23397385 0.52624840
v -0.51261020 0.22432493 0.52634692
v -0.49979166 0.18791829 0.56497944
v -0.49310109 0.18808733 0.56763858
v -0.50056959 0.19829701 0.55668211
v -0.50056959 0.19829701 0.55668211
v -0.49310109 0.18808733 0.56763858
v -0.48110417 0.20678380 0.55646122
v -0.55930120 0.18728247 0.53241408
v -0.56781150 0.15670930 0.53405934
v -0.54716546 0.15662205 0.54904419
v -0.64786566 0.09931308 0.43367906
v -0.63074995 0.15697598 0.45440723
v -0.64055717 0.15699671 0.43075894
v -0.64786566 0.09931308 0.43367906
v -0.64055717 0.15699671 0.43075894
v -0.65533299 0.09931152 0.40816771
v -0.64786566 0.09931308 0.43367906
v -0.65533299 0.09931152 0.40816771
v -0.65257335 0.04102387 0.42653622
v -0.64442981 0.03602415 0.44855143
v -0.64208490 0.04102406 0.45388423
v -0.64786566 0.09931308 0.43367906
v -0.64786566 0.09931308 0.43367906
v -0.65257335 0.04102387 0.42653622
v -0.64442981 0.03602415 0.44855143
v -0.58204836 0.18852787 0.51154804
v -0.58672482 0.15679350 0.51689112
v -0.57838369 0.18813679 0.51564777
v -0.58204836 0.18852787 0.51154804
v -0.59496403 0.18990621 0.49709901
v -0.58672482 0.15679350 0.51689112
v -0.63873339 0.21602762 0.33681039
v -0.63794708 0.21718809 0.33148531
v -0.63995033 0.21423158 0.34505181
v -0.62529254 0.22837737 0.33683584
v -0.63873339 0.21602762 0.33681039
v -0.63995033 0.21423158 0.34505181
v -0.63873339 0.21602762 0.33681039
v -0.62529254 0.22837737 0.33683584
v -0.63794708 0.21718809 0.33148531
v -0.50056959 0.19829701 0.55668211
v -0.51739347 0.18747358 0.55798358
v -0.49979166 0.18791829 0.56497944
v -0.51739347 0.18747358 0.55798358
v -0.54006881 0.18713053 0.54576635
v -0.52505047 0.15653695 0.56167686
v -0.51739347 0.18747358 0.55798358
v -0.53376019 0.21234007 0.52642238
v -0.54006881 0.18713053 0.54576635
v -0.51739347 0.18747358 0.55798358
v -0.50174988 0.15645921 0.57182455
v -0.49979166 0.18791829 0.56497944
v -0.51739347 0.18747358 0.55798358
v -0.52505047 0.15653695 0.56167686
v -0.50174988 0.15645921 0.57182455
v -0.51739347 0.18747358 0.55798358
v -0.51261020 0.22432493 0.52634692
v -0.53376019 0.21234007 0.52642238
v -0.51739347 0.18747358 0.55798358
v -0.50056959 0.19829701 0.55668211
v -0.51261020 0.22432493 0.52634692
v -0.56612391 0.18758793 0.52641952
v -0.55359644 0.19829784 0.52647483
v -0.57838369 0.18813679 0.51564777
v -0.56612391 0.18758793 0.52641952
v -0.55930120 0.18728247 0.53241408
v -0.55359644 0.19829784 0.52647483
v -0.56612391 0.18758793 0.52641952
v -0.57838369 0.18813679 0.51564777
v -0.56781150 0.15670930 0.53405934
v -0.56781150 0.15670930 0.53405934
v -0.55930120 0.18728247 0.53241408
v -0.56612391 0.18758793 0.52641952
v -0.55359644 0.19829784 0.52647483
v -0.54526794 0.18717159 0.54215682
v -0.54006881 0.18713053 0.54576635
v -0.54526794 0.18717159 0.54215682
v -0.55359644 0.19829784 0.52647483
v -0.55930120 0.18728247 0.53241408
v -0.54716546 0.15662205 0.54904419
v -0.54006881 0.18713053 0.54576635
v -0.54526794 0.18717159 0.54215682
v -0.54526794 0.18717159 0.54215682
v -0.55930120 0.18728247 0.53241408
v -0.54716546 0.15662205 0.54904419
v -0.64786566 0.09931308 0.43367906
v -0.63763649 0.09930624 0.45822616
v -0.63074995 0.15697598 0.45440723
v -0.63763649 0.09930624 0.45822616
v -0.62476278 0.09929094 0.48149039
v -0.61839730 0.15693204 0.47682430
v -0.63763649 0.09930624 0.45822616
v -0.61839730 0.15693204 0.47682430
v -0.63074995 0.15697598 0.45440723
v -0.63763649 0.09930624 0.45822616
v -0.62993348 0.04102414 0.47723704
v -0.62476278 0.09929094 0.48149039
v -0.63992024 0.04102414 0.45852487
v -0.62993348 0.04102414 0.47723704
v -0.63763649 0.09930624 0.45822616
v -0.63763649 0.09930624 0.45822616
v -0.64208490 0.04102406 0.45388423
v -0.63992024 0.04102414 0.45852487
v -0.63763649 0.09930624 0.45822616
v -0.64786566 0.09931308 0.43367906
v -0.64208490 0.04102406 0.45388423
v -0.56853253 0.21725702 0.49262726
v -0.59496403 0.18990621 0.49709901
v -0.59023214 0.18993424 0.50216472
v -0.59496403 0.18990621 0.49709901
v -0.58204836 0.18852787 0.51154804
v -0.59023214 0.18993424 0.50216472
v -0.59023214 0.18993424 0.50216472
v -0.57838369 0.18813679 0.51564777
v -0.56853253 0.21725702 0.49262726
v -0.59023214 0.18993424 0.50216472
v -0.58204836 0.18852787 0.51154804
v -0.57838369 0.18813679 0.51564777
v 0.00000001 -0.46086392 -0.00752767
v 0.00000001 -0.45535335 0.07432135
v -0.00401001 -0.46086392 -0.00752767
v 0.00000001 -0.45535335 0.07432135
v -0.00401001 -0.45535335 0.07432135
v -0.00401001 -0.46086392 -0.00752767
v 0.00000001 -0.45535335 0.07432135
v -0.00401002 -0.43539199 0.15389001
v -0.00401001 -0.45535335 0.07432135
v 0.00000001 -0.45535335 0.07432135
v 0.00000000 -0.43539199 0.15389001
v -0.00401002 -0.43539199 0.15389001
v -0.00000000 -0.40161467 0.22864775
v -0.00401003 -0.35509562 0.29621701
v -0.00401002 -0.40161467 0.22864775
v -0.00000000 -0.40161467 0.22864775
v -0.00000000 -0.35509562 0.29621701
v -0.00401003 -0.35509562 0.29621701
v -0.00401002 -0.43539199 0.15389001
v 0.00000000 -0.43539199 0.15389001
v -0.00000000 -0.40161467 0.22864775
v -0.00401002 -0.40161467 0.22864775
v -0.00401002 -0.43539199 0.15389001
v -0.00000000 -0.40161467 0.22864775
v 0.00000002 0.44699183 -0.10190257
v -0.00401000 0.42130253 -0.17981076
v -0.00401000 0.44699183 -0.10190257
v 0.00000002 0.44699183 -0.10190257
v 0.00000002 0.42130253 -0.17981076
v -0.00401000 0.42130253 -0.17981076
v -0.00401003 -0.29731429 0.35444885
v -0.00401003 -0.35509562 0.29621701
v -0.00000000 -0.35509562 0.29621701
v -0.00000001 -0.29731429 0.35444885
v -0.00401003 -0.29731429 0.35444885
v -0.00000000 -0.35509562 0.29621701
v -0.00401001 0.45526567 0.06130292
v 0.00000001 0.45843416 -0.02067017
v -0.00401001 0.45843416 -0.02067017
v 0.00000001 0.45843416 -0.02067017
v -0.00401001 0.45526567 0.06130292
v 0.00000001 0.45526567 0.06130292
v 0.00000001 0.45843416 -0.02067017
v 0.00000002 0.44699183 -0.10190257
v -0.00401000 0.44699183 -0.10190257
v 0.00000001 0.45843416 -0.02067017
v -0.00401000 0.44699183 -0.10190257
v -0.00401001 0.45843416 -0.02067017
v -0.13855078 -0.45209327 -0.49738003
v 0.00000001 -0.46086392 -0.00752767
v -0.00401001 -0.46086392 -0.00752767
v -0.00401001 -0.46086392 -0.00752767
v -0.16151785 -0.45209327 -0.49738003
v -0.13855078 -0.45209327 -0.49738003
v -0.00401002 0.43758705 0.14140969
v 0.00000000 0.43758705 0.14140969
v 0.00000001 0.45526567 0.06130292
v -0.00401001 0.45526567 0.06130292
v -0.00401002 0.43758705 0.14140969
v 0.00000001 0.45526567 0.06130292
v 0.00000004 -0.09918983 -0.44677296
v -0.00000001 -0.15561524 0.43584823
v 0.00000004 -0.17355919 -0.42377772
v 0.00000002 0.44699183 -0.10190257
v -0.00000001 -0.15561524 0.43584823
v 0.00000002 0.42130253 -0.17981076
v -0.00000001 0.16598485 0.43125057
v -0.00000001 0.08719436 0.45409098
v -0.00000001 -0.15561524 0.43584823
v -0.00000001 -0.15561524 0.43584823
v -0.00000000 -0.40161467 0.22864775
v 0.00000000 -0.43539199 0.15389001
v -0.00000001 -0.15561524 0.43584823
v 0.00000004 0.05577624 -0.45386573
v 0.00000004 0.26901901 -0.43776014
v 0.00000000 -0.43539199 0.15389001
v 0.00000001 -0.45535335 0.07432135
v -0.00000001 -0.15561524 0.43584823
v -0.00000001 -0.23010840 0.40149131
v -0.00000001 -0.29731429 0.35444885
v -0.00000001 -0.15561524 0.43584823
v -0.00000001 -0.15561524 0.43584823
v 0.00000004 -0.02200795 -0.45689895
v 0.00000004 0.05577624 -0.45386573
v -0.00000001 -0.15561524 0.43584823
v -0.00000001 0.23946540 0.39477816
v -0.00000001 0.16598485 0.43125057
v -0.00000000 0.36139214 0.28597395
v -0.00000001 -0.15561524 0.43584823
v 0.00000000 0.40596062 0.21710247
v -0.00000001 -0.15561524 0.43584823
v 0.00000000 0.43758705 0.14140969
v 0.00000000 0.40596062 0.21710247
v -0.00000001 -0.15561524 0.43584823
v 0.00000003 0.38218325 -0.25191702
v 0.00000002 0.42130253 -0.17981076
v 0.00000001 -0.46086392 -0.00752767
v 0.00000002 -0.45286795 -0.15037999
v -0.00000001 -0.15561524 0.43584823
v 0.00000003 -0.35925937 -0.28588115
v -0.00000001 -0.15561524 0.43584823
v 0.00000002 -0.45286795 -0.15037999
v -0.00000001 -0.15561524 0.43584823
v -0.00000001 0.30529910 0.34583377
v -0.00000001 0.23946540 0.39477816
v -0.00000001 -0.15561524 0.43584823
v -0.00000001 0.08719436 0.45409098
v -0.00000001 0.00559974 0.46257305
v -0.00000001 -0.15561524 0.43584823
v -0.00000000 0.36139214 0.28597395
v -0.00000001 0.30529910 0.34583377
v 0.00000000 0.43758705 0.14140969
v -0.00000001 -0.15561524 0.43584823
v 0.00000001 0.45526567 0.06130292
v -0.00000001 -0.15561524 0.43584823
v 0.00000001 -0.45535335 0.07432135
v 0.00000001 -0.46086392 -0.00752767
v -0.00000001 -0.15561524 0.43584823
v -0.00000000 -0.35509562 0.29621701
v -0.00000000 -0.40161467 0.22864775
v -0.00000001 -0.15561524 0.43584823
v -0.00000001 -0.29731429 0.35444885
v -0.00000000 -0.35509562 0.29621701
v 0.00000001 0.45843416 -0.02067017
v -0.00000001 -0.15561524 0.43584823
v 0.00000002 0.44699183 -0.10190257
v -0.00000001 -0.15561524 0.43584823
v 0.00000003 -0.35925937 -0.28588115
v 0.00000003 -0.30548289 -0.34216323
v -0.00000001 -0.15561524 0.43584823
v 0.00000004 -0.24298626 -0.38857173
v 0.00000004 -0.17355919 -0.42377772
v 0.00000003 0.38218325 -0.25191702
v -0.00000001 -0.15561524 0.43584823
v 0.00000004 0.26901901 -0.43776014
v -0.00000001 0.00559974 0.46257305
v -0.00000001 -0.07620401 0.45642698
v -0.00000001 -0.15561524 0.43584823
v -0.00000001 -0.15561524 0.43584823
v 0.00000004 -0.09918983 -0.44677296
v 0.00000004 -0.02200795 -0.45689895
v 0.00000004 -0.24298626 -0.38857173
v -0.00000001 -0.15561524 0.43584823
v 0.00000003 -0.30548289 -0.34216323
v -0.00000001 -0.15561524 0.43584823
v 0.00000001 0.45843416 -0.02067017
v 0.00000001 0.45526567 0.06130292
v -0.00401002 0.40596062 0.21710247
v 0.00000000 0.40596062 0.21710247
v 0.00000000 0.43758705 0.14140969
v 0.00000000 0.43758705 0.14140969
v -0.00401002 0.43758705 0.14140969
v -0.00401002 0.40596062 0.21710247
v -0.59695292 0.03602415 0.52102446
v -0.59085561 0.03602415 0.52724415
v -0.59085561 0.04102414 0.52724415
v -0.59695292 0.03602415 0.52102446
v -0.59695292 -0.03547585 0.52102446
v -0.59085561 0.03602415 0.52724415
f 1 2 3
f 4 5 6
f 7 8 9
f 10 11 12
f 13 14 15
f 16 17 18
f 19 20 21
f 22 23 24
f 25 26 27
f 28 29 30
f 31 32 33
f 34 35 36
f 37 38 39
f 40 41 42
f 43 44 45
f 46 47 48
f 49 50 51
f 52 53 54
f 55 56 57
f 58 59 60
f 61 62 63
f 64 65 66
f 67 68 69
f 70 71 72
f 73 74 75
f 76 77 78
f 79 80 81
f 82 83 84
f 85 86 87
f 88 89 90
f 91 92 93
f 94 95 96
f 97 98 99
f 100 101 102
f 103 104 105
f 106 107 108
f 109 110 111
f 112 113 114
f 115 116 117
f 118 119 120
f 121 122 123
f 124 125 126
f 127 128 129
f 130 131 132
f 133 134 135
f 136 137 138
f 139 140 141
f 142 143 144
f 145 146 147
f 148 149 150
f 151 152 153
f 154 155 156
f 157 158 159
f 160 161 162
f 163 164 165
f 166 167 168
f 169 170 171
f 172 173 174
f 175 176 177
f 178 179 180
f 181 182 183
f 184 185 186
f 187 188 189
f 190 191 192
f 193 194 195
f 196 197 198
f 199 200 201
f 202 203 204
f 205 206 207
f 208 209 210
f 211 212 213
f 214 215 216
f 217 218 219
f 220 221 222
f 223 224 225
f 226 227 228
f 229 230 231
f 232 233 234
f 235 236 237
f 238 239 240
f 241 242 243
f 244 245 246
f 247 248 249
f 250 251 252
f 253 254 255
f 256 257 258
f 259 260 261
f 262 263 264
f 265 266 267
f 268 269 270
f 271 272 273
f 274 275 276
f 277 278 279
f 280 281 282
f 283 284 285
f 286 287 288
f 289 290 291
f 292 293 294
f 295 296 297
f 298 299 300
f 301 302 303
f 304 305 306
f 307 308 309
f 310 311 312
f 313 314 315
f 316 317 318
f 319 320 321
f 322 323 324
f 325 326 327
f 328 329 330
f 331 332 333
f 334 335 336
f 337 338 339
f 340 341 342
f 343 344 345
f 346 347 348
f 349 350 351
f 352 353 354
f 355 356 357
f 358 359 360
f 361 362 363
f 364 365 366
f 367 368 369
f 370 371 372
f 373 374 375
f 376 377 378
f 379 380 381
f 382 383 384
f 385 386 387
f 388 389 390
f 391 392 393
f 394 395 396
f 397 398 399
f 400 401 402
f 403 404 405
f 406 407 408
f 409 410 411
f 412 413 414
f 415 416 417
f 418 419 420
f 421 422 423
f 424 425 426
f 427 428 429
f 430 431 432
f 433 434 435
f 436 437 438
f 439 440 441
f 442 443 444
f 445 446 447
f 448 449 450
f 451 452 453
f 454 455 456
f 457 458 459
f 460 461 462
f 463 464 465
f 466 467 468
f 469 470 471
f 472 473 474
f 475 476 477
f 478 479 480
f 481 482 483
f 484 485 486
f 487 488 489
f 490 491 492
f 493 494 495
f 496 497 498
f 499 500 501
f 502 503 504
f 505 506 507
f 508 509 510
f 511 512 513
f 514 515 516
f 517 518 519
f 520 521 522
f 523 524 525
f 526 527 528
f 529 530 531
f 532 533 534
f 535 536 537
f 538 539 540
f 541 542 543
f 544 545 546
f 547 548 549
f 550 551 552
f 553 554 555
f 556 557 558
f 559 560 561
f 562 563 564
f 565 566 567
f 568 569 570
f 571 572 573
f 574 575 576
f 577 578 579
f 580 581 582
f 583 584 585
f 586 587 588
f 589 590 591
f 592 593 594
f 595 596 597
f 598 599 600
f 601 602 603
f 604 605 606
f 607 608 609
f 610 611 612
f 613 614 615
f 616 617 618
f 619 620 621
f 622 623 624
f 625 626 627
f 628 629 630
f 631 632 633
f 634 635 636
f 637 638 639
f 640 641 642
f 643 644 645
f 646 647 648
f 649 650 651
f 652 653 654
f 655 656 657
f 658 659 660
f 661 662 663
f 664 665 666
f 667 668 669
f 670 671 672
f 673 674 675
f 676 677 678
f 679 680 681
f 682 683 684
f 685 686 687
f 688 689 690
f 691 692 693
f 694 695 696
f 697 698 699
f 700 701 702
f 703 704 705
f 706 707 708
f 709 710 711
f 712 713 714
f 715 716 717
f 718 719 720
f 721 722 723
f 724 725 726
f 727 728 729
f 730 731 732
f 733 734 735
f 736 737 738
f 739 740 741
f 742 743 744
f 745 746 747
f 748 749 750
f 751 752 753
f 754 755 756
f 757 758 759
f 760 761 762
f 763 764 765
f 766 767 768
f 769 770 771
f 772 773 774
f 775 776 777
f 778 779 780
f 781 782 783
f 784 785 786
f 787 788 789
f 790 791 792
f 793 794 795
f 796 797 798
f 799 800 801
f 802 803 804
f 805 806 807
f 808 809 810
f 811 812 813
f 814 815 816
f 817 818 819
f 820 821 822
f 823 824 825
f 826 827 828
f 829 830 831
f 832 833 834
f 835 836 837
f 838 839 840
f 841 842 843
f 844 845 846
f 847 848 849
f 850 851 852
f 853 854 855
f 856 857 858
f 859 860 861
f 862 863 864
f 865 866 867
f 868 869 870
f 871 872 873
f 874 875 876
f 877 878 879
f 880 881 882
f 883 884 885
f 886 887 888
f 889 890 891
f 892 893 894
f 895 896 897
f 898 899 900
f 901 902 903
f 904 905 906
f 907 908 909
f 910 911 912
f 913 914 915
f 916 917 918
f 919 920 921
f 922 923 924
f 925 926 927
f 928 929 930
f 931 932 933
f 934 935 936
f 937 938 939
f 940 941 942
f 943 944 945
f 946 947 948
f 949 950 951
f 952 953 954
f 955 956 957
f 958 959 960
f 961 962 963
f 964 965 966
f 967 968 969
f 970 971 972
f 973 974 975
f 976 977 978
f 979 980 981
f 982 983 984
f 985 986 987
f 988 989 990
f 991 992 993
f 994 995 996
f 997 998 999
f 1000 1001 1002
f 1003 1004 1005
f 1006 1007 1008
f 1009 1010 1011
f 1012 1013 1014
f 1015 1016 1017
f 1018 1019 1020
f 1021 1022 1023
f 1024 1025 1026
f 1027 1028 1029
f 1030 1031 1032
f 1033 1034 1035
f 1036 1037 1038
f 1039 1040 1041
f 1042 1043 1044
f 1045 1046 1047
f 1048 1049 1050
f 1051 1052 1053
f 1054 1055 1056
f 1057 1058 1059
f 1060 1061 1062
f 1063 1064 1065
f 1066 1067 1068
f 1069 1070 1071
f 1072 1073 1074
f 1075 1076 1077
f 1078 1079 1080
f 1081 1082 1083
f 1084 1085 1086
f 1087 1088 1089
f 1090 1091 1092
f 1093 1094 1095
f 1096 1097 1098
f 1099 1100 1101
f 1102 1103 1104
f 1105 1106 1107
f 1108 1109 1110
f 1111 1112 1113
f 1114 1115 1116
f 1117 1118 1119
f 1120 1121 1122
f 1123 1124 1125
f 1126 1127 1128
f 1129 1130 1131
f 1132 1133 1134
f 1135 1136 1137
f 1138 1139 1140
f 1141 1142 1143
f 1144 1145 1146
f 1147 1148 1149
f 1150 1151 1152
f 1153 1154 1155
f 1156 1157 1158
f 1159 1160 1161
f 1162 1163 1164
f 1165 1166 1167
f 1168 1169 1170
f 1171 1172 1173
f 1174 1175 1176
f 1177 1178 1179
f 1180 1181 1182
f 1183 1184 1185
f 1186 1187 1188
f 1189 1190 1191
f 1192 1193 1194
f 1195 1196 1197
f 1198 1199 1200
f 1201 1202 1203
f 1204 1205 1206
f 1207 1208 1209
f 1210 1211 1212
f 1213 1214 1215
f 1216 1217 1218
f 1219 1220 1221
f 1222 1223 1224
f 1225 1226 1227
f 1228 1229 1230
f 1231 1232 1233
f 1234 1235 1236
f 1237 1238 1239
f 1240 1241 1242
f 1243 1244 1245
f 1246 1247 1248
f 1249 1250 1251
f 1252 1253 1254
f 1255 1256 1257
f 1258 1259 1260
f 1261 1262 1263
f 1264 1265 1266
f 1267 1268 1269
f 1270 1271 1272
f 1273 1274 1275
f 1276 1277 1278
f 1279 1280 1281
f 1282 1283 1284
f 1285 1286 1287
f 1288 1289 1290
f 1291 1292 1293
f 1294 1295 1296
f 1297 1298 1299
f 1300 1301 1302
f 1303 1304 1305
f 1306 1307 1308
f 1309 1310 1311
f 1312 1313 1314
f 1315 1316 1317
f 1318 1319 1320
f 1321 1322 1323
f 1324 1325 1326
f 1327 1328 1329
f 1330 1331 1332
f 1333 1334 1335
f 1336 1337 1338
f 1339 1340 1341
f 1342 1343 1344
f 1345 1346 1347
f 1348 1349 1350
f 1351 1352 1353
f 1354 1355 1356
f 1357 1358 1359
f 1360 1361 1362
f 1363 1364 1365
f 1366 1367 1368
f 1369 1370 1371
f 1372 1373 1374
f 1375 1376 1377
f 1378 1379 1380
f 1381 1382 1383
f 1384 1385 1386
f 1387 1388 1389
f 1390 1391 1392
f 1393 1394 1395
f 1396 1397 1398
f 1399 1400 1401
f 1402 1403 1404
f 1405 1406 1407
f 1408 1409 1410
f 1411 1412 1413
f 1414 1415 1416
f 1417 1418 1419
f 1420 1421 1422
f 1423 1424 1425
f 1426 1427 1428
f 1429 1430 1431
f 1432 1433 1434
f 1435 1436 1437
f 1438 1439 1440
f 1441 1442 1443
f 1444 1445 1446
f 1447 1448 1449
f 1450 1451 1452
f 1453 1454 1455
f 1456 1457 1458
f 1459 1460 1461
f 1462 1463 1464
f 1465 1466 1467
f 1468 1469 1470
f 1471 1472 1473
f 1474 1475 1476
f 1477 1478 1479
f 1480 1481 1482
f 1483 1484 1485
f 1486 1487 1488
f 1489 1490 1491
f 1492 1493 1494
f 1495 1496 1497
f 1498 1499 1500
f 1501 1502 1503
f 1504 1505 1506
f 1507 1508 1509
f 1510 1511 1512
f 1513 1514 1515
f 1516 1517 1518
f 1519 1520 1521
f 1522 1523 1524
f 1525 1526 1527
f 1528 1529 1530
f 1531 1532 1533
f 1534 1535 1536
f 1537 1538 1539
f 1540 1541 1542
f 1543 1544 1545
f 1546 1547 1548
f 1549 1550 1551
f 1552 1553 1554
f 1555 1556 1557
f 1558 1559 1560
f 1561 1562 1563
f 1564 1565 1566
f 1567 1568 1569
f 1570 1571 1572
f 1573 1574 1575
f 1576 1577 1578
f 1579 1580 1581
f 1582 1583 1584
f 1585 1586 1587
f 1588 1589 1590
f 1591 1592 1593
f 1594 1595 1596
f 1597 1598 1599
f 1600 1601 1602
f 1603 1604 1605
f 1606 1607 1608
f 1609 1610 1611
f 1612 1613 1614
f 1615 1616 1617
f 1618 1619 1620
f 1621 1622 1623
f 1624 1625 1626
f 1627 1628 1629
f 1630 1631 1632
f 1633 1634 1635
f 1636 1637 1638
f 1639 1640 1641
f 1642 1643 1644
f 1645 1646 1647
f 1648 1649 1650
f 1651 1652 1653
f 1654 1655 1656
f 1657 1658 1659
f 1660 1661 1662
f 1663 1664 1665
f 1666 1667 1668
f 1669 1670 1671
f 1672 1673 1674
f 1675 1676 1677
f 1678 1679 1680
f 1681 1682 1683
f 1684 1685 1686
f 1687 1688 1689
f 1690 1691 1692
f 1693 1694 1695
f 1696 1697 1698
f 1699 1700 1701
f 1702 1703 1704
f 1705 1706 1707
f 1708 1709 1710
f 1711 1712 1713
f 1714 1715 1716
f 1717 1718 1719
f 1720 1721 1722
f 1723 1724 1725
f 1726 1727 1728
f 1729 1730 1731
f 1732 1733 1734
f 1735 1736 1737
f 1738 1739 1740
f 1741 1742 1743
f 1744 1745 1746
f 1747 1748 1749
f 1750 1751 1752
f 1753 1754 1755
f 1756 1757 1758
f 1759 1760 1761
f 1762 1763 1764
f 1765 1766 1767
f 1768 1769 1770
f 1771 1772 1773
f 1774 1775 1776
f 1777 1778 1779
f 1780 1781 1782
f 1783 1784 1785
f 1786 1787 1788
f 1789 1790 1791
f 1792 1793 1794
f 1795 1796 1797
f 1798 1799 1800
f 1801 1802 1803
f 1804 1805 1806
f 1807 1808 1809
f 1810 1811 1812
