# Exported from USD: /kuka_kr210/link_4/collisions
mtllib collisions_4.mtl

g collisions
v 0.23400009 -0.12956901 -0.09283581
v 0.33065689 -0.15904838 -0.06479611
v -0.00000000 -0.11313696 -0.04290714
v -0.00000000 -0.11313696 0.04290722
v -0.00000000 -0.12011778 0.01458500
v 0.32775962 -0.16877085 0.03808389
v -0.00000000 -0.08023784 -0.09056976
v -0.00000000 -0.05623150 -0.10714009
v 0.23400009 -0.12956901 -0.09283581
v 0.33065689 -0.15904838 -0.06479611
v 0.32775962 -0.16877085 -0.03808381
v -0.00000000 -0.11313696 -0.04290714
v 0.56644496 -0.14145848 -0.08575895
v 0.32961738 -0.14158131 -0.08561256
v 0.23400009 -0.12956901 -0.09283581
v 0.23400009 -0.12956901 -0.09283581
v 0.11936224 -0.01458494 -0.12011769
v 0.56644496 -0.14145848 -0.08575895
v 0.54877481 -0.12817673 0.08773873
v 0.56644496 -0.14145848 0.08484171
v 0.55203995 0.12903686 0.10451625
v 0.58606407 0.12879565 0.09530494
v 0.56644496 -0.14145848 0.08484171
v 0.58000740 -0.14676517 0.07851741
v -0.00000000 -0.11313696 -0.04290714
v -0.00000000 -0.09958105 -0.06873574
v 0.23400009 -0.12956901 -0.09283581
v -0.00000000 -0.09958105 -0.06873574
v -0.00000000 -0.08023784 -0.09056976
v 0.23400009 -0.12956901 -0.09283581
v 0.59715983 -0.16294341 -0.02173652
v 0.56641719 -0.16836418 -0.03920116
v 0.62340125 -0.14779295 -0.03260603
v 0.62304279 -0.14799993 0.03245769
v 0.59715983 -0.16294341 -0.02173652
v 0.62340125 -0.14779295 -0.03260603
v 0.59715983 -0.16294341 0.02173660
v 0.59715983 -0.16294341 -0.02173652
v 0.62304279 -0.14799993 0.03245769
v 0.32961738 -0.14158131 -0.08561256
v 0.56644496 -0.14145848 -0.08575895
v 0.57939264 -0.14652464 -0.07972135
v 0.32961738 -0.14158131 -0.08561256
v 0.57939264 -0.14652464 -0.07972135
v 0.33065689 -0.15904838 -0.06479611
v 0.58606407 0.12879565 -0.09530487
v 0.57939264 -0.14652464 -0.07972135
v 0.56644496 -0.14145848 -0.08575895
v 0.58606407 0.12879565 -0.09530487
v 0.59350166 -0.14345060 -0.07314219
v 0.57939264 -0.14652464 -0.07972135
v 0.32775962 -0.16877085 -0.03808381
v -0.00000000 -0.12011778 -0.01458492
v -0.00000000 -0.11313696 -0.04290714
v 0.23400009 -0.12956901 -0.09283581
v 0.31559074 -0.14706962 -0.07907178
v 0.33065689 -0.15904838 -0.06479611
v 0.32961738 -0.14158131 -0.08561256
v 0.31559074 -0.14706962 -0.07907178
v 0.23400009 -0.12956901 -0.09283581
v 0.33065689 -0.15904838 -0.06479611
v 0.31559074 -0.14706962 -0.07907178
v 0.32961738 -0.14158131 -0.08561256
v 0.56644496 -0.14145848 -0.08575895
v 0.54877481 -0.12817673 -0.08793869
v 0.55203995 0.12903686 -0.10451617
v 0.54877481 -0.12817673 -0.08793869
v 0.11936224 -0.01458494 -0.12011769
v 0.55203995 0.12903686 -0.10451617
v 0.11936224 -0.01458494 -0.12011769
v 0.54877481 -0.12817673 -0.08793869
v 0.56644496 -0.14145848 -0.08575895
v 0.11936224 -0.01458494 -0.12011769
v 0.11936224 0.00000000 -0.12099995
v 0.55203995 0.12903686 -0.10451617
v 0.55203995 0.12903686 -0.10451617
v 0.11936224 0.00000000 -0.12099995
v 0.53941795 0.12904862 -0.10496547
v -0.00000000 0.05623150 -0.10714009
v 0.52330658 0.16400000 -0.10000112
v 0.54200003 0.16400000 -0.10173323
v 0.42000520 0.15508778 0.09301851
v -0.00000000 0.11313696 0.04290722
v -0.00000000 0.09958105 0.06873582
v 0.42000520 0.15508778 0.09301851
v -0.00000000 0.09958105 0.06873582
v -0.00000000 0.08023784 0.09056995
v -0.00000000 0.11313696 0.04290722
v 0.44569147 0.15918310 0.09297416
v -0.00000000 0.12011778 0.01458500
v 0.42000520 0.15508778 0.09301851
v 0.44569147 0.15918310 0.09297416
v -0.00000000 0.11313696 0.04290722
v 0.42000520 0.15508778 0.09301851
v -0.00000000 0.08023784 0.09056995
v -0.00000000 0.05623150 0.10714028
v 0.56381688 -0.15963799 0.06317613
v 0.59350166 -0.14382508 0.07222507
v 0.58000740 -0.14676517 0.07851741
v 0.59350166 -0.14382508 0.07222507
v 0.62304279 -0.14799993 0.03245769
v 0.61410770 -0.14382508 0.05161891
v 0.58000740 -0.14676517 0.07851741
v 0.59350166 -0.14382508 0.07222507
v 0.58606407 0.12879565 0.09530494
v -0.00000000 -0.09958105 0.06873582
v 0.23400009 -0.12956901 0.09283588
v -0.00000000 -0.08023784 0.09056995
v -0.00000000 -0.11313696 0.04290722
v 0.23400009 -0.12956901 0.09283588
v -0.00000000 -0.09958105 0.06873582
v -0.00000000 -0.05623150 -0.10714009
v -0.00000000 -0.02895720 -0.11748388
v 0.23400009 -0.12956901 -0.09283581
v 0.11936224 -0.01458494 -0.12011769
v -0.00000000 -0.02895720 -0.11748388
v -0.00000000 -0.00000000 -0.12099995
v 0.59350166 -0.14345060 -0.07314219
v 0.56641719 -0.16836418 -0.03920116
v 0.56364116 -0.15904838 -0.06479611
v 0.57939264 -0.14652464 -0.07972135
v 0.59350166 -0.14345060 -0.07314219
v 0.56364116 -0.15904838 -0.06479611
v 0.33065689 -0.15904838 -0.06479611
v 0.56364116 -0.15904838 -0.06479611
v 0.56641719 -0.16836418 -0.03920116
v 0.57939264 -0.14652464 -0.07972135
v 0.56364116 -0.15904838 -0.06479611
v 0.33065689 -0.15904838 -0.06479611
v 0.62198183 0.12808140 -0.06802859
v 0.61512038 0.12827323 -0.07535496
v 0.61224386 0.14511399 -0.07705381
v 0.56641719 -0.16836418 -0.03920116
v 0.61410770 -0.14345060 -0.05253615
v 0.62340125 -0.14779295 -0.03260603
v 0.59350166 -0.14345060 -0.07314219
v 0.61410770 -0.14345060 -0.05253615
v 0.56641719 -0.16836418 -0.03920116
v 0.63593575 0.12752850 -0.04691436
v 0.62340125 -0.14779295 -0.03260603
v 0.61410770 -0.14345060 -0.05253615
v 0.61512038 0.12827323 -0.07535496
v 0.61410770 -0.14345060 -0.05253615
v 0.59350166 -0.14345060 -0.07314219
v 0.61512038 0.12827323 -0.07535496
v 0.62198183 0.12808140 -0.06802859
v 0.61410770 -0.14345060 -0.05253615
v 0.32775962 -0.16877085 -0.03808381
v 0.35274661 -0.17317672 -0.02597883
v -0.00000000 -0.12011778 -0.01458492
v 0.33065689 -0.15904838 -0.06479611
v 0.35274661 -0.17317672 -0.02597883
v 0.32775962 -0.16877085 -0.03808381
v 0.56641719 -0.16836418 -0.03920116
v 0.35274661 -0.17317672 -0.02597883
v 0.33065689 -0.15904838 -0.06479611
v 0.53912386 -0.17317672 -0.02597883
v 0.35274661 -0.17317672 -0.02597883
v 0.56641719 -0.16836418 -0.03920116
v -0.00000000 0.12011778 -0.01458492
v 0.44569147 0.15918310 -0.09297409
v -0.00000000 0.11313696 -0.04290714
v 0.54200003 0.16400000 -0.10173323
v 0.54200003 0.14511399 -0.10426643
v 0.11936224 0.01458494 -0.12011769
v 0.11936224 0.01458494 -0.12011769
v 0.54200003 0.14511399 -0.10426643
v 0.11936224 0.00000000 -0.12099995
v 0.11936224 0.00000000 -0.12099995
v 0.54200003 0.14511399 -0.10426643
v 0.53941795 0.12904862 -0.10496547
v 0.53941795 0.12904862 -0.10496547
v 0.54200003 0.14511399 -0.10426643
v 0.55203995 0.12903686 -0.10451617
v 0.54200003 0.16400000 -0.10173323
v 0.56069347 0.16400000 -0.10000112
v 0.54200003 0.14511399 -0.10426643
v 0.54200003 0.16400000 -0.10173323
v -0.00000000 0.02895720 -0.11748388
v -0.00000000 0.05623150 -0.10714009
v -0.00000000 -0.00000000 -0.12099995
v -0.00000000 0.02895720 -0.11748388
v 0.11936224 0.01458494 -0.12011769
v 0.11936224 0.01458494 -0.12011769
v -0.00000000 0.02895720 -0.11748388
v 0.54200003 0.16400000 -0.10173323
v 0.57430193 0.12891611 -0.09990563
v 0.56644496 -0.14145848 -0.08575895
v 0.56197760 0.12899923 -0.10307934
v 0.56644496 -0.14145848 -0.08575895
v 0.57986066 0.12885919 -0.09773137
v 0.58606407 0.12879565 -0.09530487
v 0.57430193 0.12891611 -0.09990563
v 0.57986066 0.12885919 -0.09773137
v 0.56644496 -0.14145848 -0.08575895
v 0.57966539 0.14511399 -0.09722545
v 0.56069347 0.16400000 -0.10000112
v 0.57875034 0.16400000 -0.09486344
v 0.57986066 0.12885919 -0.09773137
v 0.57430193 0.12891611 -0.09990563
v 0.57966539 0.14511399 -0.09722545
v 0.57986066 0.12885919 -0.09773137
v 0.57966539 0.14511399 -0.09722545
v 0.58606407 0.12879565 -0.09530487
v 0.58606407 0.12879565 -0.09530487
v 0.57966539 0.14511399 -0.09722545
v 0.59688923 0.14511399 -0.08864906
v 0.62943527 -0.14430921 -0.01966610
v 0.62304279 -0.14799993 0.03245769
v 0.62340125 -0.14779295 -0.03260603
v 0.62304279 -0.14799993 0.03245769
v 0.62943527 -0.14430921 -0.01966610
v 0.62943527 -0.14430921 0.01874898
v 0.63593575 0.12752850 -0.04691436
v 0.62943527 -0.14430921 -0.01966610
v 0.62340125 -0.14779295 -0.03260603
v 0.62943527 -0.14430921 0.01874898
v 0.62943527 -0.14430921 -0.01966610
v 0.64699277 0.12630001 0.00000010
v 0.64383480 0.12696972 0.02557573
v 0.63998625 0.12728795 0.03772841
v 0.62943527 -0.14430921 0.01874898
v 0.59350166 -0.14382508 0.07222507
v 0.56381688 -0.15963799 0.06317613
v 0.56641719 -0.16836418 0.03920124
v 0.62304279 -0.14799993 0.03245769
v 0.56641719 -0.16836418 0.03920124
v 0.59715983 -0.16294341 0.02173660
v 0.59350166 -0.14382508 0.07222507
v 0.56641719 -0.16836418 0.03920124
v 0.62304279 -0.14799993 0.03245769
v 0.23400009 -0.12956901 0.09283588
v -0.00000000 -0.05623150 0.10714028
v -0.00000000 -0.08023784 0.09056995
v -0.00000000 -0.02895720 0.11748407
v -0.00000000 -0.05623150 0.10714028
v 0.23400009 -0.12956901 0.09283588
v 0.56641719 -0.16836418 0.03920124
v 0.33048117 -0.15963799 0.06317613
v 0.32775962 -0.16877085 0.03808389
v 0.56641719 -0.16836418 0.03920124
v 0.56381688 -0.15963799 0.06317613
v 0.33048117 -0.15963799 0.06317613
v 0.32775962 -0.16877085 0.03808389
v 0.33048117 -0.15963799 0.06317613
v -0.00000000 -0.11313696 0.04290722
v 0.33048117 -0.15963799 0.06317613
v 0.23400009 -0.12956901 0.09283588
v -0.00000000 -0.11313696 0.04290722
v 0.54200003 0.14511399 0.10426638
v 0.54199561 0.12904622 0.10487387
v 0.55203995 0.12903686 0.10451625
v 0.53941795 0.12904862 0.10496543
v 0.54199561 0.12904622 0.10487387
v 0.54200003 0.14511399 0.10426638
v 0.23400009 -0.12956901 -0.09283581
v 0.05576229 -0.02895720 -0.11748388
v 0.11936224 -0.01458494 -0.12011769
v -0.00000000 -0.02895720 -0.11748388
v 0.05576229 -0.02895720 -0.11748388
v 0.23400009 -0.12956901 -0.09283581
v -0.00000000 -0.02895720 -0.11748388
v 0.11936224 -0.01458494 -0.12011769
v 0.05576229 -0.02895720 -0.11748388
v 0.59350166 -0.14345060 -0.07314219
v 0.60554370 0.12848885 -0.08358862
v 0.61512038 0.12827323 -0.07535496
v 0.59688923 0.14511399 -0.08864906
v 0.61224386 0.14511399 -0.07705381
v 0.60554370 0.12848885 -0.08358862
v 0.61512038 0.12827323 -0.07535496
v 0.60554370 0.12848885 -0.08358862
v 0.61224386 0.14511399 -0.07705381
v 0.61410770 -0.14345060 -0.05253615
v 0.62962410 0.12781493 -0.05785324
v 0.63593575 0.12752850 -0.04691436
v 0.63533553 0.14511399 -0.04647555
v 0.63593575 0.12752850 -0.04691436
v 0.62962410 0.12781493 -0.05785324
v -0.00000000 -0.12011778 0.01458500
v 0.35274661 -0.17317672 0.02597890
v 0.32775962 -0.16877085 0.03808389
v 0.56641719 -0.16836418 0.03920124
v 0.35274661 -0.17317672 0.02597890
v 0.53912386 -0.17317672 0.02597890
v 0.56641719 -0.16836418 0.03920124
v 0.32775962 -0.16877085 0.03808389
v 0.35274661 -0.17317672 0.02597890
v -0.00000000 0.11313696 -0.04290714
v 0.42000520 0.15508778 -0.09301843
v -0.00000000 0.09958105 -0.06873574
v 0.44569147 0.15918310 -0.09297409
v 0.42000520 0.15508778 -0.09301843
v -0.00000000 0.11313696 -0.04290714
v -0.00000000 0.09958105 -0.06873574
v 0.42000520 0.15508778 -0.09301843
v -0.00000000 0.08023784 -0.09056976
v 0.44569147 0.15918310 -0.09297409
v 0.52330658 0.16400000 -0.10000112
v 0.42000520 0.15508778 -0.09301843
v -0.00000000 0.08023784 -0.09056976
v 0.42000520 0.15508778 -0.09301843
v -0.00000000 0.05623150 -0.10714009
v -0.00000000 0.05623150 -0.10714009
v 0.42000520 0.15508778 -0.09301843
v 0.52330658 0.16400000 -0.10000112
v 0.47346270 0.16400000 -0.07518174
v 0.44894636 0.16038777 -0.08595147
v -0.00000000 0.12011778 -0.01458492
v 0.44070065 0.16400000 -0.00938668
v 0.44415033 0.16400000 -0.02784064
v -0.00000000 0.12011778 -0.01458492
v 0.44415033 0.16400000 -0.02784064
v 0.45093215 0.16400000 -0.04534640
v -0.00000000 0.12011778 -0.01458492
v -0.00000000 0.12011778 -0.01458492
v 0.46081507 0.16400000 -0.06130793
v 0.47346270 0.16400000 -0.07518174
v 0.45093215 0.16400000 -0.04534640
v 0.46081507 0.16400000 -0.06130793
v -0.00000000 0.12011778 -0.01458492
v 0.44415033 0.16400000 0.02784071
v 0.44070065 0.16400000 0.00938676
v -0.00000000 0.12011778 0.01458500
v 0.45093215 0.16400000 0.04534648
v 0.44415033 0.16400000 0.02784071
v -0.00000000 0.12011778 0.01458500
v 0.55203995 0.12903686 -0.10451617
v 0.56128880 0.12900184 -0.10317900
v 0.56644496 -0.14145848 -0.08575895
v 0.56197760 0.12899923 -0.10307934
v 0.56644496 -0.14145848 -0.08575895
v 0.56128880 0.12900184 -0.10317900
v 0.57966539 0.14511399 -0.09722545
v 0.56115887 0.14511399 -0.10249104
v 0.56069347 0.16400000 -0.10000112
v 0.56128880 0.12900184 -0.10317900
v 0.56115887 0.14511399 -0.10249104
v 0.56197760 0.12899923 -0.10307934
v 0.56197760 0.12899923 -0.10307934
v 0.56115887 0.14511399 -0.10249104
v 0.57430193 0.12891611 -0.09990563
v 0.57966539 0.14511399 -0.09722545
v 0.57430193 0.12891611 -0.09990563
v 0.56115887 0.14511399 -0.10249104
v 0.55203995 0.12903686 -0.10451617
v 0.56115887 0.14511399 -0.10249104
v 0.56128880 0.12900184 -0.10317900
v 0.54200003 0.14511399 -0.10426643
v 0.56115887 0.14511399 -0.10249104
v 0.55203995 0.12903686 -0.10451617
v 0.54200003 0.14511399 -0.10426643
v 0.56069347 0.16400000 -0.10000112
v 0.56115887 0.14511399 -0.10249104
v 0.62198183 0.12808140 0.06802867
v 0.61512038 0.12827323 0.07535503
v 0.61410770 -0.14382508 0.05161891
v 0.61512038 0.12827323 0.07535503
v 0.59350166 -0.14382508 0.07222507
v 0.61410770 -0.14382508 0.05161891
v 0.59350166 -0.14382508 0.07222507
v 0.59496424 0.12867406 0.09066174
v 0.58606407 0.12879565 0.09530494
v 0.64582166 0.14511399 0.00962052
v 0.64383480 0.12696972 0.02557573
v 0.64616677 0.12664475 0.01316509
v 0.62943527 -0.14430921 0.01874898
v 0.64616677 0.12664475 0.01316509
v 0.64383480 0.12696972 0.02557573
v 0.64582166 0.14511399 0.00962052
v 0.64228615 0.14511399 0.02853391
v 0.64383480 0.12696972 0.02557573
v 0.63998625 0.12728795 0.03772841
v 0.64383480 0.12696972 0.02557573
v 0.64228615 0.14511399 0.02853391
v 0.59688923 0.14511399 -0.08864906
v 0.59555575 0.16400000 -0.08649542
v 0.61224386 0.14511399 -0.07705381
v 0.59555575 0.16400000 -0.08649542
v 0.61053726 0.16400000 -0.07518174
v 0.61224386 0.14511399 -0.07705381
v 0.57966539 0.14511399 -0.09722545
v 0.57875034 0.16400000 -0.09486344
v 0.59555575 0.16400000 -0.08649542
v 0.57966539 0.14511399 -0.09722545
v 0.59555575 0.16400000 -0.08649542
v 0.59688923 0.14511399 -0.08864906
v 0.62520644 0.14511399 -0.06283452
v 0.62198183 0.12808140 -0.06802859
v 0.61224386 0.14511399 -0.07705381
v 0.61053726 0.16400000 -0.07518174
v 0.62520644 0.14511399 -0.06283452
v 0.61224386 0.14511399 -0.07705381
v 0.63533553 0.14511399 -0.04647555
v 0.62520644 0.14511399 -0.06283452
v 0.63306794 0.16400000 -0.04534640
v 0.62962410 0.12781493 -0.05785324
v 0.62520644 0.14511399 -0.06283452
v 0.63533553 0.14511399 -0.04647555
v 0.47346270 0.16400000 0.07518194
v 0.45863557 0.16066675 0.09296010
v 0.48844433 0.16400000 0.08649538
v 0.44569147 0.15918310 0.09297416
v 0.45863557 0.16066675 0.09296010
v -0.00000000 0.12011778 0.01458500
v -0.00000000 0.12011778 0.01458500
v 0.46081507 0.16400000 0.06130812
v 0.45093215 0.16400000 0.04534648
v 0.47346270 0.16400000 0.07518194
v 0.46081507 0.16400000 0.06130812
v -0.00000000 0.12011778 0.01458500
v 0.62943527 -0.14430921 0.01874898
v 0.63593575 0.12752850 0.04691444
v 0.62304279 -0.14799993 0.03245769
v 0.63998625 0.12728795 0.03772841
v 0.63593575 0.12752850 0.04691444
v 0.62943527 -0.14430921 0.01874898
v 0.62304279 -0.14799993 0.03245769
v 0.63593575 0.12752850 0.04691444
v 0.61410770 -0.14382508 0.05161891
v 0.23400009 -0.12956901 0.09283588
v 0.32961738 -0.14158131 0.08469532
v 0.56644496 -0.14145848 0.08484171
v 0.56069347 0.16400000 0.10000107
v 0.56115887 0.14511399 0.10249112
v 0.57875034 0.16400000 0.09486363
v 0.54200003 0.14511399 0.10426638
v 0.55203995 0.12903686 0.10451625
v 0.56115887 0.14511399 0.10249112
v -0.00000000 0.00000000 0.12100003
v 0.11936224 0.01458494 0.12011788
v -0.00000000 0.02895720 0.11748407
v 0.53941795 0.12904862 0.10496543
v 0.54200003 0.14511399 0.10426638
v 0.11936224 0.01458494 0.12011788
v 0.54199561 0.12904622 0.10487387
v 0.53941795 0.12904862 0.10496543
v 0.11936224 0.01458494 0.12011788
v 0.54199561 0.12904622 0.10487387
v 0.11936224 0.01458494 0.12011788
v 0.55203995 0.12903686 0.10451625
v -0.00000000 -0.02895720 0.11748407
v 0.11936224 -0.01458494 0.12011788
v -0.00000000 0.00000000 0.12100003
v 0.23400009 -0.12956901 0.09283588
v 0.56644496 -0.14145848 0.08484171
v 0.11936224 -0.01458494 0.12011788
v 0.56644496 -0.14145848 0.08484171
v 0.54877481 -0.12817673 0.08773873
v 0.11936224 -0.01458494 0.12011788
v 0.54877481 -0.12817673 0.08773873
v 0.55203995 0.12903686 0.10451625
v 0.11936224 -0.01458494 0.12011788
v 0.11936224 0.01458494 0.12011788
v 0.11936224 -0.01458494 0.12011788
v 0.55203995 0.12903686 0.10451625
v 0.59688923 0.14511399 -0.08864906
v 0.59496424 0.12867406 -0.09066167
v 0.58606407 0.12879565 -0.09530487
v 0.60554370 0.12848885 -0.08358862
v 0.59496424 0.12867406 -0.09066167
v 0.59688923 0.14511399 -0.08864906
v 0.58606407 0.12879565 -0.09530487
v 0.59496424 0.12867406 -0.09066167
v 0.59350166 -0.14345060 -0.07314219
v 0.59350166 -0.14345060 -0.07314219
v 0.59496424 0.12867406 -0.09066167
v 0.60554370 0.12848885 -0.08358862
v 0.44569147 0.15918310 -0.09297409
v -0.00000000 0.12011778 -0.01458492
v 0.45863557 0.16066675 -0.09295990
v 0.50524971 0.16400000 -0.09486344
v 0.45863557 0.16066675 -0.09295990
v 0.48844433 0.16400000 -0.08649542
v 0.48844433 0.16400000 -0.08649542
v 0.45863557 0.16066675 -0.09295990
v 0.47346270 0.16400000 -0.07518174
v 0.50524971 0.16400000 -0.09486344
v 0.52330658 0.16400000 -0.10000112
v 0.45863557 0.16066675 -0.09295990
v 0.61264274 0.12832902 0.07748530
v 0.60554370 0.12848885 0.08358882
v 0.59350166 -0.14382508 0.07222507
v 0.61512038 0.12827323 0.07535503
v 0.61264274 0.12832902 0.07748530
v 0.59350166 -0.14382508 0.07222507
v 0.60554370 0.12848885 0.08358882
v 0.59720322 0.12863487 0.08916495
v 0.59350166 -0.14382508 0.07222507
v 0.59720322 0.12863487 0.08916495
v 0.59496424 0.12867406 0.09066174
v 0.59350166 -0.14382508 0.07222507
v 0.59496424 0.12867406 0.09066174
v 0.59688923 0.14511399 0.08864925
v 0.58606407 0.12879565 0.09530494
v 0.59720322 0.12863487 0.08916495
v 0.59688923 0.14511399 0.08864925
v 0.59496424 0.12867406 0.09066174
v 0.59720322 0.12863487 0.08916495
v 0.60554370 0.12848885 0.08358882
v 0.59688923 0.14511399 0.08864925
v 0.62943527 -0.14430921 0.01874898
v 0.64699277 0.12630001 0.00000010
v 0.64638564 0.12655342 0.00967763
v 0.64616677 0.12664475 0.01316509
v 0.62943527 -0.14430921 0.01874898
v 0.64638564 0.12655342 0.00967763
v 0.64582166 0.14511399 0.00962052
v 0.64638564 0.12655342 0.00967763
v 0.64699277 0.12630001 0.00000010
v 0.64616677 0.12664475 0.01316509
v 0.64638564 0.12655342 0.00967763
v 0.64582166 0.14511399 0.00962052
v 0.64582166 0.14511399 0.00962052
v 0.64329931 0.16400000 0.00938676
v 0.63984975 0.16400000 0.02784071
v 0.64582166 0.14511399 0.00962052
v 0.63984975 0.16400000 0.02784071
v 0.64228615 0.14511399 0.02853391
v 0.61053726 0.16400000 0.07518194
v 0.62520644 0.14511399 0.06283472
v 0.62318489 0.16400000 0.06130812
v 0.62318489 0.16400000 0.06130812
v 0.62520644 0.14511399 0.06283472
v 0.63306794 0.16400000 0.04534648
v 0.62520644 0.14511399 -0.06283452
v 0.62318489 0.16400000 -0.06130793
v 0.63306794 0.16400000 -0.04534640
v 0.62520644 0.14511399 -0.06283452
v 0.61053726 0.16400000 -0.07518174
v 0.62318489 0.16400000 -0.06130793
v 0.62520644 0.14511399 -0.06283452
v 0.62563774 0.12795393 -0.06316092
v 0.62198183 0.12808140 -0.06802859
v 0.62962410 0.12781493 -0.05785324
v 0.62563774 0.12795393 -0.06316092
v 0.62520644 0.14511399 -0.06283452
v 0.61410770 -0.14345060 -0.05253615
v 0.62198183 0.12808140 -0.06802859
v 0.62563774 0.12795393 -0.06316092
v 0.61410770 -0.14345060 -0.05253615
v 0.62563774 0.12795393 -0.06316092
v 0.62962410 0.12781493 -0.05785324
v 0.63533553 0.14511399 -0.04647555
v 0.63306794 0.16400000 -0.04534640
v 0.63984975 0.16400000 -0.02784064
v 0.63984975 0.16400000 -0.02784064
v 0.64228615 0.14511399 -0.02853384
v 0.63533553 0.14511399 -0.04647555
v 0.63533553 0.14511399 -0.04647555
v 0.63998625 0.12728795 -0.03772833
v 0.63593575 0.12752850 -0.04691436
v 0.64228615 0.14511399 -0.02853384
v 0.63998625 0.12728795 -0.03772833
v 0.63533553 0.14511399 -0.04647555
v 0.62943527 -0.14430921 -0.01966610
v 0.63593575 0.12752850 -0.04691436
v 0.63998625 0.12728795 -0.03772833
v 0.64582166 0.14511399 0.00962052
v 0.64699277 0.12630001 0.00000010
v 0.64582166 0.14511399 -0.00962045
v 0.63984975 0.16400000 -0.02784064
v 0.64582166 0.14511399 -0.00962045
v 0.64228615 0.14511399 -0.02853384
v 0.52330658 0.16400000 0.10000107
v 0.45863557 0.16066675 0.09296010
v 0.44569147 0.15918310 0.09297416
v 0.52330658 0.16400000 0.10000107
v 0.44569147 0.15918310 0.09297416
v 0.42000520 0.15508778 0.09301851
v -0.00000000 0.05623150 0.10714028
v 0.52330658 0.16400000 0.10000107
v 0.42000520 0.15508778 0.09301851
v 0.47346270 0.16400000 0.07518194
v -0.00000000 0.12011778 0.01458500
v 0.45510280 0.16057159 0.09062479
v 0.45863557 0.16066675 0.09296010
v 0.45510280 0.16057159 0.09062479
v -0.00000000 0.12011778 0.01458500
v 0.47346270 0.16400000 0.07518194
v 0.45510280 0.16057159 0.09062479
v 0.45863557 0.16066675 0.09296010
v 0.62962410 0.12781493 0.05785320
v 0.62198183 0.12808140 0.06802867
v 0.61410770 -0.14382508 0.05161891
v 0.63593575 0.12752850 0.04691444
v 0.62962410 0.12781493 0.05785320
v 0.61410770 -0.14382508 0.05161891
v 0.62962410 0.12781493 0.05785320
v 0.62520644 0.14511399 0.06283472
v 0.62198183 0.12808140 0.06802867
v 0.33048117 -0.15963799 0.06317613
v 0.31497598 -0.14731017 0.07786796
v 0.23400009 -0.12956901 0.09283588
v 0.32961738 -0.14158131 0.08469532
v 0.23400009 -0.12956901 0.09283588
v 0.31497598 -0.14731017 0.07786796
v 0.32961738 -0.14158131 0.08469532
v 0.31497598 -0.14731017 0.07786796
v 0.56644496 -0.14145848 0.08484171
v 0.56644496 -0.14145848 0.08484171
v 0.31497598 -0.14731017 0.07786796
v 0.58000740 -0.14676517 0.07851741
v 0.56381688 -0.15963799 0.06317613
v 0.58000740 -0.14676517 0.07851741
v 0.31497598 -0.14731017 0.07786796
v 0.33048117 -0.15963799 0.06317613
v 0.56381688 -0.15963799 0.06317613
v 0.31497598 -0.14731017 0.07786796
v 0.56115887 0.14511399 0.10249112
v 0.57966539 0.14511399 0.09722564
v 0.57875034 0.16400000 0.09486363
v 0.59688923 0.14511399 0.08864925
v 0.57966539 0.14511399 0.09722564
v 0.58606407 0.12879565 0.09530494
v 0.59688923 0.14511399 0.08864925
v 0.57875034 0.16400000 0.09486363
v 0.57966539 0.14511399 0.09722564
v 0.56197760 0.12899923 0.10307954
v 0.56115887 0.14511399 0.10249112
v 0.55203995 0.12903686 0.10451625
v 0.56644496 -0.14145848 0.08484171
v 0.56197760 0.12899923 0.10307954
v 0.55203995 0.12903686 0.10451625
v 0.23400009 -0.12956901 0.09283588
v 0.05576229 -0.02895720 0.11748407
v -0.00000000 -0.02895720 0.11748407
v 0.05576229 -0.02895720 0.11748407
v 0.11936224 -0.01458494 0.12011788
v -0.00000000 -0.02895720 0.11748407
v 0.11936224 -0.01458494 0.12011788
v 0.05576229 -0.02895720 0.11748407
v 0.23400009 -0.12956901 0.09283588
v -0.00000000 0.00000000 0.12100003
v 0.05576229 0.00000000 0.12100003
v 0.11936224 0.01458494 0.12011788
v 0.11936224 -0.01458494 0.12011788
v 0.05576229 0.00000000 0.12100003
v -0.00000000 0.00000000 0.12100003
v 0.11936224 0.01458494 0.12011788
v 0.05576229 0.00000000 0.12100003
v 0.11936224 -0.01458494 0.12011788
v 0.44894636 0.16038777 -0.08595147
v 0.45067358 0.16043749 -0.08720090
v -0.00000000 0.12011778 -0.01458492
v 0.45067358 0.16043749 -0.08720090
v 0.45863557 0.16066675 -0.09295990
v -0.00000000 0.12011778 -0.01458492
v 0.44894636 0.16038777 -0.08595147
v 0.47346270 0.16400000 -0.07518174
v 0.45067358 0.16043749 -0.08720090
v 0.45863557 0.16066675 -0.09295990
v 0.45067358 0.16043749 -0.08720090
v 0.47346270 0.16400000 -0.07518174
v 0.44569147 0.15918310 -0.09297409
v 0.45570409 0.16033074 -0.09296312
v 0.52330658 0.16400000 -0.10000112
v 0.45863557 0.16066675 -0.09295990
v 0.52330658 0.16400000 -0.10000112
v 0.45570409 0.16033074 -0.09296312
v 0.45863557 0.16066675 -0.09295990
v 0.45570409 0.16033074 -0.09296312
v 0.44569147 0.15918310 -0.09297409
v 0.59688923 0.14511399 0.08864925
v 0.61053726 0.16400000 0.07518194
v 0.59555575 0.16400000 0.08649538
v 0.59688923 0.14511399 0.08864925
v 0.59555575 0.16400000 0.08649538
v 0.57875034 0.16400000 0.09486363
v 0.59688923 0.14511399 0.08864925
v 0.61224386 0.14511399 0.07705376
v 0.61053726 0.16400000 0.07518194
v 0.59688923 0.14511399 0.08864925
v 0.60554370 0.12848885 0.08358882
v 0.61224386 0.14511399 0.07705376
v 0.61264274 0.12832902 0.07748530
v 0.61224386 0.14511399 0.07705376
v 0.60554370 0.12848885 0.08358882
v 0.61264274 0.12832902 0.07748530
v 0.61512038 0.12827323 0.07535503
v 0.61224386 0.14511399 0.07705376
v 0.61224386 0.14511399 0.07705376
v 0.62520644 0.14511399 0.06283472
v 0.61053726 0.16400000 0.07518194
v 0.61512038 0.12827323 0.07535503
v 0.62198183 0.12808140 0.06802867
v 0.61224386 0.14511399 0.07705376
v 0.62520644 0.14511399 0.06283472
v 0.61224386 0.14511399 0.07705376
v 0.62198183 0.12808140 0.06802867
v 0.62520644 0.14511399 0.06283472
v 0.63533553 0.14511399 0.04647563
v 0.63306794 0.16400000 0.04534648
v 0.62962410 0.12781493 0.05785320
v 0.63593575 0.12752850 0.04691444
v 0.63533553 0.14511399 0.04647563
v 0.62962410 0.12781493 0.05785320
v 0.63533553 0.14511399 0.04647563
v 0.62520644 0.14511399 0.06283472
v 0.63306794 0.16400000 0.04534648
v 0.63533553 0.14511399 0.04647563
v 0.63984975 0.16400000 0.02784071
v 0.63984975 0.16400000 0.02784071
v 0.63533553 0.14511399 0.04647563
v 0.64228615 0.14511399 0.02853391
v 0.64228615 0.14511399 0.02853391
v 0.63533553 0.14511399 0.04647563
v 0.63998625 0.12728795 0.03772841
v 0.63593575 0.12752850 0.04691444
v 0.63998625 0.12728795 0.03772841
v 0.63533553 0.14511399 0.04647563
v 0.64582166 0.14511399 -0.00962045
v 0.63984975 0.16400000 -0.02784064
v 0.64329931 0.16400000 -0.00938668
v 0.45863557 0.16066675 0.09296010
v 0.50524971 0.16400000 0.09486363
v 0.48844433 0.16400000 0.08649538
v 0.52330658 0.16400000 0.10000107
v 0.50524971 0.16400000 0.09486363
v 0.45863557 0.16066675 0.09296010
v -0.00000000 0.02895720 0.11748407
v 0.54200003 0.16400000 0.10173342
v -0.00000000 0.05623150 0.10714028
v -0.00000000 0.05623150 0.10714028
v 0.54200003 0.16400000 0.10173342
v 0.52330658 0.16400000 0.10000107
v 0.11936224 0.01458494 0.12011788
v 0.54200003 0.16400000 0.10173342
v -0.00000000 0.02895720 0.11748407
v 0.54200003 0.16400000 0.10173342
v 0.11936224 0.01458494 0.12011788
v 0.54200003 0.14511399 0.10426638
v 0.56115887 0.14511399 0.10249112
v 0.54200003 0.16400000 0.10173342
v 0.54200003 0.14511399 0.10426638
v 0.56115887 0.14511399 0.10249112
v 0.56069347 0.16400000 0.10000107
v 0.54200003 0.16400000 0.10173342
v 0.56115887 0.14511399 0.10249112
v 0.57430193 0.12891611 0.09990571
v 0.57966539 0.14511399 0.09722564
v 0.56197760 0.12899923 0.10307954
v 0.57430193 0.12891611 0.09990571
v 0.56115887 0.14511399 0.10249112
v 0.57966539 0.14511399 0.09722564
v 0.57430193 0.12891611 0.09990571
v 0.58606407 0.12879565 0.09530494
v 0.56197760 0.12899923 0.10307954
v 0.56644496 -0.14145848 0.08484171
v 0.57430193 0.12891611 0.09990571
v 0.58606407 0.12879565 0.09530494
v 0.57430193 0.12891611 0.09990571
v 0.56644496 -0.14145848 0.08484171
v 0.64638564 0.12655342 -0.00967755
v 0.64582166 0.14511399 -0.00962045
v 0.64699277 0.12630001 0.00000010
v 0.64582166 0.14511399 -0.00962045
v 0.64638564 0.12655342 -0.00967755
v 0.64616677 0.12664475 -0.01316502
v 0.62943527 -0.14430921 -0.01966610
v 0.64638564 0.12655342 -0.00967755
v 0.64699277 0.12630001 0.00000010
v 0.64616677 0.12664475 -0.01316502
v 0.64638564 0.12655342 -0.00967755
v 0.62943527 -0.14430921 -0.01966610
v 0.63998625 0.12728795 -0.03772833
v 0.64284870 0.12705126 -0.02868941
v 0.62943527 -0.14430921 -0.01966610
v 0.64284870 0.12705126 -0.02868941
v 0.63998625 0.12728795 -0.03772833
v 0.64228615 0.14511399 -0.02853384
v 0.64582166 0.14511399 -0.00962045
v 0.64383480 0.12696972 -0.02557554
v 0.64228615 0.14511399 -0.02853384
v 0.64616677 0.12664475 -0.01316502
v 0.64383480 0.12696972 -0.02557554
v 0.64582166 0.14511399 -0.00962045
v 0.64383480 0.12696972 -0.02557554
v 0.64284870 0.12705126 -0.02868941
v 0.64228615 0.14511399 -0.02853384
v 0.64616677 0.12664475 -0.01316502
v 0.62943527 -0.14430921 -0.01966610
v 0.64383480 0.12696972 -0.02557554
v 0.64284870 0.12705126 -0.02868941
v 0.64383480 0.12696972 -0.02557554
v 0.62943527 -0.14430921 -0.01966610
v 0.11936224 0.00000000 -0.12099995
v -0.00000000 -0.00000000 -0.12099995
v 0.11936224 0.01458494 -0.12011769
v 0.11936224 0.00000000 -0.12099995
v 0.11936224 -0.01458494 -0.12011769
v -0.00000000 -0.00000000 -0.12099995
v -0.00000000 0.12011778 0.01458500
v 0.44070065 0.16400000 0.00938676
v -0.00000000 0.12011778 -0.01458492
v -0.00000000 0.12011778 -0.01458492
v 0.44070065 0.16400000 0.00938676
v 0.44070065 0.16400000 -0.00938668
v 0.56641719 -0.16836418 -0.03920116
v 0.56641719 -0.16836418 0.03920124
v 0.53912386 -0.17317672 -0.02597883
v 0.53912386 -0.17317672 -0.02597883
v 0.56641719 -0.16836418 0.03920124
v 0.53912386 -0.17317672 0.02597890
v 0.59715983 -0.16294341 -0.02173652
v 0.59715983 -0.16294341 0.02173660
v 0.56641719 -0.16836418 0.03920124
v 0.59715983 -0.16294341 -0.02173652
v 0.56641719 -0.16836418 0.03920124
v 0.56641719 -0.16836418 -0.03920116
v -0.00000000 0.00000000 0.12100003
v -0.00000000 -0.12011778 -0.01458492
v -0.00000000 -0.12011778 0.01458500
v -0.00000000 -0.09958105 -0.06873574
v -0.00000000 0.00000000 0.12100003
v -0.00000000 -0.08023784 -0.09056976
v -0.00000000 0.09958105 0.06873582
v -0.00000000 0.00000000 0.12100003
v -0.00000000 0.08023784 0.09056995
v -0.00000000 -0.11313696 0.04290722
v -0.00000000 0.00000000 0.12100003
v -0.00000000 -0.12011778 0.01458500
v -0.00000000 -0.02895720 0.11748407
v -0.00000000 0.00000000 0.12100003
v -0.00000000 -0.05623150 0.10714028
v -0.00000000 0.08023784 -0.09056976
v -0.00000000 0.05623150 -0.10714009
v -0.00000000 0.00000000 0.12100003
v -0.00000000 -0.08023784 -0.09056976
v -0.00000000 0.00000000 0.12100003
v -0.00000000 -0.05623150 -0.10714009
v -0.00000000 0.11313696 -0.04290714
v -0.00000000 0.00000000 0.12100003
v -0.00000000 0.12011778 -0.01458492
v -0.00000000 0.02895720 -0.11748388
v -0.00000000 0.00000000 0.12100003
v -0.00000000 0.05623150 -0.10714009
v -0.00000000 0.12011778 0.01458500
v -0.00000000 0.12011778 -0.01458492
v -0.00000000 0.00000000 0.12100003
v -0.00000000 -0.09958105 0.06873582
v -0.00000000 0.00000000 0.12100003
v -0.00000000 -0.11313696 0.04290722
v -0.00000000 -0.02895720 -0.11748388
v -0.00000000 0.00000000 0.12100003
v -0.00000000 -0.00000000 -0.12099995
v -0.00000000 0.12011778 0.01458500
v -0.00000000 0.00000000 0.12100003
v -0.00000000 0.11313696 0.04290722
v -0.00000000 -0.09958105 0.06873582
v -0.00000000 -0.08023784 0.09056995
v -0.00000000 0.00000000 0.12100003
v -0.00000000 0.05623150 0.10714028
v -0.00000000 0.08023784 0.09056995
v -0.00000000 0.00000000 0.12100003
v -0.00000000 -0.09958105 -0.06873574
v -0.00000000 -0.11313696 -0.04290714
v -0.00000000 0.00000000 0.12100003
v -0.00000000 -0.12011778 -0.01458492
v -0.00000000 0.00000000 0.12100003
v -0.00000000 -0.11313696 -0.04290714
v -0.00000000 0.11313696 -0.04290714
v -0.00000000 0.09958105 -0.06873574
v -0.00000000 0.00000000 0.12100003
v -0.00000000 0.09958105 0.06873582
v -0.00000000 0.11313696 0.04290722
v -0.00000000 0.00000000 0.12100003
v -0.00000000 0.05623150 0.10714028
v -0.00000000 0.00000000 0.12100003
v -0.00000000 0.02895720 0.11748407
v -0.00000000 0.08023784 -0.09056976
v -0.00000000 0.00000000 0.12100003
v -0.00000000 0.09958105 -0.06873574
v -0.00000000 -0.02895720 -0.11748388
v -0.00000000 -0.05623150 -0.10714009
v -0.00000000 0.00000000 0.12100003
v -0.00000000 0.02895720 -0.11748388
v -0.00000000 -0.00000000 -0.12099995
v -0.00000000 0.00000000 0.12100003
v -0.00000000 -0.05623150 0.10714028
v -0.00000000 0.00000000 0.12100003
v -0.00000000 -0.08023784 0.09056995
v -0.00000000 -0.12011778 -0.01458492
v 0.35274661 -0.17317672 0.02597890
v -0.00000000 -0.12011778 0.01458500
v 0.35274661 -0.17317672 -0.02597883
v 0.35274661 -0.17317672 0.02597890
v -0.00000000 -0.12011778 -0.01458492
v 0.53912386 -0.17317672 -0.02597883
v 0.53912386 -0.17317672 0.02597890
v 0.35274661 -0.17317672 0.02597890
v 0.35274661 -0.17317672 -0.02597883
v 0.53912386 -0.17317672 -0.02597883
v 0.35274661 -0.17317672 0.02597890
v 0.64582166 0.14511399 0.00962052
v 0.64329931 0.16400000 -0.00938668
v 0.64329931 0.16400000 0.00938676
v 0.64582166 0.14511399 -0.00962045
v 0.64329931 0.16400000 -0.00938668
v 0.64582166 0.14511399 0.00962052
v 0.56069347 0.16400000 -0.10000112
v 0.54200003 0.16400000 0.10173342
v 0.57875034 0.16400000 -0.09486344
v 0.52330658 0.16400000 0.10000107
v 0.54200003 0.16400000 0.10173342
v 0.50524971 0.16400000 0.09486363
v 0.54200003 0.16400000 0.10173342
v 0.46081507 0.16400000 -0.06130793
v 0.45093215 0.16400000 -0.04534640
v 0.44415033 0.16400000 -0.02784064
v 0.54200003 0.16400000 0.10173342
v 0.45093215 0.16400000 -0.04534640
v 0.54200003 0.16400000 -0.10173323
v 0.54200003 0.16400000 0.10173342
v 0.56069347 0.16400000 -0.10000112
v 0.56069347 0.16400000 0.10000107
v 0.57875034 0.16400000 0.09486363
v 0.54200003 0.16400000 0.10173342
v 0.63984975 0.16400000 0.02784071
v 0.54200003 0.16400000 0.10173342
v 0.63306794 0.16400000 0.04534648
v 0.54200003 0.16400000 0.10173342
v 0.54200003 0.16400000 -0.10173323
v 0.52330658 0.16400000 -0.10000112
v 0.62318489 0.16400000 -0.06130793
v 0.61053726 0.16400000 -0.07518174
v 0.54200003 0.16400000 0.10173342
v 0.44415033 0.16400000 0.02784071
v 0.54200003 0.16400000 0.10173342
v 0.44070065 0.16400000 0.00938676
v 0.59555575 0.16400000 -0.08649542
v 0.54200003 0.16400000 0.10173342
v 0.61053726 0.16400000 -0.07518174
v 0.47346270 0.16400000 -0.07518174
v 0.54200003 0.16400000 0.10173342
v 0.48844433 0.16400000 -0.08649542
v 0.44070065 0.16400000 0.00938676
v 0.54200003 0.16400000 0.10173342
v 0.44070065 0.16400000 -0.00938668
v 0.48844433 0.16400000 -0.08649542
v 0.54200003 0.16400000 0.10173342
v 0.50524971 0.16400000 -0.09486344
v 0.62318489 0.16400000 0.06130812
v 0.63306794 0.16400000 0.04534648
v 0.54200003 0.16400000 0.10173342
v 0.54200003 0.16400000 0.10173342
v 0.47346270 0.16400000 0.07518194
v 0.48844433 0.16400000 0.08649538
v 0.63984975 0.16400000 -0.02784064
v 0.63306794 0.16400000 -0.04534640
v 0.54200003 0.16400000 0.10173342
v 0.54200003 0.16400000 0.10173342
v 0.46081507 0.16400000 0.06130812
v 0.47346270 0.16400000 0.07518194
v 0.54200003 0.16400000 0.10173342
v 0.44415033 0.16400000 -0.02784064
v 0.44070065 0.16400000 -0.00938668
v 0.46081507 0.16400000 -0.06130793
v 0.54200003 0.16400000 0.10173342
v 0.47346270 0.16400000 -0.07518174
v 0.54200003 0.16400000 0.10173342
v 0.44415033 0.16400000 0.02784071
v 0.45093215 0.16400000 0.04534648
v 0.62318489 0.16400000 0.06130812
v 0.54200003 0.16400000 0.10173342
v 0.61053726 0.16400000 0.07518194
v 0.59555575 0.16400000 -0.08649542
v 0.57875034 0.16400000 -0.09486344
v 0.54200003 0.16400000 0.10173342
v 0.46081507 0.16400000 0.06130812
v 0.54200003 0.16400000 0.10173342
v 0.45093215 0.16400000 0.04534648
v 0.50524971 0.16400000 -0.09486344
v 0.54200003 0.16400000 0.10173342
v 0.52330658 0.16400000 -0.10000112
v 0.63984975 0.16400000 0.02784071
v 0.64329931 0.16400000 0.00938676
v 0.54200003 0.16400000 0.10173342
v 0.62318489 0.16400000 -0.06130793
v 0.54200003 0.16400000 0.10173342
v 0.63306794 0.16400000 -0.04534640
v 0.59555575 0.16400000 0.08649538
v 0.54200003 0.16400000 0.10173342
v 0.57875034 0.16400000 0.09486363
v 0.64329931 0.16400000 -0.00938668
v 0.63984975 0.16400000 -0.02784064
v 0.54200003 0.16400000 0.10173342
v 0.59555575 0.16400000 0.08649538
v 0.61053726 0.16400000 0.07518194
v 0.54200003 0.16400000 0.10173342
v 0.64329931 0.16400000 -0.00938668
v 0.54200003 0.16400000 0.10173342
v 0.64329931 0.16400000 0.00938676
v 0.50524971 0.16400000 0.09486363
v 0.54200003 0.16400000 0.10173342
v 0.48844433 0.16400000 0.08649538
f 1 2 3
f 4 5 6
f 7 8 9
f 10 11 12
f 13 14 15
f 16 17 18
f 19 20 21
f 22 23 24
f 25 26 27
f 28 29 30
f 31 32 33
f 34 35 36
f 37 38 39
f 40 41 42
f 43 44 45
f 46 47 48
f 49 50 51
f 52 53 54
f 55 56 57
f 58 59 60
f 61 62 63
f 64 65 66
f 67 68 69
f 70 71 72
f 73 74 75
f 76 77 78
f 79 80 81
f 82 83 84
f 85 86 87
f 88 89 90
f 91 92 93
f 94 95 96
f 97 98 99
f 100 101 102
f 103 104 105
f 106 107 108
f 109 110 111
f 112 113 114
f 115 116 117
f 118 119 120
f 121 122 123
f 124 125 126
f 127 128 129
f 130 131 132
f 133 134 135
f 136 137 138
f 139 140 141
f 142 143 144
f 145 146 147
f 148 149 150
f 151 152 153
f 154 155 156
f 157 158 159
f 160 161 162
f 163 164 165
f 166 167 168
f 169 170 171
f 172 173 174
f 175 176 177
f 178 179 180
f 181 182 183
f 184 185 186
f 187 188 189
f 190 191 192
f 193 194 195
f 196 197 198
f 199 200 201
f 202 203 204
f 205 206 207
f 208 209 210
f 211 212 213
f 214 215 216
f 217 218 219
f 220 221 222
f 223 224 225
f 226 227 228
f 229 230 231
f 232 233 234
f 235 236 237
f 238 239 240
f 241 242 243
f 244 245 246
f 247 248 249
f 250 251 252
f 253 254 255
f 256 257 258
f 259 260 261
f 262 263 264
f 265 266 267
f 268 269 270
f 271 272 273
f 274 275 276
f 277 278 279
f 280 281 282
f 283 284 285
f 286 287 288
f 289 290 291
f 292 293 294
f 295 296 297
f 298 299 300
f 301 302 303
f 304 305 306
f 307 308 309
f 310 311 312
f 313 314 315
f 316 317 318
f 319 320 321
f 322 323 324
f 325 326 327
f 328 329 330
f 331 332 333
f 334 335 336
f 337 338 339
f 340 341 342
f 343 344 345
f 346 347 348
f 349 350 351
f 352 353 354
f 355 356 357
f 358 359 360
f 361 362 363
f 364 365 366
f 367 368 369
f 370 371 372
f 373 374 375
f 376 377 378
f 379 380 381
f 382 383 384
f 385 386 387
f 388 389 390
f 391 392 393
f 394 395 396
f 397 398 399
f 400 401 402
f 403 404 405
f 406 407 408
f 409 410 411
f 412 413 414
f 415 416 417
f 418 419 420
f 421 422 423
f 424 425 426
f 427 428 429
f 430 431 432
f 433 434 435
f 436 437 438
f 439 440 441
f 442 443 444
f 445 446 447
f 448 449 450
f 451 452 453
f 454 455 456
f 457 458 459
f 460 461 462
f 463 464 465
f 466 467 468
f 469 470 471
f 472 473 474
f 475 476 477
f 478 479 480
f 481 482 483
f 484 485 486
f 487 488 489
f 490 491 492
f 493 494 495
f 496 497 498
f 499 500 501
f 502 503 504
f 505 506 507
f 508 509 510
f 511 512 513
f 514 515 516
f 517 518 519
f 520 521 522
f 523 524 525
f 526 527 528
f 529 530 531
f 532 533 534
f 535 536 537
f 538 539 540
f 541 542 543
f 544 545 546
f 547 548 549
f 550 551 552
f 553 554 555
f 556 557 558
f 559 560 561
f 562 563 564
f 565 566 567
f 568 569 570
f 571 572 573
f 574 575 576
f 577 578 579
f 580 581 582
f 583 584 585
f 586 587 588
f 589 590 591
f 592 593 594
f 595 596 597
f 598 599 600
f 601 602 603
f 604 605 606
f 607 608 609
f 610 611 612
f 613 614 615
f 616 617 618
f 619 620 621
f 622 623 624
f 625 626 627
f 628 629 630
f 631 632 633
f 634 635 636
f 637 638 639
f 640 641 642
f 643 644 645
f 646 647 648
f 649 650 651
f 652 653 654
f 655 656 657
f 658 659 660
f 661 662 663
f 664 665 666
f 667 668 669
f 670 671 672
f 673 674 675
f 676 677 678
f 679 680 681
f 682 683 684
f 685 686 687
f 688 689 690
f 691 692 693
f 694 695 696
f 697 698 699
f 700 701 702
f 703 704 705
f 706 707 708
f 709 710 711
f 712 713 714
f 715 716 717
f 718 719 720
f 721 722 723
f 724 725 726
f 727 728 729
f 730 731 732
f 733 734 735
f 736 737 738
f 739 740 741
f 742 743 744
f 745 746 747
f 748 749 750
f 751 752 753
f 754 755 756
f 757 758 759
f 760 761 762
f 763 764 765
f 766 767 768
f 769 770 771
f 772 773 774
f 775 776 777
f 778 779 780
f 781 782 783
f 784 785 786
f 787 788 789
f 790 791 792
f 793 794 795
f 796 797 798
f 799 800 801
f 802 803 804
f 805 806 807
f 808 809 810
f 811 812 813
f 814 815 816
f 817 818 819
f 820 821 822
f 823 824 825
f 826 827 828
f 829 830 831
f 832 833 834
f 835 836 837
f 838 839 840
f 841 842 843
f 844 845 846
f 847 848 849
f 850 851 852
f 853 854 855
f 856 857 858
f 859 860 861
f 862 863 864
f 865 866 867
f 868 869 870
f 871 872 873
f 874 875 876
f 877 878 879
f 880 881 882
f 883 884 885
f 886 887 888
f 889 890 891
f 892 893 894
f 895 896 897
f 898 899 900
f 901 902 903
f 904 905 906
f 907 908 909
f 910 911 912
f 913 914 915
f 916 917 918
f 919 920 921
f 922 923 924
f 925 926 927
f 928 929 930
f 931 932 933
f 934 935 936
f 937 938 939
f 940 941 942
f 943 944 945
f 946 947 948
f 949 950 951
f 952 953 954
f 955 956 957
f 958 959 960
f 961 962 963
f 964 965 966
f 967 968 969
f 970 971 972
f 973 974 975
f 976 977 978
f 979 980 981
f 982 983 984
f 985 986 987
f 988 989 990
f 991 992 993
f 994 995 996
