# Exported from USD: /kuka_kr210/link_3/collisions
mtllib collisions_3.mtl

g collisions
v -0.25499999 0.40105229 -0.15194155
v -0.47700002 0.02857147 -0.08152534
v -0.47700002 0.07231321 -0.04735042
v -0.27073661 0.20084905 -0.19019295
v -0.23903676 0.16022415 -0.20846106
v -0.23992645 0.15766480 -0.20814683
v -0.27073661 0.20084905 -0.19019295
v -0.23992645 0.15766480 -0.20814683
v -0.47700002 0.02857147 -0.08152534
v -0.47700002 0.08163600 0.02857755
v -0.47700002 0.04746120 0.07231937
v -0.25499999 0.40105229 0.26205838
v -0.25499999 0.40105229 -0.15194155
v -0.47700002 0.08163600 0.02857755
v -0.25499999 0.40105229 0.26205838
v -0.47700002 0.08163600 0.02857755
v -0.25499999 0.40105229 -0.15194155
v -0.47700002 0.07231321 -0.04735042
v -0.26904503 0.20286089 0.31407869
v -0.25499999 0.40105229 0.26205838
v -0.47700002 0.04746120 0.07231937
v -0.00000002 -0.29657692 -0.02061822
v -0.06301229 -0.94794778 0.06119417
v -0.00000002 -0.28385181 -0.06499626
v -0.08820291 -0.94794778 0.12921093
v -0.07748161 -0.95794777 0.10730825
v -0.07523710 -0.94794778 0.10840915
v -0.23999052 -0.22158538 -0.16158058
v -0.47700003 -0.04735666 -0.07220246
v -0.47700002 0.02857147 -0.08152534
v -0.23999052 -0.22158538 -0.16158058
v -0.23998484 -0.22228293 -0.16149499
v -0.47700003 -0.04735666 -0.07220246
v -0.29276304 -0.94794777 0.10840915
v -0.29051854 -0.95794776 0.10730825
v -0.27979721 -0.94794777 0.12921093
v -0.30374636 -0.94794777 0.03671394
v -0.47700003 -0.08153146 -0.02846076
v -0.47700003 -0.04735666 -0.07220246
v -0.23099998 0.40105229 -0.17594172
v -0.47700002 0.02857147 -0.08152534
v -0.25499999 0.40105229 -0.15194155
v -0.23099998 0.40105229 -0.17594172
v -0.27073661 0.20084905 -0.19019295
v -0.47700002 0.02857147 -0.08152534
v -0.23903676 0.16022415 -0.20846106
v -0.27073661 0.20084905 -0.19019295
v -0.23099998 0.40105229 -0.17594172
v -0.24279113 -0.94794777 0.16097961
v -0.26290945 -0.94794777 0.14697681
v -0.26128103 -0.95794776 0.14507996
v -0.26904503 0.20286089 0.31407869
v -0.26290945 -0.94794777 0.14697681
v -0.24279113 -0.94794777 0.16097961
v -0.26290945 -0.94794777 0.14697681
v -0.27979721 -0.94794777 0.12921093
v -0.26128103 -0.95794776 0.14507996
v -0.47700003 -0.02846690 0.08164214
v -0.26904503 0.20286089 0.31407869
v -0.47700002 0.04746120 0.07231937
v -0.47700003 -0.02846690 0.08164214
v -0.26290945 -0.94794777 0.14697681
v -0.26904503 0.20286089 0.31407869
v -0.27979721 -0.94794777 0.12921093
v -0.26290945 -0.94794777 0.14697681
v -0.47700003 -0.02846690 0.08164214
v -0.29276304 -0.94794777 0.10840915
v -0.27979721 -0.94794777 0.12921093
v -0.47700003 -0.02846690 0.08164214
v -0.24157788 -0.95794776 0.15879367
v -0.24279113 -0.94794777 0.16097961
v -0.26128103 -0.95794776 0.14507996
v -0.24157788 -0.95794776 0.15879367
v -0.21951748 -0.95794776 0.16826056
v -0.24279113 -0.94794777 0.16097961
v -0.26904503 0.20286089 0.31407869
v -0.22026589 -0.94794777 0.17064594
v -0.19625593 -0.94794777 0.17558013
v -0.22026589 -0.94794777 0.17064594
v -0.26904503 0.20286089 0.31407869
v -0.24279113 -0.94794777 0.16097961
v -0.24279113 -0.94794777 0.16097961
v -0.21951748 -0.95794776 0.16826056
v -0.22026589 -0.94794777 0.17064594
v -0.17199712 -0.95794776 0.17309295
v -0.14773425 -0.94794777 0.17064594
v -0.17174420 -0.94794777 0.17558013
v -0.17199712 -0.95794776 0.17309295
v -0.17174420 -0.94794777 0.17558013
v -0.18400007 -0.94794777 0.17620169
v -0.00000002 -0.26246053 -0.13959624
v -0.00000002 -0.28385181 -0.06499626
v -0.06301229 -0.94794778 0.06119417
v -0.07523710 -0.94794778 0.10840915
v -0.07748161 -0.95794777 0.10730825
v -0.06672405 -0.94794778 0.08542322
v -0.12642226 -0.95794777 0.15879367
v -0.10671911 -0.95794777 0.14507996
v -0.12520901 -0.94794778 0.16097961
v -0.23992746 0.15570626 -0.20790626
v -0.47700002 0.02857147 -0.08152534
v -0.23992645 0.15766480 -0.20814683
v -0.23992746 0.15570626 -0.20790626
v -0.23999052 -0.22158538 -0.16158058
v -0.47700002 0.02857147 -0.08152534
v -0.23992645 0.15766480 -0.20814683
v -0.23999052 -0.22158538 -0.16158058
v -0.23992746 0.15570626 -0.20790626
v -0.26128103 -0.95794776 0.14507996
v -0.27979721 -0.94794777 0.12921093
v -0.27782027 -0.95794776 0.12768064
v -0.27782027 -0.95794776 0.12768064
v -0.27979721 -0.94794777 0.12921093
v -0.29051854 -0.95794776 0.10730825
v -0.30498783 -0.94794777 0.06119417
v -0.47700003 -0.07220866 0.04746734
v -0.47700003 -0.08153146 -0.02846076
v -0.47700003 -0.08153146 -0.02846076
v -0.30374636 -0.94794777 0.03671394
v -0.30498783 -0.94794777 0.06119417
v -0.23399999 0.40525230 -0.10494162
v -0.23274638 0.40525230 -0.11606766
v -0.25499999 0.40105229 -0.15194155
v -0.23274638 0.40525230 -0.11606766
v -0.22904844 0.40525230 -0.12663580
v -0.25499999 0.40105229 -0.15194155
v -0.23099998 0.40105229 -0.17594172
v -0.18399999 0.40525230 -0.15494157
v -0.13699998 0.40105228 -0.17594172
v -0.20569417 0.40525230 -0.14999010
v -0.23099998 0.40105229 -0.17594172
v -0.21517448 0.40525230 -0.14403321
v -0.21517448 0.40525230 -0.14403321
v -0.23099998 0.40105229 -0.17594172
v -0.25499999 0.40105229 -0.15194155
v -0.11299998 0.40105228 -0.15194155
v 0.00000001 0.11177669 -0.09236814
v 0.00000001 0.08528112 -0.11724903
v -0.17199712 -0.95794776 0.17309295
v -0.14848264 -0.95794777 0.16826056
v -0.14773425 -0.94794777 0.17064594
v -0.14848264 -0.95794777 0.16826056
v -0.12642226 -0.95794777 0.15879367
v -0.12520901 -0.94794778 0.16097961
v -0.14848264 -0.95794777 0.16826056
v -0.12520901 -0.94794778 0.16097961
v -0.14773425 -0.94794777 0.17064594
v -0.19600301 -0.95794776 0.17309295
v -0.19625593 -0.94794777 0.17558013
v -0.22026589 -0.94794777 0.17064594
v -0.19600301 -0.95794776 0.17309295
v -0.22026589 -0.94794777 0.17064594
v -0.21951748 -0.95794776 0.16826056
v -0.19600301 -0.95794776 0.17309295
v -0.18400007 -0.94794777 0.17620169
v -0.19625593 -0.94794777 0.17558013
v -0.19600301 -0.95794776 0.17309295
v -0.17199712 -0.95794776 0.17309295
v -0.18400007 -0.94794777 0.17620169
v -0.06550908 -0.95794777 0.06106757
v -0.06672496 -0.95794777 0.03709255
v -0.06301229 -0.94794778 0.06119417
v -0.13525359 0.40525229 0.22618447
v -0.11299998 0.40105228 0.26205838
v -0.13399999 0.40525229 0.21505843
v -0.06914424 -0.95794777 0.08479665
v -0.06672405 -0.94794778 0.08542322
v -0.07748161 -0.95794777 0.10730825
v -0.06914424 -0.95794777 0.08479665
v -0.06550908 -0.95794777 0.06106757
v -0.06301229 -0.94794778 0.06119417
v -0.06914424 -0.95794777 0.08479665
v -0.06301229 -0.94794778 0.06119417
v -0.06672405 -0.94794778 0.08542322
v -0.00000000 -0.06980204 0.12712286
v -0.06301229 -0.94794778 0.06119417
v -0.00000002 -0.29657692 -0.02061822
v -0.00000000 -0.06980204 0.12712286
v -0.06672405 -0.94794778 0.08542322
v -0.06301229 -0.94794778 0.06119417
v -0.07748161 -0.95794777 0.10730825
v -0.08820291 -0.94794778 0.12921093
v -0.09017986 -0.95794777 0.12768064
v -0.10671911 -0.95794777 0.14507996
v -0.09017986 -0.95794777 0.12768064
v -0.08820291 -0.94794778 0.12921093
v -0.30127607 -0.94794777 0.08542322
v -0.47700003 -0.02846690 0.08164214
v -0.47700003 -0.07220866 0.04746734
v -0.47700003 -0.07220866 0.04746734
v -0.30498783 -0.94794777 0.06119417
v -0.30127607 -0.94794777 0.08542322
v -0.47700003 -0.02846690 0.08164214
v -0.30127607 -0.94794777 0.08542322
v -0.29276304 -0.94794777 0.10840915
v -0.30127607 -0.94794777 0.08542322
v -0.29051854 -0.95794776 0.10730825
v -0.29276304 -0.94794777 0.10840915
v -0.29051854 -0.95794776 0.10730825
v -0.30127607 -0.94794777 0.08542322
v -0.29885589 -0.95794776 0.08479665
v -0.29885589 -0.95794776 0.08479665
v -0.30127607 -0.94794777 0.08542322
v -0.30498783 -0.94794777 0.06119417
v -0.30249105 -0.95794776 0.06106757
v -0.30374636 -0.94794777 0.03671394
v -0.30127518 -0.95794776 0.03709255
v -0.30249105 -0.95794776 0.06106757
v -0.30498783 -0.94794777 0.06119417
v -0.30374636 -0.94794777 0.03671394
v -0.30249105 -0.95794776 0.06106757
v -0.29885589 -0.95794776 0.08479665
v -0.30498783 -0.94794777 0.06119417
v -0.27180384 -0.94794777 -0.02840520
v -0.47700003 -0.04735666 -0.07220246
v -0.25320537 -0.94794777 -0.04437162
v -0.27180384 -0.94794777 -0.02840520
v -0.28680761 -0.94794777 -0.00902201
v -0.47700003 -0.04735666 -0.07220246
v -0.29760243 -0.94794777 0.01298474
v -0.30374636 -0.94794777 0.03671394
v -0.47700003 -0.04735666 -0.07220246
v -0.47700003 -0.04735666 -0.07220246
v -0.28680761 -0.94794777 -0.00902201
v -0.29760243 -0.94794777 0.01298474
v -0.19512603 0.40525230 -0.15368797
v -0.23099998 0.40105229 -0.17594172
v -0.20569417 0.40525230 -0.14999010
v -0.19512603 0.40525230 -0.15368797
v -0.18399999 0.40525230 -0.15494157
v -0.23099998 0.40105229 -0.17594172
v -0.22904844 0.40525230 -0.12663580
v -0.22309156 0.40525230 -0.13611604
v -0.25499999 0.40105229 -0.15194155
v -0.22309156 0.40525230 -0.13611604
v -0.21517448 0.40525230 -0.14403321
v -0.25499999 0.40105229 -0.15194155
v -0.15986556 0.17398908 -0.21015121
v -0.17531087 0.17562938 -0.21035244
v -0.13699998 0.40105228 -0.17594172
v -0.13244857 0.16417362 -0.20894600
v -0.15986556 0.17398908 -0.21015121
v -0.14004092 0.16856417 -0.20948507
v -0.21974419 0.17141540 -0.20983507
v -0.22025517 0.17129961 -0.20982076
v -0.23099998 0.40105229 -0.17594172
v 0.00000001 0.13125218 -0.06167962
v -0.11299998 0.40105228 -0.15194155
v 0.00000001 0.14248391 -0.02711178
v 0.00000001 0.11177669 -0.09236814
v -0.11299998 0.40105228 -0.15194155
v 0.00000001 0.13125218 -0.06167962
v -0.23274638 0.40525230 0.22618447
v -0.23399999 0.40525230 0.21505843
v -0.25499999 0.40105229 0.26205838
v -0.06425379 -0.94794778 0.03671394
v -0.06672496 -0.95794777 0.03709255
v -0.07274209 -0.95794777 0.01385294
v -0.06425379 -0.94794778 0.03671394
v -0.00000002 -0.26246053 -0.13959624
v -0.06301229 -0.94794778 0.06119417
v -0.06301229 -0.94794778 0.06119417
v -0.06672496 -0.95794777 0.03709255
v -0.06425379 -0.94794778 0.03671394
v -0.13622651 -0.94794778 -0.05626704
v -0.16011735 -0.95794776 -0.06115629
v -0.15961411 -0.94794777 -0.06360509
v 0.00000000 0.06990655 0.12712286
v 0.00000001 0.09931158 0.10575889
v -0.11299998 0.40105228 0.26205838
v -0.09895495 0.20286088 0.31407869
v -0.08900001 -0.05507152 0.30837870
v 0.00000000 0.00005226 0.14505838
v -0.09895495 0.20286088 0.31407869
v 0.00000000 0.06990655 0.12712286
v -0.11299998 0.40105228 0.26205838
v -0.13699998 0.40105228 0.28605843
v -0.09895495 0.20286088 0.31407869
v -0.11299998 0.40105228 0.26205838
v -0.10671911 -0.95794777 0.14507996
v -0.10509068 -0.94794778 0.14697681
v -0.12520901 -0.94794778 0.16097961
v -0.10509068 -0.94794778 0.14697681
v -0.10671911 -0.95794777 0.14507996
v -0.08820291 -0.94794778 0.12921093
v -0.20006113 0.20967095 0.32300353
v -0.12329989 -0.05390204 0.30942023
v -0.17528187 0.20984868 0.32323325
v -0.12329989 -0.05390204 0.30942023
v -0.08900001 -0.05507152 0.30837870
v -0.17528187 0.20984868 0.32323325
v -0.12329989 -0.05390204 0.30942023
v -0.20006113 0.20967095 0.32300353
v -0.22493981 0.20828641 0.32121170
v -0.12329989 -0.05390204 0.30942023
v -0.26904503 0.20286089 0.31407869
v -0.19625593 -0.94794777 0.17558013
v -0.12329989 -0.05390204 0.30942023
v -0.24525453 0.20626160 0.31858373
v -0.26904503 0.20286089 0.31407869
v -0.19625593 -0.94794777 0.17558013
v -0.18400007 -0.94794777 0.17620169
v -0.12329989 -0.05390204 0.30942023
v -0.23099998 0.40105229 0.28605843
v -0.13699998 0.40105228 0.28605843
v -0.18399999 0.40525230 0.26505840
v -0.23099998 0.40105229 0.28605843
v -0.21517448 0.40525230 0.25415003
v -0.25499999 0.40105229 0.26205838
v -0.23099998 0.40105229 0.28605843
v -0.25499999 0.40105229 0.26205838
v -0.26904503 0.20286089 0.31407869
v -0.26904503 0.20286089 0.31407869
v -0.24525453 0.20626160 0.31858373
v -0.23099998 0.40105229 0.28605843
v -0.23099998 0.40105229 0.28605843
v -0.22493981 0.20828641 0.32121170
v -0.20006113 0.20967095 0.32300353
v -0.23099998 0.40105229 0.28605843
v -0.20006113 0.20967095 0.32300353
v -0.17528187 0.20984868 0.32323325
v -0.17528187 0.20984868 0.32323325
v -0.13699998 0.40105228 0.28605843
v -0.23099998 0.40105229 0.28605843
v -0.15282549 0.40525229 0.25415003
v -0.13699998 0.40105228 0.28605843
v -0.11299998 0.40105228 0.26205838
v -0.06672405 -0.94794778 0.08542322
v -0.00000000 -0.06980204 0.12712286
v -0.00000000 -0.03600778 0.14050291
v -0.07523710 -0.94794778 0.10840915
v -0.06672405 -0.94794778 0.08542322
v -0.00000000 -0.03600778 0.14050291
v -0.23998520 -0.22149269 -0.16159202
v -0.23995246 -0.22092234 -0.16166212
v -0.23998484 -0.22228293 -0.16149499
v -0.23992645 0.15766480 -0.20814683
v -0.23995246 -0.22092234 -0.16166212
v -0.23998520 -0.22149269 -0.16159202
v -0.23999052 -0.22158538 -0.16158058
v -0.23998520 -0.22149269 -0.16159202
v -0.23998484 -0.22228293 -0.16149499
v -0.23998520 -0.22149269 -0.16159202
v -0.23999052 -0.22158538 -0.16158058
v -0.23992645 0.15766480 -0.20814683
v -0.20788279 -0.95794776 -0.06115629
v -0.23177363 -0.94794777 -0.05626704
v -0.20838603 -0.94794777 -0.06360509
v -0.20838603 -0.94794777 -0.06360509
v -0.23177363 -0.94794777 -0.05626704
v -0.23998484 -0.22228293 -0.16149499
v -0.23177363 -0.94794777 -0.05626704
v -0.47700003 -0.04735666 -0.07220246
v -0.23998484 -0.22228293 -0.16149499
v -0.47700003 -0.04735666 -0.07220246
v -0.23177363 -0.94794777 -0.05626704
v -0.25320537 -0.94794777 -0.04437162
v -0.15961411 -0.94794777 -0.06360509
v -0.16011735 -0.95794776 -0.06115629
v -0.18400007 -0.94794777 -0.06608488
v -0.18400007 -0.94794777 -0.06608488
v -0.20788279 -0.95794776 -0.06115629
v -0.20838603 -0.94794777 -0.06360509
v -0.18400007 -0.94794777 -0.06608488
v -0.18399578 -0.23988598 -0.15933372
v -0.17830508 -0.24000125 -0.15931942
v -0.18400007 -0.94794777 -0.06608488
v -0.20838603 -0.94794777 -0.06360509
v -0.23998484 -0.22228293 -0.16149499
v -0.18400007 -0.94794777 -0.06608488
v -0.02750002 -0.23308897 -0.15788199
v -0.15961411 -0.94794777 -0.06360509
v -0.26999186 -0.95794776 -0.02668287
v -0.25320537 -0.94794777 -0.04437162
v -0.25177718 -0.95794776 -0.04231955
v -0.26999186 -0.95794776 -0.02668287
v -0.27180384 -0.94794777 -0.02840520
v -0.25320537 -0.94794777 -0.04437162
v -0.26999186 -0.95794776 -0.02668287
v -0.28680761 -0.94794777 -0.00902201
v -0.27180384 -0.94794777 -0.02840520
v -0.26999186 -0.95794776 -0.02668287
v -0.28468598 -0.95794776 -0.00769950
v -0.28680761 -0.94794777 -0.00902201
v -0.30127518 -0.95794776 0.03709255
v -0.30374636 -0.94794777 0.03671394
v -0.29525803 -0.95794776 0.01385294
v -0.29525803 -0.95794776 0.01385294
v -0.30374636 -0.94794777 0.03671394
v -0.29760243 -0.94794777 0.01298474
v -0.29525803 -0.95794776 0.01385294
v -0.29760243 -0.94794777 0.01298474
v -0.28680761 -0.94794777 -0.00902201
v -0.28468598 -0.95794776 -0.00769950
v -0.29525803 -0.95794776 0.01385294
v -0.28680761 -0.94794777 -0.00902201
v -0.12929624 0.16078489 -0.20852973
v -0.09726340 0.20084904 -0.19019295
v -0.12824431 0.15847173 -0.20824577
v -0.12929624 0.16078489 -0.20852973
v -0.13699998 0.40105228 -0.17594172
v -0.09726340 0.20084904 -0.19019295
v -0.13628296 0.16672062 -0.20925857
v -0.14004092 0.16856417 -0.20948507
v -0.13699998 0.40105228 -0.17594172
v -0.13628296 0.16672062 -0.20925857
v -0.13699998 0.40105228 -0.17594172
v -0.13244857 0.16417362 -0.20894600
v -0.13628296 0.16672062 -0.20925857
v -0.13244857 0.16417362 -0.20894600
v -0.14004092 0.16856417 -0.20948507
v -0.14932221 0.17174185 -0.20987512
v -0.13699998 0.40105228 -0.17594172
v -0.14004092 0.16856417 -0.20948507
v -0.14932221 0.17174185 -0.20987512
v -0.15986556 0.17398908 -0.21015121
v -0.13699998 0.40105228 -0.17594172
v -0.14004092 0.16856417 -0.20948507
v -0.15986556 0.17398908 -0.21015121
v -0.14932221 0.17174185 -0.20987512
v -0.23903676 0.16022415 -0.20846106
v -0.23099998 0.40105229 -0.17594172
v -0.23665549 0.16321107 -0.20882775
v -0.20910552 0.17382628 -0.21013118
v -0.15986556 0.17398908 -0.21015121
v -0.22442997 0.15925694 -0.20834233
v -0.20910552 0.17382628 -0.21013118
v -0.21974419 0.17141540 -0.20983507
v -0.23099998 0.40105229 -0.17594172
v 0.00000000 0.05343031 -0.13475920
v -0.11299998 0.40105228 -0.15194155
v 0.00000001 0.08528112 -0.11724903
v -0.11299998 0.40105228 -0.15194155
v 0.00000000 0.05343031 -0.13475920
v -0.13699998 0.40105228 -0.17594172
v 0.00000000 0.05343031 -0.13475920
v -0.09726340 0.20084904 -0.19019295
v -0.13699998 0.40105228 -0.17594172
v 0.00000000 0.05343031 -0.13475920
v 0.00000000 0.01822557 -0.14379813
v -0.09726340 0.20084904 -0.19019295
v -0.03850000 0.01949783 -0.16630913
v -0.12824431 0.15847173 -0.20824577
v -0.09726340 0.20084904 -0.19019295
v -0.03850000 0.01949783 -0.16630913
v -0.00584937 -0.22205210 -0.15201356
v -0.12824431 0.15847173 -0.20824577
v -0.07039771 -0.94794778 0.01298474
v -0.06425379 -0.94794778 0.03671394
v -0.07274209 -0.95794777 0.01385294
v -0.00000002 -0.26246053 -0.13959624
v -0.06425379 -0.94794778 0.03671394
v -0.07039771 -0.94794778 0.01298474
v -0.09800829 -0.95794777 -0.02668287
v -0.11622294 -0.95794777 -0.04231955
v -0.11479477 -0.94794778 -0.04437162
v 0.00000001 0.13795545 0.04486583
v 0.00000001 0.14476613 0.00916301
v -0.11299998 0.40105228 0.26205838
v 0.00000001 0.14476613 0.00916301
v -0.11299998 0.40105228 -0.15194155
v -0.11299998 0.40105228 0.26205838
v 0.00000001 0.14248391 -0.02711178
v -0.11299998 0.40105228 -0.15194155
v 0.00000001 0.14476613 0.00916301
v 0.00000001 0.09931158 0.10575889
v 0.00000001 0.12247980 0.07775329
v -0.11299998 0.40105228 0.26205838
v 0.00000001 0.12247980 0.07775329
v 0.00000001 0.13795545 0.04486583
v -0.11299998 0.40105228 0.26205838
v 0.00000000 0.03611229 0.14050291
v -0.09895495 0.20286088 0.31407869
v 0.00000000 0.00005226 0.14505838
v 0.00000000 0.06990655 0.12712286
v -0.09895495 0.20286088 0.31407869
v 0.00000000 0.03611229 0.14050291
v -0.10509068 -0.94794778 0.14697681
v -0.08900001 -0.07892050 0.30434906
v -0.12520901 -0.94794778 0.16097961
v -0.08900001 -0.07892050 0.30434906
v -0.14773425 -0.94794777 0.17064594
v -0.12520901 -0.94794778 0.16097961
v -0.08900001 -0.07892050 0.30434906
v -0.10509068 -0.94794778 0.14697681
v -0.08820291 -0.94794778 0.12921093
v -0.08900001 -0.07892050 0.30434906
v -0.08820291 -0.94794778 0.12921093
v -0.07523710 -0.94794778 0.10840915
v -0.00000000 -0.03600778 0.14050291
v -0.08900001 -0.07892050 0.30434906
v -0.07523710 -0.94794778 0.10840915
v -0.24482614 0.20630431 0.31863916
v -0.12329989 -0.05390204 0.30942023
v -0.22493981 0.20828641 0.32121170
v -0.24525453 0.20626160 0.31858373
v -0.12329989 -0.05390204 0.30942023
v -0.24482614 0.20630431 0.31863916
v -0.23099998 0.40105229 0.28605843
v -0.24482614 0.20630431 0.31863916
v -0.22493981 0.20828641 0.32121170
v -0.24482614 0.20630431 0.31863916
v -0.23099998 0.40105229 0.28605843
v -0.24525453 0.20626160 0.31858373
v -0.12330001 -0.07022752 0.30703962
v -0.12329989 -0.05390204 0.30942023
v -0.18400007 -0.94794777 0.17620169
v -0.22904844 0.40525230 0.23675261
v -0.23274638 0.40525230 0.22618447
v -0.25499999 0.40105229 0.26205838
v -0.19512603 0.40525230 0.26380479
v -0.23099998 0.40105229 0.28605843
v -0.18399999 0.40525230 0.26505840
v -0.17287395 0.40525230 0.26380479
v -0.18399999 0.40525230 0.26505840
v -0.13699998 0.40105228 0.28605843
v -0.13895154 0.40525229 0.23675261
v -0.11299998 0.40105228 0.26205838
v -0.13525359 0.40525229 0.22618447
v -0.02750002 -0.23308897 -0.15788199
v -0.12800080 -0.22081881 -0.16167475
v -0.12804396 0.15592222 -0.20793273
v -0.23078774 -0.95794776 -0.05396964
v -0.23177363 -0.94794777 -0.05626704
v -0.20788279 -0.95794776 -0.06115629
v -0.25177718 -0.95794776 -0.04231955
v -0.25320537 -0.94794777 -0.04437162
v -0.23078774 -0.95794776 -0.05396964
v -0.23177363 -0.94794777 -0.05626704
v -0.23078774 -0.95794776 -0.05396964
v -0.25320537 -0.94794777 -0.04437162
v -0.18400007 -0.95794776 -0.06358482
v -0.18400007 -0.94794777 -0.06608488
v -0.16011735 -0.95794776 -0.06115629
v -0.18400007 -0.94794777 -0.06608488
v -0.18400007 -0.95794776 -0.06358482
v -0.20788279 -0.95794776 -0.06115629
v -0.12871799 -0.22398113 -0.16128661
v -0.12800080 -0.22081881 -0.16167475
v -0.02750002 -0.23308897 -0.15788199
v -0.18400007 -0.94794777 -0.06608488
v -0.12871799 -0.22398113 -0.16128661
v -0.02750002 -0.23308897 -0.15788199
v -0.12871799 -0.22398113 -0.16128661
v -0.15834581 -0.23775958 -0.15959479
v -0.18399578 -0.23988598 -0.15933372
v -0.21347619 -0.22428601 -0.16124918
v -0.12871799 -0.22398113 -0.16128661
v -0.18399578 -0.23988598 -0.15933372
v -0.12871799 -0.22398113 -0.16128661
v -0.12804396 0.15592222 -0.20793273
v -0.12800080 -0.22081881 -0.16167475
v -0.23774202 -0.22631101 -0.16100051
v -0.23992645 0.15766480 -0.20814683
v -0.23539029 -0.21329932 -0.16259815
v -0.23774202 -0.22631101 -0.16100051
v -0.23995246 -0.22092234 -0.16166212
v -0.23992645 0.15766480 -0.20814683
v -0.23774202 -0.22631101 -0.16100051
v -0.23539029 -0.21329932 -0.16259815
v -0.21347619 -0.22428601 -0.16124918
v -0.22425237 -0.23425459 -0.16002513
v -0.23774202 -0.22631101 -0.16100051
v -0.18399578 -0.23988598 -0.15933372
v -0.23774202 -0.22631101 -0.16100051
v -0.21347619 -0.22428601 -0.16124918
v -0.18399578 -0.23988598 -0.15933372
v -0.21190755 -0.23754923 -0.15962054
v -0.22425237 -0.23425459 -0.16002513
v -0.18399578 -0.23988598 -0.15933372
v -0.21190755 -0.23754923 -0.15962054
v -0.18400007 -0.94794777 -0.06608488
v -0.22425237 -0.23425459 -0.16002513
v -0.16272354 -0.23866349 -0.15948369
v -0.17830508 -0.24000125 -0.15931942
v -0.18399578 -0.23988598 -0.15933372
v -0.15834581 -0.23775958 -0.15959479
v -0.16272354 -0.23866349 -0.15948369
v -0.18399578 -0.23988598 -0.15933372
v -0.16272354 -0.23866349 -0.15948369
v -0.18400007 -0.94794777 -0.06608488
v -0.17830508 -0.24000125 -0.15931942
v -0.16272354 -0.23866349 -0.15948369
v -0.15834581 -0.23775958 -0.15959479
v -0.18400007 -0.94794777 -0.06608488
v -0.14814810 -0.23565399 -0.15985323
v -0.18400007 -0.94794777 -0.06608488
v -0.15834581 -0.23775958 -0.15959479
v -0.18612885 -0.20175384 -0.16401578
v -0.22442997 0.15925694 -0.20834233
v -0.15986556 0.17398908 -0.21015121
v -0.18612885 -0.20175384 -0.16401578
v -0.15986556 0.17398908 -0.21015121
v -0.12871799 -0.22398113 -0.16128661
v -0.18612885 -0.20175384 -0.16401578
v -0.12871799 -0.22398113 -0.16128661
v -0.21347619 -0.22428601 -0.16124918
v -0.23903676 0.16022415 -0.20846106
v -0.23665549 0.16321107 -0.20882775
v -0.23057144 0.16733303 -0.20933391
v -0.23057144 0.16733303 -0.20933391
v -0.23992645 0.15766480 -0.20814683
v -0.23903676 0.16022415 -0.20846106
v -0.20910552 0.17382628 -0.21013118
v -0.23057144 0.16733303 -0.20933391
v -0.21974419 0.17141540 -0.20983507
v -0.23057144 0.16733303 -0.20933391
v -0.22442997 0.15925694 -0.20834233
v -0.23992645 0.15766480 -0.20814683
v -0.23057144 0.16733303 -0.20933391
v -0.20910552 0.17382628 -0.21013118
v -0.22442997 0.15925694 -0.20834233
v -0.22025517 0.17129961 -0.20982076
v -0.21974419 0.17141540 -0.20983507
v -0.23057144 0.16733303 -0.20933391
v -0.23057144 0.16733303 -0.20933391
v -0.23665549 0.16321107 -0.20882775
v -0.23099998 0.40105229 -0.17594172
v -0.23099998 0.40105229 -0.17594172
v -0.22025517 0.17129961 -0.20982076
v -0.23057144 0.16733303 -0.20933391
v -0.15986556 0.17398908 -0.21015121
v -0.20910552 0.17382628 -0.21013118
v -0.19214922 0.17565750 -0.21035601
v -0.17531087 0.17562938 -0.21035244
v -0.15986556 0.17398908 -0.21015121
v -0.19214922 0.17565750 -0.21035601
v -0.19214922 0.17565750 -0.21035601
v -0.20910552 0.17382628 -0.21013118
v -0.23099998 0.40105229 -0.17594172
v -0.19214922 0.17565750 -0.21035601
v -0.23099998 0.40105229 -0.17594172
v -0.13699998 0.40105228 -0.17594172
v -0.13699998 0.40105228 -0.17594172
v -0.17531087 0.17562938 -0.21035244
v -0.19214922 0.17565750 -0.21035601
v -0.00584937 -0.22205210 -0.15201356
v -0.03850000 0.01949783 -0.16630913
v 0.00000000 0.00005226 -0.14494158
v 0.00000000 0.01822557 -0.14379813
v 0.00000000 0.00005226 -0.14494158
v -0.09726340 0.20084904 -0.19019295
v 0.00000000 0.00005226 -0.14494158
v -0.03850000 0.01949783 -0.16630913
v -0.09726340 0.20084904 -0.19019295
v -0.01500002 -0.23013163 -0.15630962
v -0.00584937 -0.22205210 -0.15201356
v -0.00000002 -0.26246053 -0.13959624
v -0.00000002 -0.26246053 -0.13959624
v -0.11479477 -0.94794778 -0.04437162
v -0.01500002 -0.23013163 -0.15630962
v -0.11479477 -0.94794778 -0.04437162
v -0.13622651 -0.94794778 -0.05626704
v -0.01500002 -0.23013163 -0.15630962
v -0.01500002 -0.23013163 -0.15630962
v -0.15961411 -0.94794777 -0.06360509
v -0.02750002 -0.23308897 -0.15788199
v -0.01500002 -0.23013163 -0.15630962
v -0.13622651 -0.94794778 -0.05626704
v -0.15961411 -0.94794777 -0.06360509
v -0.01500002 -0.23013163 -0.15630962
v -0.02750002 -0.23308897 -0.15788199
v -0.12824431 0.15847173 -0.20824577
v -0.12824431 0.15847173 -0.20824577
v -0.00584937 -0.22205210 -0.15201356
v -0.01500002 -0.23013163 -0.15630962
v -0.14490841 0.40525229 -0.13611604
v -0.13895154 0.40525229 -0.12663580
v -0.11299998 0.40105228 -0.15194155
v -0.13895154 0.40525229 -0.12663580
v -0.13525359 0.40525229 -0.11606766
v -0.11299998 0.40105228 -0.15194155
v -0.13525359 0.40525229 -0.11606766
v -0.13399999 0.40525229 -0.10494162
v -0.11299998 0.40105228 -0.15194155
v -0.18399999 0.40525230 -0.15494157
v -0.17287395 0.40525230 -0.15368797
v -0.13699998 0.40105228 -0.17594172
v -0.17287395 0.40525230 -0.15368797
v -0.16230580 0.40525230 -0.14999010
v -0.13699998 0.40105228 -0.17594172
v -0.16230580 0.40525230 -0.14999010
v -0.15282549 0.40525229 -0.14403321
v -0.13699998 0.40105228 -0.17594172
v -0.15282549 0.40525229 -0.14403321
v -0.11299998 0.40105228 -0.15194155
v -0.13699998 0.40105228 -0.17594172
v -0.15282549 0.40525229 -0.14403321
v -0.14490841 0.40525229 -0.13611604
v -0.11299998 0.40105228 -0.15194155
v -0.08119253 -0.94794778 -0.00902201
v -0.07039771 -0.94794778 0.01298474
v -0.07274209 -0.95794777 0.01385294
v -0.00000002 -0.26246053 -0.13959624
v -0.07039771 -0.94794778 0.01298474
v -0.08119253 -0.94794778 -0.00902201
v -0.16011735 -0.95794776 -0.06115629
v -0.13622651 -0.94794778 -0.05626704
v -0.13721240 -0.95794777 -0.05396964
v -0.13721240 -0.95794777 -0.05396964
v -0.13622651 -0.94794778 -0.05626704
v -0.11479477 -0.94794778 -0.04437162
v -0.11622294 -0.95794777 -0.04231955
v -0.13721240 -0.95794777 -0.05396964
v -0.11479477 -0.94794778 -0.04437162
v -0.11039014 0.20463656 0.31645811
v -0.08900001 -0.05507152 0.30837870
v -0.09895495 0.20286088 0.31407869
v -0.11039014 0.20463656 0.31645811
v -0.09895495 0.20286088 0.31407869
v -0.13699998 0.40105228 0.28605843
v -0.17174420 -0.94794777 0.17558013
v -0.14773425 -0.94794777 0.17064594
v -0.08900001 -0.05892555 0.30789471
v -0.08900001 -0.05892555 0.30789471
v -0.18400007 -0.94794777 0.17620169
v -0.17174420 -0.94794777 0.17558013
v -0.08900001 -0.05892555 0.30789471
v -0.00000000 -0.03600778 0.14050291
v 0.00000000 0.00005226 0.14505838
v -0.08900001 -0.05892555 0.30789471
v 0.00000000 0.00005226 0.14505838
v -0.08900001 -0.05507152 0.30837870
v -0.08900001 -0.05892555 0.30789471
v -0.12330001 -0.07022752 0.30703962
v -0.18400007 -0.94794777 0.17620169
v -0.08900001 -0.05507152 0.30837870
v -0.12329989 -0.05390204 0.30942023
v -0.08900001 -0.05892555 0.30789471
v -0.08900001 -0.05892555 0.30789471
v -0.12329989 -0.05390204 0.30942023
v -0.12330001 -0.07022752 0.30703962
v -0.21517448 0.40525230 0.25415003
v -0.22309156 0.40525230 0.24623285
v -0.25499999 0.40105229 0.26205838
v -0.22309156 0.40525230 0.24623285
v -0.22904844 0.40525230 0.23675261
v -0.25499999 0.40105229 0.26205838
v -0.21517448 0.40525230 0.25415003
v -0.23099998 0.40105229 0.28605843
v -0.20569417 0.40525230 0.26010680
v -0.20569417 0.40525230 0.26010680
v -0.23099998 0.40105229 0.28605843
v -0.19512603 0.40525230 0.26380479
v -0.15282549 0.40525229 0.25415003
v -0.16230580 0.40525230 0.26010680
v -0.13699998 0.40105228 0.28605843
v -0.16230580 0.40525230 0.26010680
v -0.17287395 0.40525230 0.26380479
v -0.13699998 0.40105228 0.28605843
v -0.14490841 0.40525229 0.24623285
v -0.15282549 0.40525229 0.25415003
v -0.11299998 0.40105228 0.26205838
v -0.11299998 0.40105228 0.26205838
v -0.13895154 0.40525229 0.23675261
v -0.14490841 0.40525229 0.24623285
v -0.12824292 0.15845415 -0.20824362
v -0.12929624 0.16078489 -0.20852973
v -0.12824431 0.15847173 -0.20824577
v -0.12824431 0.15847173 -0.20824577
v -0.02750002 -0.23308897 -0.15788199
v -0.12824292 0.15845415 -0.20824362
v -0.02750002 -0.23308897 -0.15788199
v -0.12804396 0.15592222 -0.20793273
v -0.12824292 0.15845415 -0.20824362
v -0.12804396 0.15592222 -0.20793273
v -0.12871799 -0.22398113 -0.16128661
v -0.12824292 0.15845415 -0.20824362
v -0.18400007 -0.94794777 -0.06608488
v -0.13173891 -0.22781067 -0.16081621
v -0.12995551 -0.22554993 -0.16109397
v -0.12995551 -0.22554993 -0.16109397
v -0.12871799 -0.22398113 -0.16128661
v -0.18400007 -0.94794777 -0.06608488
v -0.15834581 -0.23775958 -0.15959479
v -0.12871799 -0.22398113 -0.16128661
v -0.12995551 -0.22554993 -0.16109397
v -0.12995551 -0.22554993 -0.16109397
v -0.14814810 -0.23565399 -0.15985323
v -0.15834581 -0.23775958 -0.15959479
v -0.13054643 0.16212884 -0.20869495
v -0.15986556 0.17398908 -0.21015121
v -0.13244857 0.16417362 -0.20894600
v -0.13054643 0.16212884 -0.20869495
v -0.12871799 -0.22398113 -0.16128661
v -0.15986556 0.17398908 -0.21015121
v -0.13054643 0.16212884 -0.20869495
v -0.12824292 0.15845415 -0.20824362
v -0.12871799 -0.22398113 -0.16128661
v -0.13054643 0.16212884 -0.20869495
v -0.12929624 0.16078489 -0.20852973
v -0.12824292 0.15845415 -0.20824362
v -0.13054643 0.16212884 -0.20869495
v -0.13244857 0.16417362 -0.20894600
v -0.13699998 0.40105228 -0.17594172
v -0.13054643 0.16212884 -0.20869495
v -0.13699998 0.40105228 -0.17594172
v -0.12929624 0.16078489 -0.20852973
v -0.23986305 -0.22262709 -0.16145279
v -0.23998484 -0.22228293 -0.16149499
v -0.23995246 -0.22092234 -0.16166212
v -0.23995246 -0.22092234 -0.16166212
v -0.23774202 -0.22631101 -0.16100051
v -0.23986305 -0.22262709 -0.16145279
v -0.23986305 -0.22262709 -0.16145279
v -0.18400007 -0.94794777 -0.06608488
v -0.23998484 -0.22228293 -0.16149499
v -0.23986305 -0.22262709 -0.16145279
v -0.23774202 -0.22631101 -0.16100051
v -0.18400007 -0.94794777 -0.06608488
v -0.23314827 -0.23011951 -0.16053273
v -0.22425237 -0.23425459 -0.16002513
v -0.18400007 -0.94794777 -0.06608488
v -0.18399578 -0.23988598 -0.15933372
v -0.18400007 -0.94794777 -0.06608488
v -0.19621645 -0.23963844 -0.15936400
v -0.19621645 -0.23963844 -0.15936400
v -0.21190755 -0.23754923 -0.15962054
v -0.18399578 -0.23988598 -0.15933372
v -0.19621645 -0.23963844 -0.15936400
v -0.18400007 -0.94794777 -0.06608488
v -0.21190755 -0.23754923 -0.15962054
v -0.18612885 -0.20175384 -0.16401578
v -0.21349723 -0.21853839 -0.16195489
v -0.22442997 0.15925694 -0.20834233
v -0.21349723 -0.21853839 -0.16195489
v -0.18612885 -0.20175384 -0.16401578
v -0.21347619 -0.22428601 -0.16124918
v -0.21349723 -0.21853839 -0.16195489
v -0.23992645 0.15766480 -0.20814683
v -0.22442997 0.15925694 -0.20834233
v -0.21349723 -0.21853839 -0.16195489
v -0.23539029 -0.21329932 -0.16259815
v -0.23992645 0.15766480 -0.20814683
v -0.21349723 -0.21853839 -0.16195489
v -0.21347619 -0.22428601 -0.16124918
v -0.23539029 -0.21329932 -0.16259815
v -0.00250001 -0.21101522 -0.14614536
v 0.00000000 0.00005226 -0.14494158
v -0.00000002 -0.26246053 -0.13959624
v -0.00250001 -0.21101522 -0.14614536
v -0.00000002 -0.26246053 -0.13959624
v -0.00584937 -0.22205210 -0.15201356
v -0.00584937 -0.22205210 -0.15201356
v 0.00000000 0.00005226 -0.14494158
v -0.00250001 -0.21101522 -0.14614536
v -0.00000002 -0.29657692 -0.02061822
v -0.00000002 -0.28385181 -0.06499626
v 0.00000036 -0.27441699 -0.09668590
v 0.00000001 0.09931158 0.10575889
v 0.00000000 0.06990655 0.12712286
v 0.00000036 -0.27441699 -0.09668590
v 0.00000001 0.08528112 -0.11724903
v 0.00000001 0.11177669 -0.09236814
v 0.00000036 -0.27441699 -0.09668590
v 0.00000036 -0.27441699 -0.09668590
v -0.00000000 -0.06980204 0.12712286
v -0.00000002 -0.29657692 -0.02061822
v -0.00000002 -0.28385181 -0.06499626
v -0.00000002 -0.26246053 -0.13959624
v 0.00000036 -0.27441699 -0.09668590
v 0.00000036 -0.27441699 -0.09668590
v 0.00000001 0.14476613 0.00916301
v 0.00000001 0.13795545 0.04486583
v 0.00000000 0.06990655 0.12712286
v 0.00000000 0.03611229 0.14050291
v 0.00000036 -0.27441699 -0.09668590
v 0.00000001 0.11177669 -0.09236814
v 0.00000001 0.13125218 -0.06167962
v 0.00000036 -0.27441699 -0.09668590
v 0.00000036 -0.27441699 -0.09668590
v -0.00000000 -0.03600778 0.14050291
v -0.00000000 -0.06980204 0.12712286
v 0.00000036 -0.27441699 -0.09668590
v 0.00000001 0.13125218 -0.06167962
v 0.00000001 0.14248391 -0.02711178
v 0.00000000 0.01822557 -0.14379813
v 0.00000000 0.05343031 -0.13475920
v 0.00000036 -0.27441699 -0.09668590
v 0.00000001 0.13795545 0.04486583
v 0.00000001 0.12247980 0.07775329
v 0.00000036 -0.27441699 -0.09668590
v -0.00000000 -0.03600778 0.14050291
v 0.00000036 -0.27441699 -0.09668590
v 0.00000000 0.00005226 0.14505838
v 0.00000036 -0.27441699 -0.09668590
v 0.00000000 0.05343031 -0.13475920
v 0.00000001 0.08528112 -0.11724903
v 0.00000001 0.14248391 -0.02711178
v 0.00000001 0.14476613 0.00916301
v 0.00000036 -0.27441699 -0.09668590
v 0.00000036 -0.27441699 -0.09668590
v 0.00000001 0.12247980 0.07775329
v 0.00000001 0.09931158 0.10575889
v 0.00000036 -0.27441699 -0.09668590
v 0.00000000 0.03611229 0.14050291
v 0.00000000 0.00005226 0.14505838
v -0.00000002 -0.26246053 -0.13959624
v 0.00000000 0.00005226 -0.14494158
v 0.00000036 -0.27441699 -0.09668590
v 0.00000036 -0.27441699 -0.09668590
v 0.00000000 0.00005226 -0.14494158
v 0.00000000 0.01822557 -0.14379813
v -0.08331415 -0.95794777 -0.00769950
v -0.08119253 -0.94794778 -0.00902201
v -0.07274209 -0.95794777 0.01385294
v -0.09800829 -0.95794777 -0.02668287
v -0.08119253 -0.94794778 -0.00902201
v -0.08331415 -0.95794777 -0.00769950
v -0.00000002 -0.26246053 -0.13959624
v -0.08119253 -0.94794778 -0.00902201
v -0.09619630 -0.94794778 -0.02840520
v -0.09619630 -0.94794778 -0.02840520
v -0.08119253 -0.94794778 -0.00902201
v -0.09800829 -0.95794777 -0.02668287
v -0.09619630 -0.94794778 -0.02840520
v -0.11479477 -0.94794778 -0.04437162
v -0.00000002 -0.26246053 -0.13959624
v -0.09619630 -0.94794778 -0.02840520
v -0.09800829 -0.95794777 -0.02668287
v -0.11479477 -0.94794778 -0.04437162
v -0.12318632 0.20617605 0.31846571
v -0.13423986 0.20750587 0.32019973
v -0.08900001 -0.05507152 0.30837870
v -0.08900001 -0.05507152 0.30837870
v -0.11039014 0.20463656 0.31645811
v -0.12318632 0.20617605 0.31846571
v -0.12318632 0.20617605 0.31846571
v -0.13699998 0.40105228 0.28605843
v -0.13423986 0.20750587 0.32019973
v -0.12318632 0.20617605 0.31846571
v -0.11039014 0.20463656 0.31645811
v -0.13699998 0.40105228 0.28605843
v -0.14058262 0.20802099 0.32086730
v -0.13423986 0.20750587 0.32019973
v -0.13699998 0.40105228 0.28605843
v -0.14058262 0.20802099 0.32086730
v -0.13699998 0.40105228 0.28605843
v -0.15053443 0.20882921 0.32191455
v -0.13423986 0.20750587 0.32019973
v -0.14058262 0.20802099 0.32086730
v -0.08900001 -0.05507152 0.30837870
v -0.14058262 0.20802099 0.32086730
v -0.15053443 0.20882921 0.32191455
v -0.08900001 -0.05507152 0.30837870
v -0.15357105 0.20895431 0.32207644
v -0.17528187 0.20984868 0.32323325
v -0.08900001 -0.05507152 0.30837870
v -0.08900001 -0.05507152 0.30837870
v -0.15053443 0.20882921 0.32191455
v -0.15357105 0.20895431 0.32207644
v -0.15357105 0.20895431 0.32207644
v -0.13699998 0.40105228 0.28605843
v -0.17528187 0.20984868 0.32323325
v -0.15357105 0.20895431 0.32207644
v -0.15053443 0.20882921 0.32191455
v -0.13699998 0.40105228 0.28605843
v -0.14773425 -0.94794777 0.17064594
v -0.08900001 -0.07892050 0.30434906
v -0.08900001 -0.07759638 0.30458391
v -0.08900001 -0.07759638 0.30458391
v -0.08900001 -0.05892555 0.30789471
v -0.14773425 -0.94794777 0.17064594
v -0.08900001 -0.07759638 0.30458391
v -0.08900001 -0.07892050 0.30434906
v -0.00000000 -0.03600778 0.14050291
v -0.08900001 -0.05892555 0.30789471
v -0.08900001 -0.07759638 0.30458391
v -0.00000000 -0.03600778 0.14050291
v -0.13783666 -0.23177790 -0.16032912
v -0.14814810 -0.23565399 -0.15985323
v -0.12995551 -0.22554993 -0.16109397
v -0.13783666 -0.23177790 -0.16032912
v -0.18400007 -0.94794777 -0.06608488
v -0.14814810 -0.23565399 -0.15985323
v -0.13783666 -0.23177790 -0.16032912
v -0.12995551 -0.22554993 -0.16109397
v -0.13173891 -0.22781067 -0.16081621
v -0.13783666 -0.23177790 -0.16032912
v -0.13173891 -0.22781067 -0.16081621
v -0.18400007 -0.94794777 -0.06608488
v -0.23338581 -0.22992258 -0.16055705
v -0.23774202 -0.22631101 -0.16100051
v -0.22425237 -0.23425459 -0.16002513
v -0.22425237 -0.23425459 -0.16002513
v -0.23314827 -0.23011951 -0.16053273
v -0.23338581 -0.22992258 -0.16055705
v -0.23338581 -0.22992258 -0.16055705
v -0.18400007 -0.94794777 -0.06608488
v -0.23774202 -0.22631101 -0.16100051
v -0.23338581 -0.22992258 -0.16055705
v -0.23314827 -0.23011951 -0.16053273
v -0.18400007 -0.94794777 -0.06608488
v -0.47700003 -0.02846690 0.08164214
v -0.47700002 0.07231321 -0.04735042
v -0.47700002 0.02857147 -0.08152534
v -0.47700003 -0.08153146 -0.02846076
v -0.47700003 -0.07220866 0.04746734
v -0.47700003 -0.02846690 0.08164214
v -0.47700002 0.08163600 0.02857755
v -0.47700003 -0.02846690 0.08164214
v -0.47700002 0.04746120 0.07231937
v -0.47700003 -0.02846690 0.08164214
v -0.47700003 -0.04735666 -0.07220246
v -0.47700003 -0.08153146 -0.02846076
v -0.47700003 -0.02846690 0.08164214
v -0.47700002 0.02857147 -0.08152534
v -0.47700003 -0.04735666 -0.07220246
v -0.47700003 -0.02846690 0.08164214
v -0.47700002 0.08163600 0.02857755
v -0.47700002 0.07231321 -0.04735042
v -0.23399999 0.40525230 0.21505843
v -0.25499999 0.40105229 -0.15194155
v -0.25499999 0.40105229 0.26205838
v -0.23399999 0.40525230 0.21505843
v -0.23399999 0.40525230 -0.10494162
v -0.25499999 0.40105229 -0.15194155
v -0.13399999 0.40525229 -0.10494162
v -0.13399999 0.40525229 0.21505843
v -0.11299998 0.40105228 0.26205838
v -0.13399999 0.40525229 -0.10494162
v -0.11299998 0.40105228 0.26205838
v -0.11299998 0.40105228 -0.15194155
v -0.17287395 0.40525230 0.26380479
v -0.16230580 0.40525230 0.26010680
v -0.14490841 0.40525229 0.24623285
v -0.13525359 0.40525229 0.22618447
v -0.13399999 0.40525229 0.21505843
v -0.14490841 0.40525229 0.24623285
v -0.21517448 0.40525230 -0.14403321
v -0.22309156 0.40525230 -0.13611604
v -0.14490841 0.40525229 0.24623285
v -0.22904844 0.40525230 -0.12663580
v -0.23274638 0.40525230 -0.11606766
v -0.14490841 0.40525229 0.24623285
v -0.18399999 0.40525230 -0.15494157
v -0.19512603 0.40525230 -0.15368797
v -0.14490841 0.40525229 0.24623285
v -0.14490841 0.40525229 0.24623285
v -0.23274638 0.40525230 -0.11606766
v -0.23399999 0.40525230 -0.10494162
v -0.14490841 0.40525229 0.24623285
v -0.23399999 0.40525230 0.21505843
v -0.23274638 0.40525230 0.22618447
v -0.20569417 0.40525230 -0.14999010
v -0.21517448 0.40525230 -0.14403321
v -0.14490841 0.40525229 0.24623285
v -0.13525359 0.40525229 -0.11606766
v -0.13895154 0.40525229 -0.12663580
v -0.14490841 0.40525229 0.24623285
v -0.14490841 0.40525229 0.24623285
v -0.13399999 0.40525229 -0.10494162
v -0.13525359 0.40525229 -0.11606766
v -0.14490841 0.40525229 0.24623285
v -0.15282549 0.40525229 -0.14403321
v -0.16230580 0.40525230 -0.14999010
v -0.14490841 0.40525229 0.24623285
v -0.19512603 0.40525230 -0.15368797
v -0.20569417 0.40525230 -0.14999010
v -0.14490841 0.40525229 0.24623285
v -0.22309156 0.40525230 -0.13611604
v -0.22904844 0.40525230 -0.12663580
v -0.22904844 0.40525230 0.23675261
v -0.22309156 0.40525230 0.24623285
v -0.14490841 0.40525229 0.24623285
v -0.23399999 0.40525230 -0.10494162
v -0.23399999 0.40525230 0.21505843
v -0.14490841 0.40525229 0.24623285
v -0.16230580 0.40525230 -0.14999010
v -0.17287395 0.40525230 -0.15368797
v -0.14490841 0.40525229 0.24623285
v -0.14490841 0.40525229 0.24623285
v -0.20569417 0.40525230 0.26010680
v -0.19512603 0.40525230 0.26380479
v -0.13399999 0.40525229 0.21505843
v -0.13399999 0.40525229 -0.10494162
v -0.14490841 0.40525229 0.24623285
v -0.23274638 0.40525230 0.22618447
v -0.22904844 0.40525230 0.23675261
v -0.14490841 0.40525229 0.24623285
v -0.14490841 0.40525229 0.24623285
v -0.19512603 0.40525230 0.26380479
v -0.18399999 0.40525230 0.26505840
v -0.18399999 0.40525230 0.26505840
v -0.17287395 0.40525230 0.26380479
v -0.14490841 0.40525229 0.24623285
v -0.14490841 0.40525229 0.24623285
v -0.13895154 0.40525229 0.23675261
v -0.13525359 0.40525229 0.22618447
v -0.14490841 0.40525229 0.24623285
v -0.13895154 0.40525229 -0.12663580
v -0.14490841 0.40525229 -0.13611604
v -0.14490841 0.40525229 0.24623285
v -0.17287395 0.40525230 -0.15368797
v -0.18399999 0.40525230 -0.15494157
v -0.14490841 0.40525229 -0.13611604
v -0.15282549 0.40525229 -0.14403321
v -0.14490841 0.40525229 0.24623285
v -0.14490841 0.40525229 0.24623285
v -0.22309156 0.40525230 0.24623285
v -0.21517448 0.40525230 0.25415003
v -0.21517448 0.40525230 0.25415003
v -0.20569417 0.40525230 0.26010680
v -0.14490841 0.40525229 0.24623285
v -0.14490841 0.40525229 0.24623285
v -0.16230580 0.40525230 0.26010680
v -0.15282549 0.40525229 0.25415003
v -0.08331415 -0.95794777 -0.00769950
v -0.06672496 -0.95794777 0.03709255
v -0.06550908 -0.95794777 0.06106757
v -0.21951748 -0.95794776 0.16826056
v -0.24157788 -0.95794776 0.15879367
v -0.08331415 -0.95794777 -0.00769950
v -0.29885589 -0.95794776 0.08479665
v -0.30249105 -0.95794776 0.06106757
v -0.08331415 -0.95794777 -0.00769950
v -0.08331415 -0.95794777 -0.00769950
v -0.09017986 -0.95794777 0.12768064
v -0.10671911 -0.95794777 0.14507996
v -0.08331415 -0.95794777 -0.00769950
v -0.14848264 -0.95794777 0.16826056
v -0.17199712 -0.95794776 0.17309295
v -0.08331415 -0.95794777 -0.00769950
v -0.23078774 -0.95794776 -0.05396964
v -0.20788279 -0.95794776 -0.06115629
v -0.28468598 -0.95794776 -0.00769950
v -0.26999186 -0.95794776 -0.02668287
v -0.08331415 -0.95794777 -0.00769950
v -0.06550908 -0.95794777 0.06106757
v -0.06914424 -0.95794777 0.08479665
v -0.08331415 -0.95794777 -0.00769950
v -0.08331415 -0.95794777 -0.00769950
v -0.24157788 -0.95794776 0.15879367
v -0.26128103 -0.95794776 0.14507996
v -0.08331415 -0.95794777 -0.00769950
v -0.27782027 -0.95794776 0.12768064
v -0.29051854 -0.95794776 0.10730825
v -0.17199712 -0.95794776 0.17309295
v -0.19600301 -0.95794776 0.17309295
v -0.08331415 -0.95794777 -0.00769950
v -0.08331415 -0.95794777 -0.00769950
v -0.10671911 -0.95794777 0.14507996
v -0.12642226 -0.95794777 0.15879367
v -0.26128103 -0.95794776 0.14507996
v -0.27782027 -0.95794776 0.12768064
v -0.08331415 -0.95794777 -0.00769950
v -0.12642226 -0.95794777 0.15879367
v -0.14848264 -0.95794777 0.16826056
v -0.08331415 -0.95794777 -0.00769950
v -0.08331415 -0.95794777 -0.00769950
v -0.19600301 -0.95794776 0.17309295
v -0.21951748 -0.95794776 0.16826056
v -0.07274209 -0.95794777 0.01385294
v -0.06672496 -0.95794777 0.03709255
v -0.08331415 -0.95794777 -0.00769950
v -0.08331415 -0.95794777 -0.00769950
v -0.06914424 -0.95794777 0.08479665
v -0.07748161 -0.95794777 0.10730825
v -0.07748161 -0.95794777 0.10730825
v -0.09017986 -0.95794777 0.12768064
v -0.08331415 -0.95794777 -0.00769950
v -0.08331415 -0.95794777 -0.00769950
v -0.11622294 -0.95794777 -0.04231955
v -0.09800829 -0.95794777 -0.02668287
v -0.29051854 -0.95794776 0.10730825
v -0.29885589 -0.95794776 0.08479665
v -0.08331415 -0.95794777 -0.00769950
v -0.08331415 -0.95794777 -0.00769950
v -0.30249105 -0.95794776 0.06106757
v -0.30127518 -0.95794776 0.03709255
v -0.08331415 -0.95794777 -0.00769950
v -0.29525803 -0.95794776 0.01385294
v -0.28468598 -0.95794776 -0.00769950
v -0.08331415 -0.95794777 -0.00769950
v -0.13721240 -0.95794777 -0.05396964
v -0.11622294 -0.95794777 -0.04231955
v -0.08331415 -0.95794777 -0.00769950
v -0.26999186 -0.95794776 -0.02668287
v -0.25177718 -0.95794776 -0.04231955
v -0.30127518 -0.95794776 0.03709255
v -0.29525803 -0.95794776 0.01385294
v -0.08331415 -0.95794777 -0.00769950
v -0.18400007 -0.95794776 -0.06358482
v -0.08331415 -0.95794777 -0.00769950
v -0.20788279 -0.95794776 -0.06115629
v -0.25177718 -0.95794776 -0.04231955
v -0.23078774 -0.95794776 -0.05396964
v -0.08331415 -0.95794777 -0.00769950
v -0.08331415 -0.95794777 -0.00769950
v -0.18400007 -0.95794776 -0.06358482
v -0.16011735 -0.95794776 -0.06115629
v -0.16011735 -0.95794776 -0.06115629
v -0.13721240 -0.95794777 -0.05396964
v -0.08331415 -0.95794777 -0.00769950
f 1 2 3
f 4 5 6
f 7 8 9
f 10 11 12
f 13 14 15
f 16 17 18
f 19 20 21
f 22 23 24
f 25 26 27
f 28 29 30
f 31 32 33
f 34 35 36
f 37 38 39
f 40 41 42
f 43 44 45
f 46 47 48
f 49 50 51
f 52 53 54
f 55 56 57
f 58 59 60
f 61 62 63
f 64 65 66
f 67 68 69
f 70 71 72
f 73 74 75
f 76 77 78
f 79 80 81
f 82 83 84
f 85 86 87
f 88 89 90
f 91 92 93
f 94 95 96
f 97 98 99
f 100 101 102
f 103 104 105
f 106 107 108
f 109 110 111
f 112 113 114
f 115 116 117
f 118 119 120
f 121 122 123
f 124 125 126
f 127 128 129
f 130 131 132
f 133 134 135
f 136 137 138
f 139 140 141
f 142 143 144
f 145 146 147
f 148 149 150
f 151 152 153
f 154 155 156
f 157 158 159
f 160 161 162
f 163 164 165
f 166 167 168
f 169 170 171
f 172 173 174
f 175 176 177
f 178 179 180
f 181 182 183
f 184 185 186
f 187 188 189
f 190 191 192
f 193 194 195
f 196 197 198
f 199 200 201
f 202 203 204
f 205 206 207
f 208 209 210
f 211 212 213
f 214 215 216
f 217 218 219
f 220 221 222
f 223 224 225
f 226 227 228
f 229 230 231
f 232 233 234
f 235 236 237
f 238 239 240
f 241 242 243
f 244 245 246
f 247 248 249
f 250 251 252
f 253 254 255
f 256 257 258
f 259 260 261
f 262 263 264
f 265 266 267
f 268 269 270
f 271 272 273
f 274 275 276
f 277 278 279
f 280 281 282
f 283 284 285
f 286 287 288
f 289 290 291
f 292 293 294
f 295 296 297
f 298 299 300
f 301 302 303
f 304 305 306
f 307 308 309
f 310 311 312
f 313 314 315
f 316 317 318
f 319 320 321
f 322 323 324
f 325 326 327
f 328 329 330
f 331 332 333
f 334 335 336
f 337 338 339
f 340 341 342
f 343 344 345
f 346 347 348
f 349 350 351
f 352 353 354
f 355 356 357
f 358 359 360
f 361 362 363
f 364 365 366
f 367 368 369
f 370 371 372
f 373 374 375
f 376 377 378
f 379 380 381
f 382 383 384
f 385 386 387
f 388 389 390
f 391 392 393
f 394 395 396
f 397 398 399
f 400 401 402
f 403 404 405
f 406 407 408
f 409 410 411
f 412 413 414
f 415 416 417
f 418 419 420
f 421 422 423
f 424 425 426
f 427 428 429
f 430 431 432
f 433 434 435
f 436 437 438
f 439 440 441
f 442 443 444
f 445 446 447
f 448 449 450
f 451 452 453
f 454 455 456
f 457 458 459
f 460 461 462
f 463 464 465
f 466 467 468
f 469 470 471
f 472 473 474
f 475 476 477
f 478 479 480
f 481 482 483
f 484 485 486
f 487 488 489
f 490 491 492
f 493 494 495
f 496 497 498
f 499 500 501
f 502 503 504
f 505 506 507
f 508 509 510
f 511 512 513
f 514 515 516
f 517 518 519
f 520 521 522
f 523 524 525
f 526 527 528
f 529 530 531
f 532 533 534
f 535 536 537
f 538 539 540
f 541 542 543
f 544 545 546
f 547 548 549
f 550 551 552
f 553 554 555
f 556 557 558
f 559 560 561
f 562 563 564
f 565 566 567
f 568 569 570
f 571 572 573
f 574 575 576
f 577 578 579
f 580 581 582
f 583 584 585
f 586 587 588
f 589 590 591
f 592 593 594
f 595 596 597
f 598 599 600
f 601 602 603
f 604 605 606
f 607 608 609
f 610 611 612
f 613 614 615
f 616 617 618
f 619 620 621
f 622 623 624
f 625 626 627
f 628 629 630
f 631 632 633
f 634 635 636
f 637 638 639
f 640 641 642
f 643 644 645
f 646 647 648
f 649 650 651
f 652 653 654
f 655 656 657
f 658 659 660
f 661 662 663
f 664 665 666
f 667 668 669
f 670 671 672
f 673 674 675
f 676 677 678
f 679 680 681
f 682 683 684
f 685 686 687
f 688 689 690
f 691 692 693
f 694 695 696
f 697 698 699
f 700 701 702
f 703 704 705
f 706 707 708
f 709 710 711
f 712 713 714
f 715 716 717
f 718 719 720
f 721 722 723
f 724 725 726
f 727 728 729
f 730 731 732
f 733 734 735
f 736 737 738
f 739 740 741
f 742 743 744
f 745 746 747
f 748 749 750
f 751 752 753
f 754 755 756
f 757 758 759
f 760 761 762
f 763 764 765
f 766 767 768
f 769 770 771
f 772 773 774
f 775 776 777
f 778 779 780
f 781 782 783
f 784 785 786
f 787 788 789
f 790 791 792
f 793 794 795
f 796 797 798
f 799 800 801
f 802 803 804
f 805 806 807
f 808 809 810
f 811 812 813
f 814 815 816
f 817 818 819
f 820 821 822
f 823 824 825
f 826 827 828
f 829 830 831
f 832 833 834
f 835 836 837
f 838 839 840
f 841 842 843
f 844 845 846
f 847 848 849
f 850 851 852
f 853 854 855
f 856 857 858
f 859 860 861
f 862 863 864
f 865 866 867
f 868 869 870
f 871 872 873
f 874 875 876
f 877 878 879
f 880 881 882
f 883 884 885
f 886 887 888
f 889 890 891
f 892 893 894
f 895 896 897
f 898 899 900
f 901 902 903
f 904 905 906
f 907 908 909
f 910 911 912
f 913 914 915
f 916 917 918
f 919 920 921
f 922 923 924
f 925 926 927
f 928 929 930
f 931 932 933
f 934 935 936
f 937 938 939
f 940 941 942
f 943 944 945
f 946 947 948
f 949 950 951
f 952 953 954
f 955 956 957
f 958 959 960
f 961 962 963
f 964 965 966
f 967 968 969
f 970 971 972
f 973 974 975
f 976 977 978
f 979 980 981
f 982 983 984
f 985 986 987
f 988 989 990
f 991 992 993
f 994 995 996
f 997 998 999
f 1000 1001 1002
f 1003 1004 1005
f 1006 1007 1008
f 1009 1010 1011
f 1012 1013 1014
f 1015 1016 1017
f 1018 1019 1020
f 1021 1022 1023
f 1024 1025 1026
f 1027 1028 1029
f 1030 1031 1032
f 1033 1034 1035
f 1036 1037 1038
f 1039 1040 1041
f 1042 1043 1044
f 1045 1046 1047
f 1048 1049 1050
f 1051 1052 1053
f 1054 1055 1056
f 1057 1058 1059
f 1060 1061 1062
f 1063 1064 1065
f 1066 1067 1068
f 1069 1070 1071
f 1072 1073 1074
f 1075 1076 1077
f 1078 1079 1080
f 1081 1082 1083
f 1084 1085 1086
f 1087 1088 1089
f 1090 1091 1092
f 1093 1094 1095
f 1096 1097 1098
f 1099 1100 1101
f 1102 1103 1104
f 1105 1106 1107
f 1108 1109 1110
f 1111 1112 1113
f 1114 1115 1116
f 1117 1118 1119
f 1120 1121 1122
f 1123 1124 1125
f 1126 1127 1128
f 1129 1130 1131
f 1132 1133 1134
f 1135 1136 1137
f 1138 1139 1140
f 1141 1142 1143
f 1144 1145 1146
f 1147 1148 1149
f 1150 1151 1152
f 1153 1154 1155
f 1156 1157 1158
f 1159 1160 1161
f 1162 1163 1164
f 1165 1166 1167
f 1168 1169 1170
f 1171 1172 1173
f 1174 1175 1176
f 1177 1178 1179
f 1180 1181 1182
f 1183 1184 1185
f 1186 1187 1188
f 1189 1190 1191
f 1192 1193 1194
